G75*
%MOIN*%
%OFA0B0*%
%FSLAX25Y25*%
%IPPOS*%
%LPD*%
%AMOC8*
5,1,8,0,0,1.08239X$1,22.5*
%
%ADD10C,0.01100*%
%ADD11C,0.07400*%
%ADD12C,0.03937*%
%ADD13R,0.08000X0.08000*%
%ADD14C,0.08000*%
%ADD15C,0.01000*%
%ADD16C,0.06000*%
%ADD17C,0.08000*%
%ADD18C,0.00600*%
%ADD19C,0.02900*%
D10*
X0024961Y0065074D02*
X0028239Y0065074D01*
X0026600Y0065074D02*
X0026600Y0070974D01*
X0028239Y0069663D01*
X0030828Y0069007D02*
X0032139Y0065074D01*
X0033450Y0069007D01*
X0019300Y0065893D02*
X0019241Y0066018D01*
X0019186Y0066145D01*
X0019134Y0066272D01*
X0019087Y0066402D01*
X0019042Y0066532D01*
X0019002Y0066664D01*
X0018965Y0066797D01*
X0018933Y0066931D01*
X0018903Y0067065D01*
X0018878Y0067201D01*
X0018857Y0067337D01*
X0018839Y0067474D01*
X0018826Y0067611D01*
X0018816Y0067748D01*
X0018810Y0067886D01*
X0018808Y0068024D01*
X0022085Y0068024D02*
X0022083Y0068162D01*
X0022077Y0068300D01*
X0022067Y0068437D01*
X0022054Y0068574D01*
X0022036Y0068711D01*
X0022015Y0068847D01*
X0021990Y0068983D01*
X0021960Y0069117D01*
X0021928Y0069251D01*
X0021891Y0069384D01*
X0021851Y0069516D01*
X0021806Y0069646D01*
X0021759Y0069776D01*
X0021707Y0069903D01*
X0021652Y0070030D01*
X0021593Y0070155D01*
X0020446Y0070974D02*
X0020378Y0070972D01*
X0020309Y0070966D01*
X0020242Y0070957D01*
X0020175Y0070943D01*
X0020109Y0070926D01*
X0020043Y0070905D01*
X0019980Y0070881D01*
X0019917Y0070853D01*
X0019857Y0070821D01*
X0019798Y0070786D01*
X0019741Y0070748D01*
X0019686Y0070707D01*
X0019634Y0070662D01*
X0019585Y0070615D01*
X0019538Y0070565D01*
X0019494Y0070513D01*
X0019453Y0070458D01*
X0019416Y0070401D01*
X0019381Y0070342D01*
X0019350Y0070281D01*
X0019323Y0070218D01*
X0019299Y0070154D01*
X0019135Y0069663D02*
X0021757Y0066385D01*
X0020446Y0065073D02*
X0020378Y0065075D01*
X0020309Y0065081D01*
X0020242Y0065090D01*
X0020175Y0065104D01*
X0020109Y0065121D01*
X0020043Y0065142D01*
X0019980Y0065166D01*
X0019917Y0065194D01*
X0019857Y0065226D01*
X0019798Y0065261D01*
X0019741Y0065299D01*
X0019686Y0065340D01*
X0019634Y0065385D01*
X0019585Y0065432D01*
X0019538Y0065482D01*
X0019494Y0065534D01*
X0019453Y0065589D01*
X0019416Y0065646D01*
X0019381Y0065705D01*
X0019350Y0065766D01*
X0019323Y0065829D01*
X0019299Y0065893D01*
X0020446Y0065073D02*
X0020514Y0065075D01*
X0020583Y0065081D01*
X0020650Y0065090D01*
X0020717Y0065104D01*
X0020783Y0065121D01*
X0020849Y0065142D01*
X0020912Y0065166D01*
X0020975Y0065194D01*
X0021035Y0065226D01*
X0021094Y0065261D01*
X0021151Y0065299D01*
X0021206Y0065340D01*
X0021258Y0065385D01*
X0021307Y0065432D01*
X0021354Y0065482D01*
X0021398Y0065534D01*
X0021439Y0065589D01*
X0021476Y0065646D01*
X0021511Y0065705D01*
X0021542Y0065766D01*
X0021569Y0065829D01*
X0021593Y0065893D01*
X0018807Y0068024D02*
X0018809Y0068162D01*
X0018815Y0068300D01*
X0018825Y0068437D01*
X0018838Y0068574D01*
X0018856Y0068711D01*
X0018877Y0068847D01*
X0018902Y0068983D01*
X0018932Y0069117D01*
X0018964Y0069251D01*
X0019001Y0069384D01*
X0019041Y0069516D01*
X0019086Y0069646D01*
X0019133Y0069776D01*
X0019185Y0069903D01*
X0019240Y0070030D01*
X0019299Y0070155D01*
X0020446Y0070974D02*
X0020514Y0070972D01*
X0020583Y0070966D01*
X0020650Y0070957D01*
X0020717Y0070943D01*
X0020783Y0070926D01*
X0020849Y0070905D01*
X0020912Y0070881D01*
X0020975Y0070853D01*
X0021035Y0070821D01*
X0021094Y0070786D01*
X0021151Y0070748D01*
X0021206Y0070707D01*
X0021258Y0070662D01*
X0021307Y0070615D01*
X0021354Y0070565D01*
X0021398Y0070513D01*
X0021439Y0070458D01*
X0021476Y0070401D01*
X0021511Y0070342D01*
X0021542Y0070281D01*
X0021569Y0070218D01*
X0021593Y0070154D01*
X0022085Y0068024D02*
X0022083Y0067886D01*
X0022077Y0067748D01*
X0022067Y0067611D01*
X0022054Y0067474D01*
X0022036Y0067337D01*
X0022015Y0067201D01*
X0021990Y0067065D01*
X0021960Y0066931D01*
X0021928Y0066797D01*
X0021891Y0066664D01*
X0021851Y0066532D01*
X0021806Y0066402D01*
X0021759Y0066272D01*
X0021707Y0066145D01*
X0021652Y0066018D01*
X0021593Y0065893D01*
D11*
X0015000Y0102524D03*
X0015000Y0112524D03*
X0015000Y0122524D03*
X0015000Y0132524D03*
X0015000Y0142524D03*
X0015000Y0152524D03*
X0015000Y0162524D03*
X0015000Y0172524D03*
X0015000Y0182524D03*
X0015000Y0192524D03*
X0015000Y0207524D03*
X0015000Y0217524D03*
X0015000Y0227524D03*
X0015000Y0237524D03*
X0015000Y0247524D03*
X0015000Y0257524D03*
X0015000Y0267524D03*
X0015000Y0277524D03*
X0035000Y0277524D03*
X0035000Y0267524D03*
X0035000Y0257524D03*
X0045000Y0257524D03*
X0045000Y0267524D03*
X0045000Y0277524D03*
X0045000Y0247524D03*
X0045000Y0237524D03*
X0045000Y0227524D03*
X0035000Y0227524D03*
X0035000Y0237524D03*
X0035000Y0247524D03*
X0035000Y0217524D03*
X0035000Y0207524D03*
X0045000Y0207524D03*
X0045000Y0217524D03*
X0045000Y0192524D03*
X0045000Y0182524D03*
X0035000Y0182524D03*
X0035000Y0192524D03*
X0035000Y0172524D03*
X0035000Y0162524D03*
X0035000Y0152524D03*
X0045000Y0152524D03*
X0045000Y0162524D03*
X0045000Y0172524D03*
X0045000Y0142524D03*
X0045000Y0132524D03*
X0035000Y0132524D03*
X0035000Y0142524D03*
X0035000Y0122524D03*
X0035000Y0112524D03*
X0035000Y0102524D03*
X0045000Y0102524D03*
X0045000Y0112524D03*
X0045000Y0122524D03*
X0104500Y0152524D03*
X0104500Y0162524D03*
X0104500Y0172524D03*
X0104500Y0182524D03*
X0104500Y0192524D03*
X0104500Y0202524D03*
X0104500Y0212524D03*
X0104500Y0222524D03*
X0115500Y0222524D03*
X0115500Y0212524D03*
X0115500Y0202524D03*
X0115500Y0192524D03*
X0115500Y0182524D03*
X0115500Y0172524D03*
X0115500Y0162524D03*
X0115500Y0152524D03*
X0175000Y0157524D03*
X0175000Y0147524D03*
X0175000Y0137524D03*
X0175000Y0127524D03*
X0175000Y0117524D03*
X0175000Y0107524D03*
X0185000Y0147524D03*
X0185000Y0157524D03*
X0185000Y0167524D03*
X0185000Y0177524D03*
X0185000Y0187524D03*
X0185000Y0197524D03*
X0185000Y0207524D03*
X0185000Y0227524D03*
X0185000Y0237524D03*
X0185000Y0247524D03*
X0185000Y0257524D03*
X0185000Y0267524D03*
X0185000Y0277524D03*
X0175000Y0277524D03*
X0175000Y0267524D03*
X0175000Y0257524D03*
X0175000Y0247524D03*
X0175000Y0237524D03*
X0175000Y0227524D03*
X0205000Y0227524D03*
X0205000Y0237524D03*
X0205000Y0247524D03*
X0205000Y0257524D03*
X0205000Y0267524D03*
X0205000Y0277524D03*
X0205000Y0207524D03*
X0205000Y0197524D03*
X0205000Y0187524D03*
X0205000Y0177524D03*
X0205000Y0167524D03*
X0205000Y0157524D03*
X0205000Y0147524D03*
X0205000Y0137524D03*
X0175000Y0167524D03*
D12*
X0210000Y0077524D03*
X0020000Y0287524D03*
D13*
X0100000Y0077524D03*
D14*
X0119685Y0077524D03*
D15*
X0015870Y0064624D02*
X0007100Y0073393D01*
X0007100Y0286654D01*
X0015870Y0295424D01*
X0204130Y0295424D01*
X0212900Y0286654D01*
X0212900Y0079812D01*
X0212078Y0080634D01*
X0210730Y0081192D01*
X0209270Y0081192D01*
X0207922Y0080634D01*
X0206890Y0079602D01*
X0206331Y0078253D01*
X0206331Y0076794D01*
X0206890Y0075446D01*
X0207712Y0074624D01*
X0159130Y0074624D01*
X0157900Y0073393D01*
X0157900Y0064624D01*
X0034429Y0064624D01*
X0034568Y0064901D01*
X0034511Y0065074D01*
X0035879Y0069180D01*
X0035046Y0070847D01*
X0033277Y0071436D01*
X0032139Y0070867D01*
X0031000Y0071436D01*
X0030029Y0071112D01*
X0028103Y0072653D01*
X0027532Y0073224D01*
X0027390Y0073224D01*
X0027278Y0073313D01*
X0026476Y0073224D01*
X0025668Y0073224D01*
X0025567Y0073123D01*
X0025426Y0073107D01*
X0024921Y0072477D01*
X0024350Y0071906D01*
X0024350Y0071763D01*
X0024261Y0071651D01*
X0024350Y0070849D01*
X0024350Y0067324D01*
X0024335Y0067324D01*
X0024335Y0068956D01*
X0024299Y0068992D01*
X0023971Y0070412D01*
X0023677Y0071015D01*
X0023362Y0071934D01*
X0021556Y0073224D01*
X0019337Y0073224D01*
X0017531Y0071934D01*
X0017531Y0071934D01*
X0017531Y0071934D01*
X0017216Y0071015D01*
X0017210Y0071004D01*
X0017002Y0070837D01*
X0016964Y0070500D01*
X0016922Y0070412D01*
X0016594Y0068992D01*
X0016557Y0068956D01*
X0016557Y0067092D01*
X0016594Y0067055D01*
X0016922Y0065635D01*
X0017216Y0065032D01*
X0017356Y0064624D01*
X0015870Y0064624D01*
X0014974Y0065519D02*
X0016978Y0065519D01*
X0016922Y0065635D02*
X0016922Y0065635D01*
X0016718Y0066518D02*
X0013976Y0066518D01*
X0012977Y0067516D02*
X0016557Y0067516D01*
X0016557Y0068515D02*
X0011979Y0068515D01*
X0010980Y0069513D02*
X0016714Y0069513D01*
X0016922Y0070412D02*
X0016922Y0070412D01*
X0016966Y0070512D02*
X0009982Y0070512D01*
X0008983Y0071510D02*
X0017385Y0071510D01*
X0018336Y0072509D02*
X0007985Y0072509D01*
X0007100Y0073507D02*
X0094500Y0073507D01*
X0094500Y0073326D02*
X0094602Y0072945D01*
X0094800Y0072603D01*
X0095079Y0072323D01*
X0095421Y0072126D01*
X0095803Y0072024D01*
X0099500Y0072024D01*
X0099500Y0077024D01*
X0094500Y0077024D01*
X0094500Y0073326D01*
X0094894Y0072509D02*
X0028283Y0072509D01*
X0029531Y0071510D02*
X0157900Y0071510D01*
X0157900Y0070512D02*
X0035213Y0070512D01*
X0035712Y0069513D02*
X0157900Y0069513D01*
X0157900Y0068515D02*
X0035658Y0068515D01*
X0035325Y0067516D02*
X0157900Y0067516D01*
X0157900Y0066518D02*
X0034992Y0066518D01*
X0034659Y0065519D02*
X0157900Y0065519D01*
X0157900Y0072509D02*
X0122473Y0072509D01*
X0122914Y0072691D02*
X0124517Y0074295D01*
X0124832Y0074610D01*
X0125700Y0076705D01*
X0125700Y0105163D01*
X0154832Y0134295D01*
X0155700Y0136390D01*
X0155700Y0195163D01*
X0162361Y0201824D01*
X0182072Y0201824D01*
X0181612Y0201490D01*
X0181034Y0200911D01*
X0180553Y0200249D01*
X0180181Y0199520D01*
X0179928Y0198741D01*
X0179814Y0198024D01*
X0184500Y0198024D01*
X0184500Y0197024D01*
X0179814Y0197024D01*
X0179928Y0196306D01*
X0180181Y0195528D01*
X0180553Y0194798D01*
X0181034Y0194136D01*
X0181612Y0193557D01*
X0182275Y0193076D01*
X0183004Y0192705D01*
X0183561Y0192524D01*
X0183004Y0192343D01*
X0182275Y0191971D01*
X0181612Y0191490D01*
X0181034Y0190911D01*
X0180553Y0190249D01*
X0180181Y0189520D01*
X0179928Y0188741D01*
X0179814Y0188024D01*
X0184500Y0188024D01*
X0184500Y0197024D01*
X0185500Y0197024D01*
X0185500Y0198024D01*
X0190186Y0198024D01*
X0190072Y0198741D01*
X0189819Y0199520D01*
X0189447Y0200249D01*
X0188966Y0200911D01*
X0188388Y0201490D01*
X0187928Y0201824D01*
X0202072Y0201824D01*
X0201612Y0201490D01*
X0201034Y0200911D01*
X0200553Y0200249D01*
X0200181Y0199520D01*
X0199928Y0198741D01*
X0199814Y0198024D01*
X0204500Y0198024D01*
X0204500Y0197024D01*
X0199814Y0197024D01*
X0199928Y0196306D01*
X0200181Y0195528D01*
X0200553Y0194798D01*
X0201034Y0194136D01*
X0201612Y0193557D01*
X0202275Y0193076D01*
X0203004Y0192705D01*
X0203561Y0192524D01*
X0203004Y0192343D01*
X0202275Y0191971D01*
X0201612Y0191490D01*
X0201034Y0190911D01*
X0200553Y0190249D01*
X0200181Y0189520D01*
X0199928Y0188741D01*
X0199814Y0188024D01*
X0204500Y0188024D01*
X0204500Y0197024D01*
X0205500Y0197024D01*
X0205500Y0198024D01*
X0210186Y0198024D01*
X0210072Y0198741D01*
X0209819Y0199520D01*
X0209447Y0200249D01*
X0208966Y0200911D01*
X0208388Y0201490D01*
X0207725Y0201971D01*
X0207171Y0202253D01*
X0208229Y0202691D01*
X0209832Y0204295D01*
X0210700Y0206390D01*
X0210700Y0208657D01*
X0209832Y0210752D01*
X0208229Y0212356D01*
X0206134Y0213224D01*
X0158866Y0213224D01*
X0156771Y0212356D01*
X0147000Y0202585D01*
X0147000Y0216695D01*
X0150828Y0220524D01*
X0180828Y0220524D01*
X0182000Y0221695D01*
X0182867Y0222562D01*
X0183926Y0222124D01*
X0186074Y0222124D01*
X0188059Y0222946D01*
X0189578Y0224465D01*
X0189934Y0225324D01*
X0200066Y0225324D01*
X0200422Y0224465D01*
X0201941Y0222946D01*
X0203926Y0222124D01*
X0206074Y0222124D01*
X0208059Y0222946D01*
X0209578Y0224465D01*
X0210400Y0226449D01*
X0210400Y0228598D01*
X0209578Y0230582D01*
X0208059Y0232102D01*
X0207040Y0232524D01*
X0208059Y0232946D01*
X0209578Y0234465D01*
X0210400Y0236449D01*
X0210400Y0238598D01*
X0209578Y0240582D01*
X0208059Y0242102D01*
X0207040Y0242524D01*
X0208059Y0242946D01*
X0209578Y0244465D01*
X0210400Y0246449D01*
X0210400Y0248598D01*
X0209578Y0250582D01*
X0208059Y0252102D01*
X0207040Y0252524D01*
X0208059Y0252946D01*
X0209578Y0254465D01*
X0210400Y0256449D01*
X0210400Y0258598D01*
X0209578Y0260582D01*
X0208059Y0262102D01*
X0207040Y0262524D01*
X0208059Y0262946D01*
X0209578Y0264465D01*
X0210400Y0266449D01*
X0210400Y0268598D01*
X0209578Y0270582D01*
X0208059Y0272102D01*
X0207040Y0272524D01*
X0208059Y0272946D01*
X0209578Y0274465D01*
X0210400Y0276449D01*
X0210400Y0278598D01*
X0209578Y0280582D01*
X0208059Y0282102D01*
X0206074Y0282924D01*
X0203926Y0282924D01*
X0201941Y0282102D01*
X0200422Y0280582D01*
X0200066Y0279724D01*
X0189934Y0279724D01*
X0189578Y0280582D01*
X0188059Y0282102D01*
X0186074Y0282924D01*
X0183926Y0282924D01*
X0181941Y0282102D01*
X0180422Y0280582D01*
X0180000Y0279563D01*
X0179578Y0280582D01*
X0178059Y0282102D01*
X0176074Y0282924D01*
X0173926Y0282924D01*
X0171941Y0282102D01*
X0170422Y0280582D01*
X0169600Y0278598D01*
X0169600Y0276449D01*
X0170422Y0274465D01*
X0171941Y0272946D01*
X0172960Y0272524D01*
X0171941Y0272102D01*
X0170422Y0270582D01*
X0169600Y0268598D01*
X0169600Y0266449D01*
X0170422Y0264465D01*
X0171941Y0262946D01*
X0172960Y0262524D01*
X0171941Y0262102D01*
X0170422Y0260582D01*
X0169600Y0258598D01*
X0169600Y0256449D01*
X0170398Y0254524D01*
X0147455Y0254524D01*
X0146784Y0255194D01*
X0145627Y0255674D01*
X0144373Y0255674D01*
X0143216Y0255194D01*
X0142330Y0254308D01*
X0141850Y0253150D01*
X0141850Y0251897D01*
X0142330Y0250739D01*
X0143216Y0249853D01*
X0144373Y0249374D01*
X0145627Y0249374D01*
X0146784Y0249853D01*
X0147455Y0250524D01*
X0170398Y0250524D01*
X0169600Y0248598D01*
X0169600Y0246449D01*
X0170398Y0244524D01*
X0152455Y0244524D01*
X0151784Y0245194D01*
X0150627Y0245674D01*
X0149373Y0245674D01*
X0148216Y0245194D01*
X0147330Y0244308D01*
X0146850Y0243150D01*
X0146850Y0241897D01*
X0147330Y0240739D01*
X0148216Y0239853D01*
X0149373Y0239374D01*
X0150627Y0239374D01*
X0151784Y0239853D01*
X0152455Y0240524D01*
X0170398Y0240524D01*
X0169600Y0238598D01*
X0169600Y0236449D01*
X0170398Y0234524D01*
X0144172Y0234524D01*
X0143000Y0233352D01*
X0139172Y0229524D01*
X0138000Y0228352D01*
X0138000Y0188352D01*
X0134172Y0184524D01*
X0120516Y0184524D01*
X0120078Y0185582D01*
X0118559Y0187102D01*
X0117276Y0187633D01*
X0117496Y0187705D01*
X0118225Y0188076D01*
X0118888Y0188557D01*
X0119466Y0189136D01*
X0119947Y0189798D01*
X0120319Y0190528D01*
X0120572Y0191306D01*
X0120686Y0192024D01*
X0116000Y0192024D01*
X0116000Y0193024D01*
X0120686Y0193024D01*
X0120572Y0193741D01*
X0120319Y0194520D01*
X0119947Y0195249D01*
X0119466Y0195911D01*
X0118888Y0196490D01*
X0118225Y0196971D01*
X0117496Y0197343D01*
X0117276Y0197414D01*
X0118559Y0197946D01*
X0120078Y0199465D01*
X0120900Y0201449D01*
X0120900Y0203598D01*
X0120078Y0205582D01*
X0118559Y0207102D01*
X0117276Y0207633D01*
X0117496Y0207705D01*
X0118225Y0208076D01*
X0118888Y0208557D01*
X0119466Y0209136D01*
X0119947Y0209798D01*
X0120319Y0210528D01*
X0120572Y0211306D01*
X0120686Y0212024D01*
X0116000Y0212024D01*
X0116000Y0213024D01*
X0120686Y0213024D01*
X0120572Y0213741D01*
X0120319Y0214520D01*
X0119947Y0215249D01*
X0119466Y0215911D01*
X0118888Y0216490D01*
X0118225Y0216971D01*
X0117496Y0217343D01*
X0117276Y0217414D01*
X0118559Y0217946D01*
X0120078Y0219465D01*
X0120900Y0221449D01*
X0120900Y0223598D01*
X0120078Y0225582D01*
X0118559Y0227102D01*
X0116574Y0227924D01*
X0114426Y0227924D01*
X0112441Y0227102D01*
X0110922Y0225582D01*
X0110100Y0223598D01*
X0110100Y0221449D01*
X0110539Y0220391D01*
X0109672Y0219524D01*
X0109102Y0219524D01*
X0109900Y0221449D01*
X0109900Y0223598D01*
X0109078Y0225582D01*
X0107559Y0227102D01*
X0106500Y0227540D01*
X0106500Y0238852D01*
X0092000Y0253352D01*
X0092000Y0253352D01*
X0090828Y0254524D01*
X0040828Y0254524D01*
X0039961Y0255391D01*
X0040400Y0256449D01*
X0040400Y0258598D01*
X0039578Y0260582D01*
X0038059Y0262102D01*
X0037040Y0262524D01*
X0038059Y0262946D01*
X0039578Y0264465D01*
X0040400Y0266449D01*
X0040400Y0268598D01*
X0039578Y0270582D01*
X0038059Y0272102D01*
X0037040Y0272524D01*
X0038059Y0272946D01*
X0039578Y0274465D01*
X0040400Y0276449D01*
X0040400Y0278598D01*
X0039578Y0280582D01*
X0038059Y0282102D01*
X0036074Y0282924D01*
X0033926Y0282924D01*
X0031941Y0282102D01*
X0030422Y0280582D01*
X0030066Y0279724D01*
X0019934Y0279724D01*
X0019578Y0280582D01*
X0018059Y0282102D01*
X0016074Y0282924D01*
X0013926Y0282924D01*
X0011941Y0282102D01*
X0010422Y0280582D01*
X0009600Y0278598D01*
X0009600Y0276449D01*
X0010422Y0274465D01*
X0011941Y0272946D01*
X0012960Y0272524D01*
X0011941Y0272102D01*
X0010422Y0270582D01*
X0009600Y0268598D01*
X0009600Y0266449D01*
X0010422Y0264465D01*
X0011941Y0262946D01*
X0012960Y0262524D01*
X0011941Y0262102D01*
X0010422Y0260582D01*
X0009600Y0258598D01*
X0009600Y0256449D01*
X0010422Y0254465D01*
X0011941Y0252946D01*
X0012960Y0252524D01*
X0011941Y0252102D01*
X0010422Y0250582D01*
X0009600Y0248598D01*
X0009600Y0246449D01*
X0010422Y0244465D01*
X0011941Y0242946D01*
X0012960Y0242524D01*
X0011941Y0242102D01*
X0010422Y0240582D01*
X0009600Y0238598D01*
X0009600Y0236449D01*
X0010422Y0234465D01*
X0011941Y0232946D01*
X0012960Y0232524D01*
X0011941Y0232102D01*
X0010422Y0230582D01*
X0009600Y0228598D01*
X0009600Y0226449D01*
X0010422Y0224465D01*
X0011941Y0222946D01*
X0012960Y0222524D01*
X0011941Y0222102D01*
X0010422Y0220582D01*
X0009600Y0218598D01*
X0009600Y0216449D01*
X0010422Y0214465D01*
X0011941Y0212946D01*
X0012960Y0212524D01*
X0011941Y0212102D01*
X0010422Y0210582D01*
X0009600Y0208598D01*
X0009600Y0206449D01*
X0010422Y0204465D01*
X0011941Y0202946D01*
X0013926Y0202124D01*
X0016074Y0202124D01*
X0018059Y0202946D01*
X0019578Y0204465D01*
X0019934Y0205324D01*
X0030066Y0205324D01*
X0030422Y0204465D01*
X0031941Y0202946D01*
X0033926Y0202124D01*
X0036074Y0202124D01*
X0037133Y0202562D01*
X0038000Y0201695D01*
X0039172Y0200524D01*
X0079172Y0200524D01*
X0088000Y0191695D01*
X0089172Y0190524D01*
X0099484Y0190524D01*
X0099922Y0189465D01*
X0101441Y0187946D01*
X0102460Y0187524D01*
X0101441Y0187102D01*
X0099922Y0185582D01*
X0099100Y0183598D01*
X0099100Y0181449D01*
X0099922Y0179465D01*
X0101441Y0177946D01*
X0102460Y0177524D01*
X0101441Y0177102D01*
X0099922Y0175582D01*
X0099100Y0173598D01*
X0099100Y0171449D01*
X0099898Y0169524D01*
X0040828Y0169524D01*
X0039961Y0170391D01*
X0040400Y0171449D01*
X0040400Y0173598D01*
X0039578Y0175582D01*
X0038059Y0177102D01*
X0037040Y0177524D01*
X0038059Y0177946D01*
X0039578Y0179465D01*
X0040400Y0181449D01*
X0040400Y0183598D01*
X0039578Y0185582D01*
X0038059Y0187102D01*
X0037040Y0187524D01*
X0038059Y0187946D01*
X0039578Y0189465D01*
X0040400Y0191449D01*
X0040400Y0193598D01*
X0039578Y0195582D01*
X0038059Y0197102D01*
X0036074Y0197924D01*
X0033926Y0197924D01*
X0031941Y0197102D01*
X0030422Y0195582D01*
X0030066Y0194724D01*
X0019934Y0194724D01*
X0019578Y0195582D01*
X0018059Y0197102D01*
X0016074Y0197924D01*
X0013926Y0197924D01*
X0011941Y0197102D01*
X0010422Y0195582D01*
X0009600Y0193598D01*
X0009600Y0191449D01*
X0010422Y0189465D01*
X0011941Y0187946D01*
X0012960Y0187524D01*
X0011941Y0187102D01*
X0010422Y0185582D01*
X0009600Y0183598D01*
X0009600Y0181449D01*
X0010422Y0179465D01*
X0011941Y0177946D01*
X0012960Y0177524D01*
X0011941Y0177102D01*
X0010422Y0175582D01*
X0009600Y0173598D01*
X0009600Y0171449D01*
X0010422Y0169465D01*
X0011941Y0167946D01*
X0012960Y0167524D01*
X0011941Y0167102D01*
X0010422Y0165582D01*
X0009600Y0163598D01*
X0009600Y0161449D01*
X0010422Y0159465D01*
X0011941Y0157946D01*
X0012960Y0157524D01*
X0011941Y0157102D01*
X0010422Y0155582D01*
X0009600Y0153598D01*
X0009600Y0151449D01*
X0010422Y0149465D01*
X0011941Y0147946D01*
X0012960Y0147524D01*
X0011941Y0147102D01*
X0010422Y0145582D01*
X0009600Y0143598D01*
X0009600Y0141449D01*
X0010422Y0139465D01*
X0011941Y0137946D01*
X0013224Y0137414D01*
X0013004Y0137343D01*
X0012275Y0136971D01*
X0011612Y0136490D01*
X0011034Y0135911D01*
X0010553Y0135249D01*
X0010181Y0134520D01*
X0009928Y0133741D01*
X0009814Y0133024D01*
X0014500Y0133024D01*
X0014500Y0132024D01*
X0009814Y0132024D01*
X0009928Y0131306D01*
X0010181Y0130528D01*
X0010553Y0129798D01*
X0011034Y0129136D01*
X0011612Y0128557D01*
X0012275Y0128076D01*
X0013004Y0127705D01*
X0013224Y0127633D01*
X0011941Y0127102D01*
X0010422Y0125582D01*
X0009600Y0123598D01*
X0009600Y0121449D01*
X0010422Y0119465D01*
X0011941Y0117946D01*
X0012960Y0117524D01*
X0011941Y0117102D01*
X0010422Y0115582D01*
X0009600Y0113598D01*
X0009600Y0111449D01*
X0010422Y0109465D01*
X0011941Y0107946D01*
X0012960Y0107524D01*
X0011941Y0107102D01*
X0010422Y0105582D01*
X0009600Y0103598D01*
X0009600Y0101449D01*
X0010422Y0099465D01*
X0011941Y0097946D01*
X0013926Y0097124D01*
X0016074Y0097124D01*
X0018059Y0097946D01*
X0019578Y0099465D01*
X0019934Y0100324D01*
X0030066Y0100324D01*
X0030422Y0099465D01*
X0031941Y0097946D01*
X0033926Y0097124D01*
X0036074Y0097124D01*
X0038059Y0097946D01*
X0039578Y0099465D01*
X0040400Y0101449D01*
X0040400Y0103598D01*
X0039578Y0105582D01*
X0038059Y0107102D01*
X0037040Y0107524D01*
X0038059Y0107946D01*
X0039578Y0109465D01*
X0040400Y0111449D01*
X0040400Y0113598D01*
X0039578Y0115582D01*
X0038059Y0117102D01*
X0037040Y0117524D01*
X0038059Y0117946D01*
X0039578Y0119465D01*
X0040400Y0121449D01*
X0040400Y0123598D01*
X0039578Y0125582D01*
X0038059Y0127102D01*
X0036776Y0127633D01*
X0036996Y0127705D01*
X0037725Y0128076D01*
X0038388Y0128557D01*
X0038966Y0129136D01*
X0039447Y0129798D01*
X0039819Y0130528D01*
X0040072Y0131306D01*
X0040186Y0132024D01*
X0035500Y0132024D01*
X0035500Y0133024D01*
X0040186Y0133024D01*
X0040072Y0133741D01*
X0039819Y0134520D01*
X0039447Y0135249D01*
X0038966Y0135911D01*
X0038388Y0136490D01*
X0037725Y0136971D01*
X0036996Y0137343D01*
X0036776Y0137414D01*
X0038059Y0137946D01*
X0039578Y0139465D01*
X0040400Y0141449D01*
X0040400Y0143598D01*
X0039578Y0145582D01*
X0038059Y0147102D01*
X0037040Y0147524D01*
X0038059Y0147946D01*
X0039578Y0149465D01*
X0040400Y0151449D01*
X0040400Y0153598D01*
X0039602Y0155524D01*
X0099898Y0155524D01*
X0099100Y0153598D01*
X0099100Y0151449D01*
X0099922Y0149465D01*
X0101441Y0147946D01*
X0103426Y0147124D01*
X0105574Y0147124D01*
X0107559Y0147946D01*
X0109078Y0149465D01*
X0109900Y0151449D01*
X0109900Y0153598D01*
X0109078Y0155582D01*
X0107559Y0157102D01*
X0106540Y0157524D01*
X0107559Y0157946D01*
X0109078Y0159465D01*
X0109900Y0161449D01*
X0109900Y0163598D01*
X0109102Y0165524D01*
X0109672Y0165524D01*
X0110539Y0164657D01*
X0110100Y0163598D01*
X0110100Y0161449D01*
X0110922Y0159465D01*
X0112441Y0157946D01*
X0113724Y0157414D01*
X0113504Y0157343D01*
X0112775Y0156971D01*
X0112112Y0156490D01*
X0111534Y0155911D01*
X0111053Y0155249D01*
X0110681Y0154520D01*
X0110428Y0153741D01*
X0110314Y0153024D01*
X0115000Y0153024D01*
X0115000Y0152024D01*
X0110314Y0152024D01*
X0110428Y0151306D01*
X0110681Y0150528D01*
X0111053Y0149798D01*
X0111534Y0149136D01*
X0112112Y0148557D01*
X0112775Y0148076D01*
X0113504Y0147705D01*
X0114282Y0147452D01*
X0115000Y0147338D01*
X0115000Y0152024D01*
X0116000Y0152024D01*
X0116000Y0153024D01*
X0120686Y0153024D01*
X0120572Y0153741D01*
X0120319Y0154520D01*
X0119947Y0155249D01*
X0119466Y0155911D01*
X0118888Y0156490D01*
X0118225Y0156971D01*
X0117496Y0157343D01*
X0117276Y0157414D01*
X0118559Y0157946D01*
X0120078Y0159465D01*
X0120900Y0161449D01*
X0120900Y0163598D01*
X0120078Y0165582D01*
X0118559Y0167102D01*
X0117540Y0167524D01*
X0118559Y0167946D01*
X0120078Y0169465D01*
X0120900Y0171449D01*
X0120900Y0173598D01*
X0120102Y0175524D01*
X0140828Y0175524D01*
X0142000Y0176695D01*
X0144300Y0178995D01*
X0144300Y0139885D01*
X0116771Y0112356D01*
X0115168Y0110752D01*
X0114300Y0108657D01*
X0114300Y0079418D01*
X0113985Y0078657D01*
X0113985Y0076390D01*
X0114853Y0074295D01*
X0116456Y0072691D01*
X0118551Y0071824D01*
X0120819Y0071824D01*
X0122914Y0072691D01*
X0123730Y0073507D02*
X0158014Y0073507D01*
X0159012Y0074506D02*
X0124728Y0074506D01*
X0124517Y0074295D02*
X0124517Y0074295D01*
X0125203Y0075504D02*
X0206866Y0075504D01*
X0206452Y0076503D02*
X0125616Y0076503D01*
X0125700Y0077501D02*
X0206331Y0077501D01*
X0206434Y0078500D02*
X0125700Y0078500D01*
X0125700Y0079498D02*
X0206847Y0079498D01*
X0207785Y0080497D02*
X0125700Y0080497D01*
X0125700Y0081495D02*
X0212900Y0081495D01*
X0212900Y0080497D02*
X0212215Y0080497D01*
X0212900Y0082494D02*
X0125700Y0082494D01*
X0125700Y0083492D02*
X0212900Y0083492D01*
X0212900Y0084491D02*
X0125700Y0084491D01*
X0125700Y0085489D02*
X0212900Y0085489D01*
X0212900Y0086488D02*
X0125700Y0086488D01*
X0125700Y0087486D02*
X0212900Y0087486D01*
X0212900Y0088485D02*
X0125700Y0088485D01*
X0125700Y0089483D02*
X0212900Y0089483D01*
X0212900Y0090482D02*
X0125700Y0090482D01*
X0125700Y0091480D02*
X0212900Y0091480D01*
X0212900Y0092479D02*
X0125700Y0092479D01*
X0125700Y0093477D02*
X0212900Y0093477D01*
X0212900Y0094476D02*
X0125700Y0094476D01*
X0125700Y0095474D02*
X0212900Y0095474D01*
X0212900Y0096473D02*
X0125700Y0096473D01*
X0125700Y0097472D02*
X0212900Y0097472D01*
X0212900Y0098470D02*
X0125700Y0098470D01*
X0125700Y0099469D02*
X0212900Y0099469D01*
X0212900Y0100467D02*
X0125700Y0100467D01*
X0125700Y0101466D02*
X0212900Y0101466D01*
X0212900Y0102464D02*
X0176896Y0102464D01*
X0176074Y0102124D02*
X0178059Y0102946D01*
X0179578Y0104465D01*
X0180400Y0106449D01*
X0180400Y0108598D01*
X0179700Y0110288D01*
X0179700Y0114760D01*
X0180400Y0116449D01*
X0180400Y0118598D01*
X0179700Y0120288D01*
X0179700Y0124760D01*
X0180400Y0126449D01*
X0180400Y0128598D01*
X0179700Y0130288D01*
X0179700Y0134760D01*
X0180400Y0136449D01*
X0180400Y0138598D01*
X0179700Y0140288D01*
X0179700Y0144760D01*
X0180000Y0145484D01*
X0180422Y0144465D01*
X0181941Y0142946D01*
X0183926Y0142124D01*
X0186074Y0142124D01*
X0188059Y0142946D01*
X0189578Y0144465D01*
X0189934Y0145324D01*
X0200066Y0145324D01*
X0200422Y0144465D01*
X0201941Y0142946D01*
X0202960Y0142524D01*
X0201941Y0142102D01*
X0200422Y0140582D01*
X0199600Y0138598D01*
X0199600Y0136449D01*
X0200422Y0134465D01*
X0201941Y0132946D01*
X0203926Y0132124D01*
X0206074Y0132124D01*
X0208059Y0132946D01*
X0209578Y0134465D01*
X0210400Y0136449D01*
X0210400Y0138598D01*
X0209578Y0140582D01*
X0208059Y0142102D01*
X0207040Y0142524D01*
X0208059Y0142946D01*
X0209578Y0144465D01*
X0210400Y0146449D01*
X0210400Y0148598D01*
X0209578Y0150582D01*
X0208059Y0152102D01*
X0207040Y0152524D01*
X0208059Y0152946D01*
X0209578Y0154465D01*
X0210400Y0156449D01*
X0210400Y0158598D01*
X0209578Y0160582D01*
X0208059Y0162102D01*
X0207040Y0162524D01*
X0208059Y0162946D01*
X0209578Y0164465D01*
X0210400Y0166449D01*
X0210400Y0168598D01*
X0209578Y0170582D01*
X0208059Y0172102D01*
X0207040Y0172524D01*
X0208059Y0172946D01*
X0209578Y0174465D01*
X0210400Y0176449D01*
X0210400Y0178598D01*
X0209578Y0180582D01*
X0208059Y0182102D01*
X0206776Y0182633D01*
X0206996Y0182705D01*
X0207725Y0183076D01*
X0208388Y0183557D01*
X0208966Y0184136D01*
X0209447Y0184798D01*
X0209819Y0185528D01*
X0210072Y0186306D01*
X0210186Y0187024D01*
X0205500Y0187024D01*
X0205500Y0188024D01*
X0204500Y0188024D01*
X0204500Y0187024D01*
X0199814Y0187024D01*
X0199928Y0186306D01*
X0200181Y0185528D01*
X0200553Y0184798D01*
X0201034Y0184136D01*
X0201612Y0183557D01*
X0202275Y0183076D01*
X0203004Y0182705D01*
X0203224Y0182633D01*
X0201941Y0182102D01*
X0200422Y0180582D01*
X0200066Y0179724D01*
X0189934Y0179724D01*
X0189578Y0180582D01*
X0188059Y0182102D01*
X0186776Y0182633D01*
X0186996Y0182705D01*
X0187725Y0183076D01*
X0188388Y0183557D01*
X0188966Y0184136D01*
X0189447Y0184798D01*
X0189819Y0185528D01*
X0190072Y0186306D01*
X0190186Y0187024D01*
X0185500Y0187024D01*
X0185500Y0188024D01*
X0184500Y0188024D01*
X0184500Y0187024D01*
X0179814Y0187024D01*
X0179928Y0186306D01*
X0180181Y0185528D01*
X0180553Y0184798D01*
X0181034Y0184136D01*
X0181612Y0183557D01*
X0182275Y0183076D01*
X0183004Y0182705D01*
X0183224Y0182633D01*
X0181941Y0182102D01*
X0180422Y0180582D01*
X0179600Y0178598D01*
X0179600Y0176449D01*
X0180422Y0174465D01*
X0181941Y0172946D01*
X0182960Y0172524D01*
X0181941Y0172102D01*
X0180422Y0170582D01*
X0180000Y0169563D01*
X0179578Y0170582D01*
X0178059Y0172102D01*
X0176074Y0172924D01*
X0173926Y0172924D01*
X0171941Y0172102D01*
X0170422Y0170582D01*
X0169600Y0168598D01*
X0169600Y0166449D01*
X0170300Y0164760D01*
X0170300Y0160288D01*
X0169600Y0158598D01*
X0169600Y0156449D01*
X0170300Y0154760D01*
X0170300Y0150288D01*
X0169600Y0148598D01*
X0169600Y0146449D01*
X0170300Y0144760D01*
X0170300Y0140288D01*
X0169600Y0138598D01*
X0169600Y0136449D01*
X0170300Y0134760D01*
X0170300Y0130288D01*
X0169600Y0128598D01*
X0169600Y0126449D01*
X0170300Y0124760D01*
X0170300Y0120288D01*
X0169600Y0118598D01*
X0169600Y0116449D01*
X0170300Y0114760D01*
X0170300Y0110288D01*
X0169600Y0108598D01*
X0169600Y0106449D01*
X0170422Y0104465D01*
X0171941Y0102946D01*
X0173926Y0102124D01*
X0176074Y0102124D01*
X0178576Y0103463D02*
X0212900Y0103463D01*
X0212900Y0104461D02*
X0179574Y0104461D01*
X0179990Y0105460D02*
X0212900Y0105460D01*
X0212900Y0106458D02*
X0180400Y0106458D01*
X0180400Y0107457D02*
X0212900Y0107457D01*
X0212900Y0108455D02*
X0180400Y0108455D01*
X0180045Y0109454D02*
X0212900Y0109454D01*
X0212900Y0110452D02*
X0179700Y0110452D01*
X0179700Y0111451D02*
X0212900Y0111451D01*
X0212900Y0112449D02*
X0179700Y0112449D01*
X0179700Y0113448D02*
X0212900Y0113448D01*
X0212900Y0114446D02*
X0179700Y0114446D01*
X0179984Y0115445D02*
X0212900Y0115445D01*
X0212900Y0116443D02*
X0180397Y0116443D01*
X0180400Y0117442D02*
X0212900Y0117442D01*
X0212900Y0118440D02*
X0180400Y0118440D01*
X0180052Y0119439D02*
X0212900Y0119439D01*
X0212900Y0120437D02*
X0179700Y0120437D01*
X0179700Y0121436D02*
X0212900Y0121436D01*
X0212900Y0122434D02*
X0179700Y0122434D01*
X0179700Y0123433D02*
X0212900Y0123433D01*
X0212900Y0124431D02*
X0179700Y0124431D01*
X0179978Y0125430D02*
X0212900Y0125430D01*
X0212900Y0126428D02*
X0180391Y0126428D01*
X0180400Y0127427D02*
X0212900Y0127427D01*
X0212900Y0128425D02*
X0180400Y0128425D01*
X0180058Y0129424D02*
X0212900Y0129424D01*
X0212900Y0130422D02*
X0179700Y0130422D01*
X0179700Y0131421D02*
X0212900Y0131421D01*
X0212900Y0132419D02*
X0206788Y0132419D01*
X0208531Y0133418D02*
X0212900Y0133418D01*
X0212900Y0134416D02*
X0209530Y0134416D01*
X0209971Y0135415D02*
X0212900Y0135415D01*
X0212900Y0136413D02*
X0210385Y0136413D01*
X0210400Y0137412D02*
X0212900Y0137412D01*
X0212900Y0138410D02*
X0210400Y0138410D01*
X0210064Y0139409D02*
X0212900Y0139409D01*
X0212900Y0140408D02*
X0209650Y0140408D01*
X0208754Y0141406D02*
X0212900Y0141406D01*
X0212900Y0142405D02*
X0207327Y0142405D01*
X0208516Y0143403D02*
X0212900Y0143403D01*
X0212900Y0144402D02*
X0209515Y0144402D01*
X0209965Y0145400D02*
X0212900Y0145400D01*
X0212900Y0146399D02*
X0210379Y0146399D01*
X0210400Y0147397D02*
X0212900Y0147397D01*
X0212900Y0148396D02*
X0210400Y0148396D01*
X0210070Y0149394D02*
X0212900Y0149394D01*
X0212900Y0150393D02*
X0209657Y0150393D01*
X0208769Y0151391D02*
X0212900Y0151391D01*
X0212900Y0152390D02*
X0207363Y0152390D01*
X0208501Y0153388D02*
X0212900Y0153388D01*
X0212900Y0154387D02*
X0209500Y0154387D01*
X0209959Y0155385D02*
X0212900Y0155385D01*
X0212900Y0156384D02*
X0210373Y0156384D01*
X0210400Y0157382D02*
X0212900Y0157382D01*
X0212900Y0158381D02*
X0210400Y0158381D01*
X0210076Y0159379D02*
X0212900Y0159379D01*
X0212900Y0160378D02*
X0209663Y0160378D01*
X0208784Y0161376D02*
X0212900Y0161376D01*
X0212900Y0162375D02*
X0207399Y0162375D01*
X0208486Y0163373D02*
X0212900Y0163373D01*
X0212900Y0164372D02*
X0209485Y0164372D01*
X0209953Y0165370D02*
X0212900Y0165370D01*
X0212900Y0166369D02*
X0210367Y0166369D01*
X0210400Y0167367D02*
X0212900Y0167367D01*
X0212900Y0168366D02*
X0210400Y0168366D01*
X0210082Y0169364D02*
X0212900Y0169364D01*
X0212900Y0170363D02*
X0209669Y0170363D01*
X0208799Y0171361D02*
X0212900Y0171361D01*
X0212900Y0172360D02*
X0207435Y0172360D01*
X0208472Y0173358D02*
X0212900Y0173358D01*
X0212900Y0174357D02*
X0209470Y0174357D01*
X0209947Y0175355D02*
X0212900Y0175355D01*
X0212900Y0176354D02*
X0210360Y0176354D01*
X0210400Y0177352D02*
X0212900Y0177352D01*
X0212900Y0178351D02*
X0210400Y0178351D01*
X0210089Y0179349D02*
X0212900Y0179349D01*
X0212900Y0180348D02*
X0209675Y0180348D01*
X0208814Y0181346D02*
X0212900Y0181346D01*
X0212900Y0182345D02*
X0207471Y0182345D01*
X0208093Y0183343D02*
X0212900Y0183343D01*
X0212900Y0184342D02*
X0209116Y0184342D01*
X0209724Y0185341D02*
X0212900Y0185341D01*
X0212900Y0186339D02*
X0210077Y0186339D01*
X0210186Y0188024D02*
X0210072Y0188741D01*
X0209819Y0189520D01*
X0209447Y0190249D01*
X0208966Y0190911D01*
X0208388Y0191490D01*
X0207725Y0191971D01*
X0206996Y0192343D01*
X0206439Y0192524D01*
X0206996Y0192705D01*
X0207725Y0193076D01*
X0208388Y0193557D01*
X0208966Y0194136D01*
X0209447Y0194798D01*
X0209819Y0195528D01*
X0210072Y0196306D01*
X0210186Y0197024D01*
X0205500Y0197024D01*
X0205500Y0192338D01*
X0205500Y0188024D01*
X0210186Y0188024D01*
X0210136Y0188336D02*
X0212900Y0188336D01*
X0212900Y0187338D02*
X0205500Y0187338D01*
X0205000Y0187524D02*
X0185000Y0187524D01*
X0185500Y0187338D02*
X0204500Y0187338D01*
X0204500Y0188336D02*
X0205500Y0188336D01*
X0205500Y0189335D02*
X0204500Y0189335D01*
X0204500Y0190333D02*
X0205500Y0190333D01*
X0205500Y0191332D02*
X0204500Y0191332D01*
X0204500Y0192330D02*
X0205500Y0192330D01*
X0205500Y0193329D02*
X0204500Y0193329D01*
X0204500Y0194327D02*
X0205500Y0194327D01*
X0205500Y0195326D02*
X0204500Y0195326D01*
X0204500Y0196324D02*
X0205500Y0196324D01*
X0205500Y0197323D02*
X0212900Y0197323D01*
X0212900Y0198321D02*
X0210138Y0198321D01*
X0209884Y0199320D02*
X0212900Y0199320D01*
X0212900Y0200318D02*
X0209397Y0200318D01*
X0208561Y0201317D02*
X0212900Y0201317D01*
X0212900Y0202315D02*
X0207321Y0202315D01*
X0208851Y0203314D02*
X0212900Y0203314D01*
X0212900Y0204312D02*
X0209839Y0204312D01*
X0210253Y0205311D02*
X0212900Y0205311D01*
X0212900Y0206309D02*
X0210667Y0206309D01*
X0210700Y0207308D02*
X0212900Y0207308D01*
X0212900Y0208306D02*
X0210700Y0208306D01*
X0210432Y0209305D02*
X0212900Y0209305D01*
X0212900Y0210303D02*
X0210018Y0210303D01*
X0209283Y0211302D02*
X0212900Y0211302D01*
X0212900Y0212300D02*
X0208284Y0212300D01*
X0212900Y0213299D02*
X0147000Y0213299D01*
X0147000Y0214297D02*
X0212900Y0214297D01*
X0212900Y0215296D02*
X0147000Y0215296D01*
X0147000Y0216294D02*
X0212900Y0216294D01*
X0212900Y0217293D02*
X0147598Y0217293D01*
X0148596Y0218291D02*
X0212900Y0218291D01*
X0212900Y0219290D02*
X0149595Y0219290D01*
X0150593Y0220288D02*
X0212900Y0220288D01*
X0212900Y0221287D02*
X0181592Y0221287D01*
X0182590Y0222285D02*
X0183535Y0222285D01*
X0186465Y0222285D02*
X0203535Y0222285D01*
X0201603Y0223284D02*
X0188397Y0223284D01*
X0189396Y0224282D02*
X0200604Y0224282D01*
X0200084Y0225281D02*
X0189916Y0225281D01*
X0185000Y0227524D02*
X0205000Y0227524D01*
X0207651Y0232271D02*
X0212900Y0232271D01*
X0212900Y0233269D02*
X0208382Y0233269D01*
X0209381Y0234268D02*
X0212900Y0234268D01*
X0212900Y0235266D02*
X0209910Y0235266D01*
X0210323Y0236265D02*
X0212900Y0236265D01*
X0212900Y0237263D02*
X0210400Y0237263D01*
X0210400Y0238262D02*
X0212900Y0238262D01*
X0212900Y0239260D02*
X0210126Y0239260D01*
X0209712Y0240259D02*
X0212900Y0240259D01*
X0212900Y0241257D02*
X0208903Y0241257D01*
X0207687Y0242256D02*
X0212900Y0242256D01*
X0212900Y0243254D02*
X0208367Y0243254D01*
X0209366Y0244253D02*
X0212900Y0244253D01*
X0212900Y0245251D02*
X0209904Y0245251D01*
X0210317Y0246250D02*
X0212900Y0246250D01*
X0212900Y0247248D02*
X0210400Y0247248D01*
X0210400Y0248247D02*
X0212900Y0248247D01*
X0212900Y0249245D02*
X0210132Y0249245D01*
X0209718Y0250244D02*
X0212900Y0250244D01*
X0212900Y0251242D02*
X0208918Y0251242D01*
X0207723Y0252241D02*
X0212900Y0252241D01*
X0212900Y0253239D02*
X0208352Y0253239D01*
X0209351Y0254238D02*
X0212900Y0254238D01*
X0212900Y0255236D02*
X0209897Y0255236D01*
X0210311Y0256235D02*
X0212900Y0256235D01*
X0212900Y0257233D02*
X0210400Y0257233D01*
X0210400Y0258232D02*
X0212900Y0258232D01*
X0212900Y0259230D02*
X0210138Y0259230D01*
X0209724Y0260229D02*
X0212900Y0260229D01*
X0212900Y0261227D02*
X0208933Y0261227D01*
X0207759Y0262226D02*
X0212900Y0262226D01*
X0212900Y0263224D02*
X0208338Y0263224D01*
X0209336Y0264223D02*
X0212900Y0264223D01*
X0212900Y0265221D02*
X0209891Y0265221D01*
X0210305Y0266220D02*
X0212900Y0266220D01*
X0212900Y0267218D02*
X0210400Y0267218D01*
X0210400Y0268217D02*
X0212900Y0268217D01*
X0212900Y0269215D02*
X0210144Y0269215D01*
X0209731Y0270214D02*
X0212900Y0270214D01*
X0212900Y0271212D02*
X0208948Y0271212D01*
X0207795Y0272211D02*
X0212900Y0272211D01*
X0212900Y0273210D02*
X0208323Y0273210D01*
X0209321Y0274208D02*
X0212900Y0274208D01*
X0212900Y0275207D02*
X0209885Y0275207D01*
X0210299Y0276205D02*
X0212900Y0276205D01*
X0212900Y0277204D02*
X0210400Y0277204D01*
X0210400Y0278202D02*
X0212900Y0278202D01*
X0212900Y0279201D02*
X0210150Y0279201D01*
X0209737Y0280199D02*
X0212900Y0280199D01*
X0212900Y0281198D02*
X0208963Y0281198D01*
X0207830Y0282196D02*
X0212900Y0282196D01*
X0212900Y0283195D02*
X0007100Y0283195D01*
X0007100Y0284193D02*
X0018454Y0284193D01*
X0017922Y0284414D02*
X0019270Y0283855D01*
X0020730Y0283855D01*
X0022078Y0284414D01*
X0023110Y0285446D01*
X0023668Y0286794D01*
X0023668Y0288253D01*
X0023110Y0289602D01*
X0022078Y0290634D01*
X0020730Y0291192D01*
X0019270Y0291192D01*
X0017922Y0290634D01*
X0016890Y0289602D01*
X0016331Y0288253D01*
X0016331Y0286794D01*
X0016890Y0285446D01*
X0017922Y0284414D01*
X0017144Y0285192D02*
X0007100Y0285192D01*
X0007100Y0286190D02*
X0016582Y0286190D01*
X0016331Y0287189D02*
X0007635Y0287189D01*
X0008633Y0288187D02*
X0016331Y0288187D01*
X0016718Y0289186D02*
X0009632Y0289186D01*
X0010630Y0290184D02*
X0017473Y0290184D01*
X0019248Y0291183D02*
X0011629Y0291183D01*
X0012627Y0292181D02*
X0207373Y0292181D01*
X0208371Y0291183D02*
X0020752Y0291183D01*
X0022527Y0290184D02*
X0209370Y0290184D01*
X0210368Y0289186D02*
X0023282Y0289186D01*
X0023668Y0288187D02*
X0211367Y0288187D01*
X0212365Y0287189D02*
X0023668Y0287189D01*
X0023418Y0286190D02*
X0212900Y0286190D01*
X0212900Y0285192D02*
X0022856Y0285192D01*
X0021546Y0284193D02*
X0212900Y0284193D01*
X0206374Y0293180D02*
X0013626Y0293180D01*
X0014624Y0294178D02*
X0205376Y0294178D01*
X0204377Y0295177D02*
X0015623Y0295177D01*
X0017830Y0282196D02*
X0032170Y0282196D01*
X0031037Y0281198D02*
X0018963Y0281198D01*
X0019737Y0280199D02*
X0030263Y0280199D01*
X0035000Y0277524D02*
X0015000Y0277524D01*
X0011677Y0273210D02*
X0007100Y0273210D01*
X0007100Y0274208D02*
X0010679Y0274208D01*
X0010115Y0275207D02*
X0007100Y0275207D01*
X0007100Y0276205D02*
X0009701Y0276205D01*
X0009600Y0277204D02*
X0007100Y0277204D01*
X0007100Y0278202D02*
X0009600Y0278202D01*
X0009850Y0279201D02*
X0007100Y0279201D01*
X0007100Y0280199D02*
X0010263Y0280199D01*
X0011037Y0281198D02*
X0007100Y0281198D01*
X0007100Y0282196D02*
X0012170Y0282196D01*
X0012205Y0272211D02*
X0007100Y0272211D01*
X0007100Y0271212D02*
X0011052Y0271212D01*
X0010269Y0270214D02*
X0007100Y0270214D01*
X0007100Y0269215D02*
X0009856Y0269215D01*
X0009600Y0268217D02*
X0007100Y0268217D01*
X0007100Y0267218D02*
X0009600Y0267218D01*
X0009695Y0266220D02*
X0007100Y0266220D01*
X0007100Y0265221D02*
X0010109Y0265221D01*
X0010664Y0264223D02*
X0007100Y0264223D01*
X0007100Y0263224D02*
X0011662Y0263224D01*
X0012241Y0262226D02*
X0007100Y0262226D01*
X0007100Y0261227D02*
X0011067Y0261227D01*
X0010276Y0260229D02*
X0007100Y0260229D01*
X0007100Y0259230D02*
X0009862Y0259230D01*
X0009600Y0258232D02*
X0007100Y0258232D01*
X0007100Y0257233D02*
X0009600Y0257233D01*
X0009689Y0256235D02*
X0007100Y0256235D01*
X0007100Y0255236D02*
X0010103Y0255236D01*
X0010649Y0254238D02*
X0007100Y0254238D01*
X0007100Y0253239D02*
X0011648Y0253239D01*
X0012277Y0252241D02*
X0007100Y0252241D01*
X0007100Y0251242D02*
X0011082Y0251242D01*
X0010282Y0250244D02*
X0007100Y0250244D01*
X0007100Y0249245D02*
X0009868Y0249245D01*
X0009600Y0248247D02*
X0007100Y0248247D01*
X0007100Y0247248D02*
X0009600Y0247248D01*
X0009683Y0246250D02*
X0007100Y0246250D01*
X0007100Y0245251D02*
X0010096Y0245251D01*
X0010634Y0244253D02*
X0007100Y0244253D01*
X0007100Y0243254D02*
X0011633Y0243254D01*
X0012313Y0242256D02*
X0007100Y0242256D01*
X0007100Y0241257D02*
X0011097Y0241257D01*
X0010288Y0240259D02*
X0007100Y0240259D01*
X0007100Y0239260D02*
X0009874Y0239260D01*
X0009600Y0238262D02*
X0007100Y0238262D01*
X0007100Y0237263D02*
X0009600Y0237263D01*
X0009677Y0236265D02*
X0007100Y0236265D01*
X0007100Y0235266D02*
X0010090Y0235266D01*
X0010619Y0234268D02*
X0007100Y0234268D01*
X0007100Y0233269D02*
X0011618Y0233269D01*
X0012349Y0232271D02*
X0007100Y0232271D01*
X0007100Y0231272D02*
X0011112Y0231272D01*
X0010294Y0230274D02*
X0007100Y0230274D01*
X0007100Y0229275D02*
X0009881Y0229275D01*
X0009600Y0228277D02*
X0007100Y0228277D01*
X0007100Y0227278D02*
X0009600Y0227278D01*
X0009670Y0226279D02*
X0007100Y0226279D01*
X0007100Y0225281D02*
X0010084Y0225281D01*
X0010604Y0224282D02*
X0007100Y0224282D01*
X0007100Y0223284D02*
X0011603Y0223284D01*
X0012385Y0222285D02*
X0007100Y0222285D01*
X0007100Y0221287D02*
X0011127Y0221287D01*
X0010300Y0220288D02*
X0007100Y0220288D01*
X0007100Y0219290D02*
X0009887Y0219290D01*
X0009600Y0218291D02*
X0007100Y0218291D01*
X0007100Y0217293D02*
X0009600Y0217293D01*
X0009664Y0216294D02*
X0007100Y0216294D01*
X0007100Y0215296D02*
X0010078Y0215296D01*
X0010590Y0214297D02*
X0007100Y0214297D01*
X0007100Y0213299D02*
X0011588Y0213299D01*
X0012421Y0212300D02*
X0007100Y0212300D01*
X0007100Y0211302D02*
X0011141Y0211302D01*
X0010306Y0210303D02*
X0007100Y0210303D01*
X0007100Y0209305D02*
X0009893Y0209305D01*
X0009600Y0208306D02*
X0007100Y0208306D01*
X0007100Y0207308D02*
X0009600Y0207308D01*
X0009658Y0206309D02*
X0007100Y0206309D01*
X0007100Y0205311D02*
X0010072Y0205311D01*
X0010575Y0204312D02*
X0007100Y0204312D01*
X0007100Y0203314D02*
X0011573Y0203314D01*
X0013463Y0202315D02*
X0007100Y0202315D01*
X0007100Y0201317D02*
X0038378Y0201317D01*
X0037380Y0202315D02*
X0036537Y0202315D01*
X0033463Y0202315D02*
X0016537Y0202315D01*
X0018427Y0203314D02*
X0031573Y0203314D01*
X0030575Y0204312D02*
X0019425Y0204312D01*
X0019928Y0205311D02*
X0030072Y0205311D01*
X0035000Y0207524D02*
X0015000Y0207524D01*
X0007100Y0200318D02*
X0079377Y0200318D01*
X0080376Y0199320D02*
X0007100Y0199320D01*
X0007100Y0198321D02*
X0081374Y0198321D01*
X0082373Y0197323D02*
X0037525Y0197323D01*
X0038836Y0196324D02*
X0083371Y0196324D01*
X0084370Y0195326D02*
X0039684Y0195326D01*
X0040098Y0194327D02*
X0085368Y0194327D01*
X0086367Y0193329D02*
X0040400Y0193329D01*
X0040400Y0192330D02*
X0087365Y0192330D01*
X0088364Y0191332D02*
X0040351Y0191332D01*
X0039938Y0190333D02*
X0099562Y0190333D01*
X0100052Y0189335D02*
X0039448Y0189335D01*
X0038449Y0188336D02*
X0101051Y0188336D01*
X0102011Y0187338D02*
X0037489Y0187338D01*
X0038821Y0186339D02*
X0100679Y0186339D01*
X0099822Y0185341D02*
X0039678Y0185341D01*
X0040092Y0184342D02*
X0099408Y0184342D01*
X0099100Y0183343D02*
X0040400Y0183343D01*
X0040400Y0182345D02*
X0099100Y0182345D01*
X0099143Y0181346D02*
X0040357Y0181346D01*
X0039944Y0180348D02*
X0099556Y0180348D01*
X0100037Y0179349D02*
X0039463Y0179349D01*
X0038464Y0178351D02*
X0101036Y0178351D01*
X0102047Y0177352D02*
X0037453Y0177352D01*
X0038806Y0176354D02*
X0100694Y0176354D01*
X0099828Y0175355D02*
X0039672Y0175355D01*
X0040086Y0174357D02*
X0099414Y0174357D01*
X0099100Y0173358D02*
X0040400Y0173358D01*
X0040400Y0172360D02*
X0099100Y0172360D01*
X0099137Y0171361D02*
X0040363Y0171361D01*
X0039989Y0170363D02*
X0099550Y0170363D01*
X0099898Y0165524D02*
X0099100Y0163598D01*
X0099100Y0161449D01*
X0099539Y0160391D01*
X0098672Y0159524D01*
X0040828Y0159524D01*
X0039961Y0160391D01*
X0040400Y0161449D01*
X0040400Y0163598D01*
X0039602Y0165524D01*
X0099898Y0165524D01*
X0099834Y0165370D02*
X0039666Y0165370D01*
X0040079Y0164372D02*
X0099421Y0164372D01*
X0099100Y0163373D02*
X0040400Y0163373D01*
X0040400Y0162375D02*
X0099100Y0162375D01*
X0099130Y0161376D02*
X0040370Y0161376D01*
X0039974Y0160378D02*
X0099526Y0160378D01*
X0099840Y0155385D02*
X0039660Y0155385D01*
X0040073Y0154387D02*
X0099427Y0154387D01*
X0099100Y0153388D02*
X0040400Y0153388D01*
X0040400Y0152390D02*
X0099100Y0152390D01*
X0099124Y0151391D02*
X0040376Y0151391D01*
X0039962Y0150393D02*
X0099538Y0150393D01*
X0099993Y0149394D02*
X0039507Y0149394D01*
X0038509Y0148396D02*
X0100991Y0148396D01*
X0102766Y0147397D02*
X0037345Y0147397D01*
X0038762Y0146399D02*
X0144300Y0146399D01*
X0144300Y0147397D02*
X0116373Y0147397D01*
X0116718Y0147452D02*
X0117496Y0147705D01*
X0118225Y0148076D01*
X0118888Y0148557D01*
X0119466Y0149136D01*
X0119947Y0149798D01*
X0120319Y0150528D01*
X0120572Y0151306D01*
X0120686Y0152024D01*
X0116000Y0152024D01*
X0116000Y0147338D01*
X0116718Y0147452D01*
X0116000Y0147397D02*
X0115000Y0147397D01*
X0114627Y0147397D02*
X0106234Y0147397D01*
X0108009Y0148396D02*
X0112335Y0148396D01*
X0111346Y0149394D02*
X0109007Y0149394D01*
X0109462Y0150393D02*
X0110750Y0150393D01*
X0110415Y0151391D02*
X0109876Y0151391D01*
X0109900Y0152390D02*
X0115000Y0152390D01*
X0115000Y0151391D02*
X0116000Y0151391D01*
X0116000Y0150393D02*
X0115000Y0150393D01*
X0115000Y0149394D02*
X0116000Y0149394D01*
X0116000Y0148396D02*
X0115000Y0148396D01*
X0118665Y0148396D02*
X0144300Y0148396D01*
X0144300Y0149394D02*
X0119654Y0149394D01*
X0120250Y0150393D02*
X0144300Y0150393D01*
X0144300Y0151391D02*
X0120585Y0151391D01*
X0120628Y0153388D02*
X0144300Y0153388D01*
X0144300Y0152390D02*
X0116000Y0152390D01*
X0120362Y0154387D02*
X0144300Y0154387D01*
X0144300Y0155385D02*
X0119849Y0155385D01*
X0118994Y0156384D02*
X0144300Y0156384D01*
X0144300Y0157382D02*
X0117374Y0157382D01*
X0118994Y0158381D02*
X0144300Y0158381D01*
X0144300Y0159379D02*
X0119992Y0159379D01*
X0120456Y0160378D02*
X0144300Y0160378D01*
X0144300Y0161376D02*
X0120870Y0161376D01*
X0120900Y0162375D02*
X0144300Y0162375D01*
X0144300Y0163373D02*
X0120900Y0163373D01*
X0120579Y0164372D02*
X0144300Y0164372D01*
X0144300Y0165370D02*
X0120166Y0165370D01*
X0119292Y0166369D02*
X0144300Y0166369D01*
X0144300Y0167367D02*
X0117917Y0167367D01*
X0118979Y0168366D02*
X0144300Y0168366D01*
X0144300Y0169364D02*
X0119977Y0169364D01*
X0120450Y0170363D02*
X0144300Y0170363D01*
X0144300Y0171361D02*
X0120863Y0171361D01*
X0120900Y0172360D02*
X0144300Y0172360D01*
X0144300Y0173358D02*
X0120900Y0173358D01*
X0120586Y0174357D02*
X0144300Y0174357D01*
X0144300Y0175355D02*
X0120172Y0175355D01*
X0120178Y0185341D02*
X0134988Y0185341D01*
X0135987Y0186339D02*
X0119321Y0186339D01*
X0117989Y0187338D02*
X0136985Y0187338D01*
X0137984Y0188336D02*
X0118583Y0188336D01*
X0119611Y0189335D02*
X0138000Y0189335D01*
X0138000Y0190333D02*
X0120220Y0190333D01*
X0120576Y0191332D02*
X0138000Y0191332D01*
X0138000Y0192330D02*
X0116000Y0192330D01*
X0115000Y0192330D02*
X0109900Y0192330D01*
X0110314Y0192024D02*
X0110428Y0191306D01*
X0110681Y0190528D01*
X0111053Y0189798D01*
X0111534Y0189136D01*
X0112112Y0188557D01*
X0112775Y0188076D01*
X0113504Y0187705D01*
X0113724Y0187633D01*
X0112441Y0187102D01*
X0110922Y0185582D01*
X0110100Y0183598D01*
X0110100Y0181449D01*
X0110898Y0179524D01*
X0110328Y0179524D01*
X0109461Y0180391D01*
X0109900Y0181449D01*
X0109900Y0183598D01*
X0109078Y0185582D01*
X0107559Y0187102D01*
X0106540Y0187524D01*
X0107559Y0187946D01*
X0109078Y0189465D01*
X0109900Y0191449D01*
X0109900Y0193598D01*
X0109102Y0195524D01*
X0111252Y0195524D01*
X0111053Y0195249D01*
X0110681Y0194520D01*
X0110428Y0193741D01*
X0110314Y0193024D01*
X0115000Y0193024D01*
X0115000Y0192024D01*
X0110314Y0192024D01*
X0110424Y0191332D02*
X0109851Y0191332D01*
X0109438Y0190333D02*
X0110780Y0190333D01*
X0111389Y0189335D02*
X0108948Y0189335D01*
X0107949Y0188336D02*
X0112417Y0188336D01*
X0113011Y0187338D02*
X0106989Y0187338D01*
X0108321Y0186339D02*
X0111679Y0186339D01*
X0110822Y0185341D02*
X0109178Y0185341D01*
X0109592Y0184342D02*
X0110408Y0184342D01*
X0110100Y0183343D02*
X0109900Y0183343D01*
X0109900Y0182345D02*
X0110100Y0182345D01*
X0110143Y0181346D02*
X0109857Y0181346D01*
X0109504Y0180348D02*
X0110556Y0180348D01*
X0110363Y0193329D02*
X0109900Y0193329D01*
X0109598Y0194327D02*
X0110618Y0194327D01*
X0111108Y0195326D02*
X0109184Y0195326D01*
X0109102Y0199524D02*
X0109900Y0201449D01*
X0109900Y0203598D01*
X0109078Y0205582D01*
X0107559Y0207102D01*
X0106540Y0207524D01*
X0107559Y0207946D01*
X0109078Y0209465D01*
X0109900Y0211449D01*
X0109900Y0213598D01*
X0109102Y0215524D01*
X0111252Y0215524D01*
X0111053Y0215249D01*
X0110681Y0214520D01*
X0110428Y0213741D01*
X0110314Y0213024D01*
X0115000Y0213024D01*
X0115000Y0212024D01*
X0110314Y0212024D01*
X0110428Y0211306D01*
X0110681Y0210528D01*
X0111053Y0209798D01*
X0111534Y0209136D01*
X0112112Y0208557D01*
X0112775Y0208076D01*
X0113504Y0207705D01*
X0113724Y0207633D01*
X0112441Y0207102D01*
X0110922Y0205582D01*
X0110100Y0203598D01*
X0110100Y0201449D01*
X0110539Y0200391D01*
X0109672Y0199524D01*
X0109102Y0199524D01*
X0109431Y0200318D02*
X0110466Y0200318D01*
X0110155Y0201317D02*
X0109845Y0201317D01*
X0109900Y0202315D02*
X0110100Y0202315D01*
X0110100Y0203314D02*
X0109900Y0203314D01*
X0109604Y0204312D02*
X0110396Y0204312D01*
X0110810Y0205311D02*
X0109190Y0205311D01*
X0108351Y0206309D02*
X0111649Y0206309D01*
X0112939Y0207308D02*
X0107061Y0207308D01*
X0107919Y0208306D02*
X0112458Y0208306D01*
X0111411Y0209305D02*
X0108918Y0209305D01*
X0109425Y0210303D02*
X0110795Y0210303D01*
X0110429Y0211302D02*
X0109839Y0211302D01*
X0109900Y0212300D02*
X0115000Y0212300D01*
X0116000Y0212300D02*
X0138000Y0212300D01*
X0138000Y0211302D02*
X0120571Y0211302D01*
X0120205Y0210303D02*
X0138000Y0210303D01*
X0138000Y0209305D02*
X0119589Y0209305D01*
X0118542Y0208306D02*
X0138000Y0208306D01*
X0138000Y0207308D02*
X0118061Y0207308D01*
X0119351Y0206309D02*
X0138000Y0206309D01*
X0138000Y0205311D02*
X0120190Y0205311D01*
X0120604Y0204312D02*
X0138000Y0204312D01*
X0138000Y0203314D02*
X0120900Y0203314D01*
X0120900Y0202315D02*
X0138000Y0202315D01*
X0138000Y0201317D02*
X0120845Y0201317D01*
X0120431Y0200318D02*
X0138000Y0200318D01*
X0138000Y0199320D02*
X0119933Y0199320D01*
X0118934Y0198321D02*
X0138000Y0198321D01*
X0138000Y0197323D02*
X0117535Y0197323D01*
X0119053Y0196324D02*
X0138000Y0196324D01*
X0138000Y0195326D02*
X0119892Y0195326D01*
X0120382Y0194327D02*
X0138000Y0194327D01*
X0138000Y0193329D02*
X0120637Y0193329D01*
X0120642Y0213299D02*
X0138000Y0213299D01*
X0138000Y0214297D02*
X0120391Y0214297D01*
X0119913Y0215296D02*
X0138000Y0215296D01*
X0138000Y0216294D02*
X0119083Y0216294D01*
X0117594Y0217293D02*
X0138000Y0217293D01*
X0138000Y0218291D02*
X0118905Y0218291D01*
X0119903Y0219290D02*
X0138000Y0219290D01*
X0138000Y0220288D02*
X0120419Y0220288D01*
X0120833Y0221287D02*
X0138000Y0221287D01*
X0138000Y0222285D02*
X0120900Y0222285D01*
X0120900Y0223284D02*
X0138000Y0223284D01*
X0138000Y0224282D02*
X0120616Y0224282D01*
X0120203Y0225281D02*
X0138000Y0225281D01*
X0138000Y0226279D02*
X0119381Y0226279D01*
X0118133Y0227278D02*
X0138000Y0227278D01*
X0138000Y0228277D02*
X0106500Y0228277D01*
X0106500Y0229275D02*
X0138923Y0229275D01*
X0139921Y0230274D02*
X0106500Y0230274D01*
X0106500Y0231272D02*
X0140920Y0231272D01*
X0141919Y0232271D02*
X0106500Y0232271D01*
X0106500Y0233269D02*
X0142917Y0233269D01*
X0143916Y0234268D02*
X0106500Y0234268D01*
X0106500Y0235266D02*
X0170090Y0235266D01*
X0169677Y0236265D02*
X0106500Y0236265D01*
X0106500Y0237263D02*
X0169600Y0237263D01*
X0169600Y0238262D02*
X0106500Y0238262D01*
X0106092Y0239260D02*
X0169874Y0239260D01*
X0170288Y0240259D02*
X0152190Y0240259D01*
X0147810Y0240259D02*
X0105093Y0240259D01*
X0104095Y0241257D02*
X0147115Y0241257D01*
X0146850Y0242256D02*
X0103096Y0242256D01*
X0102098Y0243254D02*
X0146893Y0243254D01*
X0147307Y0244253D02*
X0101099Y0244253D01*
X0100101Y0245251D02*
X0148354Y0245251D01*
X0147175Y0250244D02*
X0170282Y0250244D01*
X0169868Y0249245D02*
X0096107Y0249245D01*
X0097105Y0248247D02*
X0169600Y0248247D01*
X0169600Y0247248D02*
X0098104Y0247248D01*
X0099102Y0246250D02*
X0169683Y0246250D01*
X0170096Y0245251D02*
X0151646Y0245251D01*
X0146682Y0255236D02*
X0170103Y0255236D01*
X0169689Y0256235D02*
X0040311Y0256235D01*
X0040400Y0257233D02*
X0169600Y0257233D01*
X0169600Y0258232D02*
X0040400Y0258232D01*
X0040138Y0259230D02*
X0169862Y0259230D01*
X0170276Y0260229D02*
X0039724Y0260229D01*
X0038933Y0261227D02*
X0171067Y0261227D01*
X0172241Y0262226D02*
X0037759Y0262226D01*
X0038338Y0263224D02*
X0171662Y0263224D01*
X0170664Y0264223D02*
X0039336Y0264223D01*
X0039891Y0265221D02*
X0170109Y0265221D01*
X0169695Y0266220D02*
X0040305Y0266220D01*
X0040400Y0267218D02*
X0169600Y0267218D01*
X0169600Y0268217D02*
X0040400Y0268217D01*
X0040144Y0269215D02*
X0169856Y0269215D01*
X0170269Y0270214D02*
X0039731Y0270214D01*
X0038948Y0271212D02*
X0171052Y0271212D01*
X0172205Y0272211D02*
X0037795Y0272211D01*
X0038323Y0273210D02*
X0171677Y0273210D01*
X0170679Y0274208D02*
X0039321Y0274208D01*
X0039885Y0275207D02*
X0170115Y0275207D01*
X0169701Y0276205D02*
X0040299Y0276205D01*
X0040400Y0277204D02*
X0169600Y0277204D01*
X0169600Y0278202D02*
X0040400Y0278202D01*
X0040150Y0279201D02*
X0169850Y0279201D01*
X0170263Y0280199D02*
X0039737Y0280199D01*
X0038963Y0281198D02*
X0171037Y0281198D01*
X0172170Y0282196D02*
X0037830Y0282196D01*
X0035000Y0267524D02*
X0015000Y0267524D01*
X0015000Y0237524D02*
X0035000Y0237524D01*
X0039961Y0235391D02*
X0040400Y0236449D01*
X0040400Y0238598D01*
X0039602Y0240524D01*
X0089172Y0240524D01*
X0093000Y0236695D01*
X0093000Y0221695D01*
X0098000Y0216695D01*
X0099172Y0215524D01*
X0099898Y0215524D01*
X0099484Y0214524D01*
X0095828Y0214524D01*
X0092000Y0218352D01*
X0092000Y0228352D01*
X0090828Y0229524D01*
X0085828Y0234524D01*
X0040828Y0234524D01*
X0039961Y0235391D01*
X0040086Y0235266D02*
X0093000Y0235266D01*
X0093000Y0234268D02*
X0086084Y0234268D01*
X0087083Y0233269D02*
X0093000Y0233269D01*
X0093000Y0232271D02*
X0088081Y0232271D01*
X0089080Y0231272D02*
X0093000Y0231272D01*
X0093000Y0230274D02*
X0090079Y0230274D01*
X0091077Y0229275D02*
X0093000Y0229275D01*
X0093000Y0228277D02*
X0092000Y0228277D01*
X0092000Y0227278D02*
X0093000Y0227278D01*
X0093000Y0226279D02*
X0092000Y0226279D01*
X0092000Y0225281D02*
X0093000Y0225281D01*
X0093000Y0224282D02*
X0092000Y0224282D01*
X0092000Y0223284D02*
X0093000Y0223284D01*
X0093000Y0222285D02*
X0092000Y0222285D01*
X0092000Y0221287D02*
X0093408Y0221287D01*
X0094407Y0220288D02*
X0092000Y0220288D01*
X0092000Y0219290D02*
X0095405Y0219290D01*
X0096404Y0218291D02*
X0092061Y0218291D01*
X0093059Y0217293D02*
X0097402Y0217293D01*
X0098401Y0216294D02*
X0094058Y0216294D01*
X0095056Y0215296D02*
X0099803Y0215296D01*
X0099484Y0210524D02*
X0099922Y0209465D01*
X0101441Y0207946D01*
X0102460Y0207524D01*
X0101441Y0207102D01*
X0099922Y0205582D01*
X0099484Y0204524D01*
X0090828Y0204524D01*
X0087000Y0208352D01*
X0087000Y0218352D01*
X0085828Y0219524D01*
X0080828Y0224524D01*
X0040828Y0224524D01*
X0039961Y0225391D01*
X0040400Y0226449D01*
X0040400Y0228598D01*
X0039602Y0230524D01*
X0084172Y0230524D01*
X0088000Y0226695D01*
X0088000Y0216695D01*
X0093000Y0211695D01*
X0094172Y0210524D01*
X0099484Y0210524D01*
X0099575Y0210303D02*
X0087000Y0210303D01*
X0087000Y0209305D02*
X0100082Y0209305D01*
X0101081Y0208306D02*
X0087046Y0208306D01*
X0088044Y0207308D02*
X0101939Y0207308D01*
X0100649Y0206309D02*
X0089043Y0206309D01*
X0090041Y0205311D02*
X0099810Y0205311D01*
X0093393Y0211302D02*
X0087000Y0211302D01*
X0087000Y0212300D02*
X0092395Y0212300D01*
X0091396Y0213299D02*
X0087000Y0213299D01*
X0087000Y0214297D02*
X0090398Y0214297D01*
X0089399Y0215296D02*
X0087000Y0215296D01*
X0087000Y0216294D02*
X0088401Y0216294D01*
X0088000Y0217293D02*
X0087000Y0217293D01*
X0087000Y0218291D02*
X0088000Y0218291D01*
X0088000Y0219290D02*
X0086062Y0219290D01*
X0085064Y0220288D02*
X0088000Y0220288D01*
X0088000Y0221287D02*
X0084065Y0221287D01*
X0083067Y0222285D02*
X0088000Y0222285D01*
X0088000Y0223284D02*
X0082068Y0223284D01*
X0081070Y0224282D02*
X0088000Y0224282D01*
X0088000Y0225281D02*
X0040071Y0225281D01*
X0040330Y0226279D02*
X0088000Y0226279D01*
X0087417Y0227278D02*
X0040400Y0227278D01*
X0040400Y0228277D02*
X0086419Y0228277D01*
X0085420Y0229275D02*
X0040119Y0229275D01*
X0039706Y0230274D02*
X0084422Y0230274D01*
X0090435Y0239260D02*
X0040126Y0239260D01*
X0040400Y0238262D02*
X0091434Y0238262D01*
X0092432Y0237263D02*
X0040400Y0237263D01*
X0040323Y0236265D02*
X0093000Y0236265D01*
X0095093Y0240259D02*
X0099437Y0240259D01*
X0100435Y0239260D02*
X0096092Y0239260D01*
X0095828Y0239524D02*
X0090828Y0244524D01*
X0040828Y0244524D01*
X0039961Y0245391D01*
X0040400Y0246449D01*
X0040400Y0248598D01*
X0039602Y0250524D01*
X0089172Y0250524D01*
X0102500Y0237195D01*
X0102500Y0227540D01*
X0101441Y0227102D01*
X0099922Y0225582D01*
X0099100Y0223598D01*
X0099100Y0221449D01*
X0099240Y0221112D01*
X0097000Y0223352D01*
X0097000Y0238352D01*
X0095828Y0239524D01*
X0097000Y0238262D02*
X0101434Y0238262D01*
X0102432Y0237263D02*
X0097000Y0237263D01*
X0097000Y0236265D02*
X0102500Y0236265D01*
X0102500Y0235266D02*
X0097000Y0235266D01*
X0097000Y0234268D02*
X0102500Y0234268D01*
X0102500Y0233269D02*
X0097000Y0233269D01*
X0097000Y0232271D02*
X0102500Y0232271D01*
X0102500Y0231272D02*
X0097000Y0231272D01*
X0097000Y0230274D02*
X0102500Y0230274D01*
X0102500Y0229275D02*
X0097000Y0229275D01*
X0097000Y0228277D02*
X0102500Y0228277D01*
X0101867Y0227278D02*
X0097000Y0227278D01*
X0097000Y0226279D02*
X0100619Y0226279D01*
X0099797Y0225281D02*
X0097000Y0225281D01*
X0097000Y0224282D02*
X0099384Y0224282D01*
X0099100Y0223284D02*
X0097068Y0223284D01*
X0098067Y0222285D02*
X0099100Y0222285D01*
X0099065Y0221287D02*
X0099167Y0221287D01*
X0107133Y0227278D02*
X0112867Y0227278D01*
X0111619Y0226279D02*
X0108381Y0226279D01*
X0109203Y0225281D02*
X0110797Y0225281D01*
X0110384Y0224282D02*
X0109616Y0224282D01*
X0109900Y0223284D02*
X0110100Y0223284D01*
X0110100Y0222285D02*
X0109900Y0222285D01*
X0109833Y0221287D02*
X0110167Y0221287D01*
X0110436Y0220288D02*
X0109419Y0220288D01*
X0109197Y0215296D02*
X0111087Y0215296D01*
X0110609Y0214297D02*
X0109610Y0214297D01*
X0109900Y0213299D02*
X0110358Y0213299D01*
X0098438Y0241257D02*
X0094095Y0241257D01*
X0093096Y0242256D02*
X0097440Y0242256D01*
X0096441Y0243254D02*
X0092098Y0243254D01*
X0091099Y0244253D02*
X0095443Y0244253D01*
X0094444Y0245251D02*
X0040101Y0245251D01*
X0040317Y0246250D02*
X0093445Y0246250D01*
X0092447Y0247248D02*
X0040400Y0247248D01*
X0040400Y0248247D02*
X0091448Y0248247D01*
X0090450Y0249245D02*
X0040132Y0249245D01*
X0039718Y0250244D02*
X0089451Y0250244D01*
X0092113Y0253239D02*
X0141887Y0253239D01*
X0141850Y0252241D02*
X0093111Y0252241D01*
X0094110Y0251242D02*
X0142121Y0251242D01*
X0142825Y0250244D02*
X0095108Y0250244D01*
X0091114Y0254238D02*
X0142301Y0254238D01*
X0143318Y0255236D02*
X0040116Y0255236D01*
X0039712Y0240259D02*
X0089437Y0240259D01*
X0079172Y0220524D02*
X0083000Y0216695D01*
X0083000Y0207352D01*
X0075828Y0214524D01*
X0074172Y0214524D01*
X0040828Y0214524D01*
X0039961Y0215391D01*
X0040400Y0216449D01*
X0040400Y0218598D01*
X0039602Y0220524D01*
X0079172Y0220524D01*
X0079407Y0220288D02*
X0039700Y0220288D01*
X0040113Y0219290D02*
X0080405Y0219290D01*
X0081404Y0218291D02*
X0040400Y0218291D01*
X0040400Y0217293D02*
X0082402Y0217293D01*
X0083000Y0216294D02*
X0040336Y0216294D01*
X0040056Y0215296D02*
X0083000Y0215296D01*
X0083000Y0214297D02*
X0076055Y0214297D01*
X0077053Y0213299D02*
X0083000Y0213299D01*
X0083000Y0212300D02*
X0078052Y0212300D01*
X0079050Y0211302D02*
X0083000Y0211302D01*
X0083000Y0210303D02*
X0080049Y0210303D01*
X0081047Y0209305D02*
X0083000Y0209305D01*
X0083000Y0208306D02*
X0082046Y0208306D01*
X0079384Y0205311D02*
X0040041Y0205311D01*
X0039961Y0205391D02*
X0040400Y0206449D01*
X0040400Y0208598D01*
X0039602Y0210524D01*
X0074172Y0210524D01*
X0080172Y0204524D01*
X0079172Y0204524D01*
X0040828Y0204524D01*
X0039961Y0205391D01*
X0040342Y0206309D02*
X0078386Y0206309D01*
X0077387Y0207308D02*
X0040400Y0207308D01*
X0040400Y0208306D02*
X0076389Y0208306D01*
X0075390Y0209305D02*
X0040107Y0209305D01*
X0039694Y0210303D02*
X0074392Y0210303D01*
X0109166Y0165370D02*
X0109825Y0165370D01*
X0109579Y0164372D02*
X0110421Y0164372D01*
X0110100Y0163373D02*
X0109900Y0163373D01*
X0109900Y0162375D02*
X0110100Y0162375D01*
X0110130Y0161376D02*
X0109870Y0161376D01*
X0109456Y0160378D02*
X0110544Y0160378D01*
X0111008Y0159379D02*
X0108992Y0159379D01*
X0107994Y0158381D02*
X0112006Y0158381D01*
X0113626Y0157382D02*
X0106881Y0157382D01*
X0108277Y0156384D02*
X0112006Y0156384D01*
X0111151Y0155385D02*
X0109160Y0155385D01*
X0109573Y0154387D02*
X0110638Y0154387D01*
X0110372Y0153388D02*
X0109900Y0153388D01*
X0131842Y0127427D02*
X0037273Y0127427D01*
X0038206Y0128425D02*
X0132841Y0128425D01*
X0133839Y0129424D02*
X0039175Y0129424D01*
X0039765Y0130422D02*
X0134838Y0130422D01*
X0135836Y0131421D02*
X0040090Y0131421D01*
X0040123Y0133418D02*
X0137833Y0133418D01*
X0136835Y0132419D02*
X0035500Y0132419D01*
X0035000Y0132524D02*
X0015000Y0132524D01*
X0015500Y0132419D02*
X0034500Y0132419D01*
X0034500Y0132024D02*
X0029814Y0132024D01*
X0029928Y0131306D01*
X0030181Y0130528D01*
X0030553Y0129798D01*
X0031034Y0129136D01*
X0031612Y0128557D01*
X0032275Y0128076D01*
X0033004Y0127705D01*
X0033224Y0127633D01*
X0031941Y0127102D01*
X0030422Y0125582D01*
X0030066Y0124724D01*
X0019934Y0124724D01*
X0019578Y0125582D01*
X0018059Y0127102D01*
X0016776Y0127633D01*
X0016996Y0127705D01*
X0017725Y0128076D01*
X0018388Y0128557D01*
X0018966Y0129136D01*
X0019447Y0129798D01*
X0019819Y0130528D01*
X0020072Y0131306D01*
X0020186Y0132024D01*
X0015500Y0132024D01*
X0015500Y0133024D01*
X0020186Y0133024D01*
X0020072Y0133741D01*
X0019819Y0134520D01*
X0019447Y0135249D01*
X0018966Y0135911D01*
X0018388Y0136490D01*
X0017725Y0136971D01*
X0016996Y0137343D01*
X0016776Y0137414D01*
X0018059Y0137946D01*
X0019578Y0139465D01*
X0019934Y0140324D01*
X0030066Y0140324D01*
X0030422Y0139465D01*
X0031941Y0137946D01*
X0033224Y0137414D01*
X0033004Y0137343D01*
X0032275Y0136971D01*
X0031612Y0136490D01*
X0031034Y0135911D01*
X0030553Y0135249D01*
X0030181Y0134520D01*
X0029928Y0133741D01*
X0029814Y0133024D01*
X0034500Y0133024D01*
X0034500Y0132024D01*
X0030825Y0129424D02*
X0019175Y0129424D01*
X0019765Y0130422D02*
X0030235Y0130422D01*
X0029910Y0131421D02*
X0020090Y0131421D01*
X0020123Y0133418D02*
X0029877Y0133418D01*
X0030147Y0134416D02*
X0019853Y0134416D01*
X0019327Y0135415D02*
X0030673Y0135415D01*
X0031536Y0136413D02*
X0018464Y0136413D01*
X0016783Y0137412D02*
X0033217Y0137412D01*
X0031476Y0138410D02*
X0018524Y0138410D01*
X0019522Y0139409D02*
X0030478Y0139409D01*
X0035000Y0142524D02*
X0015000Y0142524D01*
X0011238Y0146399D02*
X0007100Y0146399D01*
X0007100Y0147397D02*
X0012655Y0147397D01*
X0011491Y0148396D02*
X0007100Y0148396D01*
X0007100Y0149394D02*
X0010493Y0149394D01*
X0010038Y0150393D02*
X0007100Y0150393D01*
X0007100Y0151391D02*
X0009624Y0151391D01*
X0009600Y0152390D02*
X0007100Y0152390D01*
X0007100Y0153388D02*
X0009600Y0153388D01*
X0009927Y0154387D02*
X0007100Y0154387D01*
X0007100Y0155385D02*
X0010340Y0155385D01*
X0011223Y0156384D02*
X0007100Y0156384D01*
X0007100Y0157382D02*
X0012619Y0157382D01*
X0011506Y0158381D02*
X0007100Y0158381D01*
X0007100Y0159379D02*
X0010508Y0159379D01*
X0010044Y0160378D02*
X0007100Y0160378D01*
X0007100Y0161376D02*
X0009630Y0161376D01*
X0009600Y0162375D02*
X0007100Y0162375D01*
X0007100Y0163373D02*
X0009600Y0163373D01*
X0009921Y0164372D02*
X0007100Y0164372D01*
X0007100Y0165370D02*
X0010334Y0165370D01*
X0011208Y0166369D02*
X0007100Y0166369D01*
X0007100Y0167367D02*
X0012583Y0167367D01*
X0011521Y0168366D02*
X0007100Y0168366D01*
X0007100Y0169364D02*
X0010523Y0169364D01*
X0010050Y0170363D02*
X0007100Y0170363D01*
X0007100Y0171361D02*
X0009637Y0171361D01*
X0009600Y0172360D02*
X0007100Y0172360D01*
X0007100Y0173358D02*
X0009600Y0173358D01*
X0009914Y0174357D02*
X0007100Y0174357D01*
X0007100Y0175355D02*
X0010328Y0175355D01*
X0011194Y0176354D02*
X0007100Y0176354D01*
X0007100Y0177352D02*
X0012547Y0177352D01*
X0011536Y0178351D02*
X0007100Y0178351D01*
X0007100Y0179349D02*
X0010537Y0179349D01*
X0010056Y0180348D02*
X0007100Y0180348D01*
X0007100Y0181346D02*
X0009643Y0181346D01*
X0009600Y0182345D02*
X0007100Y0182345D01*
X0007100Y0183343D02*
X0009600Y0183343D01*
X0009908Y0184342D02*
X0007100Y0184342D01*
X0007100Y0185341D02*
X0010322Y0185341D01*
X0011179Y0186339D02*
X0007100Y0186339D01*
X0007100Y0187338D02*
X0012511Y0187338D01*
X0011551Y0188336D02*
X0007100Y0188336D01*
X0007100Y0189335D02*
X0010552Y0189335D01*
X0010062Y0190333D02*
X0007100Y0190333D01*
X0007100Y0191332D02*
X0009649Y0191332D01*
X0009600Y0192330D02*
X0007100Y0192330D01*
X0007100Y0193329D02*
X0009600Y0193329D01*
X0009902Y0194327D02*
X0007100Y0194327D01*
X0007100Y0195326D02*
X0010316Y0195326D01*
X0011164Y0196324D02*
X0007100Y0196324D01*
X0007100Y0197323D02*
X0012475Y0197323D01*
X0015000Y0192524D02*
X0035000Y0192524D01*
X0032475Y0197323D02*
X0017525Y0197323D01*
X0018836Y0196324D02*
X0031164Y0196324D01*
X0030316Y0195326D02*
X0019684Y0195326D01*
X0015000Y0182524D02*
X0035000Y0182524D01*
X0035000Y0172524D02*
X0015000Y0172524D01*
X0015000Y0162524D02*
X0035000Y0162524D01*
X0035000Y0152524D02*
X0015000Y0152524D01*
X0010347Y0145400D02*
X0007100Y0145400D01*
X0007100Y0144402D02*
X0009933Y0144402D01*
X0009600Y0143403D02*
X0007100Y0143403D01*
X0007100Y0142405D02*
X0009600Y0142405D01*
X0009618Y0141406D02*
X0007100Y0141406D01*
X0007100Y0140408D02*
X0010032Y0140408D01*
X0010478Y0139409D02*
X0007100Y0139409D01*
X0007100Y0138410D02*
X0011476Y0138410D01*
X0011536Y0136413D02*
X0007100Y0136413D01*
X0007100Y0135415D02*
X0010673Y0135415D01*
X0010147Y0134416D02*
X0007100Y0134416D01*
X0007100Y0133418D02*
X0009877Y0133418D01*
X0009910Y0131421D02*
X0007100Y0131421D01*
X0007100Y0132419D02*
X0014500Y0132419D01*
X0013217Y0137412D02*
X0007100Y0137412D01*
X0007100Y0130422D02*
X0010235Y0130422D01*
X0010825Y0129424D02*
X0007100Y0129424D01*
X0007100Y0128425D02*
X0011794Y0128425D01*
X0012727Y0127427D02*
X0007100Y0127427D01*
X0007100Y0126428D02*
X0011268Y0126428D01*
X0010359Y0125430D02*
X0007100Y0125430D01*
X0007100Y0124431D02*
X0009945Y0124431D01*
X0009600Y0123433D02*
X0007100Y0123433D01*
X0007100Y0122434D02*
X0009600Y0122434D01*
X0009606Y0121436D02*
X0007100Y0121436D01*
X0007100Y0120437D02*
X0010019Y0120437D01*
X0010448Y0119439D02*
X0007100Y0119439D01*
X0007100Y0118440D02*
X0011447Y0118440D01*
X0012763Y0117442D02*
X0007100Y0117442D01*
X0007100Y0116443D02*
X0011283Y0116443D01*
X0010365Y0115445D02*
X0007100Y0115445D01*
X0007100Y0114446D02*
X0009951Y0114446D01*
X0009600Y0113448D02*
X0007100Y0113448D01*
X0007100Y0112449D02*
X0009600Y0112449D01*
X0009600Y0111451D02*
X0007100Y0111451D01*
X0007100Y0110452D02*
X0010013Y0110452D01*
X0010433Y0109454D02*
X0007100Y0109454D01*
X0007100Y0108455D02*
X0011432Y0108455D01*
X0012798Y0107457D02*
X0007100Y0107457D01*
X0007100Y0106458D02*
X0011298Y0106458D01*
X0010371Y0105460D02*
X0007100Y0105460D01*
X0007100Y0104461D02*
X0009958Y0104461D01*
X0009600Y0103463D02*
X0007100Y0103463D01*
X0007100Y0102464D02*
X0009600Y0102464D01*
X0009600Y0101466D02*
X0007100Y0101466D01*
X0007100Y0100467D02*
X0010007Y0100467D01*
X0010421Y0099469D02*
X0007100Y0099469D01*
X0007100Y0098470D02*
X0011417Y0098470D01*
X0013086Y0097472D02*
X0007100Y0097472D01*
X0007100Y0096473D02*
X0114300Y0096473D01*
X0114300Y0095474D02*
X0007100Y0095474D01*
X0007100Y0094476D02*
X0114300Y0094476D01*
X0114300Y0093477D02*
X0007100Y0093477D01*
X0007100Y0092479D02*
X0114300Y0092479D01*
X0114300Y0091480D02*
X0007100Y0091480D01*
X0007100Y0090482D02*
X0114300Y0090482D01*
X0114300Y0089483D02*
X0007100Y0089483D01*
X0007100Y0088485D02*
X0114300Y0088485D01*
X0114300Y0087486D02*
X0007100Y0087486D01*
X0007100Y0086488D02*
X0114300Y0086488D01*
X0114300Y0085489D02*
X0007100Y0085489D01*
X0007100Y0084491D02*
X0114300Y0084491D01*
X0114300Y0083492D02*
X0007100Y0083492D01*
X0007100Y0082494D02*
X0094849Y0082494D01*
X0094800Y0082445D02*
X0094602Y0082103D01*
X0094500Y0081721D01*
X0094500Y0078024D01*
X0099500Y0078024D01*
X0099500Y0083024D01*
X0095803Y0083024D01*
X0095421Y0082921D01*
X0095079Y0082724D01*
X0094800Y0082445D01*
X0094500Y0081495D02*
X0007100Y0081495D01*
X0007100Y0080497D02*
X0094500Y0080497D01*
X0094500Y0079498D02*
X0007100Y0079498D01*
X0007100Y0078500D02*
X0094500Y0078500D01*
X0094500Y0076503D02*
X0007100Y0076503D01*
X0007100Y0077501D02*
X0099500Y0077501D01*
X0099500Y0077024D02*
X0099500Y0078024D01*
X0100500Y0078024D01*
X0100500Y0083024D01*
X0104197Y0083024D01*
X0104579Y0082921D01*
X0104921Y0082724D01*
X0105200Y0082445D01*
X0105398Y0082103D01*
X0105500Y0081721D01*
X0105500Y0078024D01*
X0100500Y0078024D01*
X0100500Y0077024D01*
X0105500Y0077024D01*
X0105500Y0073326D01*
X0105398Y0072945D01*
X0105200Y0072603D01*
X0104921Y0072323D01*
X0104579Y0072126D01*
X0104197Y0072024D01*
X0100500Y0072024D01*
X0100500Y0077024D01*
X0099500Y0077024D01*
X0099500Y0076503D02*
X0100500Y0076503D01*
X0100500Y0077501D02*
X0113985Y0077501D01*
X0113985Y0076503D02*
X0105500Y0076503D01*
X0105500Y0075504D02*
X0114352Y0075504D01*
X0114765Y0074506D02*
X0105500Y0074506D01*
X0105500Y0073507D02*
X0115640Y0073507D01*
X0116897Y0072509D02*
X0105106Y0072509D01*
X0100500Y0072509D02*
X0099500Y0072509D01*
X0099500Y0073507D02*
X0100500Y0073507D01*
X0100500Y0074506D02*
X0099500Y0074506D01*
X0099500Y0075504D02*
X0100500Y0075504D01*
X0100500Y0078500D02*
X0099500Y0078500D01*
X0099500Y0079498D02*
X0100500Y0079498D01*
X0100500Y0080497D02*
X0099500Y0080497D01*
X0099500Y0081495D02*
X0100500Y0081495D01*
X0100500Y0082494D02*
X0099500Y0082494D01*
X0094500Y0075504D02*
X0007100Y0075504D01*
X0007100Y0074506D02*
X0094500Y0074506D01*
X0105500Y0078500D02*
X0113985Y0078500D01*
X0114300Y0079498D02*
X0105500Y0079498D01*
X0105500Y0080497D02*
X0114300Y0080497D01*
X0114300Y0081495D02*
X0105500Y0081495D01*
X0105151Y0082494D02*
X0114300Y0082494D01*
X0114300Y0097472D02*
X0036914Y0097472D01*
X0038583Y0098470D02*
X0114300Y0098470D01*
X0114300Y0099469D02*
X0039579Y0099469D01*
X0039993Y0100467D02*
X0114300Y0100467D01*
X0114300Y0101466D02*
X0040400Y0101466D01*
X0040400Y0102464D02*
X0114300Y0102464D01*
X0114300Y0103463D02*
X0040400Y0103463D01*
X0040042Y0104461D02*
X0114300Y0104461D01*
X0114300Y0105460D02*
X0039629Y0105460D01*
X0038702Y0106458D02*
X0114300Y0106458D01*
X0114300Y0107457D02*
X0037202Y0107457D01*
X0038568Y0108455D02*
X0114300Y0108455D01*
X0114630Y0109454D02*
X0039567Y0109454D01*
X0039987Y0110452D02*
X0115043Y0110452D01*
X0115866Y0111451D02*
X0040400Y0111451D01*
X0040400Y0112449D02*
X0116865Y0112449D01*
X0117863Y0113448D02*
X0040400Y0113448D01*
X0040049Y0114446D02*
X0118862Y0114446D01*
X0119860Y0115445D02*
X0039635Y0115445D01*
X0038717Y0116443D02*
X0120859Y0116443D01*
X0121857Y0117442D02*
X0037237Y0117442D01*
X0038553Y0118440D02*
X0122856Y0118440D01*
X0123854Y0119439D02*
X0039552Y0119439D01*
X0039981Y0120437D02*
X0124853Y0120437D01*
X0125851Y0121436D02*
X0040394Y0121436D01*
X0040400Y0122434D02*
X0126850Y0122434D01*
X0127848Y0123433D02*
X0040400Y0123433D01*
X0040055Y0124431D02*
X0128847Y0124431D01*
X0129845Y0125430D02*
X0039641Y0125430D01*
X0038732Y0126428D02*
X0130844Y0126428D01*
X0137979Y0117442D02*
X0169600Y0117442D01*
X0169600Y0118440D02*
X0138978Y0118440D01*
X0139976Y0119439D02*
X0169948Y0119439D01*
X0170300Y0120437D02*
X0140975Y0120437D01*
X0141973Y0121436D02*
X0170300Y0121436D01*
X0170300Y0122434D02*
X0142972Y0122434D01*
X0143970Y0123433D02*
X0170300Y0123433D01*
X0170300Y0124431D02*
X0144969Y0124431D01*
X0145967Y0125430D02*
X0170022Y0125430D01*
X0169609Y0126428D02*
X0146966Y0126428D01*
X0147964Y0127427D02*
X0169600Y0127427D01*
X0169600Y0128425D02*
X0148963Y0128425D01*
X0149961Y0129424D02*
X0169942Y0129424D01*
X0170300Y0130422D02*
X0150960Y0130422D01*
X0151958Y0131421D02*
X0170300Y0131421D01*
X0170300Y0132419D02*
X0152957Y0132419D01*
X0153955Y0133418D02*
X0170300Y0133418D01*
X0170300Y0134416D02*
X0154883Y0134416D01*
X0155296Y0135415D02*
X0170029Y0135415D01*
X0169615Y0136413D02*
X0155700Y0136413D01*
X0155700Y0137412D02*
X0169600Y0137412D01*
X0169600Y0138410D02*
X0155700Y0138410D01*
X0155700Y0139409D02*
X0169936Y0139409D01*
X0170300Y0140408D02*
X0155700Y0140408D01*
X0155700Y0141406D02*
X0170300Y0141406D01*
X0170300Y0142405D02*
X0155700Y0142405D01*
X0155700Y0143403D02*
X0170300Y0143403D01*
X0170300Y0144402D02*
X0155700Y0144402D01*
X0155700Y0145400D02*
X0170035Y0145400D01*
X0169621Y0146399D02*
X0155700Y0146399D01*
X0155700Y0147397D02*
X0169600Y0147397D01*
X0169600Y0148396D02*
X0155700Y0148396D01*
X0155700Y0149394D02*
X0169930Y0149394D01*
X0170300Y0150393D02*
X0155700Y0150393D01*
X0155700Y0151391D02*
X0170300Y0151391D01*
X0170300Y0152390D02*
X0155700Y0152390D01*
X0155700Y0153388D02*
X0170300Y0153388D01*
X0170300Y0154387D02*
X0155700Y0154387D01*
X0155700Y0155385D02*
X0170041Y0155385D01*
X0169627Y0156384D02*
X0155700Y0156384D01*
X0155700Y0157382D02*
X0169600Y0157382D01*
X0169600Y0158381D02*
X0155700Y0158381D01*
X0155700Y0159379D02*
X0169924Y0159379D01*
X0170300Y0160378D02*
X0155700Y0160378D01*
X0155700Y0161376D02*
X0170300Y0161376D01*
X0170300Y0162375D02*
X0155700Y0162375D01*
X0155700Y0163373D02*
X0170300Y0163373D01*
X0170300Y0164372D02*
X0155700Y0164372D01*
X0155700Y0165370D02*
X0170047Y0165370D01*
X0169633Y0166369D02*
X0155700Y0166369D01*
X0155700Y0167367D02*
X0169600Y0167367D01*
X0169600Y0168366D02*
X0155700Y0168366D01*
X0155700Y0169364D02*
X0169918Y0169364D01*
X0170331Y0170363D02*
X0155700Y0170363D01*
X0155700Y0171361D02*
X0171201Y0171361D01*
X0172565Y0172360D02*
X0155700Y0172360D01*
X0155700Y0173358D02*
X0181528Y0173358D01*
X0180530Y0174357D02*
X0155700Y0174357D01*
X0155700Y0175355D02*
X0180053Y0175355D01*
X0179640Y0176354D02*
X0155700Y0176354D01*
X0155700Y0177352D02*
X0179600Y0177352D01*
X0179600Y0178351D02*
X0155700Y0178351D01*
X0155700Y0179349D02*
X0179911Y0179349D01*
X0180325Y0180348D02*
X0155700Y0180348D01*
X0155700Y0181346D02*
X0181186Y0181346D01*
X0182529Y0182345D02*
X0155700Y0182345D01*
X0155700Y0183343D02*
X0181907Y0183343D01*
X0180884Y0184342D02*
X0155700Y0184342D01*
X0155700Y0185341D02*
X0180276Y0185341D01*
X0179923Y0186339D02*
X0155700Y0186339D01*
X0155700Y0187338D02*
X0184500Y0187338D01*
X0184500Y0188336D02*
X0185500Y0188336D01*
X0185500Y0188024D02*
X0185500Y0192338D01*
X0185500Y0197024D01*
X0190186Y0197024D01*
X0190072Y0196306D01*
X0189819Y0195528D01*
X0189447Y0194798D01*
X0188966Y0194136D01*
X0188388Y0193557D01*
X0187725Y0193076D01*
X0186996Y0192705D01*
X0186439Y0192524D01*
X0186996Y0192343D01*
X0187725Y0191971D01*
X0188388Y0191490D01*
X0188966Y0190911D01*
X0189447Y0190249D01*
X0189819Y0189520D01*
X0190072Y0188741D01*
X0190186Y0188024D01*
X0185500Y0188024D01*
X0185500Y0189335D02*
X0184500Y0189335D01*
X0184500Y0190333D02*
X0185500Y0190333D01*
X0185500Y0191332D02*
X0184500Y0191332D01*
X0184500Y0192330D02*
X0185500Y0192330D01*
X0185500Y0193329D02*
X0184500Y0193329D01*
X0184500Y0194327D02*
X0185500Y0194327D01*
X0185500Y0195326D02*
X0184500Y0195326D01*
X0184500Y0196324D02*
X0185500Y0196324D01*
X0185500Y0197323D02*
X0204500Y0197323D01*
X0205000Y0197524D02*
X0185000Y0197524D01*
X0184500Y0197323D02*
X0157860Y0197323D01*
X0158859Y0198321D02*
X0179862Y0198321D01*
X0180116Y0199320D02*
X0159857Y0199320D01*
X0160856Y0200318D02*
X0180603Y0200318D01*
X0181439Y0201317D02*
X0161854Y0201317D01*
X0156862Y0196324D02*
X0179925Y0196324D01*
X0180284Y0195326D02*
X0155863Y0195326D01*
X0155700Y0194327D02*
X0180895Y0194327D01*
X0181927Y0193329D02*
X0155700Y0193329D01*
X0155700Y0192330D02*
X0182979Y0192330D01*
X0181454Y0191332D02*
X0155700Y0191332D01*
X0155700Y0190333D02*
X0180614Y0190333D01*
X0180121Y0189335D02*
X0155700Y0189335D01*
X0155700Y0188336D02*
X0179864Y0188336D01*
X0187021Y0192330D02*
X0202979Y0192330D01*
X0201927Y0193329D02*
X0188073Y0193329D01*
X0189105Y0194327D02*
X0200895Y0194327D01*
X0200284Y0195326D02*
X0189716Y0195326D01*
X0190075Y0196324D02*
X0199925Y0196324D01*
X0199862Y0198321D02*
X0190138Y0198321D01*
X0189884Y0199320D02*
X0200116Y0199320D01*
X0200603Y0200318D02*
X0189397Y0200318D01*
X0188561Y0201317D02*
X0201439Y0201317D01*
X0209716Y0195326D02*
X0212900Y0195326D01*
X0212900Y0196324D02*
X0210075Y0196324D01*
X0209105Y0194327D02*
X0212900Y0194327D01*
X0212900Y0193329D02*
X0208073Y0193329D01*
X0207021Y0192330D02*
X0212900Y0192330D01*
X0212900Y0191332D02*
X0208546Y0191332D01*
X0209386Y0190333D02*
X0212900Y0190333D01*
X0212900Y0189335D02*
X0209879Y0189335D01*
X0201454Y0191332D02*
X0188546Y0191332D01*
X0189386Y0190333D02*
X0200614Y0190333D01*
X0200121Y0189335D02*
X0189879Y0189335D01*
X0190136Y0188336D02*
X0199864Y0188336D01*
X0199923Y0186339D02*
X0190077Y0186339D01*
X0189724Y0185341D02*
X0200276Y0185341D01*
X0200884Y0184342D02*
X0189116Y0184342D01*
X0188093Y0183343D02*
X0201907Y0183343D01*
X0202529Y0182345D02*
X0187471Y0182345D01*
X0188814Y0181346D02*
X0201186Y0181346D01*
X0200325Y0180348D02*
X0189675Y0180348D01*
X0185000Y0177524D02*
X0205000Y0177524D01*
X0205000Y0157524D02*
X0185000Y0157524D01*
X0185000Y0147524D02*
X0205000Y0147524D01*
X0201484Y0143403D02*
X0188516Y0143403D01*
X0189515Y0144402D02*
X0200485Y0144402D01*
X0202673Y0142405D02*
X0186752Y0142405D01*
X0183248Y0142405D02*
X0179700Y0142405D01*
X0179700Y0143403D02*
X0181484Y0143403D01*
X0180485Y0144402D02*
X0179700Y0144402D01*
X0179965Y0145400D02*
X0180035Y0145400D01*
X0179700Y0141406D02*
X0201246Y0141406D01*
X0200350Y0140408D02*
X0179700Y0140408D01*
X0180064Y0139409D02*
X0199936Y0139409D01*
X0199600Y0138410D02*
X0180400Y0138410D01*
X0180400Y0137412D02*
X0199600Y0137412D01*
X0199615Y0136413D02*
X0180385Y0136413D01*
X0179971Y0135415D02*
X0200029Y0135415D01*
X0200470Y0134416D02*
X0179700Y0134416D01*
X0179700Y0133418D02*
X0201469Y0133418D01*
X0203212Y0132419D02*
X0179700Y0132419D01*
X0169603Y0116443D02*
X0136981Y0116443D01*
X0135982Y0115445D02*
X0170016Y0115445D01*
X0170300Y0114446D02*
X0134984Y0114446D01*
X0133985Y0113448D02*
X0170300Y0113448D01*
X0170300Y0112449D02*
X0132987Y0112449D01*
X0131988Y0111451D02*
X0170300Y0111451D01*
X0170300Y0110452D02*
X0130990Y0110452D01*
X0129991Y0109454D02*
X0169955Y0109454D01*
X0169600Y0108455D02*
X0128993Y0108455D01*
X0127994Y0107457D02*
X0169600Y0107457D01*
X0169600Y0106458D02*
X0126996Y0106458D01*
X0125997Y0105460D02*
X0170010Y0105460D01*
X0170426Y0104461D02*
X0125700Y0104461D01*
X0125700Y0103463D02*
X0171424Y0103463D01*
X0173104Y0102464D02*
X0125700Y0102464D01*
X0138832Y0134416D02*
X0039853Y0134416D01*
X0039327Y0135415D02*
X0139830Y0135415D01*
X0140829Y0136413D02*
X0038464Y0136413D01*
X0036783Y0137412D02*
X0141827Y0137412D01*
X0142826Y0138410D02*
X0038524Y0138410D01*
X0039522Y0139409D02*
X0143824Y0139409D01*
X0144300Y0140408D02*
X0039968Y0140408D01*
X0040382Y0141406D02*
X0144300Y0141406D01*
X0144300Y0142405D02*
X0040400Y0142405D01*
X0040400Y0143403D02*
X0144300Y0143403D01*
X0144300Y0144402D02*
X0040067Y0144402D01*
X0039653Y0145400D02*
X0144300Y0145400D01*
X0144300Y0176354D02*
X0141659Y0176354D01*
X0142657Y0177352D02*
X0144300Y0177352D01*
X0144300Y0178351D02*
X0143656Y0178351D01*
X0147000Y0203314D02*
X0147729Y0203314D01*
X0147000Y0204312D02*
X0148728Y0204312D01*
X0149726Y0205311D02*
X0147000Y0205311D01*
X0147000Y0206309D02*
X0150725Y0206309D01*
X0151723Y0207308D02*
X0147000Y0207308D01*
X0147000Y0208306D02*
X0152722Y0208306D01*
X0153720Y0209305D02*
X0147000Y0209305D01*
X0147000Y0210303D02*
X0154719Y0210303D01*
X0155717Y0211302D02*
X0147000Y0211302D01*
X0147000Y0212300D02*
X0156716Y0212300D01*
X0185000Y0237524D02*
X0205000Y0237524D01*
X0208888Y0231272D02*
X0212900Y0231272D01*
X0212900Y0230274D02*
X0209706Y0230274D01*
X0210119Y0229275D02*
X0212900Y0229275D01*
X0212900Y0228277D02*
X0210400Y0228277D01*
X0210400Y0227278D02*
X0212900Y0227278D01*
X0212900Y0226279D02*
X0210330Y0226279D01*
X0209916Y0225281D02*
X0212900Y0225281D01*
X0212900Y0224282D02*
X0209396Y0224282D01*
X0208397Y0223284D02*
X0212900Y0223284D01*
X0212900Y0222285D02*
X0206465Y0222285D01*
X0205000Y0247524D02*
X0185000Y0247524D01*
X0185000Y0267524D02*
X0205000Y0267524D01*
X0205000Y0277524D02*
X0185000Y0277524D01*
X0188963Y0281198D02*
X0201037Y0281198D01*
X0200263Y0280199D02*
X0189737Y0280199D01*
X0187830Y0282196D02*
X0202170Y0282196D01*
X0182170Y0282196D02*
X0177830Y0282196D01*
X0178963Y0281198D02*
X0181037Y0281198D01*
X0180263Y0280199D02*
X0179737Y0280199D01*
X0177435Y0172360D02*
X0182565Y0172360D01*
X0181201Y0171361D02*
X0178799Y0171361D01*
X0179669Y0170363D02*
X0180331Y0170363D01*
X0035000Y0122524D02*
X0015000Y0122524D01*
X0018732Y0126428D02*
X0031268Y0126428D01*
X0030359Y0125430D02*
X0019641Y0125430D01*
X0018206Y0128425D02*
X0031794Y0128425D01*
X0032727Y0127427D02*
X0017273Y0127427D01*
X0015000Y0112524D02*
X0035000Y0112524D01*
X0035000Y0102524D02*
X0015000Y0102524D01*
X0016914Y0097472D02*
X0033086Y0097472D01*
X0031417Y0098470D02*
X0018583Y0098470D01*
X0019579Y0099469D02*
X0030421Y0099469D01*
X0024947Y0072509D02*
X0022557Y0072509D01*
X0023362Y0071934D02*
X0023362Y0071934D01*
X0023507Y0071510D02*
X0024277Y0071510D01*
X0024350Y0070512D02*
X0023922Y0070512D01*
X0023971Y0070412D02*
X0023971Y0070412D01*
X0024178Y0069513D02*
X0024350Y0069513D01*
X0024335Y0068515D02*
X0024350Y0068515D01*
X0024335Y0067516D02*
X0024350Y0067516D01*
X0015000Y0227524D02*
X0035000Y0227524D01*
D16*
X0045000Y0182524D02*
X0045000Y0172524D01*
X0045000Y0132524D02*
X0035000Y0132524D01*
X0175000Y0107524D02*
X0175000Y0167524D01*
X0185000Y0167524D02*
X0205000Y0167524D01*
D17*
X0205000Y0207524D02*
X0185000Y0207524D01*
X0160000Y0207524D01*
X0150000Y0197524D01*
X0150000Y0137524D01*
X0120000Y0107524D01*
X0120000Y0077839D01*
X0119685Y0077524D01*
D18*
X0099500Y0157524D02*
X0040000Y0157524D01*
X0035000Y0162524D01*
X0040000Y0167524D02*
X0110500Y0167524D01*
X0115500Y0162524D01*
X0104500Y0162524D02*
X0099500Y0157524D01*
X0109500Y0177524D02*
X0140000Y0177524D01*
X0145000Y0182524D01*
X0145000Y0217524D01*
X0150000Y0222524D01*
X0180000Y0222524D01*
X0185000Y0227524D01*
X0180000Y0232524D02*
X0145000Y0232524D01*
X0140000Y0227524D01*
X0140000Y0187524D01*
X0135000Y0182524D01*
X0115500Y0182524D01*
X0109500Y0177524D02*
X0104500Y0182524D01*
X0104500Y0192524D02*
X0090000Y0192524D01*
X0080000Y0202524D01*
X0040000Y0202524D01*
X0035000Y0207524D01*
X0040000Y0212524D02*
X0075000Y0212524D01*
X0090000Y0197524D01*
X0110500Y0197524D01*
X0115500Y0202524D01*
X0104500Y0202524D02*
X0090000Y0202524D01*
X0085000Y0207524D01*
X0085000Y0217524D01*
X0080000Y0222524D01*
X0040000Y0222524D01*
X0035000Y0227524D01*
X0040000Y0232524D02*
X0085000Y0232524D01*
X0090000Y0227524D01*
X0090000Y0217524D01*
X0095000Y0212524D01*
X0104500Y0212524D01*
X0100000Y0217524D02*
X0110500Y0217524D01*
X0115500Y0222524D01*
X0104500Y0222524D02*
X0104500Y0238024D01*
X0090000Y0252524D01*
X0040000Y0252524D01*
X0035000Y0257524D01*
X0015000Y0257524D01*
X0015000Y0247524D02*
X0035000Y0247524D01*
X0040000Y0242524D01*
X0090000Y0242524D01*
X0095000Y0237524D01*
X0095000Y0222524D01*
X0100000Y0217524D01*
X0145000Y0252524D02*
X0180000Y0252524D01*
X0185000Y0257524D01*
X0205000Y0257524D01*
X0185000Y0247524D02*
X0180000Y0242524D01*
X0150000Y0242524D01*
X0180000Y0232524D02*
X0185000Y0237524D01*
X0040000Y0232524D02*
X0035000Y0237524D01*
X0035000Y0217524D02*
X0015000Y0217524D01*
X0035000Y0217524D02*
X0040000Y0212524D01*
X0035000Y0172524D02*
X0040000Y0167524D01*
D19*
X0145000Y0252524D03*
X0150000Y0242524D03*
M02*
