G75*
%MOIN*%
%OFA0B0*%
%FSLAX25Y25*%
%IPPOS*%
%LPD*%
%AMOC8*
5,1,8,0,0,1.08239X$1,22.5*
%
%ADD10C,0.08200*%
%ADD11C,0.04737*%
%ADD12R,0.08800X0.08800*%
%ADD13C,0.08800*%
D10*
X0015000Y0102524D03*
X0015000Y0112524D03*
X0015000Y0122524D03*
X0015000Y0132524D03*
X0015000Y0142524D03*
X0015000Y0152524D03*
X0015000Y0162524D03*
X0015000Y0172524D03*
X0015000Y0182524D03*
X0015000Y0192524D03*
X0015000Y0207524D03*
X0015000Y0217524D03*
X0015000Y0227524D03*
X0015000Y0237524D03*
X0015000Y0247524D03*
X0015000Y0257524D03*
X0015000Y0267524D03*
X0015000Y0277524D03*
X0035000Y0277524D03*
X0035000Y0267524D03*
X0035000Y0257524D03*
X0045000Y0257524D03*
X0045000Y0267524D03*
X0045000Y0277524D03*
X0045000Y0247524D03*
X0045000Y0237524D03*
X0045000Y0227524D03*
X0035000Y0227524D03*
X0035000Y0237524D03*
X0035000Y0247524D03*
X0035000Y0217524D03*
X0035000Y0207524D03*
X0045000Y0207524D03*
X0045000Y0217524D03*
X0045000Y0192524D03*
X0045000Y0182524D03*
X0035000Y0182524D03*
X0035000Y0192524D03*
X0035000Y0172524D03*
X0035000Y0162524D03*
X0035000Y0152524D03*
X0045000Y0152524D03*
X0045000Y0162524D03*
X0045000Y0172524D03*
X0045000Y0142524D03*
X0045000Y0132524D03*
X0035000Y0132524D03*
X0035000Y0142524D03*
X0035000Y0122524D03*
X0035000Y0112524D03*
X0035000Y0102524D03*
X0045000Y0102524D03*
X0045000Y0112524D03*
X0045000Y0122524D03*
X0104500Y0152524D03*
X0104500Y0162524D03*
X0104500Y0172524D03*
X0104500Y0182524D03*
X0104500Y0192524D03*
X0104500Y0202524D03*
X0104500Y0212524D03*
X0104500Y0222524D03*
X0115500Y0222524D03*
X0115500Y0212524D03*
X0115500Y0202524D03*
X0115500Y0192524D03*
X0115500Y0182524D03*
X0115500Y0172524D03*
X0115500Y0162524D03*
X0115500Y0152524D03*
X0175000Y0157524D03*
X0175000Y0147524D03*
X0175000Y0137524D03*
X0175000Y0127524D03*
X0175000Y0117524D03*
X0175000Y0107524D03*
X0185000Y0147524D03*
X0185000Y0157524D03*
X0185000Y0167524D03*
X0185000Y0177524D03*
X0185000Y0187524D03*
X0185000Y0197524D03*
X0185000Y0207524D03*
X0185000Y0227524D03*
X0185000Y0237524D03*
X0185000Y0247524D03*
X0185000Y0257524D03*
X0185000Y0267524D03*
X0185000Y0277524D03*
X0175000Y0277524D03*
X0175000Y0267524D03*
X0175000Y0257524D03*
X0175000Y0247524D03*
X0175000Y0237524D03*
X0175000Y0227524D03*
X0205000Y0227524D03*
X0205000Y0237524D03*
X0205000Y0247524D03*
X0205000Y0257524D03*
X0205000Y0267524D03*
X0205000Y0277524D03*
X0205000Y0207524D03*
X0205000Y0197524D03*
X0205000Y0187524D03*
X0205000Y0177524D03*
X0205000Y0167524D03*
X0205000Y0157524D03*
X0205000Y0147524D03*
X0205000Y0137524D03*
X0175000Y0167524D03*
D11*
X0210000Y0077524D03*
X0020000Y0287524D03*
D12*
X0100000Y0077524D03*
D13*
X0119685Y0077524D03*
M02*
