G75*
%MOIN*%
%OFA0B0*%
%FSLAX25Y25*%
%IPPOS*%
%LPD*%
%AMOC8*
5,1,8,0,0,1.08239X$1,22.5*
%
%ADD10C,0.00800*%
%ADD11C,0.01000*%
%ADD12C,0.00299*%
%ADD13R,0.17165X0.00157*%
%ADD14R,0.05827X0.00157*%
%ADD15R,0.03937X0.00157*%
%ADD16R,0.05354X0.00157*%
%ADD17R,0.03307X0.00157*%
%ADD18R,0.05197X0.00157*%
%ADD19R,0.02677X0.00157*%
%ADD20R,0.05039X0.00157*%
%ADD21R,0.02362X0.00157*%
%ADD22R,0.04882X0.00157*%
%ADD23R,0.02205X0.00157*%
%ADD24R,0.02047X0.00157*%
%ADD25R,0.04724X0.00157*%
%ADD26R,0.00472X0.00157*%
%ADD27R,0.00315X0.00157*%
%ADD28R,0.00787X0.00157*%
%ADD29R,0.01890X0.00157*%
%ADD30R,0.00945X0.00157*%
%ADD31R,0.01102X0.00157*%
%ADD32R,0.03150X0.00157*%
%ADD33R,0.02992X0.00157*%
%ADD34R,0.06457X0.00157*%
%ADD35R,0.03622X0.00157*%
%ADD36R,0.01260X0.00157*%
%ADD37R,0.04567X0.00157*%
%ADD38R,0.01732X0.00157*%
%ADD39R,0.00630X0.00157*%
%ADD40R,0.05512X0.00157*%
%ADD41R,0.16220X0.00157*%
%ADD42R,0.08031X0.00157*%
%ADD43R,0.02835X0.00157*%
%ADD44R,0.02520X0.00157*%
%ADD45R,0.04409X0.00157*%
%ADD46R,0.01575X0.00157*%
%ADD47R,0.01417X0.00157*%
%ADD48R,0.06142X0.00157*%
%ADD49R,0.06299X0.00157*%
%ADD50R,0.05669X0.00157*%
%ADD51R,0.05984X0.00157*%
%ADD52R,0.16535X0.00157*%
%ADD53R,0.10079X0.00157*%
%ADD54R,0.00157X0.00157*%
%ADD55R,0.15591X0.00157*%
%ADD56R,0.09606X0.00157*%
%ADD57R,0.06772X0.00157*%
%ADD58R,0.20945X0.00157*%
%ADD59R,0.13858X0.00157*%
%ADD60R,0.19370X0.00157*%
%ADD61R,0.12756X0.00157*%
%ADD62R,0.06614X0.00157*%
%ADD63R,0.18740X0.00157*%
%ADD64R,0.10551X0.00157*%
%ADD65R,0.17480X0.00157*%
%ADD66R,0.06929X0.00157*%
%ADD67R,0.08346X0.00157*%
%ADD68R,0.20315X0.00157*%
%ADD69R,0.08976X0.00157*%
%ADD70R,0.18110X0.00157*%
%ADD71R,0.19055X0.00157*%
%ADD72R,0.19685X0.00157*%
%ADD73R,0.09764X0.00157*%
%ADD74R,0.09291X0.00157*%
%ADD75R,0.09449X0.00157*%
%ADD76R,0.09134X0.00157*%
%ADD77R,0.10709X0.00157*%
%ADD78R,0.10236X0.00157*%
%ADD79R,0.09921X0.00157*%
%ADD80R,0.08819X0.00157*%
%ADD81R,0.08661X0.00157*%
%ADD82R,0.08504X0.00157*%
%ADD83R,0.10866X0.00157*%
%ADD84R,0.20000X0.00157*%
%ADD85R,0.15906X0.00157*%
%ADD86R,0.16850X0.00157*%
%ADD87R,0.18425X0.00157*%
%ADD88R,0.10394X0.00157*%
%ADD89R,0.17795X0.00157*%
%ADD90R,0.21260X0.00157*%
%ADD91R,0.21575X0.00157*%
%ADD92R,0.21890X0.00157*%
%ADD93R,0.11969X0.00157*%
%ADD94R,0.20630X0.00157*%
%ADD95R,0.11811X0.00157*%
%ADD96R,0.01969X0.00197*%
%ADD97R,0.00591X0.00197*%
%ADD98R,0.00394X0.00197*%
%ADD99R,0.02756X0.00197*%
%ADD100R,0.00984X0.00197*%
%ADD101R,0.03150X0.00197*%
%ADD102R,0.01181X0.00197*%
%ADD103R,0.01378X0.00197*%
%ADD104R,0.01575X0.00197*%
%ADD105R,0.02953X0.00197*%
%ADD106R,0.01772X0.00197*%
%ADD107R,0.02362X0.00197*%
%ADD108R,0.03346X0.00236*%
%ADD109R,0.01378X0.00236*%
%ADD110R,0.02559X0.00197*%
%ADD111R,0.01181X0.00236*%
%ADD112R,0.01575X0.00236*%
%ADD113R,0.02165X0.00236*%
%ADD114R,0.03346X0.00197*%
%ADD115R,0.02559X0.00236*%
%ADD116R,0.00787X0.00197*%
%ADD117R,0.00197X0.00197*%
%ADD118R,0.03543X0.00197*%
%ADD119R,0.03740X0.00197*%
%ADD120R,0.03937X0.00197*%
%ADD121R,0.04134X0.00197*%
%ADD122R,0.02165X0.00197*%
%ADD123R,0.02362X0.00236*%
%ADD124R,0.02953X0.00236*%
%ADD125R,0.01772X0.00236*%
%ADD126R,0.04331X0.00236*%
%ADD127R,0.04331X0.00197*%
%ADD128R,0.03150X0.00236*%
%ADD129R,0.00787X0.00236*%
%ADD130R,0.02756X0.00236*%
%ADD131C,0.00039*%
D10*
X0045000Y0097524D02*
X0044860Y0097526D01*
X0044720Y0097532D01*
X0044580Y0097542D01*
X0044440Y0097555D01*
X0044301Y0097573D01*
X0044162Y0097595D01*
X0044025Y0097620D01*
X0043887Y0097649D01*
X0043751Y0097682D01*
X0043616Y0097719D01*
X0043482Y0097760D01*
X0043349Y0097805D01*
X0043217Y0097853D01*
X0043087Y0097905D01*
X0042958Y0097960D01*
X0042831Y0098019D01*
X0042705Y0098082D01*
X0042581Y0098148D01*
X0042460Y0098217D01*
X0042340Y0098290D01*
X0042222Y0098367D01*
X0042107Y0098446D01*
X0041993Y0098529D01*
X0041883Y0098615D01*
X0041774Y0098704D01*
X0041668Y0098796D01*
X0041565Y0098891D01*
X0041464Y0098988D01*
X0041367Y0099089D01*
X0041272Y0099192D01*
X0041180Y0099298D01*
X0041091Y0099407D01*
X0041005Y0099517D01*
X0040922Y0099631D01*
X0040843Y0099746D01*
X0040766Y0099864D01*
X0040693Y0099984D01*
X0040624Y0100105D01*
X0040558Y0100229D01*
X0040495Y0100355D01*
X0040436Y0100482D01*
X0040381Y0100611D01*
X0040329Y0100741D01*
X0040281Y0100873D01*
X0040236Y0101006D01*
X0040195Y0101140D01*
X0040158Y0101275D01*
X0040125Y0101411D01*
X0040096Y0101549D01*
X0040071Y0101686D01*
X0040049Y0101825D01*
X0040031Y0101964D01*
X0040018Y0102104D01*
X0040008Y0102244D01*
X0040002Y0102384D01*
X0040000Y0102524D01*
X0045000Y0097524D02*
X0045140Y0097526D01*
X0045280Y0097532D01*
X0045420Y0097542D01*
X0045560Y0097555D01*
X0045699Y0097573D01*
X0045838Y0097595D01*
X0045975Y0097620D01*
X0046113Y0097649D01*
X0046249Y0097682D01*
X0046384Y0097719D01*
X0046518Y0097760D01*
X0046651Y0097805D01*
X0046783Y0097853D01*
X0046913Y0097905D01*
X0047042Y0097960D01*
X0047169Y0098019D01*
X0047295Y0098082D01*
X0047419Y0098148D01*
X0047540Y0098217D01*
X0047660Y0098290D01*
X0047778Y0098367D01*
X0047893Y0098446D01*
X0048007Y0098529D01*
X0048117Y0098615D01*
X0048226Y0098704D01*
X0048332Y0098796D01*
X0048435Y0098891D01*
X0048536Y0098988D01*
X0048633Y0099089D01*
X0048728Y0099192D01*
X0048820Y0099298D01*
X0048909Y0099407D01*
X0048995Y0099517D01*
X0049078Y0099631D01*
X0049157Y0099746D01*
X0049234Y0099864D01*
X0049307Y0099984D01*
X0049376Y0100105D01*
X0049442Y0100229D01*
X0049505Y0100355D01*
X0049564Y0100482D01*
X0049619Y0100611D01*
X0049671Y0100741D01*
X0049719Y0100873D01*
X0049764Y0101006D01*
X0049805Y0101140D01*
X0049842Y0101275D01*
X0049875Y0101411D01*
X0049904Y0101549D01*
X0049929Y0101686D01*
X0049951Y0101825D01*
X0049969Y0101964D01*
X0049982Y0102104D01*
X0049992Y0102244D01*
X0049998Y0102384D01*
X0050000Y0102524D01*
X0050000Y0277524D01*
X0045000Y0282524D02*
X0044860Y0282522D01*
X0044720Y0282516D01*
X0044580Y0282506D01*
X0044440Y0282493D01*
X0044301Y0282475D01*
X0044162Y0282453D01*
X0044025Y0282428D01*
X0043887Y0282399D01*
X0043751Y0282366D01*
X0043616Y0282329D01*
X0043482Y0282288D01*
X0043349Y0282243D01*
X0043217Y0282195D01*
X0043087Y0282143D01*
X0042958Y0282088D01*
X0042831Y0282029D01*
X0042705Y0281966D01*
X0042581Y0281900D01*
X0042460Y0281831D01*
X0042340Y0281758D01*
X0042222Y0281681D01*
X0042107Y0281602D01*
X0041993Y0281519D01*
X0041883Y0281433D01*
X0041774Y0281344D01*
X0041668Y0281252D01*
X0041565Y0281157D01*
X0041464Y0281060D01*
X0041367Y0280959D01*
X0041272Y0280856D01*
X0041180Y0280750D01*
X0041091Y0280641D01*
X0041005Y0280531D01*
X0040922Y0280417D01*
X0040843Y0280302D01*
X0040766Y0280184D01*
X0040693Y0280064D01*
X0040624Y0279943D01*
X0040558Y0279819D01*
X0040495Y0279693D01*
X0040436Y0279566D01*
X0040381Y0279437D01*
X0040329Y0279307D01*
X0040281Y0279175D01*
X0040236Y0279042D01*
X0040195Y0278908D01*
X0040158Y0278773D01*
X0040125Y0278637D01*
X0040096Y0278499D01*
X0040071Y0278362D01*
X0040049Y0278223D01*
X0040031Y0278084D01*
X0040018Y0277944D01*
X0040008Y0277804D01*
X0040002Y0277664D01*
X0040000Y0277524D01*
X0045000Y0282524D02*
X0045140Y0282522D01*
X0045280Y0282516D01*
X0045420Y0282506D01*
X0045560Y0282493D01*
X0045699Y0282475D01*
X0045838Y0282453D01*
X0045975Y0282428D01*
X0046113Y0282399D01*
X0046249Y0282366D01*
X0046384Y0282329D01*
X0046518Y0282288D01*
X0046651Y0282243D01*
X0046783Y0282195D01*
X0046913Y0282143D01*
X0047042Y0282088D01*
X0047169Y0282029D01*
X0047295Y0281966D01*
X0047419Y0281900D01*
X0047540Y0281831D01*
X0047660Y0281758D01*
X0047778Y0281681D01*
X0047893Y0281602D01*
X0048007Y0281519D01*
X0048117Y0281433D01*
X0048226Y0281344D01*
X0048332Y0281252D01*
X0048435Y0281157D01*
X0048536Y0281060D01*
X0048633Y0280959D01*
X0048728Y0280856D01*
X0048820Y0280750D01*
X0048909Y0280641D01*
X0048995Y0280531D01*
X0049078Y0280417D01*
X0049157Y0280302D01*
X0049234Y0280184D01*
X0049307Y0280064D01*
X0049376Y0279943D01*
X0049442Y0279819D01*
X0049505Y0279693D01*
X0049564Y0279566D01*
X0049619Y0279437D01*
X0049671Y0279307D01*
X0049719Y0279175D01*
X0049764Y0279042D01*
X0049805Y0278908D01*
X0049842Y0278773D01*
X0049875Y0278637D01*
X0049904Y0278499D01*
X0049929Y0278362D01*
X0049951Y0278223D01*
X0049969Y0278084D01*
X0049982Y0277944D01*
X0049992Y0277804D01*
X0049998Y0277664D01*
X0050000Y0277524D01*
X0098925Y0225024D02*
X0098925Y0220024D01*
X0170000Y0227524D02*
X0170000Y0277524D01*
X0170002Y0277664D01*
X0170008Y0277804D01*
X0170018Y0277944D01*
X0170031Y0278084D01*
X0170049Y0278223D01*
X0170071Y0278362D01*
X0170096Y0278499D01*
X0170125Y0278637D01*
X0170158Y0278773D01*
X0170195Y0278908D01*
X0170236Y0279042D01*
X0170281Y0279175D01*
X0170329Y0279307D01*
X0170381Y0279437D01*
X0170436Y0279566D01*
X0170495Y0279693D01*
X0170558Y0279819D01*
X0170624Y0279943D01*
X0170693Y0280064D01*
X0170766Y0280184D01*
X0170843Y0280302D01*
X0170922Y0280417D01*
X0171005Y0280531D01*
X0171091Y0280641D01*
X0171180Y0280750D01*
X0171272Y0280856D01*
X0171367Y0280959D01*
X0171464Y0281060D01*
X0171565Y0281157D01*
X0171668Y0281252D01*
X0171774Y0281344D01*
X0171883Y0281433D01*
X0171993Y0281519D01*
X0172107Y0281602D01*
X0172222Y0281681D01*
X0172340Y0281758D01*
X0172460Y0281831D01*
X0172581Y0281900D01*
X0172705Y0281966D01*
X0172831Y0282029D01*
X0172958Y0282088D01*
X0173087Y0282143D01*
X0173217Y0282195D01*
X0173349Y0282243D01*
X0173482Y0282288D01*
X0173616Y0282329D01*
X0173751Y0282366D01*
X0173887Y0282399D01*
X0174025Y0282428D01*
X0174162Y0282453D01*
X0174301Y0282475D01*
X0174440Y0282493D01*
X0174580Y0282506D01*
X0174720Y0282516D01*
X0174860Y0282522D01*
X0175000Y0282524D01*
X0175140Y0282522D01*
X0175280Y0282516D01*
X0175420Y0282506D01*
X0175560Y0282493D01*
X0175699Y0282475D01*
X0175838Y0282453D01*
X0175975Y0282428D01*
X0176113Y0282399D01*
X0176249Y0282366D01*
X0176384Y0282329D01*
X0176518Y0282288D01*
X0176651Y0282243D01*
X0176783Y0282195D01*
X0176913Y0282143D01*
X0177042Y0282088D01*
X0177169Y0282029D01*
X0177295Y0281966D01*
X0177419Y0281900D01*
X0177540Y0281831D01*
X0177660Y0281758D01*
X0177778Y0281681D01*
X0177893Y0281602D01*
X0178007Y0281519D01*
X0178117Y0281433D01*
X0178226Y0281344D01*
X0178332Y0281252D01*
X0178435Y0281157D01*
X0178536Y0281060D01*
X0178633Y0280959D01*
X0178728Y0280856D01*
X0178820Y0280750D01*
X0178909Y0280641D01*
X0178995Y0280531D01*
X0179078Y0280417D01*
X0179157Y0280302D01*
X0179234Y0280184D01*
X0179307Y0280064D01*
X0179376Y0279943D01*
X0179442Y0279819D01*
X0179505Y0279693D01*
X0179564Y0279566D01*
X0179619Y0279437D01*
X0179671Y0279307D01*
X0179719Y0279175D01*
X0179764Y0279042D01*
X0179805Y0278908D01*
X0179842Y0278773D01*
X0179875Y0278637D01*
X0179904Y0278499D01*
X0179929Y0278362D01*
X0179951Y0278223D01*
X0179969Y0278084D01*
X0179982Y0277944D01*
X0179992Y0277804D01*
X0179998Y0277664D01*
X0180000Y0277524D01*
X0180000Y0227524D01*
X0175000Y0222524D02*
X0174860Y0222526D01*
X0174720Y0222532D01*
X0174580Y0222542D01*
X0174440Y0222555D01*
X0174301Y0222573D01*
X0174162Y0222595D01*
X0174025Y0222620D01*
X0173887Y0222649D01*
X0173751Y0222682D01*
X0173616Y0222719D01*
X0173482Y0222760D01*
X0173349Y0222805D01*
X0173217Y0222853D01*
X0173087Y0222905D01*
X0172958Y0222960D01*
X0172831Y0223019D01*
X0172705Y0223082D01*
X0172581Y0223148D01*
X0172460Y0223217D01*
X0172340Y0223290D01*
X0172222Y0223367D01*
X0172107Y0223446D01*
X0171993Y0223529D01*
X0171883Y0223615D01*
X0171774Y0223704D01*
X0171668Y0223796D01*
X0171565Y0223891D01*
X0171464Y0223988D01*
X0171367Y0224089D01*
X0171272Y0224192D01*
X0171180Y0224298D01*
X0171091Y0224407D01*
X0171005Y0224517D01*
X0170922Y0224631D01*
X0170843Y0224746D01*
X0170766Y0224864D01*
X0170693Y0224984D01*
X0170624Y0225105D01*
X0170558Y0225229D01*
X0170495Y0225355D01*
X0170436Y0225482D01*
X0170381Y0225611D01*
X0170329Y0225741D01*
X0170281Y0225873D01*
X0170236Y0226006D01*
X0170195Y0226140D01*
X0170158Y0226275D01*
X0170125Y0226411D01*
X0170096Y0226549D01*
X0170071Y0226686D01*
X0170049Y0226825D01*
X0170031Y0226964D01*
X0170018Y0227104D01*
X0170008Y0227244D01*
X0170002Y0227384D01*
X0170000Y0227524D01*
X0175000Y0222524D02*
X0175140Y0222526D01*
X0175280Y0222532D01*
X0175420Y0222542D01*
X0175560Y0222555D01*
X0175699Y0222573D01*
X0175838Y0222595D01*
X0175975Y0222620D01*
X0176113Y0222649D01*
X0176249Y0222682D01*
X0176384Y0222719D01*
X0176518Y0222760D01*
X0176651Y0222805D01*
X0176783Y0222853D01*
X0176913Y0222905D01*
X0177042Y0222960D01*
X0177169Y0223019D01*
X0177295Y0223082D01*
X0177419Y0223148D01*
X0177540Y0223217D01*
X0177660Y0223290D01*
X0177778Y0223367D01*
X0177893Y0223446D01*
X0178007Y0223529D01*
X0178117Y0223615D01*
X0178226Y0223704D01*
X0178332Y0223796D01*
X0178435Y0223891D01*
X0178536Y0223988D01*
X0178633Y0224089D01*
X0178728Y0224192D01*
X0178820Y0224298D01*
X0178909Y0224407D01*
X0178995Y0224517D01*
X0179078Y0224631D01*
X0179157Y0224746D01*
X0179234Y0224864D01*
X0179307Y0224984D01*
X0179376Y0225105D01*
X0179442Y0225229D01*
X0179505Y0225355D01*
X0179564Y0225482D01*
X0179619Y0225611D01*
X0179671Y0225741D01*
X0179719Y0225873D01*
X0179764Y0226006D01*
X0179805Y0226140D01*
X0179842Y0226275D01*
X0179875Y0226411D01*
X0179904Y0226549D01*
X0179929Y0226686D01*
X0179951Y0226825D01*
X0179969Y0226964D01*
X0179982Y0227104D01*
X0179992Y0227244D01*
X0179998Y0227384D01*
X0180000Y0227524D01*
X0180000Y0167524D02*
X0180000Y0142524D01*
X0180000Y0107524D01*
X0175000Y0102524D02*
X0174860Y0102526D01*
X0174720Y0102532D01*
X0174580Y0102542D01*
X0174440Y0102555D01*
X0174301Y0102573D01*
X0174162Y0102595D01*
X0174025Y0102620D01*
X0173887Y0102649D01*
X0173751Y0102682D01*
X0173616Y0102719D01*
X0173482Y0102760D01*
X0173349Y0102805D01*
X0173217Y0102853D01*
X0173087Y0102905D01*
X0172958Y0102960D01*
X0172831Y0103019D01*
X0172705Y0103082D01*
X0172581Y0103148D01*
X0172460Y0103217D01*
X0172340Y0103290D01*
X0172222Y0103367D01*
X0172107Y0103446D01*
X0171993Y0103529D01*
X0171883Y0103615D01*
X0171774Y0103704D01*
X0171668Y0103796D01*
X0171565Y0103891D01*
X0171464Y0103988D01*
X0171367Y0104089D01*
X0171272Y0104192D01*
X0171180Y0104298D01*
X0171091Y0104407D01*
X0171005Y0104517D01*
X0170922Y0104631D01*
X0170843Y0104746D01*
X0170766Y0104864D01*
X0170693Y0104984D01*
X0170624Y0105105D01*
X0170558Y0105229D01*
X0170495Y0105355D01*
X0170436Y0105482D01*
X0170381Y0105611D01*
X0170329Y0105741D01*
X0170281Y0105873D01*
X0170236Y0106006D01*
X0170195Y0106140D01*
X0170158Y0106275D01*
X0170125Y0106411D01*
X0170096Y0106549D01*
X0170071Y0106686D01*
X0170049Y0106825D01*
X0170031Y0106964D01*
X0170018Y0107104D01*
X0170008Y0107244D01*
X0170002Y0107384D01*
X0170000Y0107524D01*
X0170000Y0167524D01*
X0170002Y0167664D01*
X0170008Y0167804D01*
X0170018Y0167944D01*
X0170031Y0168084D01*
X0170049Y0168223D01*
X0170071Y0168362D01*
X0170096Y0168499D01*
X0170125Y0168637D01*
X0170158Y0168773D01*
X0170195Y0168908D01*
X0170236Y0169042D01*
X0170281Y0169175D01*
X0170329Y0169307D01*
X0170381Y0169437D01*
X0170436Y0169566D01*
X0170495Y0169693D01*
X0170558Y0169819D01*
X0170624Y0169943D01*
X0170693Y0170064D01*
X0170766Y0170184D01*
X0170843Y0170302D01*
X0170922Y0170417D01*
X0171005Y0170531D01*
X0171091Y0170641D01*
X0171180Y0170750D01*
X0171272Y0170856D01*
X0171367Y0170959D01*
X0171464Y0171060D01*
X0171565Y0171157D01*
X0171668Y0171252D01*
X0171774Y0171344D01*
X0171883Y0171433D01*
X0171993Y0171519D01*
X0172107Y0171602D01*
X0172222Y0171681D01*
X0172340Y0171758D01*
X0172460Y0171831D01*
X0172581Y0171900D01*
X0172705Y0171966D01*
X0172831Y0172029D01*
X0172958Y0172088D01*
X0173087Y0172143D01*
X0173217Y0172195D01*
X0173349Y0172243D01*
X0173482Y0172288D01*
X0173616Y0172329D01*
X0173751Y0172366D01*
X0173887Y0172399D01*
X0174025Y0172428D01*
X0174162Y0172453D01*
X0174301Y0172475D01*
X0174440Y0172493D01*
X0174580Y0172506D01*
X0174720Y0172516D01*
X0174860Y0172522D01*
X0175000Y0172524D01*
X0175140Y0172522D01*
X0175280Y0172516D01*
X0175420Y0172506D01*
X0175560Y0172493D01*
X0175699Y0172475D01*
X0175838Y0172453D01*
X0175975Y0172428D01*
X0176113Y0172399D01*
X0176249Y0172366D01*
X0176384Y0172329D01*
X0176518Y0172288D01*
X0176651Y0172243D01*
X0176783Y0172195D01*
X0176913Y0172143D01*
X0177042Y0172088D01*
X0177169Y0172029D01*
X0177295Y0171966D01*
X0177419Y0171900D01*
X0177540Y0171831D01*
X0177660Y0171758D01*
X0177778Y0171681D01*
X0177893Y0171602D01*
X0178007Y0171519D01*
X0178117Y0171433D01*
X0178226Y0171344D01*
X0178332Y0171252D01*
X0178435Y0171157D01*
X0178536Y0171060D01*
X0178633Y0170959D01*
X0178728Y0170856D01*
X0178820Y0170750D01*
X0178909Y0170641D01*
X0178995Y0170531D01*
X0179078Y0170417D01*
X0179157Y0170302D01*
X0179234Y0170184D01*
X0179307Y0170064D01*
X0179376Y0169943D01*
X0179442Y0169819D01*
X0179505Y0169693D01*
X0179564Y0169566D01*
X0179619Y0169437D01*
X0179671Y0169307D01*
X0179719Y0169175D01*
X0179764Y0169042D01*
X0179805Y0168908D01*
X0179842Y0168773D01*
X0179875Y0168637D01*
X0179904Y0168499D01*
X0179929Y0168362D01*
X0179951Y0168223D01*
X0179969Y0168084D01*
X0179982Y0167944D01*
X0179992Y0167804D01*
X0179998Y0167664D01*
X0180000Y0167524D01*
X0180000Y0107524D02*
X0179998Y0107384D01*
X0179992Y0107244D01*
X0179982Y0107104D01*
X0179969Y0106964D01*
X0179951Y0106825D01*
X0179929Y0106686D01*
X0179904Y0106549D01*
X0179875Y0106411D01*
X0179842Y0106275D01*
X0179805Y0106140D01*
X0179764Y0106006D01*
X0179719Y0105873D01*
X0179671Y0105741D01*
X0179619Y0105611D01*
X0179564Y0105482D01*
X0179505Y0105355D01*
X0179442Y0105229D01*
X0179376Y0105105D01*
X0179307Y0104984D01*
X0179234Y0104864D01*
X0179157Y0104746D01*
X0179078Y0104631D01*
X0178995Y0104517D01*
X0178909Y0104407D01*
X0178820Y0104298D01*
X0178728Y0104192D01*
X0178633Y0104089D01*
X0178536Y0103988D01*
X0178435Y0103891D01*
X0178332Y0103796D01*
X0178226Y0103704D01*
X0178117Y0103615D01*
X0178007Y0103529D01*
X0177893Y0103446D01*
X0177778Y0103367D01*
X0177660Y0103290D01*
X0177540Y0103217D01*
X0177419Y0103148D01*
X0177295Y0103082D01*
X0177169Y0103019D01*
X0177042Y0102960D01*
X0176913Y0102905D01*
X0176783Y0102853D01*
X0176651Y0102805D01*
X0176518Y0102760D01*
X0176384Y0102719D01*
X0176249Y0102682D01*
X0176113Y0102649D01*
X0175975Y0102620D01*
X0175838Y0102595D01*
X0175699Y0102573D01*
X0175560Y0102555D01*
X0175420Y0102542D01*
X0175280Y0102532D01*
X0175140Y0102526D01*
X0175000Y0102524D01*
D11*
X0180000Y0142524D02*
X0210000Y0142524D01*
X0210000Y0282524D01*
X0180000Y0282524D01*
X0040000Y0282524D02*
X0040000Y0277524D01*
X0040000Y0102524D01*
X0040000Y0097524D01*
X0010000Y0097524D01*
X0010000Y0282524D01*
X0040000Y0282524D01*
D12*
X0190131Y0287344D02*
X0191509Y0287108D01*
X0191549Y0287068D01*
X0191549Y0286990D01*
X0191588Y0286911D01*
X0191588Y0286872D01*
X0191628Y0286793D01*
X0191628Y0286753D01*
X0191706Y0286596D01*
X0191706Y0286557D01*
X0191746Y0286478D01*
X0191785Y0286438D01*
X0191824Y0286360D01*
X0191824Y0286320D01*
X0191864Y0286242D01*
X0191903Y0286202D01*
X0191943Y0286123D01*
X0191116Y0285021D01*
X0192021Y0284116D01*
X0193163Y0284903D01*
X0193202Y0284903D01*
X0193281Y0284824D01*
X0193320Y0284824D01*
X0193360Y0284785D01*
X0193439Y0284785D01*
X0193478Y0284746D01*
X0193517Y0284746D01*
X0193557Y0284706D01*
X0193596Y0284706D01*
X0193635Y0284667D01*
X0193714Y0284667D01*
X0193714Y0284627D01*
X0194502Y0286753D01*
X0194265Y0286872D01*
X0194187Y0286950D01*
X0194108Y0286990D01*
X0193950Y0287147D01*
X0193911Y0287226D01*
X0193832Y0287305D01*
X0190358Y0287305D01*
X0190131Y0287344D02*
X0190131Y0288604D01*
X0191549Y0288840D01*
X0191549Y0288998D01*
X0191588Y0289037D01*
X0191588Y0289116D01*
X0191628Y0289155D01*
X0191667Y0289234D01*
X0191667Y0289312D01*
X0191706Y0289352D01*
X0191706Y0289431D01*
X0191746Y0289470D01*
X0191785Y0289549D01*
X0191824Y0289588D01*
X0191824Y0289667D01*
X0191864Y0289706D01*
X0191903Y0289785D01*
X0191943Y0289824D01*
X0191116Y0290966D01*
X0192021Y0291832D01*
X0193163Y0291045D01*
X0193202Y0291084D01*
X0193281Y0291123D01*
X0193320Y0291123D01*
X0193399Y0291163D01*
X0193439Y0291202D01*
X0193517Y0291242D01*
X0193557Y0291242D01*
X0193635Y0291281D01*
X0193675Y0291320D01*
X0193754Y0291320D01*
X0193832Y0291360D01*
X0193872Y0291360D01*
X0193950Y0291399D01*
X0193990Y0291399D01*
X0194069Y0291438D01*
X0194147Y0291438D01*
X0194383Y0292816D01*
X0195643Y0292816D01*
X0195880Y0291438D01*
X0195919Y0291438D01*
X0195998Y0291399D01*
X0196076Y0291399D01*
X0196116Y0291360D01*
X0196194Y0291360D01*
X0196273Y0291320D01*
X0196313Y0291320D01*
X0196391Y0291281D01*
X0196431Y0291242D01*
X0196509Y0291242D01*
X0196549Y0291202D01*
X0196628Y0291163D01*
X0196667Y0291123D01*
X0196746Y0291123D01*
X0196785Y0291084D01*
X0196864Y0291045D01*
X0198006Y0291832D01*
X0198872Y0290966D01*
X0198084Y0289824D01*
X0198124Y0289785D01*
X0198124Y0289706D01*
X0198163Y0289667D01*
X0198202Y0289588D01*
X0198242Y0289549D01*
X0198242Y0289470D01*
X0198281Y0289431D01*
X0198320Y0289352D01*
X0198320Y0289312D01*
X0198399Y0289155D01*
X0198399Y0289116D01*
X0198439Y0289037D01*
X0198439Y0288998D01*
X0198478Y0288919D01*
X0198478Y0288840D01*
X0199856Y0288604D01*
X0199856Y0287344D01*
X0198478Y0287108D01*
X0198478Y0287068D01*
X0198439Y0286990D01*
X0198439Y0286911D01*
X0198399Y0286872D01*
X0198399Y0286793D01*
X0198360Y0286753D01*
X0198320Y0286675D01*
X0198320Y0286596D01*
X0198281Y0286557D01*
X0198281Y0286478D01*
X0198242Y0286438D01*
X0198202Y0286360D01*
X0198163Y0286320D01*
X0198124Y0286242D01*
X0198124Y0286202D01*
X0198084Y0286123D01*
X0198872Y0285021D01*
X0198006Y0284116D01*
X0196864Y0284903D01*
X0196824Y0284903D01*
X0196785Y0284864D01*
X0196746Y0284864D01*
X0196706Y0284824D01*
X0196667Y0284824D01*
X0196628Y0284785D01*
X0196588Y0284785D01*
X0196549Y0284746D01*
X0196509Y0284746D01*
X0196470Y0284706D01*
X0196431Y0284706D01*
X0196391Y0284667D01*
X0196313Y0284667D01*
X0196273Y0284627D01*
X0195486Y0286753D01*
X0195604Y0286793D01*
X0195761Y0286872D01*
X0195840Y0286950D01*
X0195919Y0286990D01*
X0195998Y0287068D01*
X0196037Y0287147D01*
X0196116Y0287226D01*
X0196194Y0287383D01*
X0196234Y0287501D01*
X0196313Y0287659D01*
X0196313Y0287777D01*
X0196352Y0287895D01*
X0196352Y0288131D01*
X0196194Y0288604D01*
X0196037Y0288840D01*
X0195958Y0288919D01*
X0195840Y0288998D01*
X0195761Y0289076D01*
X0195643Y0289155D01*
X0195525Y0289194D01*
X0195407Y0289273D01*
X0195289Y0289273D01*
X0195131Y0289312D01*
X0194856Y0289312D01*
X0194738Y0289273D01*
X0194620Y0289273D01*
X0194502Y0289194D01*
X0194383Y0289155D01*
X0194147Y0288998D01*
X0193990Y0288840D01*
X0193832Y0288604D01*
X0193793Y0288486D01*
X0193714Y0288368D01*
X0193714Y0288249D01*
X0193675Y0288131D01*
X0193675Y0287777D01*
X0193714Y0287659D01*
X0193714Y0287580D01*
X0193754Y0287501D01*
X0193793Y0287383D01*
X0193832Y0287305D01*
X0193714Y0287603D02*
X0190131Y0287603D01*
X0190131Y0287901D02*
X0193675Y0287901D01*
X0193697Y0288198D02*
X0190131Y0288198D01*
X0190131Y0288496D02*
X0193796Y0288496D01*
X0193959Y0288794D02*
X0191271Y0288794D01*
X0191588Y0289092D02*
X0194288Y0289092D01*
X0195739Y0289092D02*
X0198411Y0289092D01*
X0198302Y0289389D02*
X0191706Y0289389D01*
X0191845Y0289687D02*
X0198143Y0289687D01*
X0198195Y0289985D02*
X0191826Y0289985D01*
X0191611Y0290282D02*
X0198400Y0290282D01*
X0198606Y0290580D02*
X0191395Y0290580D01*
X0191180Y0290878D02*
X0198811Y0290878D01*
X0198662Y0291176D02*
X0197053Y0291176D01*
X0196602Y0291176D02*
X0193412Y0291176D01*
X0192973Y0291176D02*
X0191335Y0291176D01*
X0191646Y0291473D02*
X0192542Y0291473D01*
X0192110Y0291771D02*
X0191957Y0291771D01*
X0194153Y0291473D02*
X0195874Y0291473D01*
X0195823Y0291771D02*
X0194204Y0291771D01*
X0194255Y0292069D02*
X0195771Y0292069D01*
X0195720Y0292366D02*
X0194306Y0292366D01*
X0194357Y0292664D02*
X0195669Y0292664D01*
X0197485Y0291473D02*
X0198364Y0291473D01*
X0198067Y0291771D02*
X0197917Y0291771D01*
X0198748Y0288794D02*
X0196068Y0288794D01*
X0196230Y0288496D02*
X0199856Y0288496D01*
X0199856Y0288198D02*
X0196330Y0288198D01*
X0196352Y0287901D02*
X0199856Y0287901D01*
X0199856Y0287603D02*
X0196285Y0287603D01*
X0196155Y0287305D02*
X0199630Y0287305D01*
X0198447Y0287007D02*
X0195937Y0287007D01*
X0195502Y0286710D02*
X0198338Y0286710D01*
X0198229Y0286412D02*
X0195612Y0286412D01*
X0195723Y0286114D02*
X0198091Y0286114D01*
X0198303Y0285817D02*
X0195833Y0285817D01*
X0195943Y0285519D02*
X0198516Y0285519D01*
X0198729Y0285221D02*
X0196053Y0285221D01*
X0196164Y0284923D02*
X0198778Y0284923D01*
X0198493Y0284626D02*
X0197266Y0284626D01*
X0197698Y0284328D02*
X0198209Y0284328D01*
X0194155Y0285817D02*
X0191712Y0285817D01*
X0191936Y0286114D02*
X0194265Y0286114D01*
X0194375Y0286412D02*
X0191798Y0286412D01*
X0191649Y0286710D02*
X0194485Y0286710D01*
X0194090Y0287007D02*
X0191549Y0287007D01*
X0191489Y0285519D02*
X0194044Y0285519D01*
X0193934Y0285221D02*
X0191266Y0285221D01*
X0191213Y0284923D02*
X0193824Y0284923D01*
X0192761Y0284626D02*
X0191511Y0284626D01*
X0191809Y0284328D02*
X0192329Y0284328D01*
D13*
X0195028Y0170673D03*
X0195028Y0170516D03*
X0195028Y0170358D03*
X0195028Y0170201D03*
X0195028Y0170043D03*
X0195028Y0169886D03*
X0195028Y0169728D03*
X0195028Y0165319D03*
X0195028Y0165161D03*
X0195028Y0165004D03*
X0195028Y0164846D03*
X0195028Y0164689D03*
X0195028Y0164531D03*
X0195028Y0164374D03*
X0025055Y0179531D03*
X0025055Y0185516D03*
X0025055Y0189531D03*
X0025055Y0195516D03*
X0025055Y0204531D03*
X0025055Y0210516D03*
X0025055Y0214531D03*
X0025055Y0220516D03*
X0024870Y0264374D03*
X0024870Y0264531D03*
X0024870Y0264689D03*
X0024870Y0264846D03*
X0024870Y0265004D03*
X0024870Y0265161D03*
X0024870Y0265319D03*
X0024870Y0269728D03*
X0024870Y0269886D03*
X0024870Y0270043D03*
X0024870Y0270201D03*
X0024870Y0270358D03*
X0024870Y0270516D03*
X0024870Y0270673D03*
D14*
X0019201Y0267524D03*
X0019331Y0277524D03*
X0017421Y0134413D03*
X0032039Y0123783D03*
X0032039Y0123626D03*
X0032039Y0123469D03*
X0032539Y0134413D03*
X0017709Y0113626D03*
X0017709Y0113469D03*
X0017709Y0113311D03*
X0187421Y0189413D03*
X0187421Y0199413D03*
X0202539Y0199413D03*
X0201539Y0206264D03*
X0201539Y0206421D03*
X0202539Y0189413D03*
X0189646Y0176421D03*
X0189646Y0176264D03*
X0189358Y0169571D03*
X0200697Y0169571D03*
X0200697Y0167996D03*
X0200697Y0167839D03*
X0200697Y0167681D03*
X0200697Y0167524D03*
X0200697Y0167366D03*
X0200697Y0167209D03*
X0200039Y0228626D03*
X0200039Y0228783D03*
X0200197Y0238311D03*
X0200197Y0238469D03*
X0200039Y0248626D03*
X0200039Y0248783D03*
X0200039Y0258626D03*
X0200039Y0258783D03*
X0200039Y0268469D03*
X0200039Y0268626D03*
X0200039Y0268783D03*
X0200539Y0278469D03*
X0200539Y0278626D03*
X0189331Y0249571D03*
X0189331Y0246421D03*
D15*
X0195028Y0169571D03*
D16*
X0200933Y0169413D03*
X0200933Y0165476D03*
X0189122Y0169413D03*
X0189409Y0177209D03*
X0189409Y0177366D03*
X0187185Y0185791D03*
X0187185Y0189098D03*
X0187185Y0195791D03*
X0187185Y0199098D03*
X0202776Y0199098D03*
X0202776Y0195791D03*
X0202776Y0189098D03*
X0202776Y0185791D03*
X0201776Y0207209D03*
X0201776Y0207366D03*
X0189094Y0225476D03*
X0189094Y0229413D03*
X0200276Y0227839D03*
X0200276Y0227681D03*
X0200433Y0237366D03*
X0200433Y0237524D03*
X0200276Y0247681D03*
X0200276Y0247839D03*
X0200276Y0257681D03*
X0200276Y0257839D03*
X0200276Y0267524D03*
X0200276Y0267681D03*
X0200776Y0277524D03*
X0200776Y0277681D03*
X0189909Y0277996D03*
X0189909Y0275476D03*
X0189094Y0259413D03*
X0189094Y0255476D03*
X0189094Y0249413D03*
X0189094Y0246736D03*
X0188650Y0147051D03*
X0032776Y0134098D03*
X0032776Y0130791D03*
X0032276Y0122681D03*
X0032276Y0122524D03*
X0032433Y0114413D03*
X0031933Y0100476D03*
X0017472Y0112366D03*
X0017472Y0112524D03*
X0017185Y0130791D03*
X0017185Y0134098D03*
X0018965Y0266894D03*
X0018965Y0267051D03*
X0018965Y0267996D03*
X0019094Y0277051D03*
X0019094Y0277996D03*
D17*
X0026500Y0104571D03*
X0194713Y0167524D03*
X0195028Y0169413D03*
D18*
X0201012Y0169256D03*
X0201012Y0168154D03*
X0201012Y0165634D03*
X0189043Y0165634D03*
X0189043Y0169256D03*
X0189331Y0177524D03*
X0189331Y0177681D03*
X0187106Y0185949D03*
X0187106Y0188941D03*
X0187106Y0195949D03*
X0187106Y0198941D03*
X0202854Y0195949D03*
X0202854Y0185949D03*
X0201854Y0207524D03*
X0201854Y0207681D03*
X0189016Y0225634D03*
X0189016Y0229256D03*
X0200354Y0227524D03*
X0200354Y0227366D03*
X0200512Y0237051D03*
X0200512Y0237209D03*
X0200354Y0247366D03*
X0200354Y0247524D03*
X0200354Y0257366D03*
X0200354Y0257524D03*
X0200354Y0267209D03*
X0200354Y0267366D03*
X0200854Y0277051D03*
X0200854Y0277209D03*
X0200854Y0277366D03*
X0189831Y0277839D03*
X0189016Y0249256D03*
X0189016Y0246894D03*
X0187681Y0159413D03*
X0187681Y0158469D03*
X0187681Y0155634D03*
X0188571Y0147839D03*
X0188571Y0147681D03*
X0188571Y0147524D03*
X0188571Y0147366D03*
X0188571Y0147209D03*
X0032854Y0130949D03*
X0032354Y0122366D03*
X0032354Y0122209D03*
X0032512Y0112366D03*
X0032512Y0110634D03*
X0032012Y0104413D03*
X0032012Y0102366D03*
X0032012Y0100634D03*
X0017394Y0112051D03*
X0017394Y0112209D03*
X0017236Y0122051D03*
X0017236Y0122209D03*
X0017236Y0122366D03*
X0017236Y0122524D03*
X0017236Y0122681D03*
X0017236Y0122839D03*
X0017106Y0130949D03*
X0017106Y0133941D03*
X0018886Y0266736D03*
X0018886Y0268154D03*
X0019016Y0276894D03*
X0019016Y0278154D03*
D19*
X0025185Y0267996D03*
X0025185Y0267051D03*
X0023220Y0114256D03*
X0024138Y0103154D03*
X0024138Y0101736D03*
X0193823Y0156579D03*
X0193823Y0157996D03*
X0195028Y0169256D03*
X0194685Y0229413D03*
X0193740Y0247524D03*
X0194685Y0249413D03*
X0193583Y0257051D03*
X0194685Y0259413D03*
X0193268Y0265476D03*
D20*
X0188937Y0259256D03*
X0188937Y0257524D03*
X0188937Y0255634D03*
X0188937Y0249098D03*
X0188937Y0247051D03*
X0200433Y0247051D03*
X0200433Y0246894D03*
X0200433Y0247209D03*
X0200433Y0256894D03*
X0200433Y0257051D03*
X0200433Y0257209D03*
X0200433Y0266894D03*
X0200433Y0267051D03*
X0200933Y0276736D03*
X0200933Y0276894D03*
X0189752Y0275634D03*
X0200591Y0236894D03*
X0200591Y0236736D03*
X0200433Y0227209D03*
X0200433Y0227051D03*
X0200433Y0226894D03*
X0188937Y0225791D03*
X0188937Y0229098D03*
X0201933Y0209571D03*
X0201933Y0207996D03*
X0201933Y0207839D03*
X0202933Y0198941D03*
X0202933Y0198783D03*
X0202933Y0196106D03*
X0202933Y0188941D03*
X0202933Y0188783D03*
X0202933Y0186106D03*
X0200433Y0175476D03*
X0201091Y0169098D03*
X0201091Y0165791D03*
X0188965Y0165791D03*
X0188965Y0167524D03*
X0188965Y0167681D03*
X0188965Y0169098D03*
X0189252Y0177839D03*
X0189252Y0177996D03*
X0189252Y0179571D03*
X0187028Y0186106D03*
X0187028Y0188783D03*
X0187028Y0196106D03*
X0187028Y0198783D03*
X0187602Y0159256D03*
X0187602Y0158626D03*
X0187602Y0157681D03*
X0032933Y0133941D03*
X0032933Y0133783D03*
X0032933Y0131106D03*
X0032433Y0122051D03*
X0032433Y0121894D03*
X0032591Y0114256D03*
X0032591Y0112524D03*
X0032091Y0104256D03*
X0032091Y0102524D03*
X0017315Y0111736D03*
X0017315Y0111894D03*
X0017028Y0131106D03*
X0017028Y0133783D03*
X0018807Y0266579D03*
X0018807Y0268311D03*
X0018937Y0276579D03*
X0018937Y0276736D03*
X0018937Y0278311D03*
D21*
X0022953Y0275476D03*
X0025343Y0268311D03*
X0025343Y0266736D03*
X0022823Y0265476D03*
X0024480Y0142051D03*
X0028417Y0120476D03*
X0028260Y0113311D03*
X0026500Y0104413D03*
X0027760Y0103311D03*
X0021488Y0110476D03*
X0194685Y0238941D03*
X0196417Y0235476D03*
X0196417Y0225476D03*
X0196417Y0245476D03*
X0196417Y0255476D03*
X0194055Y0257681D03*
X0194055Y0257839D03*
X0196417Y0265476D03*
X0193268Y0266106D03*
X0193268Y0266264D03*
X0193925Y0276736D03*
X0194083Y0276894D03*
X0195343Y0279413D03*
X0195000Y0175634D03*
X0195028Y0169098D03*
D22*
X0201169Y0168941D03*
X0201169Y0168783D03*
X0201169Y0168469D03*
X0201169Y0168311D03*
X0201169Y0165949D03*
X0200512Y0175634D03*
X0200512Y0176579D03*
X0200512Y0177051D03*
X0200512Y0179256D03*
X0200512Y0179413D03*
X0203012Y0186264D03*
X0203012Y0186421D03*
X0203012Y0188626D03*
X0203012Y0196264D03*
X0203012Y0196421D03*
X0203012Y0198626D03*
X0202012Y0208154D03*
X0202012Y0208311D03*
X0200512Y0226579D03*
X0200512Y0226736D03*
X0200669Y0235476D03*
X0200669Y0236421D03*
X0200669Y0236579D03*
X0200512Y0246579D03*
X0200512Y0246736D03*
X0200512Y0256579D03*
X0200512Y0256736D03*
X0200512Y0266579D03*
X0200512Y0266736D03*
X0201012Y0275476D03*
X0201012Y0276421D03*
X0201012Y0276579D03*
X0189673Y0275949D03*
X0189673Y0275791D03*
X0189673Y0277524D03*
X0189673Y0277681D03*
X0189673Y0278626D03*
X0188858Y0265476D03*
X0188858Y0259098D03*
X0188858Y0257681D03*
X0188858Y0257366D03*
X0188858Y0255791D03*
X0188858Y0248941D03*
X0188858Y0248783D03*
X0188858Y0247366D03*
X0188858Y0247209D03*
X0189961Y0235476D03*
X0188858Y0228941D03*
X0188858Y0226106D03*
X0188858Y0225949D03*
X0186949Y0198626D03*
X0186949Y0196421D03*
X0186949Y0196264D03*
X0186949Y0188626D03*
X0186949Y0186421D03*
X0186949Y0186264D03*
X0189173Y0178311D03*
X0189173Y0178154D03*
X0188886Y0168941D03*
X0188886Y0167839D03*
X0188886Y0167366D03*
X0188886Y0165949D03*
X0187524Y0159098D03*
X0187524Y0158941D03*
X0187524Y0158783D03*
X0187524Y0157524D03*
X0187524Y0155949D03*
X0187524Y0155791D03*
X0202012Y0155476D03*
X0033012Y0133626D03*
X0033012Y0131421D03*
X0033012Y0131264D03*
X0032512Y0121736D03*
X0032512Y0121579D03*
X0032669Y0114098D03*
X0032669Y0113941D03*
X0032669Y0112839D03*
X0032669Y0112681D03*
X0032669Y0111736D03*
X0032669Y0110949D03*
X0032669Y0110791D03*
X0032169Y0104098D03*
X0032169Y0103941D03*
X0032169Y0102681D03*
X0032169Y0101736D03*
X0032169Y0100791D03*
X0017236Y0110476D03*
X0017236Y0111421D03*
X0017236Y0111579D03*
X0016949Y0131264D03*
X0016949Y0131421D03*
X0016949Y0133626D03*
X0018728Y0266421D03*
X0018728Y0268469D03*
X0018728Y0268626D03*
X0018728Y0269571D03*
X0018858Y0276421D03*
X0018858Y0278469D03*
X0018858Y0279571D03*
D23*
X0022874Y0279413D03*
X0022744Y0269413D03*
X0025421Y0268469D03*
X0025421Y0266579D03*
X0025579Y0265476D03*
X0024559Y0152524D03*
X0028339Y0120634D03*
X0028181Y0113154D03*
X0023142Y0114098D03*
X0021409Y0110634D03*
X0027681Y0103154D03*
X0194791Y0168154D03*
X0194949Y0168941D03*
X0194921Y0175791D03*
X0196181Y0178154D03*
X0196181Y0178311D03*
X0193346Y0179098D03*
X0193346Y0179256D03*
X0196421Y0205476D03*
X0197839Y0209098D03*
X0197839Y0209256D03*
X0196339Y0225634D03*
X0194764Y0228941D03*
X0194764Y0229098D03*
X0196496Y0235634D03*
X0196339Y0245634D03*
X0194764Y0249098D03*
X0196339Y0255634D03*
X0193976Y0257366D03*
X0193976Y0257524D03*
X0194764Y0259098D03*
X0196339Y0265634D03*
X0193189Y0265634D03*
X0193189Y0265791D03*
X0193189Y0265949D03*
X0194764Y0269098D03*
X0194764Y0269256D03*
X0196839Y0275634D03*
X0195264Y0279256D03*
D24*
X0195343Y0279098D03*
X0196760Y0275791D03*
X0194685Y0268941D03*
X0194685Y0268783D03*
X0196417Y0265791D03*
X0194843Y0258941D03*
X0193898Y0257209D03*
X0196417Y0255791D03*
X0194843Y0248941D03*
X0193898Y0247209D03*
X0196417Y0245791D03*
X0194213Y0237681D03*
X0194213Y0237524D03*
X0196417Y0235791D03*
X0196417Y0225791D03*
X0196343Y0205791D03*
X0196343Y0205634D03*
X0196260Y0178469D03*
X0195000Y0175949D03*
X0195028Y0168783D03*
X0195028Y0168626D03*
X0194870Y0168311D03*
X0028417Y0120791D03*
X0027000Y0124413D03*
X0023063Y0113941D03*
X0021488Y0110791D03*
X0022823Y0265634D03*
X0025500Y0266421D03*
X0025500Y0268626D03*
X0022953Y0275634D03*
D25*
X0018780Y0275476D03*
X0018780Y0276264D03*
X0018780Y0278626D03*
X0018780Y0278783D03*
X0018780Y0279413D03*
X0018650Y0269413D03*
X0018650Y0268783D03*
X0018650Y0266264D03*
X0018650Y0265476D03*
X0031091Y0268783D03*
X0030591Y0275476D03*
X0030591Y0275634D03*
X0030591Y0279413D03*
X0033091Y0133469D03*
X0033091Y0133311D03*
X0033091Y0133154D03*
X0033091Y0131894D03*
X0033091Y0131736D03*
X0033091Y0131579D03*
X0032591Y0121421D03*
X0032591Y0121264D03*
X0032591Y0120476D03*
X0032748Y0113783D03*
X0032748Y0113626D03*
X0032748Y0113469D03*
X0032748Y0113311D03*
X0032748Y0113154D03*
X0032748Y0112996D03*
X0032748Y0111579D03*
X0032748Y0111421D03*
X0032748Y0111264D03*
X0032748Y0111106D03*
X0032248Y0103783D03*
X0032248Y0103626D03*
X0032248Y0103469D03*
X0032248Y0103311D03*
X0032248Y0103154D03*
X0032248Y0102996D03*
X0032248Y0102839D03*
X0032248Y0101579D03*
X0032248Y0101421D03*
X0032248Y0101106D03*
X0032248Y0100949D03*
X0017602Y0100476D03*
X0017157Y0111106D03*
X0017157Y0111264D03*
X0017000Y0123626D03*
X0016870Y0131579D03*
X0016870Y0131736D03*
X0016870Y0133311D03*
X0016870Y0133469D03*
X0187445Y0156106D03*
X0187445Y0156264D03*
X0187445Y0157209D03*
X0187445Y0157366D03*
X0188335Y0148626D03*
X0201091Y0148626D03*
X0201091Y0148783D03*
X0201091Y0148941D03*
X0201091Y0149098D03*
X0201091Y0149256D03*
X0201091Y0149413D03*
X0201091Y0148469D03*
X0201091Y0148311D03*
X0201091Y0148154D03*
X0201091Y0147996D03*
X0201091Y0147839D03*
X0201091Y0147681D03*
X0201091Y0147524D03*
X0201091Y0147366D03*
X0201091Y0147209D03*
X0201091Y0147051D03*
X0201091Y0146894D03*
X0201091Y0146736D03*
X0201091Y0146579D03*
X0201091Y0146421D03*
X0201091Y0146264D03*
X0201091Y0146106D03*
X0201091Y0145949D03*
X0201091Y0145791D03*
X0201091Y0145634D03*
X0201091Y0145476D03*
X0202091Y0155634D03*
X0202091Y0155791D03*
X0202091Y0155949D03*
X0202091Y0156106D03*
X0202091Y0156264D03*
X0202091Y0156421D03*
X0202091Y0156579D03*
X0202091Y0156736D03*
X0202091Y0156894D03*
X0202091Y0157051D03*
X0202091Y0157209D03*
X0202091Y0157366D03*
X0202091Y0157524D03*
X0202091Y0157681D03*
X0202091Y0157839D03*
X0202091Y0157996D03*
X0202091Y0158154D03*
X0202091Y0158311D03*
X0202091Y0158469D03*
X0202091Y0158626D03*
X0202091Y0158783D03*
X0202091Y0158941D03*
X0202091Y0159098D03*
X0202091Y0159256D03*
X0202091Y0159413D03*
X0201248Y0166106D03*
X0201248Y0166264D03*
X0201248Y0166421D03*
X0201248Y0166894D03*
X0201248Y0168626D03*
X0200591Y0176421D03*
X0200591Y0178154D03*
X0200591Y0178311D03*
X0200591Y0178469D03*
X0200591Y0178626D03*
X0200591Y0178783D03*
X0200591Y0178941D03*
X0200591Y0179098D03*
X0203091Y0186579D03*
X0203091Y0186736D03*
X0203091Y0186894D03*
X0203091Y0188154D03*
X0203091Y0188311D03*
X0203091Y0188469D03*
X0203091Y0196579D03*
X0203091Y0196736D03*
X0203091Y0196894D03*
X0203091Y0198154D03*
X0203091Y0198311D03*
X0203091Y0198469D03*
X0202091Y0208469D03*
X0202091Y0208626D03*
X0202091Y0209413D03*
X0200591Y0225476D03*
X0200591Y0226264D03*
X0200591Y0226421D03*
X0200748Y0235634D03*
X0200748Y0236106D03*
X0200748Y0236264D03*
X0200591Y0245476D03*
X0200591Y0246264D03*
X0200591Y0246421D03*
X0200591Y0255476D03*
X0200591Y0256264D03*
X0200591Y0256421D03*
X0200591Y0265476D03*
X0200591Y0266264D03*
X0200591Y0266421D03*
X0201091Y0276106D03*
X0201091Y0276264D03*
X0189594Y0276264D03*
X0189594Y0276106D03*
X0189594Y0277209D03*
X0189594Y0277366D03*
X0189594Y0278783D03*
X0189594Y0278941D03*
X0189594Y0279098D03*
X0189594Y0279256D03*
X0189594Y0279413D03*
X0188780Y0269413D03*
X0188780Y0269256D03*
X0188780Y0269098D03*
X0188780Y0268941D03*
X0188780Y0268783D03*
X0188780Y0268626D03*
X0188780Y0268469D03*
X0188780Y0268311D03*
X0188780Y0268154D03*
X0188780Y0267996D03*
X0188780Y0267839D03*
X0188780Y0267681D03*
X0188780Y0267524D03*
X0188780Y0267366D03*
X0188780Y0267209D03*
X0188780Y0267051D03*
X0188780Y0266894D03*
X0188780Y0266736D03*
X0188780Y0266579D03*
X0188780Y0266421D03*
X0188780Y0266264D03*
X0188780Y0266106D03*
X0188780Y0265949D03*
X0188780Y0265791D03*
X0188780Y0265634D03*
X0188780Y0258941D03*
X0188780Y0258783D03*
X0188780Y0258626D03*
X0188780Y0257996D03*
X0188780Y0257839D03*
X0188780Y0257209D03*
X0188780Y0256106D03*
X0188780Y0255949D03*
X0188780Y0248626D03*
X0188780Y0248469D03*
X0188780Y0248311D03*
X0188780Y0247839D03*
X0188780Y0247681D03*
X0188780Y0247524D03*
X0189882Y0239413D03*
X0189882Y0239256D03*
X0189882Y0239098D03*
X0189882Y0238941D03*
X0189882Y0238783D03*
X0189882Y0238626D03*
X0189882Y0238469D03*
X0189882Y0238311D03*
X0189882Y0238154D03*
X0189882Y0237996D03*
X0189882Y0237839D03*
X0189882Y0237681D03*
X0189882Y0237524D03*
X0189882Y0237366D03*
X0189882Y0237209D03*
X0189882Y0237051D03*
X0189882Y0236894D03*
X0189882Y0236736D03*
X0189882Y0236579D03*
X0189882Y0236421D03*
X0189882Y0236264D03*
X0189882Y0236106D03*
X0189882Y0235949D03*
X0189882Y0235791D03*
X0189882Y0235634D03*
X0188780Y0228783D03*
X0188780Y0228626D03*
X0188780Y0228469D03*
X0188780Y0226421D03*
X0188780Y0226264D03*
X0188075Y0209413D03*
X0188075Y0205476D03*
X0186870Y0198469D03*
X0186870Y0198311D03*
X0186870Y0196736D03*
X0186870Y0196579D03*
X0186870Y0188469D03*
X0186870Y0188311D03*
X0186870Y0186736D03*
X0186870Y0186579D03*
X0189094Y0179413D03*
X0189094Y0178626D03*
X0189094Y0178469D03*
X0188807Y0168783D03*
X0188807Y0168626D03*
X0188807Y0168469D03*
X0188807Y0168311D03*
X0188807Y0168154D03*
X0188807Y0167996D03*
X0188807Y0167209D03*
X0188807Y0167051D03*
X0188807Y0166264D03*
X0188807Y0166106D03*
D26*
X0194240Y0166106D03*
X0194240Y0165949D03*
X0195657Y0166264D03*
X0195815Y0166106D03*
X0195815Y0165949D03*
X0197390Y0168626D03*
X0195630Y0178783D03*
X0195630Y0178941D03*
X0195630Y0179098D03*
X0195630Y0179256D03*
X0197028Y0185949D03*
X0197028Y0186106D03*
X0197028Y0186264D03*
X0197028Y0186421D03*
X0197028Y0186579D03*
X0197028Y0186736D03*
X0197028Y0186894D03*
X0197028Y0187051D03*
X0197028Y0187209D03*
X0197028Y0187366D03*
X0197028Y0187524D03*
X0197028Y0187681D03*
X0195453Y0187051D03*
X0194350Y0187681D03*
X0194350Y0187839D03*
X0192933Y0187839D03*
X0192933Y0187996D03*
X0192933Y0188154D03*
X0192933Y0188311D03*
X0192933Y0188469D03*
X0192933Y0188626D03*
X0192933Y0188783D03*
X0192933Y0188941D03*
X0192933Y0189098D03*
X0192933Y0189256D03*
X0192933Y0187681D03*
X0192933Y0187524D03*
X0192933Y0187366D03*
X0192933Y0187209D03*
X0192933Y0187051D03*
X0192933Y0186894D03*
X0192933Y0186736D03*
X0192933Y0186579D03*
X0192933Y0186421D03*
X0192933Y0186264D03*
X0192933Y0186106D03*
X0192933Y0185949D03*
X0192933Y0185791D03*
X0192933Y0195791D03*
X0192933Y0195949D03*
X0192933Y0196106D03*
X0192933Y0196264D03*
X0192933Y0196421D03*
X0192933Y0196579D03*
X0192933Y0196736D03*
X0192933Y0196894D03*
X0192933Y0197051D03*
X0192933Y0197209D03*
X0192933Y0197366D03*
X0192933Y0197524D03*
X0192933Y0197681D03*
X0192933Y0197839D03*
X0192933Y0197996D03*
X0192933Y0198154D03*
X0192933Y0198311D03*
X0192933Y0198469D03*
X0192933Y0198626D03*
X0192933Y0198783D03*
X0192933Y0198941D03*
X0192933Y0199098D03*
X0192933Y0199256D03*
X0194350Y0197839D03*
X0194350Y0197681D03*
X0195453Y0197051D03*
X0197028Y0197051D03*
X0197028Y0196894D03*
X0197028Y0196736D03*
X0197028Y0196579D03*
X0197028Y0196421D03*
X0197028Y0196264D03*
X0197028Y0196106D03*
X0197028Y0195949D03*
X0197028Y0197209D03*
X0197028Y0197366D03*
X0197028Y0197524D03*
X0197028Y0197681D03*
X0194138Y0205634D03*
X0194138Y0205791D03*
X0194138Y0205949D03*
X0194138Y0206106D03*
X0194138Y0206264D03*
X0194138Y0206421D03*
X0194138Y0206579D03*
X0194138Y0206736D03*
X0194138Y0206894D03*
X0194138Y0207051D03*
X0194138Y0207209D03*
X0194138Y0207366D03*
X0194138Y0207524D03*
X0194138Y0207681D03*
X0194138Y0207839D03*
X0194138Y0207996D03*
X0194138Y0208154D03*
X0194138Y0208311D03*
X0194138Y0208469D03*
X0194138Y0208626D03*
X0194138Y0208783D03*
X0194138Y0208941D03*
X0194138Y0209098D03*
X0194138Y0209256D03*
X0195555Y0209256D03*
X0195555Y0209098D03*
X0195555Y0208941D03*
X0195555Y0208783D03*
X0192720Y0207209D03*
X0191461Y0207681D03*
X0196417Y0227366D03*
X0196417Y0227524D03*
X0196417Y0237366D03*
X0194213Y0245634D03*
X0194213Y0246264D03*
X0196417Y0247366D03*
X0196417Y0247524D03*
X0194055Y0255949D03*
X0194213Y0256106D03*
X0194213Y0256264D03*
X0194370Y0256579D03*
X0196417Y0257366D03*
X0196417Y0257524D03*
X0192480Y0258626D03*
X0196417Y0267366D03*
X0194713Y0276264D03*
X0192720Y0158941D03*
X0192720Y0158783D03*
X0192878Y0158626D03*
X0192720Y0155949D03*
X0196343Y0155949D03*
X0196343Y0156106D03*
X0196343Y0155791D03*
X0196343Y0155634D03*
X0196343Y0157524D03*
X0196343Y0157681D03*
X0196343Y0157839D03*
X0196343Y0157996D03*
X0196343Y0158154D03*
X0196343Y0158311D03*
X0196343Y0158469D03*
X0197547Y0149256D03*
X0197547Y0149098D03*
X0197547Y0148941D03*
X0197547Y0148783D03*
X0197547Y0148626D03*
X0197547Y0148469D03*
X0197547Y0148311D03*
X0197547Y0148154D03*
X0197547Y0147996D03*
X0197547Y0147839D03*
X0197547Y0147681D03*
X0197547Y0147524D03*
X0197547Y0147366D03*
X0197547Y0147209D03*
X0197547Y0147051D03*
X0197547Y0146894D03*
X0197547Y0146736D03*
X0197547Y0146579D03*
X0197547Y0146421D03*
X0197547Y0146264D03*
X0197547Y0146106D03*
X0197547Y0145949D03*
X0197547Y0145791D03*
X0197547Y0145634D03*
X0193925Y0145634D03*
X0193925Y0145791D03*
X0193925Y0145949D03*
X0193925Y0146106D03*
X0193925Y0147524D03*
X0193925Y0147681D03*
X0193925Y0147839D03*
X0193925Y0147996D03*
X0193925Y0148154D03*
X0193925Y0148311D03*
X0193925Y0148469D03*
X0028417Y0122366D03*
X0026213Y0121264D03*
X0026213Y0121106D03*
X0022591Y0121106D03*
X0022591Y0120949D03*
X0022591Y0121264D03*
X0022591Y0120634D03*
X0022591Y0122524D03*
X0022591Y0122681D03*
X0022591Y0122839D03*
X0022591Y0122996D03*
X0022591Y0123154D03*
X0022591Y0123311D03*
X0022591Y0123469D03*
X0022591Y0123626D03*
X0022933Y0130791D03*
X0022933Y0130949D03*
X0022933Y0131106D03*
X0022933Y0131264D03*
X0022933Y0131421D03*
X0022933Y0131579D03*
X0022933Y0131736D03*
X0022933Y0131894D03*
X0022933Y0132051D03*
X0022933Y0132209D03*
X0022933Y0132366D03*
X0022933Y0132524D03*
X0022933Y0132681D03*
X0022933Y0132839D03*
X0022933Y0132996D03*
X0022933Y0133154D03*
X0022933Y0133311D03*
X0022933Y0133469D03*
X0022933Y0133626D03*
X0022933Y0133783D03*
X0022933Y0133941D03*
X0022933Y0134098D03*
X0022933Y0134256D03*
X0024350Y0132839D03*
X0024350Y0132681D03*
X0025453Y0132051D03*
X0027028Y0132051D03*
X0027028Y0131894D03*
X0027028Y0131736D03*
X0027028Y0131579D03*
X0027028Y0131421D03*
X0027028Y0131264D03*
X0027028Y0131106D03*
X0027028Y0130949D03*
X0027028Y0132209D03*
X0027028Y0132366D03*
X0027028Y0132524D03*
X0027028Y0132681D03*
X0025425Y0141264D03*
X0025425Y0141421D03*
X0025425Y0141579D03*
X0025425Y0141736D03*
X0025425Y0150634D03*
X0025425Y0150791D03*
X0025425Y0150949D03*
X0025425Y0151106D03*
X0025425Y0151264D03*
X0025425Y0152839D03*
X0025425Y0152996D03*
X0025425Y0153154D03*
X0025425Y0153311D03*
X0025425Y0153469D03*
X0025425Y0153626D03*
X0024925Y0162839D03*
X0024925Y0162996D03*
X0024925Y0163469D03*
X0025425Y0171736D03*
X0025425Y0171894D03*
X0025425Y0172051D03*
X0025425Y0172209D03*
X0025425Y0172366D03*
X0025425Y0172524D03*
X0025425Y0172681D03*
X0025425Y0172839D03*
X0025425Y0172996D03*
X0025425Y0173154D03*
X0025055Y0182996D03*
X0025055Y0183626D03*
X0025055Y0193154D03*
X0025055Y0193626D03*
X0024898Y0238941D03*
X0024898Y0239098D03*
X0024898Y0239256D03*
X0022823Y0266579D03*
X0022823Y0268469D03*
X0024870Y0268783D03*
X0024870Y0269413D03*
X0025000Y0276106D03*
X0025000Y0276264D03*
X0025157Y0278941D03*
X0022953Y0278469D03*
X0021488Y0112366D03*
X0023220Y0112051D03*
X0023378Y0111736D03*
X0023378Y0111579D03*
X0023535Y0111421D03*
X0027315Y0111421D03*
X0027315Y0111264D03*
X0027315Y0111106D03*
X0027315Y0111579D03*
X0027315Y0111894D03*
X0027315Y0112051D03*
X0027315Y0112209D03*
X0027315Y0112366D03*
X0023035Y0104098D03*
X0023035Y0103626D03*
X0023035Y0101421D03*
X0023035Y0101264D03*
X0023035Y0100791D03*
X0026815Y0101736D03*
X0026815Y0101894D03*
X0026815Y0102051D03*
X0026972Y0102366D03*
X0026972Y0102524D03*
D27*
X0026894Y0102209D03*
X0022957Y0101106D03*
X0022957Y0100949D03*
X0022957Y0103783D03*
X0022957Y0103941D03*
X0021409Y0112524D03*
X0021409Y0112681D03*
X0027236Y0111736D03*
X0026134Y0120634D03*
X0026134Y0120791D03*
X0026134Y0120949D03*
X0028339Y0122524D03*
X0028339Y0122681D03*
X0022512Y0120791D03*
X0025531Y0132209D03*
X0025531Y0132366D03*
X0024272Y0132524D03*
X0023614Y0143626D03*
X0025004Y0163154D03*
X0025004Y0163311D03*
X0024976Y0216264D03*
X0024976Y0248626D03*
X0024921Y0275634D03*
X0022874Y0276579D03*
X0022874Y0278311D03*
X0191382Y0207524D03*
X0191382Y0207366D03*
X0192799Y0207366D03*
X0197839Y0207209D03*
X0197839Y0207051D03*
X0195531Y0197366D03*
X0195531Y0197209D03*
X0194272Y0197524D03*
X0194272Y0187524D03*
X0195531Y0187366D03*
X0195531Y0187209D03*
X0193346Y0177209D03*
X0193346Y0177051D03*
X0192587Y0168626D03*
X0194319Y0166264D03*
X0192799Y0156264D03*
X0192799Y0156106D03*
X0196496Y0237524D03*
X0194291Y0246106D03*
X0196339Y0267524D03*
X0196339Y0267681D03*
X0194634Y0275791D03*
X0194634Y0275949D03*
X0196839Y0277524D03*
X0196839Y0277681D03*
D28*
X0193295Y0276421D03*
X0192480Y0268469D03*
X0192480Y0268311D03*
X0192480Y0268154D03*
X0192480Y0267996D03*
X0194528Y0267209D03*
X0194528Y0267051D03*
X0194370Y0266736D03*
X0192480Y0258469D03*
X0192480Y0256421D03*
X0194370Y0256894D03*
X0196417Y0257209D03*
X0196417Y0247209D03*
X0194213Y0246579D03*
X0194213Y0245476D03*
X0192480Y0228469D03*
X0192480Y0226579D03*
X0194370Y0226736D03*
X0194370Y0226894D03*
X0194528Y0227051D03*
X0194528Y0227209D03*
X0196417Y0227209D03*
X0195713Y0208311D03*
X0195713Y0208154D03*
X0194138Y0205476D03*
X0192563Y0206736D03*
X0191618Y0207996D03*
X0191618Y0208154D03*
X0194508Y0198154D03*
X0195295Y0196736D03*
X0195295Y0196579D03*
X0192933Y0195476D03*
X0197185Y0198469D03*
X0197185Y0199256D03*
X0198760Y0196421D03*
X0197185Y0189256D03*
X0197185Y0188469D03*
X0195295Y0186736D03*
X0195295Y0186579D03*
X0194508Y0188154D03*
X0192933Y0185476D03*
X0198760Y0186421D03*
X0195630Y0178626D03*
X0197205Y0176421D03*
X0197390Y0168469D03*
X0197390Y0166421D03*
X0194083Y0165634D03*
X0192563Y0159256D03*
X0191146Y0158469D03*
X0191146Y0156421D03*
X0192563Y0155634D03*
X0196500Y0156736D03*
X0196500Y0156894D03*
X0196500Y0157051D03*
X0196500Y0158941D03*
X0194083Y0148941D03*
X0194083Y0147051D03*
X0194083Y0146894D03*
X0194083Y0146736D03*
X0197547Y0145476D03*
X0028760Y0131421D03*
X0027185Y0133469D03*
X0027185Y0134256D03*
X0024508Y0133154D03*
X0025295Y0131736D03*
X0025295Y0131579D03*
X0022933Y0130476D03*
X0022748Y0124098D03*
X0022748Y0122051D03*
X0022748Y0121894D03*
X0022748Y0121736D03*
X0022591Y0120476D03*
X0026213Y0120476D03*
X0026370Y0121736D03*
X0026370Y0121894D03*
X0027472Y0114256D03*
X0027472Y0113626D03*
X0027472Y0112681D03*
X0027472Y0110791D03*
X0023063Y0112524D03*
X0023063Y0112681D03*
X0023193Y0103311D03*
X0024610Y0101421D03*
X0026657Y0101264D03*
X0026657Y0101106D03*
X0027130Y0102681D03*
X0025268Y0140791D03*
X0025268Y0140949D03*
X0025268Y0143311D03*
X0025268Y0143941D03*
X0025268Y0144098D03*
X0025268Y0151579D03*
X0023693Y0153469D03*
X0025268Y0154098D03*
X0024768Y0163783D03*
X0025268Y0170949D03*
X0025268Y0171106D03*
X0025268Y0173783D03*
X0025268Y0173941D03*
X0025055Y0183154D03*
X0025055Y0183311D03*
X0025055Y0183469D03*
X0025055Y0191421D03*
X0025055Y0192051D03*
X0025055Y0193311D03*
X0025055Y0193469D03*
X0025055Y0216421D03*
X0025055Y0216736D03*
X0025370Y0226421D03*
X0025055Y0237681D03*
X0025055Y0237839D03*
X0025055Y0237996D03*
X0025055Y0238154D03*
X0024898Y0239413D03*
X0025055Y0246421D03*
X0025055Y0248469D03*
X0025055Y0258469D03*
X0022823Y0266421D03*
X0022823Y0268626D03*
X0025000Y0275476D03*
X0025000Y0276421D03*
X0024685Y0278311D03*
X0024843Y0278469D03*
X0025315Y0279256D03*
X0022953Y0278626D03*
D29*
X0022874Y0279256D03*
X0022874Y0275791D03*
X0022744Y0269256D03*
X0025579Y0266264D03*
X0025579Y0266106D03*
X0025579Y0265634D03*
X0024717Y0152366D03*
X0024902Y0134413D03*
X0024902Y0130476D03*
X0026921Y0124256D03*
X0026921Y0124098D03*
X0028339Y0120949D03*
X0028024Y0112996D03*
X0021409Y0110949D03*
X0027524Y0102996D03*
X0026579Y0100634D03*
X0192642Y0157209D03*
X0194949Y0166894D03*
X0194949Y0168469D03*
X0194921Y0176106D03*
X0193346Y0178783D03*
X0193346Y0178941D03*
X0194902Y0185476D03*
X0194902Y0189413D03*
X0194902Y0195476D03*
X0194902Y0199413D03*
X0192169Y0205476D03*
X0196264Y0205949D03*
X0196264Y0206106D03*
X0197839Y0208783D03*
X0197839Y0208941D03*
X0196339Y0225949D03*
X0194764Y0228626D03*
X0194764Y0228783D03*
X0196496Y0235949D03*
X0194134Y0237209D03*
X0194134Y0237366D03*
X0194764Y0238783D03*
X0196339Y0245949D03*
X0196339Y0255949D03*
X0194449Y0258154D03*
X0194764Y0258783D03*
X0196339Y0265949D03*
X0196839Y0275949D03*
X0196839Y0276106D03*
X0195264Y0278783D03*
X0195264Y0278941D03*
D30*
X0194949Y0277366D03*
X0194949Y0277209D03*
X0194634Y0276579D03*
X0194476Y0275476D03*
X0192559Y0267839D03*
X0192559Y0267681D03*
X0194606Y0267366D03*
X0192559Y0258311D03*
X0193976Y0255634D03*
X0192559Y0248311D03*
X0192559Y0248154D03*
X0192559Y0247996D03*
X0192717Y0247681D03*
X0192559Y0228311D03*
X0192559Y0226736D03*
X0193976Y0225634D03*
X0194606Y0227366D03*
X0194606Y0227524D03*
X0191697Y0208311D03*
X0192484Y0206579D03*
X0195791Y0207839D03*
X0195791Y0207996D03*
X0197839Y0207839D03*
X0197839Y0207681D03*
X0194587Y0198469D03*
X0194587Y0198311D03*
X0195217Y0196421D03*
X0197106Y0195634D03*
X0199469Y0197209D03*
X0199469Y0197366D03*
X0199469Y0197524D03*
X0199469Y0197681D03*
X0194587Y0188469D03*
X0194587Y0188311D03*
X0195217Y0186421D03*
X0197106Y0185634D03*
X0199469Y0187209D03*
X0199469Y0187366D03*
X0199469Y0187524D03*
X0199469Y0187681D03*
X0193346Y0177839D03*
X0193346Y0177681D03*
X0192587Y0168469D03*
X0192587Y0168311D03*
X0192744Y0168154D03*
X0192587Y0166421D03*
X0195894Y0165634D03*
X0197469Y0168311D03*
X0196579Y0159098D03*
X0198311Y0158469D03*
X0198311Y0156421D03*
X0192484Y0159413D03*
X0194161Y0149098D03*
X0195894Y0148469D03*
X0195894Y0146421D03*
X0191122Y0188469D03*
X0191122Y0198469D03*
X0029469Y0132681D03*
X0029469Y0132524D03*
X0029469Y0132366D03*
X0029469Y0132209D03*
X0027106Y0130634D03*
X0025217Y0131421D03*
X0024587Y0133311D03*
X0024587Y0133469D03*
X0021122Y0133469D03*
X0025189Y0140634D03*
X0023614Y0141421D03*
X0023772Y0143154D03*
X0023614Y0143311D03*
X0023614Y0143469D03*
X0025189Y0143154D03*
X0025189Y0144256D03*
X0025189Y0151736D03*
X0023772Y0152839D03*
X0025189Y0154256D03*
X0024689Y0163941D03*
X0025189Y0170791D03*
X0023614Y0171579D03*
X0023614Y0171736D03*
X0023614Y0173154D03*
X0023614Y0173311D03*
X0025189Y0174098D03*
X0025134Y0191894D03*
X0024976Y0216579D03*
X0025291Y0257681D03*
X0025134Y0257839D03*
X0025134Y0257996D03*
X0025134Y0258311D03*
X0022744Y0266264D03*
X0022874Y0276264D03*
X0024921Y0276579D03*
X0024606Y0278154D03*
X0022874Y0278783D03*
X0026811Y0278469D03*
X0026811Y0276421D03*
X0026811Y0276264D03*
X0026449Y0122209D03*
X0026449Y0122051D03*
X0024559Y0121421D03*
X0025661Y0113469D03*
X0027551Y0113469D03*
X0028969Y0113469D03*
X0028969Y0111421D03*
X0027551Y0110634D03*
X0023929Y0110791D03*
X0022984Y0112839D03*
X0022984Y0112996D03*
X0026894Y0103626D03*
X0028469Y0103469D03*
X0028469Y0101421D03*
X0023114Y0100634D03*
D31*
X0024610Y0103469D03*
X0023193Y0104413D03*
X0026657Y0103941D03*
X0026815Y0103783D03*
X0026972Y0103469D03*
X0027287Y0102839D03*
X0028547Y0101579D03*
X0026657Y0100949D03*
X0024008Y0110634D03*
X0029047Y0111579D03*
X0027630Y0114413D03*
X0024480Y0121106D03*
X0024480Y0121264D03*
X0024480Y0122681D03*
X0024480Y0123469D03*
X0022906Y0124256D03*
X0026528Y0122524D03*
X0026528Y0122366D03*
X0025138Y0131264D03*
X0024665Y0133626D03*
X0021043Y0133311D03*
X0021043Y0131579D03*
X0023693Y0141579D03*
X0028760Y0133469D03*
X0029390Y0132839D03*
X0025110Y0151894D03*
X0023850Y0152681D03*
X0023693Y0152996D03*
X0023693Y0153154D03*
X0023693Y0153311D03*
X0024610Y0164098D03*
X0025110Y0170634D03*
X0023693Y0171894D03*
X0023693Y0172996D03*
X0025110Y0174256D03*
X0025055Y0191579D03*
X0025055Y0191736D03*
X0025370Y0226579D03*
X0025055Y0246579D03*
X0025055Y0246736D03*
X0025213Y0248154D03*
X0025055Y0248311D03*
X0025055Y0258154D03*
X0022823Y0268783D03*
X0026732Y0275791D03*
X0026732Y0275949D03*
X0026732Y0276106D03*
X0026732Y0277681D03*
X0026732Y0277839D03*
X0026732Y0277996D03*
X0026732Y0278154D03*
X0026732Y0278311D03*
X0024528Y0277996D03*
X0024843Y0276736D03*
X0192638Y0258154D03*
X0192480Y0256579D03*
X0192638Y0247839D03*
X0194213Y0246736D03*
X0194685Y0247839D03*
X0192480Y0228154D03*
X0192480Y0227996D03*
X0192480Y0227839D03*
X0192480Y0227681D03*
X0192480Y0227524D03*
X0192480Y0227366D03*
X0192480Y0227209D03*
X0192480Y0227051D03*
X0192480Y0226894D03*
X0194685Y0227681D03*
X0194685Y0227839D03*
X0191776Y0208469D03*
X0192406Y0206421D03*
X0192406Y0206264D03*
X0195870Y0207524D03*
X0195870Y0207681D03*
X0194665Y0198626D03*
X0195138Y0196264D03*
X0198760Y0198469D03*
X0199390Y0197839D03*
X0198760Y0188469D03*
X0199390Y0187839D03*
X0195138Y0186264D03*
X0194665Y0188626D03*
X0191043Y0188311D03*
X0191043Y0186579D03*
X0191043Y0196579D03*
X0191043Y0198311D03*
X0197205Y0176579D03*
X0197547Y0168154D03*
X0197390Y0166579D03*
X0196657Y0159256D03*
X0198232Y0157681D03*
X0198232Y0156264D03*
X0198232Y0156106D03*
X0193035Y0157839D03*
X0191146Y0156579D03*
X0194240Y0149256D03*
X0195815Y0147681D03*
X0195815Y0146264D03*
X0195815Y0146106D03*
X0192665Y0166579D03*
X0194528Y0267524D03*
X0193295Y0276579D03*
X0194713Y0277051D03*
X0195028Y0277524D03*
X0195028Y0277681D03*
D32*
X0194606Y0239413D03*
X0194476Y0167996D03*
X0194634Y0167681D03*
X0194634Y0167366D03*
X0194476Y0167209D03*
X0023299Y0114413D03*
D33*
X0028287Y0132996D03*
X0028287Y0133154D03*
X0025028Y0267366D03*
X0025028Y0267524D03*
X0194555Y0167839D03*
X0198287Y0187996D03*
X0198287Y0188154D03*
X0198287Y0197996D03*
X0198287Y0198154D03*
D34*
X0200382Y0167051D03*
X0188311Y0158154D03*
X0031382Y0101894D03*
X0018469Y0101894D03*
X0018469Y0102051D03*
X0018469Y0102209D03*
X0018469Y0102366D03*
X0018469Y0102524D03*
X0018469Y0102681D03*
X0018469Y0102839D03*
X0018469Y0102996D03*
X0018469Y0103154D03*
X0018469Y0103311D03*
X0018469Y0103469D03*
X0018469Y0103626D03*
X0018469Y0103783D03*
X0018469Y0103941D03*
X0018469Y0104098D03*
X0018469Y0101736D03*
X0018469Y0101579D03*
X0018469Y0101421D03*
X0018469Y0101264D03*
D35*
X0194083Y0167051D03*
D36*
X0192744Y0166894D03*
X0192587Y0166736D03*
X0194004Y0165476D03*
X0196051Y0165476D03*
X0197469Y0166736D03*
X0197469Y0166894D03*
X0196736Y0159413D03*
X0198154Y0158311D03*
X0198154Y0158154D03*
X0198154Y0157996D03*
X0198154Y0157839D03*
X0198154Y0155949D03*
X0198154Y0155791D03*
X0198154Y0155634D03*
X0192957Y0157524D03*
X0192957Y0157681D03*
X0192484Y0155476D03*
X0194319Y0149413D03*
X0195736Y0148311D03*
X0195736Y0148154D03*
X0195736Y0147996D03*
X0195736Y0147839D03*
X0195736Y0145949D03*
X0195736Y0145791D03*
X0195736Y0145634D03*
X0195079Y0176894D03*
X0195079Y0177051D03*
X0195236Y0177209D03*
X0195236Y0177366D03*
X0195394Y0177524D03*
X0195394Y0177681D03*
X0193346Y0177996D03*
X0193346Y0178154D03*
X0195059Y0185949D03*
X0195059Y0186106D03*
X0197264Y0185476D03*
X0198839Y0186579D03*
X0197264Y0189413D03*
X0194744Y0188783D03*
X0190965Y0188154D03*
X0190965Y0186736D03*
X0190965Y0196736D03*
X0190965Y0198154D03*
X0194744Y0198783D03*
X0195059Y0196106D03*
X0195059Y0195949D03*
X0197264Y0195476D03*
X0198839Y0196579D03*
X0197264Y0199413D03*
X0195949Y0207209D03*
X0195949Y0207366D03*
X0197839Y0207996D03*
X0197839Y0208154D03*
X0192327Y0206106D03*
X0191854Y0208626D03*
X0191854Y0208783D03*
X0193819Y0235634D03*
X0193819Y0235791D03*
X0193819Y0235949D03*
X0193819Y0236106D03*
X0194764Y0237996D03*
X0194606Y0247681D03*
X0194764Y0247996D03*
X0194764Y0248154D03*
X0193976Y0255476D03*
X0192559Y0256736D03*
X0192559Y0256894D03*
X0194606Y0267681D03*
X0194606Y0267839D03*
X0195106Y0277839D03*
X0195106Y0277996D03*
X0028839Y0131579D03*
X0027264Y0130476D03*
X0025059Y0130949D03*
X0025059Y0131106D03*
X0024744Y0133783D03*
X0027264Y0134413D03*
X0025031Y0140476D03*
X0023614Y0141736D03*
X0023772Y0141894D03*
X0025031Y0144413D03*
X0025031Y0154413D03*
X0024531Y0160791D03*
X0024531Y0160949D03*
X0024531Y0161106D03*
X0024531Y0161264D03*
X0024531Y0161421D03*
X0024531Y0161579D03*
X0024531Y0161736D03*
X0024531Y0161894D03*
X0024531Y0162051D03*
X0024531Y0162209D03*
X0024531Y0162366D03*
X0024531Y0162524D03*
X0024531Y0162681D03*
X0024531Y0164256D03*
X0023614Y0172051D03*
X0023614Y0172209D03*
X0023614Y0172366D03*
X0023614Y0172524D03*
X0023614Y0172681D03*
X0023614Y0172839D03*
X0025031Y0174413D03*
X0020965Y0133154D03*
X0020965Y0131736D03*
X0022984Y0124413D03*
X0024402Y0123311D03*
X0024402Y0123154D03*
X0024402Y0122996D03*
X0024402Y0122839D03*
X0024402Y0120949D03*
X0024402Y0120791D03*
X0026606Y0122681D03*
X0026606Y0122839D03*
X0025504Y0113311D03*
X0025504Y0111579D03*
X0027709Y0112839D03*
X0029126Y0111736D03*
X0022984Y0113154D03*
X0022984Y0113311D03*
X0026579Y0104098D03*
X0028626Y0101736D03*
X0023272Y0100476D03*
X0025134Y0246894D03*
X0022744Y0266106D03*
X0022874Y0276106D03*
X0024449Y0277839D03*
X0025394Y0279413D03*
X0022874Y0278941D03*
D37*
X0018701Y0278941D03*
X0018701Y0279256D03*
X0018701Y0276106D03*
X0018701Y0275791D03*
X0018701Y0275634D03*
X0018571Y0269256D03*
X0018571Y0269098D03*
X0018571Y0268941D03*
X0018571Y0266106D03*
X0018571Y0265949D03*
X0018571Y0265791D03*
X0018571Y0265634D03*
X0031169Y0268941D03*
X0031169Y0269098D03*
X0031169Y0269256D03*
X0031169Y0269413D03*
X0030669Y0275791D03*
X0030669Y0275949D03*
X0030669Y0276106D03*
X0030669Y0276264D03*
X0030669Y0276421D03*
X0030669Y0276579D03*
X0030669Y0276736D03*
X0030669Y0276894D03*
X0030669Y0277051D03*
X0030669Y0277209D03*
X0030669Y0277366D03*
X0030669Y0277524D03*
X0030669Y0277681D03*
X0030669Y0277839D03*
X0030669Y0277996D03*
X0030669Y0278154D03*
X0030669Y0278311D03*
X0030669Y0278469D03*
X0030669Y0278626D03*
X0030669Y0278783D03*
X0030669Y0278941D03*
X0030669Y0279098D03*
X0030669Y0279256D03*
X0033169Y0132996D03*
X0033169Y0132839D03*
X0033169Y0132681D03*
X0033169Y0132524D03*
X0033169Y0132366D03*
X0033169Y0132209D03*
X0033169Y0132051D03*
X0032669Y0121106D03*
X0032669Y0120949D03*
X0032669Y0120791D03*
X0032669Y0120634D03*
X0032327Y0101264D03*
X0017524Y0101106D03*
X0017524Y0100949D03*
X0017524Y0100791D03*
X0017524Y0100634D03*
X0017079Y0110634D03*
X0017079Y0110791D03*
X0017079Y0110949D03*
X0016921Y0123783D03*
X0016921Y0123941D03*
X0016921Y0124098D03*
X0016921Y0124256D03*
X0016921Y0124413D03*
X0016791Y0131894D03*
X0016791Y0132051D03*
X0016791Y0132209D03*
X0016791Y0132366D03*
X0016791Y0132524D03*
X0016791Y0132681D03*
X0016791Y0132839D03*
X0016791Y0132996D03*
X0016791Y0133154D03*
X0187366Y0156421D03*
X0187366Y0156579D03*
X0187366Y0156736D03*
X0187366Y0156894D03*
X0187366Y0157051D03*
X0188256Y0149413D03*
X0188256Y0149256D03*
X0188256Y0149098D03*
X0188256Y0148941D03*
X0188256Y0148783D03*
X0188728Y0166421D03*
X0188728Y0166579D03*
X0188728Y0166736D03*
X0188728Y0166894D03*
X0189016Y0178783D03*
X0189016Y0178941D03*
X0189016Y0179256D03*
X0186791Y0186894D03*
X0186791Y0187051D03*
X0186791Y0187209D03*
X0186791Y0187366D03*
X0186791Y0187524D03*
X0186791Y0187681D03*
X0186791Y0187839D03*
X0186791Y0187996D03*
X0186791Y0188154D03*
X0186791Y0196894D03*
X0186791Y0197051D03*
X0186791Y0197209D03*
X0186791Y0197366D03*
X0186791Y0197524D03*
X0186791Y0197681D03*
X0186791Y0197839D03*
X0186791Y0197996D03*
X0186791Y0198154D03*
X0187996Y0205634D03*
X0187996Y0205791D03*
X0187996Y0205949D03*
X0187996Y0206106D03*
X0187996Y0206264D03*
X0187996Y0206421D03*
X0187996Y0206579D03*
X0187996Y0206736D03*
X0187996Y0206894D03*
X0187996Y0207051D03*
X0187996Y0207209D03*
X0187996Y0207366D03*
X0187996Y0207524D03*
X0187996Y0207681D03*
X0187996Y0207839D03*
X0187996Y0207996D03*
X0187996Y0208154D03*
X0187996Y0208311D03*
X0187996Y0208469D03*
X0187996Y0208626D03*
X0187996Y0208783D03*
X0187996Y0208941D03*
X0187996Y0209098D03*
X0187996Y0209256D03*
X0188701Y0226579D03*
X0188701Y0226736D03*
X0188701Y0226894D03*
X0188701Y0227051D03*
X0188701Y0227209D03*
X0188701Y0227366D03*
X0188701Y0227524D03*
X0188701Y0227681D03*
X0188701Y0227839D03*
X0188701Y0227996D03*
X0188701Y0228154D03*
X0188701Y0228311D03*
X0200669Y0226106D03*
X0200669Y0225949D03*
X0200669Y0225634D03*
X0200827Y0235791D03*
X0200827Y0235949D03*
X0200669Y0245634D03*
X0200669Y0245949D03*
X0200669Y0246106D03*
X0200669Y0255634D03*
X0200669Y0255949D03*
X0200669Y0256106D03*
X0200669Y0265634D03*
X0200669Y0265791D03*
X0200669Y0265949D03*
X0200669Y0266106D03*
X0201169Y0275634D03*
X0201169Y0275791D03*
X0201169Y0275949D03*
X0189516Y0276421D03*
X0189516Y0276579D03*
X0189516Y0276736D03*
X0189516Y0276894D03*
X0189516Y0277051D03*
X0188701Y0258469D03*
X0188701Y0258311D03*
X0188701Y0258154D03*
X0188701Y0257051D03*
X0188701Y0256894D03*
X0188701Y0256736D03*
X0188701Y0256579D03*
X0188701Y0256421D03*
X0188701Y0256264D03*
X0188701Y0248154D03*
X0188701Y0247996D03*
X0188701Y0246264D03*
X0188701Y0245634D03*
X0188701Y0245476D03*
X0202169Y0209256D03*
X0202169Y0208941D03*
X0202169Y0208783D03*
X0203169Y0197996D03*
X0203169Y0197839D03*
X0203169Y0197681D03*
X0203169Y0197524D03*
X0203169Y0197366D03*
X0203169Y0197209D03*
X0203169Y0197051D03*
X0203169Y0187996D03*
X0203169Y0187839D03*
X0203169Y0187681D03*
X0203169Y0187524D03*
X0203169Y0187366D03*
X0203169Y0187209D03*
X0203169Y0187051D03*
X0200669Y0177996D03*
X0200669Y0177839D03*
X0200669Y0177681D03*
X0200669Y0177524D03*
X0200669Y0177366D03*
X0200669Y0177209D03*
X0200669Y0176264D03*
X0200669Y0175949D03*
X0200669Y0175791D03*
X0201327Y0166736D03*
X0201327Y0166579D03*
D38*
X0195028Y0166579D03*
X0195028Y0166736D03*
X0195000Y0176264D03*
X0193268Y0178626D03*
X0194980Y0185634D03*
X0194980Y0195634D03*
X0196185Y0206264D03*
X0196185Y0206421D03*
X0197917Y0208626D03*
X0192091Y0209256D03*
X0192091Y0209413D03*
X0196417Y0226106D03*
X0196417Y0236106D03*
X0194055Y0236894D03*
X0194055Y0237051D03*
X0194843Y0238626D03*
X0196417Y0246106D03*
X0194055Y0247051D03*
X0194843Y0248626D03*
X0194843Y0248783D03*
X0196417Y0256106D03*
X0194685Y0258311D03*
X0194685Y0258469D03*
X0194843Y0258626D03*
X0196417Y0266106D03*
X0194685Y0268311D03*
X0194685Y0268469D03*
X0194685Y0268626D03*
X0195185Y0278469D03*
X0195185Y0278626D03*
X0028417Y0121106D03*
X0026843Y0123783D03*
X0026843Y0123941D03*
X0024980Y0130634D03*
X0024795Y0142209D03*
X0024795Y0142996D03*
X0024795Y0152209D03*
X0023063Y0113783D03*
X0025268Y0112681D03*
X0025268Y0112524D03*
X0025268Y0112366D03*
X0024165Y0110476D03*
X0021488Y0111106D03*
X0026500Y0104256D03*
X0025657Y0265791D03*
X0025657Y0265949D03*
X0022823Y0265791D03*
D39*
X0022874Y0276421D03*
X0024921Y0278626D03*
X0025079Y0278783D03*
X0025236Y0279098D03*
X0024976Y0238783D03*
X0024976Y0238626D03*
X0024976Y0238469D03*
X0024976Y0238311D03*
X0025291Y0227051D03*
X0024976Y0216894D03*
X0025346Y0173626D03*
X0025346Y0173469D03*
X0025346Y0173311D03*
X0025346Y0171579D03*
X0025346Y0171421D03*
X0025346Y0171264D03*
X0023614Y0171421D03*
X0023614Y0173469D03*
X0024846Y0163626D03*
X0025346Y0153941D03*
X0025346Y0153783D03*
X0025346Y0152681D03*
X0025346Y0151421D03*
X0025346Y0150476D03*
X0025346Y0143783D03*
X0025346Y0143626D03*
X0025346Y0143469D03*
X0025346Y0141894D03*
X0025346Y0141106D03*
X0022854Y0134413D03*
X0024429Y0132996D03*
X0025374Y0131894D03*
X0027106Y0132839D03*
X0027106Y0133626D03*
X0027106Y0133783D03*
X0027106Y0133941D03*
X0027106Y0134098D03*
X0027106Y0130791D03*
X0022854Y0130634D03*
X0021280Y0131421D03*
X0022669Y0123941D03*
X0022669Y0123783D03*
X0022669Y0122366D03*
X0022669Y0122209D03*
X0022669Y0121579D03*
X0022669Y0121421D03*
X0026291Y0121421D03*
X0026291Y0121579D03*
X0028339Y0122209D03*
X0027394Y0114098D03*
X0027394Y0113941D03*
X0027394Y0113783D03*
X0027394Y0112524D03*
X0027394Y0110949D03*
X0025661Y0111421D03*
X0023772Y0111106D03*
X0023772Y0110949D03*
X0023614Y0111264D03*
X0023299Y0111894D03*
X0023142Y0112209D03*
X0023142Y0112366D03*
X0021409Y0112209D03*
X0023114Y0104256D03*
X0023114Y0103469D03*
X0023114Y0101579D03*
X0026736Y0101579D03*
X0026736Y0101421D03*
X0028469Y0103626D03*
X0028969Y0113626D03*
X0191224Y0158626D03*
X0192642Y0159098D03*
X0192642Y0155791D03*
X0196421Y0155476D03*
X0196421Y0156264D03*
X0196421Y0156421D03*
X0196421Y0156579D03*
X0196421Y0157209D03*
X0196421Y0157366D03*
X0196421Y0158626D03*
X0196421Y0158783D03*
X0195894Y0165791D03*
X0195579Y0166421D03*
X0194476Y0166421D03*
X0194161Y0165791D03*
X0193346Y0177366D03*
X0193346Y0177524D03*
X0195551Y0179413D03*
X0197126Y0177051D03*
X0197106Y0185791D03*
X0197106Y0187839D03*
X0197106Y0188626D03*
X0197106Y0188783D03*
X0197106Y0188941D03*
X0197106Y0189098D03*
X0195374Y0186894D03*
X0194429Y0187996D03*
X0192854Y0189413D03*
X0191280Y0186421D03*
X0192854Y0185634D03*
X0192854Y0195634D03*
X0191280Y0196421D03*
X0192854Y0199413D03*
X0194429Y0197996D03*
X0195374Y0196894D03*
X0197106Y0197839D03*
X0197106Y0198626D03*
X0197106Y0198783D03*
X0197106Y0198941D03*
X0197106Y0199098D03*
X0197106Y0195791D03*
X0197839Y0207366D03*
X0197839Y0207524D03*
X0195634Y0208469D03*
X0195634Y0208626D03*
X0195634Y0209413D03*
X0194217Y0209413D03*
X0192642Y0207051D03*
X0192642Y0206894D03*
X0191539Y0207839D03*
X0193976Y0225791D03*
X0193976Y0225949D03*
X0194134Y0226106D03*
X0194134Y0226264D03*
X0194291Y0226421D03*
X0194291Y0226579D03*
X0192559Y0226421D03*
X0196496Y0237209D03*
X0194291Y0246421D03*
X0192559Y0248469D03*
X0193976Y0255791D03*
X0194291Y0256421D03*
X0194449Y0256736D03*
X0194449Y0266894D03*
X0196339Y0267209D03*
X0192402Y0268626D03*
X0192402Y0268783D03*
X0192402Y0268941D03*
X0192402Y0269098D03*
X0192402Y0269256D03*
X0192402Y0269413D03*
X0194476Y0275634D03*
X0194634Y0276421D03*
X0193217Y0277051D03*
X0196839Y0277209D03*
X0196839Y0277366D03*
X0197626Y0149413D03*
X0194004Y0148783D03*
X0194004Y0148626D03*
X0194004Y0147366D03*
X0194004Y0147209D03*
X0194004Y0146579D03*
X0194004Y0146421D03*
X0194004Y0146264D03*
X0194004Y0145476D03*
D40*
X0187839Y0155476D03*
X0187839Y0157839D03*
X0189201Y0165476D03*
X0189488Y0176894D03*
X0189488Y0177051D03*
X0187264Y0189256D03*
X0187264Y0199256D03*
X0202697Y0199256D03*
X0201697Y0206894D03*
X0201697Y0207051D03*
X0202697Y0189256D03*
X0200197Y0227996D03*
X0200197Y0228154D03*
X0200354Y0237681D03*
X0200354Y0237839D03*
X0200197Y0247996D03*
X0200197Y0248154D03*
X0200197Y0257996D03*
X0200197Y0258154D03*
X0200197Y0267839D03*
X0200197Y0267996D03*
X0200697Y0277839D03*
X0200697Y0277996D03*
X0032697Y0134256D03*
X0032197Y0122996D03*
X0032197Y0122839D03*
X0032354Y0110476D03*
X0031854Y0102209D03*
X0017551Y0112681D03*
X0017551Y0112839D03*
X0017264Y0134256D03*
X0019043Y0267209D03*
X0019043Y0267839D03*
X0019173Y0277209D03*
X0019173Y0277839D03*
D41*
X0025055Y0220673D03*
X0025055Y0214374D03*
X0025055Y0210673D03*
X0025055Y0204374D03*
X0025055Y0195673D03*
X0025055Y0189374D03*
X0025055Y0185673D03*
X0025055Y0179374D03*
X0194843Y0179728D03*
X0194843Y0179886D03*
X0194843Y0180043D03*
X0194843Y0180201D03*
X0194843Y0180358D03*
X0194843Y0180516D03*
X0194843Y0180673D03*
X0194843Y0175319D03*
X0194843Y0175161D03*
X0194843Y0175004D03*
X0194843Y0174846D03*
X0194843Y0174689D03*
X0194843Y0174531D03*
X0194843Y0174374D03*
X0195343Y0274374D03*
X0195343Y0274531D03*
X0195343Y0274689D03*
X0195343Y0274846D03*
X0195343Y0275004D03*
X0195343Y0275161D03*
X0195343Y0275319D03*
X0195343Y0279571D03*
X0195343Y0279728D03*
X0195343Y0279886D03*
X0195343Y0280043D03*
X0195343Y0280201D03*
X0195343Y0280358D03*
X0195343Y0280516D03*
X0195343Y0280673D03*
D42*
X0198937Y0179571D03*
D43*
X0193346Y0179571D03*
X0195079Y0175476D03*
X0198209Y0188311D03*
X0198209Y0198311D03*
X0197839Y0209571D03*
X0194606Y0239256D03*
X0193744Y0156736D03*
X0028209Y0133311D03*
X0024217Y0102996D03*
X0024217Y0102839D03*
X0024217Y0102681D03*
X0024217Y0102524D03*
X0024217Y0102366D03*
X0024217Y0102209D03*
X0024217Y0102051D03*
X0024217Y0101894D03*
X0025106Y0267209D03*
X0025106Y0267681D03*
X0025106Y0267839D03*
D44*
X0025264Y0268154D03*
X0025264Y0266894D03*
X0022744Y0269571D03*
X0022874Y0279571D03*
X0026579Y0100476D03*
X0192484Y0157051D03*
X0193902Y0156421D03*
X0193902Y0158154D03*
X0193902Y0158311D03*
X0193902Y0158469D03*
X0193346Y0179413D03*
X0197839Y0209413D03*
X0194764Y0229256D03*
X0194606Y0239098D03*
X0193819Y0247366D03*
X0194764Y0249256D03*
X0194134Y0257996D03*
X0194764Y0259256D03*
X0193346Y0266421D03*
X0193346Y0266579D03*
X0194764Y0269413D03*
X0196839Y0275476D03*
D45*
X0200748Y0255791D03*
X0200748Y0245791D03*
X0188622Y0245791D03*
X0188622Y0245949D03*
X0188622Y0246106D03*
X0200748Y0225791D03*
X0202248Y0209098D03*
X0188937Y0179098D03*
X0200748Y0176106D03*
X0192957Y0156894D03*
X0018622Y0275949D03*
X0018622Y0279098D03*
D46*
X0022874Y0279098D03*
X0024449Y0277681D03*
X0024449Y0277524D03*
X0024449Y0277366D03*
X0024606Y0277209D03*
X0024764Y0277051D03*
X0022874Y0275949D03*
X0022744Y0269098D03*
X0022744Y0265949D03*
X0024531Y0160476D03*
X0024874Y0142839D03*
X0024874Y0142681D03*
X0024874Y0142524D03*
X0024874Y0142366D03*
X0024902Y0134256D03*
X0020807Y0132839D03*
X0020807Y0132681D03*
X0020807Y0132524D03*
X0020807Y0132366D03*
X0020807Y0132209D03*
X0026764Y0123626D03*
X0026764Y0123469D03*
X0026764Y0123311D03*
X0028339Y0121264D03*
X0024402Y0120476D03*
X0022984Y0113626D03*
X0022984Y0113469D03*
X0025346Y0112996D03*
X0025346Y0112839D03*
X0025346Y0112209D03*
X0025346Y0112051D03*
X0025346Y0111894D03*
X0021409Y0111264D03*
X0024531Y0103311D03*
X0026579Y0100791D03*
X0028996Y0131894D03*
X0028996Y0132051D03*
X0190807Y0187209D03*
X0190807Y0187366D03*
X0190807Y0187524D03*
X0190807Y0187681D03*
X0190807Y0187839D03*
X0194902Y0189256D03*
X0198996Y0187051D03*
X0198996Y0186894D03*
X0195709Y0177996D03*
X0194921Y0176421D03*
X0193346Y0178469D03*
X0190807Y0197209D03*
X0190807Y0197366D03*
X0190807Y0197524D03*
X0190807Y0197681D03*
X0190807Y0197839D03*
X0194902Y0199256D03*
X0198996Y0197051D03*
X0198996Y0196894D03*
X0192169Y0205634D03*
X0192169Y0205791D03*
X0192012Y0209098D03*
X0196106Y0206736D03*
X0196106Y0206579D03*
X0197839Y0208469D03*
X0196339Y0226264D03*
X0194764Y0228311D03*
X0194764Y0228469D03*
X0193819Y0235476D03*
X0193976Y0236579D03*
X0193976Y0236736D03*
X0196496Y0236264D03*
X0196339Y0246264D03*
X0194764Y0248469D03*
X0196339Y0256264D03*
X0196339Y0266264D03*
X0194606Y0268154D03*
X0196839Y0276264D03*
X0195106Y0278154D03*
X0195106Y0278311D03*
X0192799Y0157366D03*
X0198154Y0155476D03*
X0195736Y0145476D03*
D47*
X0191303Y0156736D03*
X0195000Y0176579D03*
X0195000Y0176736D03*
X0195630Y0177839D03*
X0193268Y0178311D03*
X0194980Y0185791D03*
X0194823Y0188941D03*
X0194823Y0189098D03*
X0190886Y0187996D03*
X0190886Y0187051D03*
X0190886Y0186894D03*
X0198917Y0186736D03*
X0194980Y0195791D03*
X0194823Y0198941D03*
X0194823Y0199098D03*
X0190886Y0197996D03*
X0190886Y0197051D03*
X0190886Y0196894D03*
X0198917Y0196736D03*
X0192248Y0205949D03*
X0191933Y0208941D03*
X0196028Y0207051D03*
X0196028Y0206894D03*
X0197917Y0208311D03*
X0193898Y0225476D03*
X0194685Y0227996D03*
X0194685Y0228154D03*
X0193898Y0236264D03*
X0193898Y0236421D03*
X0194685Y0237839D03*
X0194843Y0238154D03*
X0194843Y0238311D03*
X0194843Y0238469D03*
X0194055Y0246894D03*
X0194843Y0248311D03*
X0194685Y0267996D03*
X0028917Y0131736D03*
X0024980Y0130791D03*
X0024823Y0133941D03*
X0024823Y0134098D03*
X0020886Y0132996D03*
X0020886Y0132051D03*
X0020886Y0131894D03*
X0026685Y0123154D03*
X0026685Y0122996D03*
X0024323Y0120634D03*
X0025425Y0113154D03*
X0025425Y0111736D03*
X0027630Y0110476D03*
X0024610Y0101579D03*
X0024953Y0152051D03*
X0024453Y0160634D03*
X0024453Y0164413D03*
X0024953Y0170476D03*
X0022823Y0268941D03*
X0026732Y0275476D03*
X0026732Y0275634D03*
X0024843Y0276894D03*
D48*
X0030382Y0265476D03*
X0032382Y0134571D03*
X0031882Y0124256D03*
X0032039Y0112051D03*
X0031539Y0102051D03*
X0017866Y0114098D03*
X0017866Y0114256D03*
X0017579Y0130476D03*
X0188154Y0157996D03*
X0189803Y0175634D03*
X0189803Y0175791D03*
X0187579Y0185476D03*
X0187579Y0195476D03*
X0199882Y0176894D03*
X0202382Y0189571D03*
X0202382Y0199571D03*
X0201382Y0205634D03*
X0201382Y0205791D03*
X0199882Y0229256D03*
X0199882Y0229413D03*
X0200039Y0239098D03*
X0200039Y0239256D03*
X0199882Y0249256D03*
X0199882Y0249413D03*
X0199882Y0259256D03*
X0199882Y0259413D03*
X0199882Y0269256D03*
X0200382Y0279098D03*
X0200382Y0279256D03*
X0190303Y0278469D03*
X0190303Y0278311D03*
X0190303Y0278154D03*
D49*
X0200303Y0279413D03*
X0199803Y0269413D03*
X0199961Y0239413D03*
X0201303Y0205476D03*
X0199803Y0176736D03*
X0189882Y0175476D03*
X0031803Y0124413D03*
X0017945Y0114413D03*
D50*
X0017630Y0113154D03*
X0017630Y0112996D03*
X0032276Y0112209D03*
X0032276Y0114571D03*
X0032118Y0123154D03*
X0032118Y0123311D03*
X0032618Y0130634D03*
X0017343Y0130634D03*
X0031776Y0104571D03*
X0019122Y0267366D03*
X0019122Y0267681D03*
X0019252Y0277366D03*
X0019252Y0277681D03*
X0187343Y0195634D03*
X0187343Y0185634D03*
X0189567Y0176736D03*
X0189567Y0176579D03*
X0202618Y0185634D03*
X0202618Y0195634D03*
X0201618Y0206579D03*
X0201618Y0206736D03*
X0200118Y0228311D03*
X0200118Y0228469D03*
X0200276Y0237996D03*
X0200276Y0238154D03*
X0200118Y0248311D03*
X0200118Y0248469D03*
X0200118Y0258311D03*
X0200118Y0258469D03*
X0200118Y0268154D03*
X0200118Y0268311D03*
X0200618Y0278154D03*
X0200618Y0278311D03*
X0189252Y0259571D03*
X0189252Y0246579D03*
X0189252Y0229571D03*
X0187917Y0159571D03*
D51*
X0189724Y0175949D03*
X0189724Y0176106D03*
X0202461Y0185476D03*
X0202461Y0195476D03*
X0201461Y0205949D03*
X0201461Y0206106D03*
X0199961Y0228941D03*
X0199961Y0229098D03*
X0200118Y0238626D03*
X0200118Y0238783D03*
X0200118Y0238941D03*
X0199961Y0248941D03*
X0199961Y0249098D03*
X0199961Y0258941D03*
X0199961Y0259098D03*
X0199961Y0268941D03*
X0199961Y0269098D03*
X0200461Y0278783D03*
X0200461Y0278941D03*
X0030461Y0268626D03*
X0030461Y0268469D03*
X0030461Y0268311D03*
X0030461Y0268154D03*
X0030461Y0267996D03*
X0030461Y0267839D03*
X0030461Y0267681D03*
X0030461Y0267524D03*
X0030461Y0267366D03*
X0030461Y0267209D03*
X0030461Y0267051D03*
X0030461Y0266894D03*
X0030461Y0266736D03*
X0030461Y0266579D03*
X0030461Y0266421D03*
X0030461Y0266264D03*
X0030461Y0266106D03*
X0030461Y0265949D03*
X0030461Y0265791D03*
X0030461Y0265634D03*
X0032461Y0130476D03*
X0031961Y0124098D03*
X0031961Y0123941D03*
X0017787Y0113941D03*
X0017787Y0113783D03*
D52*
X0025055Y0234374D03*
X0025055Y0240673D03*
X0025055Y0244374D03*
X0025055Y0250673D03*
X0025055Y0254374D03*
X0025055Y0260673D03*
X0024685Y0274374D03*
X0024685Y0274531D03*
X0024685Y0274689D03*
X0024685Y0274846D03*
X0024685Y0275004D03*
X0024685Y0275161D03*
X0024685Y0275319D03*
X0024685Y0279728D03*
X0024685Y0279886D03*
X0024685Y0280043D03*
X0024685Y0280201D03*
X0024685Y0280358D03*
X0024685Y0280516D03*
X0024685Y0280673D03*
X0194685Y0270673D03*
X0194685Y0270516D03*
X0194685Y0270358D03*
X0194685Y0270201D03*
X0194685Y0270043D03*
X0194685Y0269886D03*
X0194685Y0269728D03*
X0194685Y0265319D03*
X0194685Y0265161D03*
X0194685Y0265004D03*
X0194685Y0264846D03*
X0194685Y0264689D03*
X0194685Y0264531D03*
X0194685Y0264374D03*
X0194685Y0260673D03*
X0194685Y0260516D03*
X0194685Y0260358D03*
X0194685Y0260201D03*
X0194685Y0260043D03*
X0194685Y0259886D03*
X0194685Y0259728D03*
X0194685Y0255319D03*
X0194685Y0255161D03*
X0194685Y0255004D03*
X0194685Y0254846D03*
X0194685Y0254689D03*
X0194685Y0254531D03*
X0194685Y0254374D03*
X0194685Y0250673D03*
X0194685Y0250516D03*
X0194685Y0250358D03*
X0194685Y0250201D03*
X0194685Y0250043D03*
X0194685Y0249886D03*
X0194685Y0249728D03*
X0194685Y0245319D03*
X0194685Y0245161D03*
X0194685Y0245004D03*
X0194685Y0244846D03*
X0194685Y0244689D03*
X0194685Y0244531D03*
X0194685Y0244374D03*
X0194685Y0230673D03*
X0194685Y0230516D03*
X0194685Y0230358D03*
X0194685Y0230201D03*
X0194685Y0230043D03*
X0194685Y0229886D03*
X0194685Y0229728D03*
X0194685Y0225319D03*
X0194685Y0225161D03*
X0194685Y0225004D03*
X0194685Y0224846D03*
X0194685Y0224689D03*
X0194685Y0224531D03*
X0194685Y0224374D03*
D53*
X0197913Y0229571D03*
X0197913Y0249571D03*
X0197913Y0259571D03*
X0030646Y0257051D03*
X0019622Y0256579D03*
X0030016Y0219413D03*
X0019622Y0217839D03*
X0019622Y0206894D03*
X0019622Y0206736D03*
X0019780Y0206579D03*
X0019780Y0206421D03*
X0019780Y0206264D03*
X0019937Y0206106D03*
X0019937Y0205949D03*
X0030488Y0207366D03*
X0030488Y0207524D03*
X0020252Y0180476D03*
X0031146Y0162681D03*
X0031146Y0162524D03*
X0031146Y0162366D03*
X0031146Y0162209D03*
X0031146Y0162051D03*
X0031146Y0161894D03*
X0031146Y0161736D03*
D54*
X0026185Y0162839D03*
X0025610Y0132524D03*
X0024193Y0132366D03*
X0025213Y0217839D03*
X0022823Y0266736D03*
X0022823Y0268311D03*
X0024870Y0268941D03*
X0024870Y0269098D03*
X0024870Y0269256D03*
X0025000Y0275791D03*
X0025000Y0275949D03*
X0194713Y0276106D03*
X0196417Y0257681D03*
X0196417Y0247681D03*
X0194213Y0245949D03*
X0194213Y0245791D03*
X0193268Y0237839D03*
X0196417Y0237681D03*
X0196417Y0227681D03*
X0192878Y0207524D03*
X0194193Y0197366D03*
X0195610Y0197524D03*
X0195610Y0187524D03*
X0194193Y0187366D03*
D55*
X0195315Y0234374D03*
X0195315Y0234531D03*
X0195315Y0234689D03*
X0195315Y0234846D03*
X0195315Y0235004D03*
X0195315Y0235161D03*
X0195315Y0235319D03*
X0195315Y0239571D03*
X0195315Y0239728D03*
X0195315Y0239886D03*
X0195315Y0240043D03*
X0195315Y0240201D03*
X0195315Y0240358D03*
X0195315Y0240516D03*
X0195315Y0240673D03*
D56*
X0198150Y0269571D03*
X0030882Y0256736D03*
X0030252Y0259571D03*
X0030252Y0249571D03*
X0030882Y0248154D03*
X0019858Y0249571D03*
X0019228Y0247524D03*
X0019228Y0257051D03*
X0030409Y0219098D03*
X0030567Y0206579D03*
X0019386Y0207524D03*
X0019386Y0207681D03*
X0019386Y0217681D03*
X0030724Y0182366D03*
X0031252Y0174413D03*
X0031409Y0171106D03*
X0031409Y0170949D03*
X0030909Y0164256D03*
X0031067Y0164098D03*
X0030909Y0160791D03*
X0030909Y0160634D03*
X0031252Y0154413D03*
X0031409Y0151106D03*
X0031409Y0150949D03*
X0031252Y0144413D03*
X0031409Y0144256D03*
X0031409Y0140949D03*
X0031409Y0140791D03*
X0018496Y0144571D03*
X0017866Y0152051D03*
X0018496Y0154571D03*
X0018496Y0174571D03*
D57*
X0018024Y0123469D03*
X0018024Y0123311D03*
X0018024Y0123154D03*
X0018024Y0122996D03*
X0018024Y0121894D03*
X0018024Y0121736D03*
X0018024Y0121579D03*
X0018024Y0121421D03*
X0018024Y0121264D03*
X0018024Y0121106D03*
X0018024Y0120949D03*
X0018024Y0120791D03*
X0018024Y0120634D03*
X0189358Y0145634D03*
X0189358Y0145791D03*
X0189358Y0145949D03*
X0189358Y0146106D03*
X0189358Y0146264D03*
X0189358Y0146421D03*
X0189358Y0146579D03*
X0189358Y0146736D03*
X0189358Y0146894D03*
X0189358Y0147996D03*
X0189358Y0148154D03*
X0189358Y0148311D03*
X0189358Y0148469D03*
X0189803Y0269571D03*
D58*
X0194980Y0200673D03*
X0194980Y0200516D03*
X0194980Y0200358D03*
X0194980Y0200201D03*
X0194980Y0200043D03*
X0194980Y0199886D03*
X0194980Y0199728D03*
X0194980Y0195319D03*
X0194980Y0195161D03*
X0194980Y0195004D03*
X0194980Y0194846D03*
X0194980Y0194689D03*
X0194980Y0194531D03*
X0194980Y0194374D03*
X0194980Y0190673D03*
X0194980Y0190516D03*
X0194980Y0190358D03*
X0194980Y0190201D03*
X0194980Y0190043D03*
X0194980Y0189886D03*
X0194980Y0189728D03*
X0194980Y0185319D03*
X0194980Y0185161D03*
X0194980Y0185004D03*
X0194980Y0184846D03*
X0194980Y0184689D03*
X0194980Y0184531D03*
X0194980Y0184374D03*
X0024795Y0175201D03*
X0024795Y0169846D03*
X0024925Y0164728D03*
X0024925Y0160319D03*
X0024795Y0155201D03*
X0024795Y0149846D03*
X0024795Y0145201D03*
X0024795Y0139846D03*
X0024980Y0135673D03*
X0024980Y0135516D03*
X0024980Y0135358D03*
X0024980Y0135201D03*
X0024980Y0135043D03*
X0024980Y0134886D03*
X0024980Y0134728D03*
X0024980Y0130319D03*
X0024980Y0130161D03*
X0024980Y0130004D03*
X0024980Y0129846D03*
X0024980Y0129689D03*
X0024980Y0129531D03*
X0024980Y0129374D03*
D59*
X0021437Y0134571D03*
X0021724Y0114571D03*
X0191437Y0189571D03*
X0191437Y0199571D03*
D60*
X0194768Y0160673D03*
X0194768Y0160516D03*
X0194768Y0160358D03*
X0194768Y0160201D03*
X0194768Y0160043D03*
X0194768Y0159886D03*
X0194768Y0159728D03*
X0194768Y0155319D03*
X0194768Y0155161D03*
X0194768Y0155004D03*
X0194768Y0154846D03*
X0194768Y0154689D03*
X0194768Y0154531D03*
X0194768Y0154374D03*
X0024925Y0159689D03*
X0024925Y0165358D03*
X0025055Y0180319D03*
X0025055Y0184728D03*
X0025055Y0190319D03*
X0025055Y0194728D03*
X0025055Y0205319D03*
X0025055Y0209728D03*
X0025055Y0215319D03*
X0025055Y0219728D03*
X0025213Y0229571D03*
X0025055Y0235161D03*
X0025055Y0239886D03*
X0025055Y0245161D03*
X0025055Y0249886D03*
X0025055Y0255161D03*
X0025055Y0259886D03*
X0024925Y0105673D03*
X0024925Y0105516D03*
X0024925Y0105358D03*
X0024925Y0105201D03*
X0024925Y0105043D03*
X0024925Y0104886D03*
X0024925Y0104728D03*
X0024925Y0100319D03*
X0024925Y0100161D03*
X0024925Y0100004D03*
X0024925Y0099846D03*
X0024925Y0099689D03*
X0024925Y0099531D03*
X0024925Y0099374D03*
D61*
X0198075Y0159571D03*
D62*
X0188390Y0158311D03*
X0031803Y0111894D03*
X0018547Y0104413D03*
X0018547Y0104256D03*
D63*
X0024795Y0149374D03*
X0024795Y0155673D03*
X0024925Y0159531D03*
X0024925Y0165516D03*
X0024795Y0169374D03*
X0024795Y0175673D03*
X0025055Y0180004D03*
X0025055Y0185043D03*
X0025055Y0190004D03*
X0025055Y0195043D03*
X0025055Y0205004D03*
X0025055Y0210043D03*
X0025055Y0215004D03*
X0025055Y0220043D03*
X0025213Y0225161D03*
X0025213Y0229886D03*
X0025055Y0234846D03*
X0025055Y0240201D03*
X0025055Y0244846D03*
X0025055Y0250201D03*
X0025055Y0254846D03*
X0025055Y0260201D03*
X0195083Y0210673D03*
X0195083Y0210516D03*
X0195083Y0210358D03*
X0195083Y0210201D03*
X0195083Y0210043D03*
X0195083Y0209886D03*
X0195083Y0209728D03*
X0195083Y0205319D03*
X0195083Y0205161D03*
X0195083Y0205004D03*
X0195083Y0204846D03*
X0195083Y0204689D03*
X0195083Y0204531D03*
X0195083Y0204374D03*
D64*
X0190988Y0209571D03*
X0030409Y0257366D03*
X0029937Y0235791D03*
X0029780Y0235476D03*
X0020173Y0228311D03*
X0020173Y0228154D03*
X0019858Y0218154D03*
X0030094Y0208469D03*
X0030252Y0208154D03*
X0030252Y0181736D03*
D65*
X0025213Y0224689D03*
X0025213Y0230358D03*
X0025055Y0234531D03*
X0025055Y0240516D03*
X0025055Y0244531D03*
X0025055Y0250516D03*
X0025055Y0254531D03*
X0025055Y0260516D03*
X0194713Y0150673D03*
X0194713Y0150516D03*
X0194713Y0150358D03*
X0194713Y0150201D03*
X0194713Y0150043D03*
X0194713Y0149886D03*
X0194713Y0149728D03*
X0194713Y0149571D03*
X0194713Y0145319D03*
X0194713Y0145161D03*
X0194713Y0145004D03*
X0194713Y0144846D03*
X0194713Y0144689D03*
X0194713Y0144531D03*
X0194713Y0144374D03*
D66*
X0189437Y0145476D03*
X0018102Y0120476D03*
D67*
X0028780Y0279571D03*
D68*
X0024795Y0175358D03*
X0024795Y0169689D03*
X0024925Y0165043D03*
X0024925Y0160004D03*
X0024795Y0155358D03*
X0024795Y0149689D03*
X0024795Y0125673D03*
X0024795Y0125516D03*
X0024795Y0125358D03*
X0024795Y0125201D03*
X0024795Y0125043D03*
X0024795Y0124886D03*
X0024795Y0124728D03*
X0024795Y0124571D03*
X0024795Y0120319D03*
X0024795Y0120161D03*
X0024795Y0120004D03*
X0024795Y0119846D03*
X0024795Y0119689D03*
X0024795Y0119531D03*
X0024795Y0119374D03*
X0024953Y0115673D03*
X0024953Y0115516D03*
X0024953Y0115358D03*
X0024953Y0115201D03*
X0024953Y0115043D03*
X0024953Y0114886D03*
X0024953Y0114728D03*
X0024953Y0110319D03*
X0024953Y0110161D03*
X0024953Y0110004D03*
X0024953Y0109846D03*
X0024953Y0109689D03*
X0024953Y0109531D03*
X0024953Y0109374D03*
D69*
X0019728Y0104571D03*
X0017866Y0140791D03*
X0017866Y0140949D03*
X0017709Y0141106D03*
X0017709Y0141264D03*
X0017551Y0141579D03*
X0017551Y0141736D03*
X0017551Y0141894D03*
X0017709Y0143626D03*
X0017709Y0143783D03*
X0017709Y0153469D03*
X0018311Y0161264D03*
X0018311Y0161421D03*
X0018311Y0161579D03*
X0018311Y0163469D03*
X0018311Y0163626D03*
X0018311Y0163783D03*
X0018024Y0170791D03*
X0017866Y0170949D03*
X0017866Y0171106D03*
X0017709Y0171264D03*
X0017709Y0171421D03*
X0017709Y0171579D03*
X0017551Y0171894D03*
X0017551Y0172051D03*
X0017551Y0172209D03*
X0017551Y0172366D03*
X0017551Y0172524D03*
X0017551Y0172681D03*
X0017551Y0172839D03*
X0017551Y0172996D03*
X0017709Y0173469D03*
X0017709Y0173626D03*
X0017866Y0173941D03*
X0019071Y0182524D03*
X0019071Y0182681D03*
X0019071Y0182839D03*
X0019071Y0182996D03*
X0019071Y0183154D03*
X0019071Y0183311D03*
X0019228Y0183469D03*
X0019228Y0183626D03*
X0019228Y0183783D03*
X0019386Y0183941D03*
X0019386Y0184098D03*
X0019543Y0184256D03*
X0019386Y0190949D03*
X0019071Y0191736D03*
X0019071Y0191894D03*
X0019071Y0192051D03*
X0019228Y0193469D03*
X0019228Y0193626D03*
X0019228Y0193783D03*
X0019386Y0193941D03*
X0019386Y0194098D03*
X0019543Y0194256D03*
X0030567Y0194256D03*
X0030724Y0194098D03*
X0030724Y0193941D03*
X0030882Y0193783D03*
X0030882Y0193626D03*
X0030882Y0193469D03*
X0031039Y0192051D03*
X0031039Y0191894D03*
X0031039Y0191736D03*
X0030567Y0190634D03*
X0030567Y0184256D03*
X0030724Y0184098D03*
X0030724Y0183941D03*
X0030882Y0183783D03*
X0030882Y0183626D03*
X0030882Y0183469D03*
X0031039Y0183311D03*
X0031882Y0173469D03*
X0032039Y0173311D03*
X0032039Y0173154D03*
X0032039Y0172996D03*
X0031539Y0163469D03*
X0031882Y0153469D03*
X0032039Y0153311D03*
X0032039Y0153154D03*
X0032039Y0152996D03*
X0032039Y0143311D03*
X0032039Y0143154D03*
X0032039Y0142996D03*
X0030882Y0208626D03*
X0030567Y0215791D03*
X0030724Y0215949D03*
X0030724Y0216106D03*
X0030882Y0216264D03*
X0030882Y0216421D03*
X0030882Y0216579D03*
X0031039Y0217051D03*
X0030882Y0226421D03*
X0031039Y0227209D03*
X0031039Y0227366D03*
X0031039Y0227524D03*
X0031039Y0227681D03*
X0031039Y0227839D03*
X0030882Y0228469D03*
X0030882Y0228626D03*
X0030882Y0228783D03*
X0030724Y0229098D03*
X0031197Y0237051D03*
X0031197Y0237209D03*
X0030724Y0245791D03*
X0030882Y0245949D03*
X0031039Y0246264D03*
X0031039Y0246421D03*
X0031039Y0246579D03*
X0030882Y0248941D03*
X0031039Y0256264D03*
X0031197Y0258154D03*
X0031039Y0258469D03*
X0031039Y0258626D03*
X0030882Y0258941D03*
X0028965Y0269571D03*
X0019071Y0256264D03*
X0019228Y0248941D03*
X0019071Y0248626D03*
X0019071Y0248469D03*
X0019071Y0246579D03*
X0019071Y0246421D03*
X0019071Y0246264D03*
X0019228Y0245949D03*
X0019386Y0245791D03*
X0019071Y0238783D03*
X0019071Y0238626D03*
X0019071Y0238469D03*
X0019071Y0236579D03*
X0019071Y0236421D03*
X0019071Y0236264D03*
X0019543Y0228783D03*
X0019543Y0228626D03*
X0019386Y0227209D03*
X0019386Y0227051D03*
X0019386Y0226894D03*
X0019386Y0226736D03*
X0019858Y0225634D03*
X0019228Y0218783D03*
X0019071Y0216894D03*
X0019071Y0216736D03*
X0019228Y0216264D03*
X0019386Y0215949D03*
X0019543Y0215634D03*
X0019228Y0208469D03*
D70*
X0025213Y0224846D03*
X0025213Y0230201D03*
X0025055Y0234689D03*
X0025055Y0240358D03*
X0025055Y0244689D03*
X0025055Y0250358D03*
X0025055Y0254689D03*
X0025055Y0260358D03*
D71*
X0025055Y0260043D03*
X0025055Y0255004D03*
X0025055Y0250043D03*
X0025055Y0245004D03*
X0025055Y0240043D03*
X0025055Y0235004D03*
X0025213Y0229728D03*
X0025213Y0225319D03*
X0025055Y0219886D03*
X0025055Y0215161D03*
X0025055Y0209886D03*
X0025055Y0205161D03*
X0025055Y0194886D03*
X0025055Y0190161D03*
X0025055Y0184886D03*
X0025055Y0180161D03*
X0024795Y0145673D03*
X0024795Y0139374D03*
D72*
X0024795Y0149531D03*
X0024795Y0155516D03*
X0024795Y0169531D03*
X0024795Y0175516D03*
X0025055Y0209571D03*
X0025055Y0219571D03*
X0025055Y0235319D03*
X0025055Y0239728D03*
X0025055Y0245319D03*
X0025055Y0249728D03*
X0025055Y0255319D03*
X0025055Y0259728D03*
D73*
X0019937Y0259571D03*
X0019307Y0256894D03*
X0030803Y0256894D03*
X0019780Y0227996D03*
X0030173Y0219256D03*
X0030646Y0206894D03*
X0030646Y0206736D03*
X0019465Y0207209D03*
X0019465Y0207366D03*
X0019937Y0180634D03*
X0030488Y0181421D03*
X0030646Y0182209D03*
X0031488Y0171579D03*
X0031488Y0171421D03*
X0031488Y0171264D03*
X0030831Y0164413D03*
X0030988Y0161106D03*
X0030988Y0160949D03*
X0031488Y0151579D03*
X0031488Y0151421D03*
X0031488Y0151264D03*
X0031488Y0141421D03*
X0031488Y0141264D03*
X0031488Y0141106D03*
X0017945Y0151894D03*
D74*
X0017709Y0152366D03*
X0017709Y0152524D03*
X0018181Y0144413D03*
X0017709Y0142839D03*
X0017709Y0142366D03*
X0031724Y0143783D03*
X0031724Y0153783D03*
X0031567Y0153941D03*
X0031539Y0162839D03*
X0031382Y0163783D03*
X0031224Y0163941D03*
X0031724Y0173783D03*
X0031567Y0173941D03*
X0030882Y0182681D03*
X0030409Y0184413D03*
X0030882Y0192524D03*
X0030882Y0192839D03*
X0030409Y0194413D03*
X0030567Y0205949D03*
X0030567Y0206106D03*
X0030882Y0218154D03*
X0030882Y0218311D03*
X0030724Y0218469D03*
X0030724Y0218626D03*
X0030882Y0227051D03*
X0031039Y0237996D03*
X0031039Y0238154D03*
X0031039Y0238311D03*
X0030882Y0238626D03*
X0030882Y0238783D03*
X0030409Y0245476D03*
X0031039Y0246894D03*
X0031039Y0248311D03*
X0030567Y0249413D03*
X0030882Y0256579D03*
X0030567Y0259413D03*
X0019543Y0259256D03*
X0019386Y0259098D03*
X0019071Y0257681D03*
X0019071Y0257524D03*
X0019071Y0257366D03*
X0019543Y0249413D03*
X0019071Y0247996D03*
X0019071Y0247839D03*
X0019071Y0247366D03*
X0019071Y0247209D03*
X0019701Y0245476D03*
X0019543Y0227681D03*
X0019228Y0217366D03*
X0019228Y0208154D03*
X0019228Y0207996D03*
X0019701Y0194413D03*
X0019228Y0192839D03*
X0019228Y0192524D03*
X0019701Y0184413D03*
X0019228Y0181736D03*
X0019386Y0181421D03*
X0019386Y0181264D03*
X0019543Y0181106D03*
X0018181Y0174413D03*
X0018339Y0170476D03*
D75*
X0019780Y0180791D03*
X0019622Y0180949D03*
X0019937Y0184571D03*
X0019307Y0192681D03*
X0019937Y0194571D03*
X0030173Y0194571D03*
X0030803Y0192681D03*
X0030173Y0184571D03*
X0030803Y0182524D03*
X0031331Y0174256D03*
X0031488Y0174098D03*
X0031331Y0170791D03*
X0031331Y0170634D03*
X0031173Y0170476D03*
X0030831Y0160476D03*
X0031331Y0154256D03*
X0031488Y0154098D03*
X0031331Y0150791D03*
X0031331Y0150634D03*
X0031173Y0150476D03*
X0031488Y0144098D03*
X0031646Y0143941D03*
X0031331Y0140634D03*
X0031173Y0140476D03*
X0017787Y0142524D03*
X0017787Y0142681D03*
X0017787Y0152209D03*
X0018260Y0154413D03*
X0030646Y0206264D03*
X0030646Y0206421D03*
X0030646Y0218783D03*
X0030488Y0218941D03*
X0019622Y0227839D03*
X0019307Y0217524D03*
X0019307Y0207839D03*
X0019150Y0247681D03*
X0019150Y0257209D03*
X0019622Y0259413D03*
D76*
X0019307Y0258941D03*
X0019150Y0258783D03*
X0019150Y0258626D03*
X0019150Y0258469D03*
X0018992Y0258311D03*
X0018992Y0258154D03*
X0018992Y0257996D03*
X0018992Y0257839D03*
X0019465Y0249256D03*
X0019307Y0249098D03*
X0019150Y0248783D03*
X0018992Y0248311D03*
X0018992Y0248154D03*
X0018992Y0247051D03*
X0018992Y0246894D03*
X0018992Y0246736D03*
X0019465Y0245634D03*
X0018992Y0238311D03*
X0018992Y0238154D03*
X0018992Y0237996D03*
X0018992Y0237839D03*
X0018992Y0237681D03*
X0018992Y0237524D03*
X0018992Y0237366D03*
X0018992Y0237209D03*
X0018992Y0237051D03*
X0018992Y0236894D03*
X0018992Y0236736D03*
X0019465Y0227524D03*
X0019465Y0227366D03*
X0020094Y0225476D03*
X0019307Y0218626D03*
X0019150Y0217209D03*
X0019150Y0217051D03*
X0019780Y0215476D03*
X0019150Y0208311D03*
X0019150Y0193311D03*
X0019150Y0193154D03*
X0019150Y0192996D03*
X0019150Y0192366D03*
X0019150Y0192209D03*
X0019622Y0190634D03*
X0019780Y0190476D03*
X0019150Y0182366D03*
X0019150Y0182209D03*
X0019150Y0182051D03*
X0019150Y0181894D03*
X0019307Y0181579D03*
X0018102Y0174256D03*
X0017945Y0174098D03*
X0017787Y0173783D03*
X0017630Y0173311D03*
X0017630Y0173154D03*
X0017630Y0171736D03*
X0018102Y0170634D03*
X0018232Y0163311D03*
X0018232Y0163154D03*
X0018232Y0162996D03*
X0018232Y0162839D03*
X0018232Y0162681D03*
X0018232Y0162524D03*
X0018232Y0162366D03*
X0018232Y0162209D03*
X0018232Y0162051D03*
X0018232Y0161894D03*
X0018232Y0161736D03*
X0018102Y0154256D03*
X0017945Y0154098D03*
X0017945Y0153941D03*
X0017787Y0153783D03*
X0017787Y0153626D03*
X0017630Y0153311D03*
X0017630Y0153154D03*
X0017630Y0152996D03*
X0017630Y0152839D03*
X0017630Y0152681D03*
X0017945Y0144256D03*
X0017945Y0144098D03*
X0017787Y0143941D03*
X0017630Y0143469D03*
X0017630Y0143311D03*
X0017630Y0143154D03*
X0017630Y0142996D03*
X0017630Y0142209D03*
X0017630Y0142051D03*
X0018102Y0140634D03*
X0018260Y0140476D03*
X0031961Y0142839D03*
X0031961Y0143469D03*
X0031803Y0143626D03*
X0031961Y0152839D03*
X0031803Y0153626D03*
X0031618Y0162996D03*
X0031618Y0163154D03*
X0031618Y0163311D03*
X0031461Y0163626D03*
X0031961Y0172839D03*
X0031803Y0173626D03*
X0030803Y0181264D03*
X0030961Y0182839D03*
X0030961Y0182996D03*
X0030961Y0183154D03*
X0030331Y0190476D03*
X0030961Y0192209D03*
X0030961Y0192366D03*
X0030961Y0192996D03*
X0030961Y0193154D03*
X0030961Y0193311D03*
X0030331Y0205476D03*
X0030488Y0205634D03*
X0030488Y0205791D03*
X0030331Y0215476D03*
X0030488Y0215634D03*
X0030961Y0216736D03*
X0030961Y0216894D03*
X0030961Y0217209D03*
X0030961Y0217366D03*
X0030961Y0217524D03*
X0030961Y0217681D03*
X0030961Y0217839D03*
X0030961Y0217996D03*
X0030803Y0226579D03*
X0030961Y0227996D03*
X0030961Y0228154D03*
X0030961Y0228311D03*
X0031118Y0236736D03*
X0031118Y0236894D03*
X0031118Y0237366D03*
X0031118Y0237524D03*
X0031118Y0237681D03*
X0031118Y0237839D03*
X0030961Y0238469D03*
X0030803Y0238941D03*
X0030803Y0239098D03*
X0030646Y0239256D03*
X0030646Y0239413D03*
X0030646Y0245634D03*
X0031118Y0246736D03*
X0030961Y0248469D03*
X0030961Y0248626D03*
X0030961Y0248783D03*
X0030803Y0249098D03*
X0030646Y0249256D03*
X0030961Y0256421D03*
X0031118Y0257681D03*
X0031118Y0257839D03*
X0031118Y0257996D03*
X0031118Y0258311D03*
X0030961Y0258783D03*
X0030803Y0259098D03*
X0030646Y0259256D03*
D77*
X0030331Y0257524D03*
X0030016Y0236106D03*
X0030016Y0235949D03*
X0029858Y0235634D03*
X0030173Y0226894D03*
X0030173Y0226736D03*
X0019937Y0217996D03*
X0030173Y0208311D03*
X0030173Y0181894D03*
D78*
X0030252Y0181579D03*
X0030409Y0207681D03*
X0030567Y0247209D03*
X0030567Y0247366D03*
X0030567Y0247524D03*
X0030567Y0247681D03*
X0030567Y0247839D03*
X0030567Y0247996D03*
X0030567Y0257209D03*
X0019701Y0256421D03*
X0018339Y0151421D03*
D79*
X0018181Y0151579D03*
X0018024Y0151736D03*
X0031567Y0151736D03*
X0031567Y0151894D03*
X0031567Y0152051D03*
X0031567Y0152209D03*
X0031567Y0152366D03*
X0031567Y0152524D03*
X0031567Y0152681D03*
X0031067Y0161264D03*
X0031067Y0161421D03*
X0031067Y0161579D03*
X0031567Y0171736D03*
X0031567Y0171894D03*
X0031567Y0172051D03*
X0031567Y0172209D03*
X0031567Y0172366D03*
X0031567Y0172524D03*
X0031567Y0172681D03*
X0031567Y0142681D03*
X0031567Y0142524D03*
X0031567Y0142366D03*
X0031567Y0142209D03*
X0031567Y0142051D03*
X0031567Y0141894D03*
X0031567Y0141736D03*
X0031567Y0141579D03*
X0020173Y0205476D03*
X0020016Y0205634D03*
X0020016Y0205791D03*
X0019543Y0207051D03*
X0019701Y0218469D03*
X0030567Y0207209D03*
X0030567Y0207051D03*
X0019386Y0256736D03*
D80*
X0019150Y0246106D03*
X0019307Y0239413D03*
X0019150Y0239098D03*
X0019150Y0238941D03*
X0019150Y0236106D03*
X0019150Y0235949D03*
X0019307Y0235634D03*
X0019465Y0226579D03*
X0019465Y0226421D03*
X0019465Y0226264D03*
X0019622Y0226106D03*
X0019622Y0225949D03*
X0019780Y0225791D03*
X0019307Y0219098D03*
X0019307Y0218941D03*
X0019150Y0216579D03*
X0019150Y0216421D03*
X0019307Y0216106D03*
X0019465Y0215791D03*
X0019150Y0208783D03*
X0019150Y0208626D03*
X0019150Y0191579D03*
X0019150Y0191421D03*
X0019150Y0191264D03*
X0019307Y0191106D03*
X0019465Y0190791D03*
X0030646Y0190791D03*
X0030803Y0190949D03*
X0030803Y0191106D03*
X0030961Y0191264D03*
X0030961Y0191421D03*
X0030961Y0191579D03*
X0030803Y0181106D03*
X0030803Y0180949D03*
X0018547Y0164413D03*
X0018390Y0164098D03*
X0018390Y0163941D03*
X0018390Y0161106D03*
X0018390Y0160949D03*
X0018547Y0160634D03*
X0017630Y0151264D03*
X0017630Y0141421D03*
X0030961Y0208783D03*
X0030488Y0225476D03*
X0030646Y0225634D03*
X0030961Y0226264D03*
X0030803Y0228941D03*
X0030646Y0229256D03*
X0030646Y0229413D03*
X0030961Y0246106D03*
X0030961Y0256106D03*
D81*
X0031039Y0255949D03*
X0030882Y0255791D03*
X0030882Y0255634D03*
X0030724Y0255476D03*
X0019071Y0255949D03*
X0019071Y0256106D03*
X0019228Y0239256D03*
X0019228Y0235791D03*
X0019386Y0235476D03*
X0019701Y0229413D03*
X0019701Y0229256D03*
X0019543Y0229098D03*
X0019543Y0228941D03*
X0019386Y0219413D03*
X0019386Y0219256D03*
X0019228Y0209098D03*
X0019228Y0208941D03*
X0030724Y0209413D03*
X0030882Y0209098D03*
X0030882Y0208941D03*
X0030724Y0225791D03*
X0030882Y0225949D03*
X0030882Y0226106D03*
X0030724Y0180791D03*
X0030724Y0180634D03*
X0030567Y0180476D03*
X0018469Y0164256D03*
X0018469Y0160791D03*
X0018626Y0160476D03*
X0017709Y0151106D03*
X0017709Y0150949D03*
D82*
X0017787Y0150791D03*
X0017787Y0150634D03*
X0017945Y0150476D03*
X0019307Y0209256D03*
X0019307Y0209413D03*
X0030803Y0209256D03*
X0019307Y0255476D03*
X0019150Y0255634D03*
X0019150Y0255791D03*
D83*
X0030252Y0247051D03*
X0030094Y0236579D03*
X0030094Y0236421D03*
X0030094Y0236264D03*
X0030094Y0182051D03*
D84*
X0024925Y0165201D03*
X0024925Y0159846D03*
X0024795Y0145516D03*
X0024795Y0139531D03*
X0025055Y0239571D03*
D85*
X0025213Y0230673D03*
X0025213Y0224374D03*
D86*
X0025213Y0224531D03*
X0025213Y0230516D03*
D87*
X0025213Y0230043D03*
X0025213Y0225004D03*
X0025055Y0220201D03*
X0025055Y0214846D03*
X0025055Y0210201D03*
X0025055Y0204846D03*
X0025055Y0195201D03*
X0025055Y0189846D03*
X0025055Y0185201D03*
X0025055Y0179846D03*
D88*
X0030331Y0207839D03*
X0030331Y0207996D03*
X0019780Y0218311D03*
X0020252Y0228469D03*
D89*
X0025055Y0220358D03*
X0025055Y0214689D03*
X0025055Y0210358D03*
X0025055Y0204689D03*
X0025055Y0195358D03*
X0025055Y0189689D03*
X0025055Y0185358D03*
X0025055Y0179689D03*
X0024925Y0165673D03*
X0024925Y0159374D03*
D90*
X0024795Y0155043D03*
X0024795Y0150004D03*
X0024795Y0145043D03*
X0024795Y0140004D03*
X0024925Y0164571D03*
X0024795Y0170004D03*
X0024795Y0175043D03*
D91*
X0024795Y0174886D03*
X0024795Y0170161D03*
X0024795Y0154886D03*
X0024795Y0150161D03*
X0024795Y0144886D03*
X0024795Y0140161D03*
D92*
X0024795Y0140319D03*
X0024795Y0144728D03*
X0024795Y0150319D03*
X0024795Y0154728D03*
X0024795Y0170319D03*
X0024795Y0174728D03*
D93*
X0029913Y0174571D03*
X0029913Y0144571D03*
D94*
X0024795Y0145358D03*
X0024795Y0139689D03*
X0024925Y0160161D03*
X0024925Y0164886D03*
D95*
X0029992Y0154571D03*
D96*
X0038390Y0093724D03*
X0043114Y0090929D03*
X0043114Y0090732D03*
X0045870Y0093921D03*
X0048232Y0091913D03*
X0169980Y0095929D03*
X0174508Y0097543D03*
X0174508Y0097740D03*
X0174902Y0094945D03*
X0181004Y0094945D03*
X0172476Y0285929D03*
X0177004Y0290102D03*
X0048732Y0286413D03*
X0046370Y0288421D03*
X0043614Y0285429D03*
X0043614Y0285232D03*
X0038890Y0288224D03*
D97*
X0174346Y0290102D03*
X0175984Y0098331D03*
X0175000Y0094748D03*
D98*
X0171949Y0100102D03*
X0168209Y0100102D03*
X0049413Y0089748D03*
X0049913Y0284248D03*
X0170508Y0290102D03*
X0178185Y0286362D03*
D99*
X0177398Y0287937D03*
X0177004Y0289906D03*
X0172476Y0286717D03*
X0045976Y0287437D03*
X0044008Y0286413D03*
X0040661Y0289406D03*
X0174902Y0099709D03*
X0169980Y0096717D03*
X0181004Y0099709D03*
X0045476Y0092937D03*
X0043508Y0091913D03*
X0040161Y0094906D03*
D100*
X0042819Y0089945D03*
X0046165Y0089945D03*
X0046165Y0094906D03*
X0168110Y0099906D03*
X0172047Y0099906D03*
X0177953Y0094945D03*
X0182283Y0096717D03*
X0182087Y0098528D03*
X0178087Y0286913D03*
X0174346Y0289906D03*
X0170409Y0289906D03*
X0046665Y0289406D03*
X0046665Y0284445D03*
X0043319Y0284445D03*
D101*
X0049913Y0289209D03*
X0177004Y0289315D03*
X0177004Y0289512D03*
X0177004Y0289709D03*
X0177201Y0287543D03*
X0177201Y0287346D03*
X0174902Y0099512D03*
X0174902Y0095378D03*
X0181004Y0095378D03*
X0049413Y0094709D03*
D102*
X0042917Y0094709D03*
X0042917Y0094906D03*
X0037799Y0092740D03*
X0037799Y0092346D03*
X0168012Y0099709D03*
X0173720Y0098528D03*
X0174902Y0100102D03*
X0176083Y0098528D03*
X0176280Y0096559D03*
X0179626Y0096362D03*
X0181004Y0100102D03*
X0173264Y0286913D03*
X0174445Y0289709D03*
X0177988Y0288724D03*
X0043417Y0289209D03*
X0043417Y0289406D03*
X0038299Y0287240D03*
X0038299Y0286846D03*
D103*
X0038201Y0287043D03*
X0038398Y0287437D03*
X0038398Y0287634D03*
X0038398Y0286413D03*
X0038398Y0286217D03*
X0041547Y0286217D03*
X0041547Y0286059D03*
X0041547Y0285862D03*
X0041547Y0286413D03*
X0041547Y0286846D03*
X0041547Y0287043D03*
X0041547Y0287240D03*
X0041547Y0287437D03*
X0041547Y0287634D03*
X0041547Y0287831D03*
X0041547Y0288028D03*
X0041547Y0288224D03*
X0043319Y0288224D03*
X0043319Y0288028D03*
X0043319Y0287831D03*
X0043319Y0287634D03*
X0043319Y0287437D03*
X0043319Y0287240D03*
X0043319Y0287043D03*
X0043319Y0286846D03*
X0043319Y0288421D03*
X0043319Y0288618D03*
X0043319Y0288815D03*
X0043319Y0289012D03*
X0045091Y0287043D03*
X0046665Y0287043D03*
X0046665Y0286846D03*
X0046665Y0286413D03*
X0046665Y0286217D03*
X0046665Y0286059D03*
X0046665Y0285862D03*
X0046665Y0285429D03*
X0046665Y0285232D03*
X0046665Y0285075D03*
X0046665Y0284878D03*
X0048437Y0285862D03*
X0048437Y0286059D03*
X0048437Y0286217D03*
X0051587Y0286059D03*
X0051783Y0286413D03*
X0051783Y0286846D03*
X0051783Y0287043D03*
X0051783Y0287240D03*
X0051783Y0287437D03*
X0051783Y0287634D03*
X0049815Y0289602D03*
X0046665Y0289209D03*
X0170409Y0289512D03*
X0170409Y0289709D03*
X0170606Y0289118D03*
X0170803Y0288724D03*
X0171000Y0288331D03*
X0171197Y0287937D03*
X0171197Y0287740D03*
X0171394Y0287543D03*
X0171394Y0287346D03*
X0171591Y0286913D03*
X0173362Y0287346D03*
X0173559Y0287543D03*
X0173559Y0287740D03*
X0173756Y0287937D03*
X0173756Y0288134D03*
X0173953Y0288331D03*
X0173953Y0288528D03*
X0174150Y0288724D03*
X0174150Y0288921D03*
X0174346Y0289118D03*
X0174346Y0289315D03*
X0176118Y0286717D03*
X0176118Y0286559D03*
X0176118Y0286362D03*
X0178087Y0288528D03*
X0172047Y0099709D03*
X0172047Y0099512D03*
X0172047Y0099315D03*
X0171850Y0099118D03*
X0171850Y0098921D03*
X0171654Y0098724D03*
X0171654Y0098528D03*
X0171457Y0098331D03*
X0171457Y0098134D03*
X0171260Y0097937D03*
X0171260Y0097740D03*
X0171063Y0097543D03*
X0171063Y0097346D03*
X0170866Y0096913D03*
X0169291Y0096913D03*
X0169094Y0097346D03*
X0168898Y0097543D03*
X0168898Y0097740D03*
X0168701Y0097937D03*
X0168701Y0098134D03*
X0168504Y0098528D03*
X0168307Y0098921D03*
X0168110Y0099315D03*
X0168110Y0099512D03*
X0170079Y0095378D03*
X0173622Y0096362D03*
X0173622Y0096559D03*
X0173622Y0096717D03*
X0173819Y0098331D03*
X0173819Y0098724D03*
X0175984Y0098724D03*
X0176181Y0096362D03*
X0177953Y0095929D03*
X0177953Y0095732D03*
X0177953Y0095575D03*
X0177953Y0095378D03*
X0179528Y0096559D03*
X0179724Y0096717D03*
X0179724Y0098528D03*
X0179724Y0098724D03*
X0182087Y0098724D03*
X0182283Y0096559D03*
X0182283Y0096362D03*
X0051283Y0093134D03*
X0051283Y0092937D03*
X0051283Y0092740D03*
X0051283Y0092543D03*
X0051283Y0092346D03*
X0051283Y0091913D03*
X0051087Y0091559D03*
X0047937Y0091559D03*
X0047937Y0091717D03*
X0047937Y0091362D03*
X0046165Y0091362D03*
X0046165Y0091559D03*
X0046165Y0091717D03*
X0046165Y0091913D03*
X0046165Y0092346D03*
X0046165Y0092543D03*
X0044591Y0092543D03*
X0042819Y0092543D03*
X0042819Y0092346D03*
X0042819Y0092740D03*
X0042819Y0092937D03*
X0042819Y0093134D03*
X0042819Y0093331D03*
X0042819Y0093528D03*
X0042819Y0093724D03*
X0042819Y0093921D03*
X0042819Y0094118D03*
X0042819Y0094315D03*
X0042819Y0094512D03*
X0041047Y0093724D03*
X0041047Y0093528D03*
X0041047Y0093331D03*
X0041047Y0093134D03*
X0041047Y0092937D03*
X0041047Y0092740D03*
X0041047Y0092543D03*
X0041047Y0092346D03*
X0041047Y0091913D03*
X0041047Y0091717D03*
X0041047Y0091559D03*
X0041047Y0091362D03*
X0037898Y0091717D03*
X0037898Y0091913D03*
X0037701Y0092543D03*
X0037898Y0092937D03*
X0037898Y0093134D03*
X0046165Y0094709D03*
X0049315Y0095102D03*
X0046165Y0090929D03*
X0046165Y0090732D03*
X0046165Y0090575D03*
X0046165Y0090378D03*
D104*
X0044492Y0092346D03*
X0042917Y0090378D03*
X0040358Y0095102D03*
X0038193Y0093528D03*
X0037996Y0093331D03*
X0037996Y0091559D03*
X0038193Y0091362D03*
X0046067Y0094512D03*
X0050988Y0093528D03*
X0051185Y0093331D03*
X0051185Y0091717D03*
X0050988Y0091362D03*
X0168209Y0099118D03*
X0168406Y0098724D03*
X0168602Y0098331D03*
X0179823Y0098331D03*
X0179823Y0096913D03*
X0172476Y0285378D03*
X0172476Y0285575D03*
X0171098Y0288134D03*
X0170902Y0288528D03*
X0170705Y0288921D03*
X0170508Y0289315D03*
X0174445Y0289512D03*
X0176217Y0286913D03*
X0051685Y0286217D03*
X0051488Y0285862D03*
X0051685Y0287831D03*
X0051488Y0288028D03*
X0046567Y0289012D03*
X0044992Y0286846D03*
X0043417Y0284878D03*
X0040858Y0289602D03*
X0038693Y0288028D03*
X0038496Y0287831D03*
X0038496Y0286059D03*
X0038693Y0285862D03*
D105*
X0045878Y0287240D03*
X0177102Y0288921D03*
X0177102Y0289118D03*
X0177299Y0287740D03*
X0177299Y0285378D03*
X0180906Y0099512D03*
X0045378Y0092740D03*
D106*
X0045969Y0094118D03*
X0045969Y0094315D03*
X0043016Y0090575D03*
X0050890Y0093724D03*
X0170079Y0095575D03*
X0170079Y0095732D03*
X0173819Y0096913D03*
X0177299Y0284945D03*
X0177890Y0288331D03*
X0172378Y0285732D03*
X0051390Y0288224D03*
X0046469Y0288618D03*
X0046469Y0288815D03*
X0043516Y0285075D03*
D107*
X0043811Y0285862D03*
X0046173Y0287831D03*
X0046173Y0288028D03*
X0048929Y0286846D03*
X0049126Y0287043D03*
X0049913Y0289406D03*
X0172476Y0286362D03*
X0177594Y0288134D03*
X0180217Y0098134D03*
X0180413Y0097937D03*
X0180413Y0097346D03*
X0174311Y0097937D03*
X0174311Y0098134D03*
X0169980Y0096362D03*
X0049413Y0094906D03*
X0048626Y0092543D03*
X0048429Y0092346D03*
X0045673Y0093331D03*
X0045673Y0093528D03*
X0043311Y0091362D03*
D108*
X0177102Y0287130D03*
D109*
X0173362Y0287130D03*
X0171591Y0287130D03*
X0051783Y0286630D03*
X0046665Y0286630D03*
X0046665Y0285646D03*
X0046665Y0284661D03*
X0041547Y0286630D03*
X0169094Y0097130D03*
X0170866Y0097130D03*
X0170079Y0095161D03*
X0176181Y0096146D03*
X0177953Y0095161D03*
X0179724Y0096146D03*
X0051283Y0092130D03*
X0046165Y0092130D03*
X0046165Y0091146D03*
X0046165Y0090161D03*
X0041047Y0092130D03*
D110*
X0040260Y0089945D03*
X0043409Y0091559D03*
X0043409Y0091717D03*
X0045575Y0093134D03*
X0170079Y0096559D03*
X0172378Y0286559D03*
X0046075Y0287634D03*
X0043909Y0286217D03*
X0043909Y0286059D03*
X0040760Y0284445D03*
D111*
X0038299Y0286630D03*
X0043417Y0284661D03*
X0172476Y0285161D03*
X0178185Y0286146D03*
X0042917Y0090161D03*
X0037799Y0092130D03*
D112*
X0048035Y0091146D03*
X0173720Y0096146D03*
X0182185Y0096146D03*
X0176217Y0286146D03*
X0048535Y0285646D03*
D113*
X0043713Y0285646D03*
X0172378Y0286146D03*
X0170079Y0096146D03*
X0043213Y0091146D03*
D114*
X0040063Y0094709D03*
X0049315Y0090378D03*
X0175000Y0099315D03*
X0180906Y0099315D03*
X0180906Y0099118D03*
X0180906Y0095575D03*
X0177299Y0285575D03*
X0177299Y0285732D03*
X0177102Y0285929D03*
X0049815Y0284878D03*
X0040563Y0289209D03*
D115*
X0177299Y0285161D03*
D116*
X0177201Y0284748D03*
X0172476Y0284945D03*
X0048732Y0288224D03*
X0176280Y0096717D03*
X0181004Y0094748D03*
X0181988Y0098331D03*
X0169980Y0094945D03*
X0048232Y0093724D03*
D117*
X0048134Y0093528D03*
X0046165Y0095102D03*
X0042819Y0095102D03*
X0048634Y0288028D03*
X0046665Y0289602D03*
X0043319Y0289602D03*
D118*
X0040465Y0284878D03*
X0049913Y0289012D03*
X0174902Y0099118D03*
X0174902Y0098921D03*
X0174902Y0095575D03*
X0049413Y0094512D03*
X0039965Y0090378D03*
D119*
X0039866Y0090575D03*
X0039866Y0094512D03*
X0049315Y0090575D03*
X0175000Y0095732D03*
X0180906Y0095732D03*
X0180906Y0095929D03*
X0180906Y0098921D03*
X0049815Y0285075D03*
X0040366Y0285075D03*
X0040366Y0289012D03*
D120*
X0040268Y0288815D03*
X0040268Y0285232D03*
X0049913Y0285232D03*
X0050110Y0288421D03*
X0050110Y0288618D03*
X0049913Y0288815D03*
X0174902Y0095929D03*
X0049610Y0094118D03*
X0049610Y0093921D03*
X0049413Y0094315D03*
X0049413Y0090732D03*
X0039768Y0090732D03*
X0039768Y0094315D03*
D121*
X0039669Y0094118D03*
X0039669Y0093921D03*
X0039669Y0090929D03*
X0040169Y0285429D03*
X0040169Y0288421D03*
X0040169Y0288618D03*
D122*
X0046272Y0288224D03*
X0049028Y0287437D03*
X0049028Y0287240D03*
X0049815Y0284445D03*
X0175000Y0099906D03*
X0174409Y0097346D03*
X0180512Y0097543D03*
X0180512Y0097740D03*
X0180906Y0099906D03*
X0049315Y0089945D03*
X0048528Y0092740D03*
X0048528Y0092937D03*
X0045772Y0093724D03*
D123*
X0048429Y0092130D03*
X0174311Y0097130D03*
X0180217Y0097130D03*
X0048929Y0286630D03*
D124*
X0049815Y0284661D03*
X0044106Y0286630D03*
X0043606Y0092130D03*
X0049315Y0090161D03*
D125*
X0050693Y0091146D03*
X0051193Y0285646D03*
D126*
X0040071Y0285646D03*
X0039571Y0091146D03*
D127*
X0049413Y0090929D03*
X0049913Y0285429D03*
D128*
X0040661Y0284661D03*
X0040161Y0090161D03*
D129*
X0177854Y0096146D03*
D130*
X0181004Y0095161D03*
X0174902Y0095161D03*
D131*
X0022000Y0077038D02*
X0022000Y0072541D01*
X0030366Y0072541D01*
X0030366Y0073466D01*
X0030042Y0073466D01*
X0030042Y0077038D01*
X0027008Y0077038D01*
X0028332Y0075108D01*
X0027126Y0075108D01*
X0026036Y0076764D01*
X0024952Y0075108D01*
X0023703Y0075108D01*
X0025020Y0077038D01*
X0022000Y0077038D01*
X0022000Y0082506D01*
X0030042Y0082506D01*
X0058000Y0082506D01*
X0058000Y0072541D01*
X0030366Y0072541D01*
X0030366Y0073466D01*
X0057075Y0073466D01*
X0057075Y0081581D01*
X0030042Y0081581D01*
X0030042Y0077038D01*
X0027008Y0077038D01*
X0026648Y0077563D01*
X0028260Y0079936D01*
X0027018Y0079936D01*
X0026003Y0078370D01*
X0024981Y0079936D01*
X0023775Y0079936D01*
X0025388Y0077578D01*
X0025020Y0077038D01*
X0022000Y0077038D01*
X0022000Y0077032D02*
X0025015Y0077032D01*
X0024990Y0076994D02*
X0022000Y0076994D01*
X0022000Y0076956D02*
X0024964Y0076956D01*
X0024938Y0076919D02*
X0022000Y0076919D01*
X0022000Y0076881D02*
X0024912Y0076881D01*
X0024886Y0076843D02*
X0022000Y0076843D01*
X0022000Y0076805D02*
X0024860Y0076805D01*
X0024834Y0076767D02*
X0022000Y0076767D01*
X0022000Y0076729D02*
X0024809Y0076729D01*
X0024783Y0076691D02*
X0022000Y0076691D01*
X0022000Y0076653D02*
X0024757Y0076653D01*
X0024731Y0076616D02*
X0022000Y0076616D01*
X0022000Y0076578D02*
X0024705Y0076578D01*
X0024679Y0076540D02*
X0022000Y0076540D01*
X0022000Y0076502D02*
X0024654Y0076502D01*
X0024628Y0076464D02*
X0022000Y0076464D01*
X0022000Y0076426D02*
X0024602Y0076426D01*
X0024576Y0076388D02*
X0022000Y0076388D01*
X0022000Y0076350D02*
X0024550Y0076350D01*
X0024524Y0076312D02*
X0022000Y0076312D01*
X0022000Y0076275D02*
X0024499Y0076275D01*
X0024473Y0076237D02*
X0022000Y0076237D01*
X0022000Y0076199D02*
X0024447Y0076199D01*
X0024421Y0076161D02*
X0022000Y0076161D01*
X0022000Y0076123D02*
X0024395Y0076123D01*
X0024369Y0076085D02*
X0022000Y0076085D01*
X0022000Y0076047D02*
X0024344Y0076047D01*
X0024318Y0076009D02*
X0022000Y0076009D01*
X0022000Y0075972D02*
X0024292Y0075972D01*
X0024266Y0075934D02*
X0022000Y0075934D01*
X0022000Y0075896D02*
X0024240Y0075896D01*
X0024214Y0075858D02*
X0022000Y0075858D01*
X0022000Y0075820D02*
X0024188Y0075820D01*
X0024163Y0075782D02*
X0022000Y0075782D01*
X0022000Y0075744D02*
X0024137Y0075744D01*
X0024111Y0075706D02*
X0022000Y0075706D01*
X0022000Y0075668D02*
X0024085Y0075668D01*
X0024059Y0075631D02*
X0022000Y0075631D01*
X0022000Y0075593D02*
X0024033Y0075593D01*
X0024008Y0075555D02*
X0022000Y0075555D01*
X0022000Y0075517D02*
X0023982Y0075517D01*
X0023956Y0075479D02*
X0022000Y0075479D01*
X0022000Y0075441D02*
X0023930Y0075441D01*
X0023904Y0075403D02*
X0022000Y0075403D01*
X0022000Y0075365D02*
X0023878Y0075365D01*
X0023853Y0075328D02*
X0022000Y0075328D01*
X0022000Y0075290D02*
X0023827Y0075290D01*
X0023801Y0075252D02*
X0022000Y0075252D01*
X0022000Y0075214D02*
X0023775Y0075214D01*
X0023749Y0075176D02*
X0022000Y0075176D01*
X0022000Y0075138D02*
X0023723Y0075138D01*
X0024972Y0075138D02*
X0027107Y0075138D01*
X0027082Y0075176D02*
X0024996Y0075176D01*
X0025021Y0075214D02*
X0027057Y0075214D01*
X0027032Y0075252D02*
X0025046Y0075252D01*
X0025071Y0075290D02*
X0027007Y0075290D01*
X0026982Y0075328D02*
X0025096Y0075328D01*
X0025120Y0075365D02*
X0026957Y0075365D01*
X0026932Y0075403D02*
X0025145Y0075403D01*
X0025170Y0075441D02*
X0026907Y0075441D01*
X0026882Y0075479D02*
X0025195Y0075479D01*
X0025220Y0075517D02*
X0026857Y0075517D01*
X0026832Y0075555D02*
X0025244Y0075555D01*
X0025269Y0075593D02*
X0026807Y0075593D01*
X0026782Y0075631D02*
X0025294Y0075631D01*
X0025319Y0075668D02*
X0026757Y0075668D01*
X0026732Y0075706D02*
X0025344Y0075706D01*
X0025368Y0075744D02*
X0026707Y0075744D01*
X0026682Y0075782D02*
X0025393Y0075782D01*
X0025418Y0075820D02*
X0026657Y0075820D01*
X0026632Y0075858D02*
X0025443Y0075858D01*
X0025467Y0075896D02*
X0026608Y0075896D01*
X0026583Y0075934D02*
X0025492Y0075934D01*
X0025517Y0075972D02*
X0026558Y0075972D01*
X0026533Y0076009D02*
X0025542Y0076009D01*
X0025567Y0076047D02*
X0026508Y0076047D01*
X0026483Y0076085D02*
X0025591Y0076085D01*
X0025616Y0076123D02*
X0026458Y0076123D01*
X0026433Y0076161D02*
X0025641Y0076161D01*
X0025666Y0076199D02*
X0026408Y0076199D01*
X0026383Y0076237D02*
X0025691Y0076237D01*
X0025715Y0076275D02*
X0026358Y0076275D01*
X0026333Y0076312D02*
X0025740Y0076312D01*
X0025765Y0076350D02*
X0026308Y0076350D01*
X0026283Y0076388D02*
X0025790Y0076388D01*
X0025814Y0076426D02*
X0026258Y0076426D01*
X0026233Y0076464D02*
X0025839Y0076464D01*
X0025864Y0076502D02*
X0026208Y0076502D01*
X0026183Y0076540D02*
X0025889Y0076540D01*
X0025914Y0076578D02*
X0026158Y0076578D01*
X0026133Y0076616D02*
X0025938Y0076616D01*
X0025963Y0076653D02*
X0026108Y0076653D01*
X0026084Y0076691D02*
X0025988Y0076691D01*
X0026013Y0076729D02*
X0026059Y0076729D01*
X0026856Y0077259D02*
X0030042Y0077259D01*
X0030042Y0077222D02*
X0026882Y0077222D01*
X0026908Y0077184D02*
X0030042Y0077184D01*
X0030042Y0077146D02*
X0026934Y0077146D01*
X0026960Y0077108D02*
X0030042Y0077108D01*
X0030042Y0077070D02*
X0026986Y0077070D01*
X0027012Y0077032D02*
X0030042Y0077032D01*
X0030042Y0076994D02*
X0027038Y0076994D01*
X0027064Y0076956D02*
X0030042Y0076956D01*
X0030042Y0076919D02*
X0027090Y0076919D01*
X0027116Y0076881D02*
X0030042Y0076881D01*
X0030042Y0076843D02*
X0027142Y0076843D01*
X0027168Y0076805D02*
X0030042Y0076805D01*
X0030042Y0076767D02*
X0027194Y0076767D01*
X0027220Y0076729D02*
X0030042Y0076729D01*
X0030042Y0076691D02*
X0027246Y0076691D01*
X0027272Y0076653D02*
X0030042Y0076653D01*
X0030042Y0076616D02*
X0027298Y0076616D01*
X0027324Y0076578D02*
X0030042Y0076578D01*
X0030042Y0076540D02*
X0027350Y0076540D01*
X0027376Y0076502D02*
X0030042Y0076502D01*
X0030042Y0076464D02*
X0027402Y0076464D01*
X0027428Y0076426D02*
X0030042Y0076426D01*
X0030042Y0076388D02*
X0027454Y0076388D01*
X0027480Y0076350D02*
X0030042Y0076350D01*
X0030042Y0076312D02*
X0027506Y0076312D01*
X0027532Y0076275D02*
X0030042Y0076275D01*
X0030042Y0076237D02*
X0027558Y0076237D01*
X0027584Y0076199D02*
X0030042Y0076199D01*
X0030042Y0076161D02*
X0027610Y0076161D01*
X0027636Y0076123D02*
X0030042Y0076123D01*
X0030042Y0076085D02*
X0027662Y0076085D01*
X0027688Y0076047D02*
X0030042Y0076047D01*
X0030042Y0076009D02*
X0027714Y0076009D01*
X0027740Y0075972D02*
X0030042Y0075972D01*
X0030042Y0075934D02*
X0027766Y0075934D01*
X0027792Y0075896D02*
X0030042Y0075896D01*
X0030042Y0075858D02*
X0027818Y0075858D01*
X0027844Y0075820D02*
X0030042Y0075820D01*
X0030042Y0075782D02*
X0027870Y0075782D01*
X0027896Y0075744D02*
X0030042Y0075744D01*
X0030042Y0075706D02*
X0027922Y0075706D01*
X0027948Y0075668D02*
X0030042Y0075668D01*
X0030042Y0075631D02*
X0027974Y0075631D01*
X0028000Y0075593D02*
X0030042Y0075593D01*
X0030042Y0075555D02*
X0028026Y0075555D01*
X0028052Y0075517D02*
X0030042Y0075517D01*
X0030042Y0075479D02*
X0028078Y0075479D01*
X0028104Y0075441D02*
X0030042Y0075441D01*
X0030042Y0075403D02*
X0028130Y0075403D01*
X0028156Y0075365D02*
X0030042Y0075365D01*
X0030042Y0075328D02*
X0028182Y0075328D01*
X0028208Y0075290D02*
X0030042Y0075290D01*
X0030042Y0075252D02*
X0028234Y0075252D01*
X0028260Y0075214D02*
X0030042Y0075214D01*
X0030042Y0075176D02*
X0028286Y0075176D01*
X0028312Y0075138D02*
X0030042Y0075138D01*
X0030042Y0075100D02*
X0022000Y0075100D01*
X0022000Y0075062D02*
X0030042Y0075062D01*
X0030042Y0075024D02*
X0022000Y0075024D01*
X0022000Y0074987D02*
X0030042Y0074987D01*
X0030042Y0074949D02*
X0022000Y0074949D01*
X0022000Y0074911D02*
X0030042Y0074911D01*
X0030042Y0074873D02*
X0022000Y0074873D01*
X0022000Y0074835D02*
X0030042Y0074835D01*
X0030042Y0074797D02*
X0022000Y0074797D01*
X0022000Y0074759D02*
X0030042Y0074759D01*
X0030042Y0074721D02*
X0022000Y0074721D01*
X0022000Y0074684D02*
X0030042Y0074684D01*
X0030042Y0074646D02*
X0022000Y0074646D01*
X0022000Y0074608D02*
X0030042Y0074608D01*
X0030042Y0074570D02*
X0022000Y0074570D01*
X0022000Y0074532D02*
X0030042Y0074532D01*
X0030042Y0074494D02*
X0022000Y0074494D01*
X0022000Y0074456D02*
X0030042Y0074456D01*
X0030042Y0074418D02*
X0022000Y0074418D01*
X0022000Y0074380D02*
X0030042Y0074380D01*
X0030042Y0074343D02*
X0022000Y0074343D01*
X0022000Y0074305D02*
X0030042Y0074305D01*
X0030042Y0074267D02*
X0022000Y0074267D01*
X0022000Y0074229D02*
X0030042Y0074229D01*
X0030042Y0074191D02*
X0022000Y0074191D01*
X0022000Y0074153D02*
X0030042Y0074153D01*
X0030042Y0074115D02*
X0022000Y0074115D01*
X0022000Y0074077D02*
X0030042Y0074077D01*
X0030042Y0074040D02*
X0022000Y0074040D01*
X0022000Y0074002D02*
X0030042Y0074002D01*
X0030042Y0073964D02*
X0022000Y0073964D01*
X0022000Y0073926D02*
X0030042Y0073926D01*
X0030042Y0073888D02*
X0022000Y0073888D01*
X0022000Y0073850D02*
X0030042Y0073850D01*
X0030042Y0073812D02*
X0022000Y0073812D01*
X0022000Y0073774D02*
X0030042Y0073774D01*
X0030042Y0073737D02*
X0022000Y0073737D01*
X0022000Y0073699D02*
X0030042Y0073699D01*
X0030042Y0073661D02*
X0022000Y0073661D01*
X0022000Y0073623D02*
X0030042Y0073623D01*
X0030042Y0073585D02*
X0022000Y0073585D01*
X0022000Y0073547D02*
X0030042Y0073547D01*
X0030042Y0073509D02*
X0022000Y0073509D01*
X0022000Y0073471D02*
X0030042Y0073471D01*
X0030366Y0073433D02*
X0022000Y0073433D01*
X0022000Y0073396D02*
X0030366Y0073396D01*
X0058000Y0073396D01*
X0058000Y0073433D02*
X0030366Y0073433D01*
X0030366Y0073358D02*
X0022000Y0073358D01*
X0022000Y0073320D02*
X0030366Y0073320D01*
X0058000Y0073320D01*
X0058000Y0073358D02*
X0030366Y0073358D01*
X0030366Y0073282D02*
X0022000Y0073282D01*
X0022000Y0073244D02*
X0030366Y0073244D01*
X0058000Y0073244D01*
X0058000Y0073206D02*
X0030366Y0073206D01*
X0022000Y0073206D01*
X0022000Y0073168D02*
X0030366Y0073168D01*
X0058000Y0073168D01*
X0058000Y0073130D02*
X0030366Y0073130D01*
X0022000Y0073130D01*
X0022000Y0073093D02*
X0030366Y0073093D01*
X0058000Y0073093D01*
X0058000Y0073055D02*
X0030366Y0073055D01*
X0022000Y0073055D01*
X0022000Y0073017D02*
X0030366Y0073017D01*
X0058000Y0073017D01*
X0058000Y0072979D02*
X0030366Y0072979D01*
X0022000Y0072979D01*
X0022000Y0072941D02*
X0030366Y0072941D01*
X0058000Y0072941D01*
X0058000Y0072903D02*
X0030366Y0072903D01*
X0022000Y0072903D01*
X0022000Y0072865D02*
X0030366Y0072865D01*
X0058000Y0072865D01*
X0058000Y0072827D02*
X0030366Y0072827D01*
X0022000Y0072827D01*
X0022000Y0072789D02*
X0030366Y0072789D01*
X0058000Y0072789D01*
X0058000Y0072752D02*
X0030366Y0072752D01*
X0022000Y0072752D01*
X0022000Y0072714D02*
X0030366Y0072714D01*
X0058000Y0072714D01*
X0058000Y0072676D02*
X0030366Y0072676D01*
X0022000Y0072676D01*
X0022000Y0072638D02*
X0030366Y0072638D01*
X0058000Y0072638D01*
X0058000Y0072600D02*
X0030366Y0072600D01*
X0022000Y0072600D01*
X0022000Y0072562D02*
X0030366Y0072562D01*
X0058000Y0072562D01*
X0058000Y0073282D02*
X0030366Y0073282D01*
X0031396Y0075108D02*
X0033452Y0077887D01*
X0032665Y0078707D01*
X0033908Y0078707D01*
X0032768Y0079936D01*
X0031486Y0079936D01*
X0032665Y0078707D01*
X0033908Y0078707D01*
X0034726Y0077826D01*
X0034726Y0078707D01*
X0035788Y0078707D01*
X0035788Y0079936D01*
X0034726Y0079936D01*
X0034726Y0078707D01*
X0035788Y0078707D01*
X0035788Y0075108D01*
X0034726Y0075108D01*
X0034726Y0076584D01*
X0034168Y0077164D01*
X0032670Y0075108D01*
X0031396Y0075108D01*
X0031418Y0075138D02*
X0032692Y0075138D01*
X0032720Y0075176D02*
X0031446Y0075176D01*
X0031474Y0075214D02*
X0032748Y0075214D01*
X0032775Y0075252D02*
X0031502Y0075252D01*
X0031530Y0075290D02*
X0032803Y0075290D01*
X0032830Y0075328D02*
X0031558Y0075328D01*
X0031586Y0075365D02*
X0032858Y0075365D01*
X0032886Y0075403D02*
X0031614Y0075403D01*
X0031642Y0075441D02*
X0032913Y0075441D01*
X0032941Y0075479D02*
X0031670Y0075479D01*
X0031698Y0075517D02*
X0032968Y0075517D01*
X0032996Y0075555D02*
X0031726Y0075555D01*
X0031754Y0075593D02*
X0033024Y0075593D01*
X0033051Y0075631D02*
X0031783Y0075631D01*
X0031811Y0075668D02*
X0033079Y0075668D01*
X0033106Y0075706D02*
X0031839Y0075706D01*
X0031867Y0075744D02*
X0033134Y0075744D01*
X0033162Y0075782D02*
X0031895Y0075782D01*
X0031923Y0075820D02*
X0033189Y0075820D01*
X0033217Y0075858D02*
X0031951Y0075858D01*
X0031979Y0075896D02*
X0033244Y0075896D01*
X0033272Y0075934D02*
X0032007Y0075934D01*
X0032035Y0075972D02*
X0033300Y0075972D01*
X0033327Y0076009D02*
X0032063Y0076009D01*
X0032091Y0076047D02*
X0033355Y0076047D01*
X0033382Y0076085D02*
X0032119Y0076085D01*
X0032147Y0076123D02*
X0033410Y0076123D01*
X0033438Y0076161D02*
X0032175Y0076161D01*
X0032203Y0076199D02*
X0033465Y0076199D01*
X0033493Y0076237D02*
X0032231Y0076237D01*
X0032259Y0076275D02*
X0033520Y0076275D01*
X0033548Y0076312D02*
X0032287Y0076312D01*
X0032315Y0076350D02*
X0033575Y0076350D01*
X0033603Y0076388D02*
X0032343Y0076388D01*
X0032371Y0076426D02*
X0033631Y0076426D01*
X0033658Y0076464D02*
X0032399Y0076464D01*
X0032427Y0076502D02*
X0033686Y0076502D01*
X0033713Y0076540D02*
X0032455Y0076540D01*
X0032483Y0076578D02*
X0033741Y0076578D01*
X0033769Y0076616D02*
X0032511Y0076616D01*
X0032539Y0076653D02*
X0033796Y0076653D01*
X0033824Y0076691D02*
X0032567Y0076691D01*
X0032595Y0076729D02*
X0033851Y0076729D01*
X0033879Y0076767D02*
X0032623Y0076767D01*
X0032651Y0076805D02*
X0033907Y0076805D01*
X0033934Y0076843D02*
X0032679Y0076843D01*
X0032707Y0076881D02*
X0033962Y0076881D01*
X0033989Y0076919D02*
X0032735Y0076919D01*
X0032763Y0076956D02*
X0034017Y0076956D01*
X0034045Y0076994D02*
X0032791Y0076994D01*
X0032819Y0077032D02*
X0034072Y0077032D01*
X0034100Y0077070D02*
X0032847Y0077070D01*
X0032875Y0077108D02*
X0034127Y0077108D01*
X0034155Y0077146D02*
X0032903Y0077146D01*
X0032931Y0077184D02*
X0035788Y0077184D01*
X0035788Y0077222D02*
X0032959Y0077222D01*
X0032987Y0077259D02*
X0035788Y0077259D01*
X0035788Y0077297D02*
X0033015Y0077297D01*
X0033043Y0077335D02*
X0035788Y0077335D01*
X0035788Y0077373D02*
X0033071Y0077373D01*
X0033099Y0077411D02*
X0035788Y0077411D01*
X0035788Y0077449D02*
X0033127Y0077449D01*
X0033155Y0077487D02*
X0035788Y0077487D01*
X0035788Y0077525D02*
X0033183Y0077525D01*
X0033211Y0077563D02*
X0035788Y0077563D01*
X0035788Y0077600D02*
X0033239Y0077600D01*
X0033267Y0077638D02*
X0035788Y0077638D01*
X0035788Y0077676D02*
X0033295Y0077676D01*
X0033324Y0077714D02*
X0035788Y0077714D01*
X0035788Y0077752D02*
X0033352Y0077752D01*
X0033380Y0077790D02*
X0035788Y0077790D01*
X0035788Y0077828D02*
X0034726Y0077828D01*
X0034724Y0077828D02*
X0033408Y0077828D01*
X0033436Y0077866D02*
X0034689Y0077866D01*
X0034726Y0077866D02*
X0035788Y0077866D01*
X0035788Y0077903D02*
X0034726Y0077903D01*
X0034726Y0077941D02*
X0035788Y0077941D01*
X0035788Y0077979D02*
X0034726Y0077979D01*
X0034726Y0078017D02*
X0035788Y0078017D01*
X0035788Y0078055D02*
X0034726Y0078055D01*
X0034726Y0078093D02*
X0035788Y0078093D01*
X0035788Y0078131D02*
X0034726Y0078131D01*
X0034726Y0078169D02*
X0035788Y0078169D01*
X0035788Y0078207D02*
X0034726Y0078207D01*
X0034726Y0078244D02*
X0035788Y0078244D01*
X0035788Y0078282D02*
X0034726Y0078282D01*
X0034726Y0078320D02*
X0035788Y0078320D01*
X0035788Y0078358D02*
X0034726Y0078358D01*
X0034726Y0078396D02*
X0035788Y0078396D01*
X0035788Y0078434D02*
X0034726Y0078434D01*
X0034726Y0078472D02*
X0035788Y0078472D01*
X0035788Y0078510D02*
X0034726Y0078510D01*
X0034726Y0078547D02*
X0035788Y0078547D01*
X0035788Y0078585D02*
X0034726Y0078585D01*
X0034726Y0078623D02*
X0035788Y0078623D01*
X0035788Y0078661D02*
X0034726Y0078661D01*
X0034726Y0078699D02*
X0035788Y0078699D01*
X0035788Y0078737D02*
X0034726Y0078737D01*
X0034726Y0078775D02*
X0035788Y0078775D01*
X0035788Y0078813D02*
X0034726Y0078813D01*
X0034726Y0078851D02*
X0035788Y0078851D01*
X0035788Y0078888D02*
X0034726Y0078888D01*
X0034726Y0078926D02*
X0035788Y0078926D01*
X0035788Y0078964D02*
X0034726Y0078964D01*
X0034726Y0079002D02*
X0035788Y0079002D01*
X0035788Y0079040D02*
X0034726Y0079040D01*
X0034726Y0079078D02*
X0035788Y0079078D01*
X0035788Y0079116D02*
X0034726Y0079116D01*
X0034726Y0079154D02*
X0035788Y0079154D01*
X0035788Y0079191D02*
X0034726Y0079191D01*
X0034726Y0079229D02*
X0035788Y0079229D01*
X0035788Y0079267D02*
X0034726Y0079267D01*
X0034726Y0079305D02*
X0035788Y0079305D01*
X0035788Y0079343D02*
X0034726Y0079343D01*
X0034726Y0079381D02*
X0035788Y0079381D01*
X0035788Y0079419D02*
X0034726Y0079419D01*
X0034726Y0079457D02*
X0035788Y0079457D01*
X0035788Y0079494D02*
X0034726Y0079494D01*
X0034726Y0079532D02*
X0035788Y0079532D01*
X0035788Y0079570D02*
X0034726Y0079570D01*
X0034726Y0079608D02*
X0035788Y0079608D01*
X0035788Y0079646D02*
X0034726Y0079646D01*
X0034726Y0079684D02*
X0035788Y0079684D01*
X0035788Y0079722D02*
X0034726Y0079722D01*
X0034726Y0079760D02*
X0035788Y0079760D01*
X0035788Y0079798D02*
X0034726Y0079798D01*
X0034726Y0079835D02*
X0035788Y0079835D01*
X0035788Y0079873D02*
X0034726Y0079873D01*
X0034726Y0079911D02*
X0035788Y0079911D01*
X0036989Y0079229D02*
X0040778Y0079229D01*
X0040778Y0079191D02*
X0036968Y0079191D01*
X0036947Y0079154D02*
X0040778Y0079154D01*
X0040778Y0079116D02*
X0036926Y0079116D01*
X0036906Y0079078D02*
X0040778Y0079078D01*
X0040778Y0079040D02*
X0036885Y0079040D01*
X0036868Y0079010D02*
X0037018Y0079283D01*
X0037228Y0079514D01*
X0037492Y0079699D01*
X0037804Y0079830D01*
X0038163Y0079909D01*
X0038571Y0079936D01*
X0040778Y0079936D01*
X0040778Y0078707D01*
X0039716Y0078707D01*
X0039716Y0078978D01*
X0038661Y0078978D01*
X0038310Y0078935D01*
X0038045Y0078805D01*
X0037970Y0078707D01*
X0036782Y0078707D01*
X0036868Y0079010D01*
X0036866Y0079002D02*
X0040778Y0079002D01*
X0040778Y0078964D02*
X0039716Y0078964D01*
X0039716Y0078926D02*
X0040778Y0078926D01*
X0040778Y0078888D02*
X0039716Y0078888D01*
X0039716Y0078851D02*
X0040778Y0078851D01*
X0040778Y0078813D02*
X0039716Y0078813D01*
X0039716Y0078775D02*
X0040778Y0078775D01*
X0040778Y0078737D02*
X0039716Y0078737D01*
X0039716Y0078707D02*
X0040778Y0078707D01*
X0040778Y0075108D01*
X0039716Y0075108D01*
X0039716Y0076652D01*
X0038880Y0076652D01*
X0037847Y0075108D01*
X0036605Y0075108D01*
X0037786Y0076832D01*
X0037367Y0077054D01*
X0037037Y0077372D01*
X0036822Y0077795D01*
X0036749Y0078326D01*
X0036749Y0078341D01*
X0036779Y0078696D01*
X0036782Y0078707D01*
X0037970Y0078707D01*
X0037880Y0078589D01*
X0037826Y0078287D01*
X0037826Y0078276D01*
X0037877Y0077998D01*
X0038034Y0077779D01*
X0038291Y0077640D01*
X0038639Y0077592D01*
X0039716Y0077592D01*
X0039716Y0078707D01*
X0039716Y0078699D02*
X0040778Y0078699D01*
X0040778Y0078661D02*
X0039716Y0078661D01*
X0039716Y0078623D02*
X0040778Y0078623D01*
X0040778Y0078585D02*
X0039716Y0078585D01*
X0039716Y0078547D02*
X0040778Y0078547D01*
X0040778Y0078510D02*
X0039716Y0078510D01*
X0039716Y0078472D02*
X0040778Y0078472D01*
X0040778Y0078434D02*
X0039716Y0078434D01*
X0039716Y0078396D02*
X0040778Y0078396D01*
X0040778Y0078358D02*
X0039716Y0078358D01*
X0039716Y0078320D02*
X0040778Y0078320D01*
X0040778Y0078282D02*
X0039716Y0078282D01*
X0039716Y0078244D02*
X0040778Y0078244D01*
X0040778Y0078207D02*
X0039716Y0078207D01*
X0039716Y0078169D02*
X0040778Y0078169D01*
X0040778Y0078131D02*
X0039716Y0078131D01*
X0039716Y0078093D02*
X0040778Y0078093D01*
X0040778Y0078055D02*
X0039716Y0078055D01*
X0039716Y0078017D02*
X0040778Y0078017D01*
X0040778Y0077979D02*
X0039716Y0077979D01*
X0039716Y0077941D02*
X0040778Y0077941D01*
X0040778Y0077903D02*
X0039716Y0077903D01*
X0039716Y0077866D02*
X0040778Y0077866D01*
X0040778Y0077828D02*
X0039716Y0077828D01*
X0039716Y0077790D02*
X0040778Y0077790D01*
X0040778Y0077752D02*
X0039716Y0077752D01*
X0039716Y0077714D02*
X0040778Y0077714D01*
X0040778Y0077676D02*
X0039716Y0077676D01*
X0039716Y0077638D02*
X0040778Y0077638D01*
X0040778Y0077600D02*
X0039716Y0077600D01*
X0039716Y0076616D02*
X0040778Y0076616D01*
X0040778Y0076653D02*
X0037663Y0076653D01*
X0037637Y0076616D02*
X0038856Y0076616D01*
X0038830Y0076578D02*
X0037612Y0076578D01*
X0037586Y0076540D02*
X0038805Y0076540D01*
X0038780Y0076502D02*
X0037560Y0076502D01*
X0037534Y0076464D02*
X0038754Y0076464D01*
X0038729Y0076426D02*
X0037508Y0076426D01*
X0037482Y0076388D02*
X0038704Y0076388D01*
X0038678Y0076350D02*
X0037456Y0076350D01*
X0037430Y0076312D02*
X0038653Y0076312D01*
X0038628Y0076275D02*
X0037404Y0076275D01*
X0037378Y0076237D02*
X0038602Y0076237D01*
X0038577Y0076199D02*
X0037352Y0076199D01*
X0037326Y0076161D02*
X0038552Y0076161D01*
X0038526Y0076123D02*
X0037300Y0076123D01*
X0037274Y0076085D02*
X0038501Y0076085D01*
X0038476Y0076047D02*
X0037248Y0076047D01*
X0037222Y0076009D02*
X0038450Y0076009D01*
X0038425Y0075972D02*
X0037196Y0075972D01*
X0037171Y0075934D02*
X0038400Y0075934D01*
X0038374Y0075896D02*
X0037145Y0075896D01*
X0037119Y0075858D02*
X0038349Y0075858D01*
X0038324Y0075820D02*
X0037093Y0075820D01*
X0037067Y0075782D02*
X0038298Y0075782D01*
X0038273Y0075744D02*
X0037041Y0075744D01*
X0037015Y0075706D02*
X0038247Y0075706D01*
X0038222Y0075668D02*
X0036989Y0075668D01*
X0036963Y0075631D02*
X0038197Y0075631D01*
X0038171Y0075593D02*
X0036937Y0075593D01*
X0036911Y0075555D02*
X0038146Y0075555D01*
X0038121Y0075517D02*
X0036885Y0075517D01*
X0036859Y0075479D02*
X0038095Y0075479D01*
X0038070Y0075441D02*
X0036833Y0075441D01*
X0036807Y0075403D02*
X0038045Y0075403D01*
X0038019Y0075365D02*
X0036781Y0075365D01*
X0036756Y0075328D02*
X0037994Y0075328D01*
X0037969Y0075290D02*
X0036730Y0075290D01*
X0036704Y0075252D02*
X0037943Y0075252D01*
X0037918Y0075214D02*
X0036678Y0075214D01*
X0036652Y0075176D02*
X0037893Y0075176D01*
X0037867Y0075138D02*
X0036626Y0075138D01*
X0035788Y0075138D02*
X0034726Y0075138D01*
X0034726Y0075176D02*
X0035788Y0075176D01*
X0035788Y0075214D02*
X0034726Y0075214D01*
X0034726Y0075252D02*
X0035788Y0075252D01*
X0035788Y0075290D02*
X0034726Y0075290D01*
X0034726Y0075328D02*
X0035788Y0075328D01*
X0035788Y0075365D02*
X0034726Y0075365D01*
X0034726Y0075403D02*
X0035788Y0075403D01*
X0035788Y0075441D02*
X0034726Y0075441D01*
X0034726Y0075479D02*
X0035788Y0075479D01*
X0035788Y0075517D02*
X0034726Y0075517D01*
X0034726Y0075555D02*
X0035788Y0075555D01*
X0035788Y0075593D02*
X0034726Y0075593D01*
X0034726Y0075631D02*
X0035788Y0075631D01*
X0035788Y0075668D02*
X0034726Y0075668D01*
X0034726Y0075706D02*
X0035788Y0075706D01*
X0035788Y0075744D02*
X0034726Y0075744D01*
X0034726Y0075782D02*
X0035788Y0075782D01*
X0035788Y0075820D02*
X0034726Y0075820D01*
X0034726Y0075858D02*
X0035788Y0075858D01*
X0035788Y0075896D02*
X0034726Y0075896D01*
X0034726Y0075934D02*
X0035788Y0075934D01*
X0035788Y0075972D02*
X0034726Y0075972D01*
X0034726Y0076009D02*
X0035788Y0076009D01*
X0035788Y0076047D02*
X0034726Y0076047D01*
X0034726Y0076085D02*
X0035788Y0076085D01*
X0035788Y0076123D02*
X0034726Y0076123D01*
X0034726Y0076161D02*
X0035788Y0076161D01*
X0035788Y0076199D02*
X0034726Y0076199D01*
X0034726Y0076237D02*
X0035788Y0076237D01*
X0035788Y0076275D02*
X0034726Y0076275D01*
X0034726Y0076312D02*
X0035788Y0076312D01*
X0035788Y0076350D02*
X0034726Y0076350D01*
X0034726Y0076388D02*
X0035788Y0076388D01*
X0035788Y0076426D02*
X0034726Y0076426D01*
X0034726Y0076464D02*
X0035788Y0076464D01*
X0035788Y0076502D02*
X0034726Y0076502D01*
X0034726Y0076540D02*
X0035788Y0076540D01*
X0035788Y0076578D02*
X0034726Y0076578D01*
X0034696Y0076616D02*
X0035788Y0076616D01*
X0035788Y0076653D02*
X0034659Y0076653D01*
X0034623Y0076691D02*
X0035788Y0076691D01*
X0035788Y0076729D02*
X0034586Y0076729D01*
X0034550Y0076767D02*
X0035788Y0076767D01*
X0035788Y0076805D02*
X0034513Y0076805D01*
X0034477Y0076843D02*
X0035788Y0076843D01*
X0035788Y0076881D02*
X0034440Y0076881D01*
X0034404Y0076919D02*
X0035788Y0076919D01*
X0035788Y0076956D02*
X0034367Y0076956D01*
X0034331Y0076994D02*
X0035788Y0076994D01*
X0035788Y0077032D02*
X0034295Y0077032D01*
X0034258Y0077070D02*
X0035788Y0077070D01*
X0035788Y0077108D02*
X0034222Y0077108D01*
X0034185Y0077146D02*
X0035788Y0077146D01*
X0036863Y0077714D02*
X0038154Y0077714D01*
X0038084Y0077752D02*
X0036844Y0077752D01*
X0036824Y0077790D02*
X0038027Y0077790D01*
X0038000Y0077828D02*
X0036817Y0077828D01*
X0036812Y0077866D02*
X0037972Y0077866D01*
X0037945Y0077903D02*
X0036807Y0077903D01*
X0036802Y0077941D02*
X0037918Y0077941D01*
X0037891Y0077979D02*
X0036797Y0077979D01*
X0036791Y0078017D02*
X0037874Y0078017D01*
X0037867Y0078055D02*
X0036786Y0078055D01*
X0036781Y0078093D02*
X0037860Y0078093D01*
X0037853Y0078131D02*
X0036776Y0078131D01*
X0036771Y0078169D02*
X0037846Y0078169D01*
X0037838Y0078207D02*
X0036766Y0078207D01*
X0036760Y0078244D02*
X0037831Y0078244D01*
X0037826Y0078282D02*
X0036755Y0078282D01*
X0036750Y0078320D02*
X0037832Y0078320D01*
X0037838Y0078358D02*
X0036751Y0078358D01*
X0036754Y0078396D02*
X0037845Y0078396D01*
X0037852Y0078434D02*
X0036757Y0078434D01*
X0036760Y0078472D02*
X0037859Y0078472D01*
X0037866Y0078510D02*
X0036763Y0078510D01*
X0036766Y0078547D02*
X0037872Y0078547D01*
X0037879Y0078585D02*
X0036770Y0078585D01*
X0036773Y0078623D02*
X0037906Y0078623D01*
X0037935Y0078661D02*
X0036776Y0078661D01*
X0036780Y0078699D02*
X0037964Y0078699D01*
X0037993Y0078737D02*
X0036791Y0078737D01*
X0036802Y0078775D02*
X0038022Y0078775D01*
X0038060Y0078813D02*
X0036812Y0078813D01*
X0036823Y0078851D02*
X0038138Y0078851D01*
X0038215Y0078888D02*
X0036834Y0078888D01*
X0036845Y0078926D02*
X0038292Y0078926D01*
X0038548Y0078964D02*
X0036855Y0078964D01*
X0037009Y0079267D02*
X0040778Y0079267D01*
X0040778Y0079305D02*
X0037038Y0079305D01*
X0037073Y0079343D02*
X0040778Y0079343D01*
X0040778Y0079381D02*
X0037107Y0079381D01*
X0037141Y0079419D02*
X0040778Y0079419D01*
X0040778Y0079457D02*
X0037176Y0079457D01*
X0037210Y0079494D02*
X0040778Y0079494D01*
X0040778Y0079532D02*
X0037254Y0079532D01*
X0037308Y0079570D02*
X0040778Y0079570D01*
X0040778Y0079608D02*
X0037362Y0079608D01*
X0037416Y0079646D02*
X0040778Y0079646D01*
X0040778Y0079684D02*
X0037471Y0079684D01*
X0037546Y0079722D02*
X0040778Y0079722D01*
X0040778Y0079760D02*
X0037636Y0079760D01*
X0037726Y0079798D02*
X0040778Y0079798D01*
X0040778Y0079835D02*
X0037826Y0079835D01*
X0037999Y0079873D02*
X0040778Y0079873D01*
X0040778Y0079911D02*
X0038193Y0079911D01*
X0038224Y0077676D02*
X0036882Y0077676D01*
X0036902Y0077638D02*
X0038300Y0077638D01*
X0038578Y0077600D02*
X0036921Y0077600D01*
X0036940Y0077563D02*
X0040778Y0077563D01*
X0040778Y0077525D02*
X0036960Y0077525D01*
X0036979Y0077487D02*
X0040778Y0077487D01*
X0040778Y0077449D02*
X0036998Y0077449D01*
X0037018Y0077411D02*
X0040778Y0077411D01*
X0040778Y0077373D02*
X0037037Y0077373D01*
X0037076Y0077335D02*
X0040778Y0077335D01*
X0040778Y0077297D02*
X0037115Y0077297D01*
X0037154Y0077259D02*
X0040778Y0077259D01*
X0040778Y0077222D02*
X0037194Y0077222D01*
X0037233Y0077184D02*
X0040778Y0077184D01*
X0040778Y0077146D02*
X0037272Y0077146D01*
X0037311Y0077108D02*
X0040778Y0077108D01*
X0040778Y0077070D02*
X0037351Y0077070D01*
X0037408Y0077032D02*
X0040778Y0077032D01*
X0040778Y0076994D02*
X0037480Y0076994D01*
X0037552Y0076956D02*
X0040778Y0076956D01*
X0040778Y0076919D02*
X0037623Y0076919D01*
X0037695Y0076881D02*
X0040778Y0076881D01*
X0040778Y0076843D02*
X0037766Y0076843D01*
X0037767Y0076805D02*
X0040778Y0076805D01*
X0040778Y0076767D02*
X0037741Y0076767D01*
X0037715Y0076729D02*
X0040778Y0076729D01*
X0040778Y0076691D02*
X0037689Y0076691D01*
X0039716Y0076578D02*
X0040778Y0076578D01*
X0040778Y0076540D02*
X0039716Y0076540D01*
X0039716Y0076502D02*
X0040778Y0076502D01*
X0040778Y0076464D02*
X0039716Y0076464D01*
X0039716Y0076426D02*
X0040778Y0076426D01*
X0040778Y0076388D02*
X0039716Y0076388D01*
X0039716Y0076350D02*
X0040778Y0076350D01*
X0040778Y0076312D02*
X0039716Y0076312D01*
X0039716Y0076275D02*
X0040778Y0076275D01*
X0040778Y0076237D02*
X0039716Y0076237D01*
X0039716Y0076199D02*
X0040778Y0076199D01*
X0040778Y0076161D02*
X0039716Y0076161D01*
X0039716Y0076123D02*
X0040778Y0076123D01*
X0040778Y0076085D02*
X0039716Y0076085D01*
X0039716Y0076047D02*
X0040778Y0076047D01*
X0040778Y0076009D02*
X0039716Y0076009D01*
X0039716Y0075972D02*
X0040778Y0075972D01*
X0040778Y0075934D02*
X0039716Y0075934D01*
X0039716Y0075896D02*
X0040778Y0075896D01*
X0040778Y0075858D02*
X0039716Y0075858D01*
X0039716Y0075820D02*
X0040778Y0075820D01*
X0040778Y0075782D02*
X0039716Y0075782D01*
X0039716Y0075744D02*
X0040778Y0075744D01*
X0040778Y0075706D02*
X0039716Y0075706D01*
X0039716Y0075668D02*
X0040778Y0075668D01*
X0040778Y0075631D02*
X0039716Y0075631D01*
X0039716Y0075593D02*
X0040778Y0075593D01*
X0040778Y0075555D02*
X0039716Y0075555D01*
X0039716Y0075517D02*
X0040778Y0075517D01*
X0040778Y0075479D02*
X0039716Y0075479D01*
X0039716Y0075441D02*
X0040778Y0075441D01*
X0040778Y0075403D02*
X0039716Y0075403D01*
X0039716Y0075365D02*
X0040778Y0075365D01*
X0040778Y0075328D02*
X0039716Y0075328D01*
X0039716Y0075290D02*
X0040778Y0075290D01*
X0040778Y0075252D02*
X0039716Y0075252D01*
X0039716Y0075214D02*
X0040778Y0075214D01*
X0040778Y0075176D02*
X0039716Y0075176D01*
X0039716Y0075138D02*
X0040778Y0075138D01*
X0041523Y0075108D02*
X0043055Y0078707D01*
X0045110Y0078707D01*
X0044572Y0079972D01*
X0043593Y0079972D01*
X0043055Y0078707D01*
X0045110Y0078707D01*
X0046642Y0075108D01*
X0045558Y0075108D01*
X0044097Y0078694D01*
X0042635Y0075108D01*
X0041523Y0075108D01*
X0041536Y0075138D02*
X0042647Y0075138D01*
X0042663Y0075176D02*
X0041552Y0075176D01*
X0041568Y0075214D02*
X0042678Y0075214D01*
X0042694Y0075252D02*
X0041584Y0075252D01*
X0041600Y0075290D02*
X0042709Y0075290D01*
X0042725Y0075328D02*
X0041616Y0075328D01*
X0041632Y0075365D02*
X0042740Y0075365D01*
X0042756Y0075403D02*
X0041648Y0075403D01*
X0041665Y0075441D02*
X0042771Y0075441D01*
X0042786Y0075479D02*
X0041681Y0075479D01*
X0041697Y0075517D02*
X0042802Y0075517D01*
X0042817Y0075555D02*
X0041713Y0075555D01*
X0041729Y0075593D02*
X0042833Y0075593D01*
X0042848Y0075631D02*
X0041745Y0075631D01*
X0041761Y0075668D02*
X0042864Y0075668D01*
X0042879Y0075706D02*
X0041777Y0075706D01*
X0041794Y0075744D02*
X0042895Y0075744D01*
X0042910Y0075782D02*
X0041810Y0075782D01*
X0041826Y0075820D02*
X0042925Y0075820D01*
X0042941Y0075858D02*
X0041842Y0075858D01*
X0041858Y0075896D02*
X0042956Y0075896D01*
X0042972Y0075934D02*
X0041874Y0075934D01*
X0041890Y0075972D02*
X0042987Y0075972D01*
X0043003Y0076009D02*
X0041906Y0076009D01*
X0041923Y0076047D02*
X0043018Y0076047D01*
X0043034Y0076085D02*
X0041939Y0076085D01*
X0041955Y0076123D02*
X0043049Y0076123D01*
X0043064Y0076161D02*
X0041971Y0076161D01*
X0041987Y0076199D02*
X0043080Y0076199D01*
X0043095Y0076237D02*
X0042003Y0076237D01*
X0042019Y0076275D02*
X0043111Y0076275D01*
X0043126Y0076312D02*
X0042035Y0076312D01*
X0042052Y0076350D02*
X0043142Y0076350D01*
X0043157Y0076388D02*
X0042068Y0076388D01*
X0042084Y0076426D02*
X0043172Y0076426D01*
X0043188Y0076464D02*
X0042100Y0076464D01*
X0042116Y0076502D02*
X0043203Y0076502D01*
X0043219Y0076540D02*
X0042132Y0076540D01*
X0042148Y0076578D02*
X0043234Y0076578D01*
X0043250Y0076616D02*
X0042164Y0076616D01*
X0042181Y0076653D02*
X0043265Y0076653D01*
X0043281Y0076691D02*
X0042197Y0076691D01*
X0042213Y0076729D02*
X0043296Y0076729D01*
X0043311Y0076767D02*
X0042229Y0076767D01*
X0042245Y0076805D02*
X0043327Y0076805D01*
X0043342Y0076843D02*
X0042261Y0076843D01*
X0042277Y0076881D02*
X0043358Y0076881D01*
X0043373Y0076919D02*
X0042293Y0076919D01*
X0042310Y0076956D02*
X0043389Y0076956D01*
X0043404Y0076994D02*
X0042326Y0076994D01*
X0042342Y0077032D02*
X0043420Y0077032D01*
X0043435Y0077070D02*
X0042358Y0077070D01*
X0042374Y0077108D02*
X0043450Y0077108D01*
X0043466Y0077146D02*
X0042390Y0077146D01*
X0042406Y0077184D02*
X0043481Y0077184D01*
X0043497Y0077222D02*
X0042422Y0077222D01*
X0042439Y0077259D02*
X0043512Y0077259D01*
X0043528Y0077297D02*
X0042455Y0077297D01*
X0042471Y0077335D02*
X0043543Y0077335D01*
X0043559Y0077373D02*
X0042487Y0077373D01*
X0042503Y0077411D02*
X0043574Y0077411D01*
X0043589Y0077449D02*
X0042519Y0077449D01*
X0042535Y0077487D02*
X0043605Y0077487D01*
X0043620Y0077525D02*
X0042551Y0077525D01*
X0042568Y0077563D02*
X0043636Y0077563D01*
X0043651Y0077600D02*
X0042584Y0077600D01*
X0042600Y0077638D02*
X0043667Y0077638D01*
X0043682Y0077676D02*
X0042616Y0077676D01*
X0042632Y0077714D02*
X0043698Y0077714D01*
X0043713Y0077752D02*
X0042648Y0077752D01*
X0042664Y0077790D02*
X0043728Y0077790D01*
X0043744Y0077828D02*
X0042680Y0077828D01*
X0042697Y0077866D02*
X0043759Y0077866D01*
X0043775Y0077903D02*
X0042713Y0077903D01*
X0042729Y0077941D02*
X0043790Y0077941D01*
X0043806Y0077979D02*
X0042745Y0077979D01*
X0042761Y0078017D02*
X0043821Y0078017D01*
X0043836Y0078055D02*
X0042777Y0078055D01*
X0042793Y0078093D02*
X0043852Y0078093D01*
X0043867Y0078131D02*
X0042809Y0078131D01*
X0042826Y0078169D02*
X0043883Y0078169D01*
X0043898Y0078207D02*
X0042842Y0078207D01*
X0042858Y0078244D02*
X0043914Y0078244D01*
X0043929Y0078282D02*
X0042874Y0078282D01*
X0042890Y0078320D02*
X0043945Y0078320D01*
X0043960Y0078358D02*
X0042906Y0078358D01*
X0042922Y0078396D02*
X0043975Y0078396D01*
X0043991Y0078434D02*
X0042938Y0078434D01*
X0042955Y0078472D02*
X0044006Y0078472D01*
X0044022Y0078510D02*
X0042971Y0078510D01*
X0042987Y0078547D02*
X0044037Y0078547D01*
X0044053Y0078585D02*
X0043003Y0078585D01*
X0043019Y0078623D02*
X0044068Y0078623D01*
X0044084Y0078661D02*
X0043035Y0078661D01*
X0043051Y0078699D02*
X0045114Y0078699D01*
X0045130Y0078661D02*
X0044110Y0078661D01*
X0044126Y0078623D02*
X0045146Y0078623D01*
X0045162Y0078585D02*
X0044141Y0078585D01*
X0044156Y0078547D02*
X0045178Y0078547D01*
X0045195Y0078510D02*
X0044172Y0078510D01*
X0044187Y0078472D02*
X0045211Y0078472D01*
X0045227Y0078434D02*
X0044203Y0078434D01*
X0044218Y0078396D02*
X0045243Y0078396D01*
X0045259Y0078358D02*
X0044234Y0078358D01*
X0044249Y0078320D02*
X0045275Y0078320D01*
X0045291Y0078282D02*
X0044264Y0078282D01*
X0044280Y0078244D02*
X0045307Y0078244D01*
X0045323Y0078207D02*
X0044295Y0078207D01*
X0044311Y0078169D02*
X0045340Y0078169D01*
X0045356Y0078131D02*
X0044326Y0078131D01*
X0044342Y0078093D02*
X0045372Y0078093D01*
X0045388Y0078055D02*
X0044357Y0078055D01*
X0044373Y0078017D02*
X0045404Y0078017D01*
X0045420Y0077979D02*
X0044388Y0077979D01*
X0044403Y0077941D02*
X0045436Y0077941D01*
X0045452Y0077903D02*
X0044419Y0077903D01*
X0044434Y0077866D02*
X0045469Y0077866D01*
X0045485Y0077828D02*
X0044450Y0077828D01*
X0044465Y0077790D02*
X0045501Y0077790D01*
X0045517Y0077752D02*
X0044481Y0077752D01*
X0044496Y0077714D02*
X0045533Y0077714D01*
X0045549Y0077676D02*
X0044512Y0077676D01*
X0044527Y0077638D02*
X0045565Y0077638D01*
X0045581Y0077600D02*
X0044542Y0077600D01*
X0044558Y0077563D02*
X0045598Y0077563D01*
X0045614Y0077525D02*
X0044573Y0077525D01*
X0044589Y0077487D02*
X0045630Y0077487D01*
X0045646Y0077449D02*
X0044604Y0077449D01*
X0044620Y0077411D02*
X0045662Y0077411D01*
X0045678Y0077373D02*
X0044635Y0077373D01*
X0044651Y0077335D02*
X0045694Y0077335D01*
X0045710Y0077297D02*
X0044666Y0077297D01*
X0044681Y0077259D02*
X0045726Y0077259D01*
X0045743Y0077222D02*
X0044697Y0077222D01*
X0044712Y0077184D02*
X0045759Y0077184D01*
X0045775Y0077146D02*
X0044728Y0077146D01*
X0044743Y0077108D02*
X0045791Y0077108D01*
X0045807Y0077070D02*
X0044759Y0077070D01*
X0044774Y0077032D02*
X0045823Y0077032D01*
X0045839Y0076994D02*
X0044789Y0076994D01*
X0044805Y0076956D02*
X0045855Y0076956D01*
X0045872Y0076919D02*
X0044820Y0076919D01*
X0044836Y0076881D02*
X0045888Y0076881D01*
X0045904Y0076843D02*
X0044851Y0076843D01*
X0044867Y0076805D02*
X0045920Y0076805D01*
X0045936Y0076767D02*
X0044882Y0076767D01*
X0044898Y0076729D02*
X0045952Y0076729D01*
X0045968Y0076691D02*
X0044913Y0076691D01*
X0044928Y0076653D02*
X0045984Y0076653D01*
X0046001Y0076616D02*
X0044944Y0076616D01*
X0044959Y0076578D02*
X0046017Y0076578D01*
X0046033Y0076540D02*
X0044975Y0076540D01*
X0044990Y0076502D02*
X0046049Y0076502D01*
X0046065Y0076464D02*
X0045006Y0076464D01*
X0045021Y0076426D02*
X0046081Y0076426D01*
X0046097Y0076388D02*
X0045037Y0076388D01*
X0045052Y0076350D02*
X0046113Y0076350D01*
X0046129Y0076312D02*
X0045067Y0076312D01*
X0045083Y0076275D02*
X0046146Y0076275D01*
X0046162Y0076237D02*
X0045098Y0076237D01*
X0045114Y0076199D02*
X0046178Y0076199D01*
X0046194Y0076161D02*
X0045129Y0076161D01*
X0045145Y0076123D02*
X0046210Y0076123D01*
X0046226Y0076085D02*
X0045160Y0076085D01*
X0045176Y0076047D02*
X0046242Y0076047D01*
X0046258Y0076009D02*
X0045191Y0076009D01*
X0045206Y0075972D02*
X0046275Y0075972D01*
X0046291Y0075934D02*
X0045222Y0075934D01*
X0045237Y0075896D02*
X0046307Y0075896D01*
X0046323Y0075858D02*
X0045253Y0075858D01*
X0045268Y0075820D02*
X0046339Y0075820D01*
X0046355Y0075782D02*
X0045284Y0075782D01*
X0045299Y0075744D02*
X0046371Y0075744D01*
X0046387Y0075706D02*
X0045315Y0075706D01*
X0045330Y0075668D02*
X0046404Y0075668D01*
X0046420Y0075631D02*
X0045345Y0075631D01*
X0045361Y0075593D02*
X0046436Y0075593D01*
X0046452Y0075555D02*
X0045376Y0075555D01*
X0045392Y0075517D02*
X0046468Y0075517D01*
X0046484Y0075479D02*
X0045407Y0075479D01*
X0045423Y0075441D02*
X0046500Y0075441D01*
X0046516Y0075403D02*
X0045438Y0075403D01*
X0045453Y0075365D02*
X0046532Y0075365D01*
X0046549Y0075328D02*
X0045469Y0075328D01*
X0045484Y0075290D02*
X0046565Y0075290D01*
X0046581Y0075252D02*
X0045500Y0075252D01*
X0045515Y0075214D02*
X0046597Y0075214D01*
X0046613Y0075176D02*
X0045531Y0075176D01*
X0045546Y0075138D02*
X0046629Y0075138D01*
X0047755Y0076881D02*
X0050836Y0076881D01*
X0050836Y0076919D02*
X0047697Y0076919D01*
X0047638Y0076956D02*
X0050836Y0076956D01*
X0050836Y0076994D02*
X0047582Y0076994D01*
X0047585Y0076991D02*
X0047348Y0077232D01*
X0047168Y0077524D01*
X0047054Y0077867D01*
X0047016Y0078262D01*
X0047013Y0078254D01*
X0047013Y0078269D01*
X0047045Y0078625D01*
X0047068Y0078707D01*
X0048256Y0078707D01*
X0048320Y0078791D01*
X0048592Y0078932D01*
X0048950Y0078978D01*
X0049770Y0078978D01*
X0049770Y0078707D01*
X0050836Y0078707D01*
X0050836Y0079943D01*
X0048863Y0079943D01*
X0048450Y0079911D01*
X0048086Y0079820D01*
X0047770Y0079674D01*
X0047506Y0079478D01*
X0047294Y0079235D01*
X0047139Y0078949D01*
X0047068Y0078707D01*
X0048256Y0078707D01*
X0048146Y0078562D01*
X0048089Y0078247D01*
X0048089Y0078233D01*
X0048144Y0077948D01*
X0048309Y0077711D01*
X0048574Y0077554D01*
X0048928Y0077502D01*
X0049770Y0077502D01*
X0049770Y0078707D01*
X0050836Y0078707D01*
X0050836Y0075115D01*
X0049774Y0075115D01*
X0049774Y0076562D01*
X0048968Y0076562D01*
X0048574Y0076590D01*
X0048204Y0076670D01*
X0047872Y0076805D01*
X0050836Y0076805D01*
X0050836Y0076843D02*
X0047813Y0076843D01*
X0047872Y0076805D02*
X0047585Y0076991D01*
X0047544Y0077032D02*
X0050836Y0077032D01*
X0050836Y0077070D02*
X0047507Y0077070D01*
X0047470Y0077108D02*
X0050836Y0077108D01*
X0050836Y0077146D02*
X0047432Y0077146D01*
X0047395Y0077184D02*
X0050836Y0077184D01*
X0050836Y0077222D02*
X0047358Y0077222D01*
X0047331Y0077259D02*
X0050836Y0077259D01*
X0050836Y0077297D02*
X0047307Y0077297D01*
X0047284Y0077335D02*
X0050836Y0077335D01*
X0050836Y0077373D02*
X0047261Y0077373D01*
X0047237Y0077411D02*
X0050836Y0077411D01*
X0050836Y0077449D02*
X0047214Y0077449D01*
X0047190Y0077487D02*
X0050836Y0077487D01*
X0050836Y0077525D02*
X0049770Y0077525D01*
X0049770Y0077563D02*
X0050836Y0077563D01*
X0050836Y0077600D02*
X0049770Y0077600D01*
X0049770Y0077638D02*
X0050836Y0077638D01*
X0050836Y0077676D02*
X0049770Y0077676D01*
X0049770Y0077714D02*
X0050836Y0077714D01*
X0050836Y0077752D02*
X0049770Y0077752D01*
X0049770Y0077790D02*
X0050836Y0077790D01*
X0050836Y0077828D02*
X0049770Y0077828D01*
X0049770Y0077866D02*
X0050836Y0077866D01*
X0050836Y0077903D02*
X0049770Y0077903D01*
X0049770Y0077941D02*
X0050836Y0077941D01*
X0050836Y0077979D02*
X0049770Y0077979D01*
X0049770Y0078017D02*
X0050836Y0078017D01*
X0050836Y0078055D02*
X0049770Y0078055D01*
X0049770Y0078093D02*
X0050836Y0078093D01*
X0050836Y0078131D02*
X0049770Y0078131D01*
X0049770Y0078169D02*
X0050836Y0078169D01*
X0050836Y0078207D02*
X0049770Y0078207D01*
X0049770Y0078244D02*
X0050836Y0078244D01*
X0050836Y0078282D02*
X0049770Y0078282D01*
X0049770Y0078320D02*
X0050836Y0078320D01*
X0050836Y0078358D02*
X0049770Y0078358D01*
X0049770Y0078396D02*
X0050836Y0078396D01*
X0050836Y0078434D02*
X0049770Y0078434D01*
X0049770Y0078472D02*
X0050836Y0078472D01*
X0050836Y0078510D02*
X0049770Y0078510D01*
X0049770Y0078547D02*
X0050836Y0078547D01*
X0050836Y0078585D02*
X0049770Y0078585D01*
X0049770Y0078623D02*
X0050836Y0078623D01*
X0050836Y0078661D02*
X0049770Y0078661D01*
X0049770Y0078699D02*
X0050836Y0078699D01*
X0050836Y0078737D02*
X0049770Y0078737D01*
X0049770Y0078775D02*
X0050836Y0078775D01*
X0050836Y0078813D02*
X0049770Y0078813D01*
X0049770Y0078851D02*
X0050836Y0078851D01*
X0050836Y0078888D02*
X0049770Y0078888D01*
X0049770Y0078926D02*
X0050836Y0078926D01*
X0050836Y0078964D02*
X0049770Y0078964D01*
X0048843Y0078964D02*
X0047147Y0078964D01*
X0047132Y0078926D02*
X0048581Y0078926D01*
X0048508Y0078888D02*
X0047121Y0078888D01*
X0047110Y0078851D02*
X0048435Y0078851D01*
X0048362Y0078813D02*
X0047099Y0078813D01*
X0047088Y0078775D02*
X0048307Y0078775D01*
X0048279Y0078737D02*
X0047077Y0078737D01*
X0047066Y0078699D02*
X0048250Y0078699D01*
X0048221Y0078661D02*
X0047055Y0078661D01*
X0047045Y0078623D02*
X0048193Y0078623D01*
X0048164Y0078585D02*
X0047041Y0078585D01*
X0047038Y0078547D02*
X0048144Y0078547D01*
X0048137Y0078510D02*
X0047034Y0078510D01*
X0047031Y0078472D02*
X0048130Y0078472D01*
X0048123Y0078434D02*
X0047028Y0078434D01*
X0047024Y0078396D02*
X0048116Y0078396D01*
X0048109Y0078358D02*
X0047021Y0078358D01*
X0047017Y0078320D02*
X0048102Y0078320D01*
X0048096Y0078282D02*
X0047014Y0078282D01*
X0047018Y0078244D02*
X0048089Y0078244D01*
X0048094Y0078207D02*
X0047022Y0078207D01*
X0047025Y0078169D02*
X0048101Y0078169D01*
X0048109Y0078131D02*
X0047029Y0078131D01*
X0047033Y0078093D02*
X0048116Y0078093D01*
X0048123Y0078055D02*
X0047036Y0078055D01*
X0047040Y0078017D02*
X0048130Y0078017D01*
X0048138Y0077979D02*
X0047044Y0077979D01*
X0047047Y0077941D02*
X0048148Y0077941D01*
X0048174Y0077903D02*
X0047051Y0077903D01*
X0047055Y0077866D02*
X0048201Y0077866D01*
X0048227Y0077828D02*
X0047067Y0077828D01*
X0047080Y0077790D02*
X0048254Y0077790D01*
X0048280Y0077752D02*
X0047092Y0077752D01*
X0047105Y0077714D02*
X0048307Y0077714D01*
X0048367Y0077676D02*
X0047117Y0077676D01*
X0047130Y0077638D02*
X0048431Y0077638D01*
X0048495Y0077600D02*
X0047142Y0077600D01*
X0047155Y0077563D02*
X0048559Y0077563D01*
X0048773Y0077525D02*
X0047167Y0077525D01*
X0047965Y0076767D02*
X0050836Y0076767D01*
X0050836Y0076729D02*
X0048059Y0076729D01*
X0048153Y0076691D02*
X0050836Y0076691D01*
X0050836Y0076653D02*
X0048282Y0076653D01*
X0048456Y0076616D02*
X0050836Y0076616D01*
X0050836Y0076578D02*
X0048748Y0076578D01*
X0049774Y0076540D02*
X0050836Y0076540D01*
X0050836Y0076502D02*
X0049774Y0076502D01*
X0049774Y0076464D02*
X0050836Y0076464D01*
X0050836Y0076426D02*
X0049774Y0076426D01*
X0049774Y0076388D02*
X0050836Y0076388D01*
X0050836Y0076350D02*
X0049774Y0076350D01*
X0049774Y0076312D02*
X0050836Y0076312D01*
X0050836Y0076275D02*
X0049774Y0076275D01*
X0049774Y0076237D02*
X0050836Y0076237D01*
X0050836Y0076199D02*
X0049774Y0076199D01*
X0049774Y0076161D02*
X0050836Y0076161D01*
X0050836Y0076123D02*
X0049774Y0076123D01*
X0049774Y0076085D02*
X0050836Y0076085D01*
X0050836Y0076047D02*
X0049774Y0076047D01*
X0049774Y0076009D02*
X0050836Y0076009D01*
X0050836Y0075972D02*
X0049774Y0075972D01*
X0049774Y0075934D02*
X0050836Y0075934D01*
X0050836Y0075896D02*
X0049774Y0075896D01*
X0049774Y0075858D02*
X0050836Y0075858D01*
X0050836Y0075820D02*
X0049774Y0075820D01*
X0049774Y0075782D02*
X0050836Y0075782D01*
X0050836Y0075744D02*
X0049774Y0075744D01*
X0049774Y0075706D02*
X0050836Y0075706D01*
X0050836Y0075668D02*
X0049774Y0075668D01*
X0049774Y0075631D02*
X0050836Y0075631D01*
X0050836Y0075593D02*
X0049774Y0075593D01*
X0049774Y0075555D02*
X0050836Y0075555D01*
X0050836Y0075517D02*
X0049774Y0075517D01*
X0049774Y0075479D02*
X0050836Y0075479D01*
X0050836Y0075441D02*
X0049774Y0075441D01*
X0049774Y0075403D02*
X0050836Y0075403D01*
X0050836Y0075365D02*
X0049774Y0075365D01*
X0049774Y0075328D02*
X0050836Y0075328D01*
X0050836Y0075290D02*
X0049774Y0075290D01*
X0049774Y0075252D02*
X0050836Y0075252D01*
X0050836Y0075214D02*
X0049774Y0075214D01*
X0049774Y0075176D02*
X0050836Y0075176D01*
X0050836Y0075138D02*
X0049774Y0075138D01*
X0051887Y0075886D02*
X0051790Y0076185D01*
X0051758Y0076523D01*
X0051758Y0076552D01*
X0051782Y0076846D01*
X0051858Y0077095D01*
X0051984Y0077308D01*
X0052157Y0077491D01*
X0052640Y0077779D01*
X0053295Y0077995D01*
X0053810Y0078139D01*
X0054130Y0078269D01*
X0054292Y0078424D01*
X0054335Y0078629D01*
X0054335Y0078643D01*
X0054320Y0078707D01*
X0055371Y0078707D01*
X0055386Y0078546D01*
X0055386Y0078532D01*
X0055357Y0078203D01*
X0055271Y0077930D01*
X0055134Y0077708D01*
X0054951Y0077527D01*
X0054447Y0077254D01*
X0053781Y0077052D01*
X0053288Y0076908D01*
X0052989Y0076771D01*
X0052845Y0076624D01*
X0052805Y0076440D01*
X0052805Y0076426D01*
X0051767Y0076426D01*
X0051771Y0076388D02*
X0052814Y0076388D01*
X0052805Y0076426D02*
X0052851Y0076234D01*
X0052989Y0076091D01*
X0053208Y0076000D01*
X0053504Y0075968D01*
X0053902Y0076008D01*
X0054267Y0076127D01*
X0054611Y0076313D01*
X0054947Y0076555D01*
X0055574Y0075803D01*
X0055116Y0075460D01*
X0054609Y0075220D01*
X0054072Y0075077D01*
X0053525Y0075029D01*
X0053150Y0075054D01*
X0052809Y0075130D01*
X0052508Y0075252D01*
X0052251Y0075418D01*
X0052043Y0075630D01*
X0051887Y0075886D01*
X0051884Y0075896D02*
X0055496Y0075896D01*
X0055465Y0075934D02*
X0051872Y0075934D01*
X0051859Y0075972D02*
X0053475Y0075972D01*
X0053534Y0075972D02*
X0055433Y0075972D01*
X0055402Y0076009D02*
X0053905Y0076009D01*
X0054021Y0076047D02*
X0055370Y0076047D01*
X0055339Y0076085D02*
X0054138Y0076085D01*
X0054255Y0076123D02*
X0055307Y0076123D01*
X0055275Y0076161D02*
X0054330Y0076161D01*
X0054400Y0076199D02*
X0055244Y0076199D01*
X0055212Y0076237D02*
X0054470Y0076237D01*
X0054540Y0076275D02*
X0055181Y0076275D01*
X0055149Y0076312D02*
X0054611Y0076312D01*
X0054663Y0076350D02*
X0055118Y0076350D01*
X0055086Y0076388D02*
X0054716Y0076388D01*
X0054768Y0076426D02*
X0055055Y0076426D01*
X0055023Y0076464D02*
X0054821Y0076464D01*
X0054873Y0076502D02*
X0054992Y0076502D01*
X0054960Y0076540D02*
X0054926Y0076540D01*
X0054527Y0077297D02*
X0051977Y0077297D01*
X0051955Y0077259D02*
X0054458Y0077259D01*
X0054341Y0077222D02*
X0051933Y0077222D01*
X0051910Y0077184D02*
X0054216Y0077184D01*
X0054091Y0077146D02*
X0051888Y0077146D01*
X0051866Y0077108D02*
X0053966Y0077108D01*
X0053840Y0077070D02*
X0051851Y0077070D01*
X0051839Y0077032D02*
X0053713Y0077032D01*
X0053583Y0076994D02*
X0051828Y0076994D01*
X0051816Y0076956D02*
X0053453Y0076956D01*
X0053324Y0076919D02*
X0051804Y0076919D01*
X0051793Y0076881D02*
X0053228Y0076881D01*
X0053145Y0076843D02*
X0051782Y0076843D01*
X0051779Y0076805D02*
X0053062Y0076805D01*
X0052985Y0076767D02*
X0051776Y0076767D01*
X0051773Y0076729D02*
X0052948Y0076729D01*
X0052911Y0076691D02*
X0051769Y0076691D01*
X0051766Y0076653D02*
X0052874Y0076653D01*
X0052843Y0076616D02*
X0051763Y0076616D01*
X0051760Y0076578D02*
X0052835Y0076578D01*
X0052827Y0076540D02*
X0051758Y0076540D01*
X0051760Y0076502D02*
X0052819Y0076502D01*
X0052810Y0076464D02*
X0051763Y0076464D01*
X0051774Y0076350D02*
X0052823Y0076350D01*
X0052832Y0076312D02*
X0051778Y0076312D01*
X0051781Y0076275D02*
X0052841Y0076275D01*
X0052851Y0076237D02*
X0051785Y0076237D01*
X0051789Y0076199D02*
X0052885Y0076199D01*
X0052921Y0076161D02*
X0051798Y0076161D01*
X0051810Y0076123D02*
X0052958Y0076123D01*
X0053002Y0076085D02*
X0051822Y0076085D01*
X0051835Y0076047D02*
X0053094Y0076047D01*
X0053186Y0076009D02*
X0051847Y0076009D01*
X0051904Y0075858D02*
X0055528Y0075858D01*
X0055559Y0075820D02*
X0051927Y0075820D01*
X0051950Y0075782D02*
X0055546Y0075782D01*
X0055495Y0075744D02*
X0051973Y0075744D01*
X0051997Y0075706D02*
X0055445Y0075706D01*
X0055394Y0075668D02*
X0052020Y0075668D01*
X0052043Y0075631D02*
X0055343Y0075631D01*
X0055293Y0075593D02*
X0052080Y0075593D01*
X0052117Y0075555D02*
X0055242Y0075555D01*
X0055192Y0075517D02*
X0052154Y0075517D01*
X0052191Y0075479D02*
X0055141Y0075479D01*
X0055076Y0075441D02*
X0052228Y0075441D01*
X0052273Y0075403D02*
X0054996Y0075403D01*
X0054916Y0075365D02*
X0052332Y0075365D01*
X0052391Y0075328D02*
X0054836Y0075328D01*
X0054756Y0075290D02*
X0052450Y0075290D01*
X0052509Y0075252D02*
X0054677Y0075252D01*
X0054587Y0075214D02*
X0052602Y0075214D01*
X0052695Y0075176D02*
X0054445Y0075176D01*
X0054303Y0075138D02*
X0052788Y0075138D01*
X0052941Y0075100D02*
X0054160Y0075100D01*
X0053908Y0075062D02*
X0053110Y0075062D01*
X0052009Y0077335D02*
X0054597Y0077335D01*
X0054667Y0077373D02*
X0052045Y0077373D01*
X0052081Y0077411D02*
X0054737Y0077411D01*
X0054807Y0077449D02*
X0052117Y0077449D01*
X0052153Y0077487D02*
X0054876Y0077487D01*
X0054946Y0077525D02*
X0052213Y0077525D01*
X0052277Y0077563D02*
X0054987Y0077563D01*
X0055025Y0077600D02*
X0052340Y0077600D01*
X0052404Y0077638D02*
X0055063Y0077638D01*
X0055101Y0077676D02*
X0052467Y0077676D01*
X0052530Y0077714D02*
X0055137Y0077714D01*
X0055161Y0077752D02*
X0052594Y0077752D01*
X0052672Y0077790D02*
X0055184Y0077790D01*
X0055208Y0077828D02*
X0052787Y0077828D01*
X0052902Y0077866D02*
X0055231Y0077866D01*
X0055255Y0077903D02*
X0053016Y0077903D01*
X0053131Y0077941D02*
X0055275Y0077941D01*
X0055287Y0077979D02*
X0053246Y0077979D01*
X0053373Y0078017D02*
X0055299Y0078017D01*
X0055311Y0078055D02*
X0053508Y0078055D01*
X0053644Y0078093D02*
X0055322Y0078093D01*
X0055334Y0078131D02*
X0053779Y0078131D01*
X0053882Y0078169D02*
X0055346Y0078169D01*
X0055358Y0078207D02*
X0053976Y0078207D01*
X0054070Y0078244D02*
X0055361Y0078244D01*
X0055364Y0078282D02*
X0054144Y0078282D01*
X0054184Y0078320D02*
X0055368Y0078320D01*
X0055371Y0078358D02*
X0054223Y0078358D01*
X0054263Y0078396D02*
X0055374Y0078396D01*
X0055378Y0078434D02*
X0054294Y0078434D01*
X0054302Y0078472D02*
X0055381Y0078472D01*
X0055384Y0078510D02*
X0054310Y0078510D01*
X0054318Y0078547D02*
X0055386Y0078547D01*
X0055383Y0078585D02*
X0054326Y0078585D01*
X0054334Y0078623D02*
X0055379Y0078623D01*
X0055376Y0078661D02*
X0054331Y0078661D01*
X0054322Y0078699D02*
X0055372Y0078699D01*
X0055371Y0078707D02*
X0054320Y0078707D01*
X0054297Y0078808D01*
X0054180Y0078942D01*
X0053986Y0079033D01*
X0053716Y0079064D01*
X0053406Y0079032D01*
X0053097Y0078938D01*
X0052677Y0078707D01*
X0052463Y0078589D01*
X0052382Y0078707D01*
X0052677Y0078707D01*
X0052382Y0078707D01*
X0051912Y0079388D01*
X0052304Y0079650D01*
X0052730Y0079842D01*
X0053196Y0079960D01*
X0053705Y0080000D01*
X0054062Y0079974D01*
X0054386Y0079896D01*
X0054674Y0079770D01*
X0054918Y0079601D01*
X0055116Y0079390D01*
X0055264Y0079144D01*
X0055356Y0078862D01*
X0055371Y0078707D01*
X0055368Y0078737D02*
X0054313Y0078737D01*
X0054305Y0078775D02*
X0055365Y0078775D01*
X0055361Y0078813D02*
X0054292Y0078813D01*
X0054260Y0078851D02*
X0055358Y0078851D01*
X0055348Y0078888D02*
X0054227Y0078888D01*
X0054194Y0078926D02*
X0055335Y0078926D01*
X0055323Y0078964D02*
X0054133Y0078964D01*
X0054052Y0079002D02*
X0055311Y0079002D01*
X0055298Y0079040D02*
X0053925Y0079040D01*
X0053479Y0079040D02*
X0052153Y0079040D01*
X0052179Y0079002D02*
X0053306Y0079002D01*
X0053182Y0078964D02*
X0052205Y0078964D01*
X0052231Y0078926D02*
X0053075Y0078926D01*
X0053006Y0078888D02*
X0052257Y0078888D01*
X0052283Y0078851D02*
X0052937Y0078851D01*
X0052868Y0078813D02*
X0052309Y0078813D01*
X0052335Y0078775D02*
X0052800Y0078775D01*
X0052731Y0078737D02*
X0052362Y0078737D01*
X0052388Y0078699D02*
X0052662Y0078699D01*
X0052594Y0078661D02*
X0052414Y0078661D01*
X0052440Y0078623D02*
X0052525Y0078623D01*
X0052127Y0079078D02*
X0055286Y0079078D01*
X0055273Y0079116D02*
X0052100Y0079116D01*
X0052074Y0079154D02*
X0055258Y0079154D01*
X0055235Y0079191D02*
X0052048Y0079191D01*
X0052022Y0079229D02*
X0055212Y0079229D01*
X0055189Y0079267D02*
X0051996Y0079267D01*
X0051970Y0079305D02*
X0055167Y0079305D01*
X0055144Y0079343D02*
X0051944Y0079343D01*
X0051918Y0079381D02*
X0055121Y0079381D01*
X0055088Y0079419D02*
X0051958Y0079419D01*
X0052014Y0079457D02*
X0055053Y0079457D01*
X0055018Y0079494D02*
X0052071Y0079494D01*
X0052127Y0079532D02*
X0054982Y0079532D01*
X0054947Y0079570D02*
X0052184Y0079570D01*
X0052240Y0079608D02*
X0054908Y0079608D01*
X0054853Y0079646D02*
X0052297Y0079646D01*
X0052378Y0079684D02*
X0054798Y0079684D01*
X0054743Y0079722D02*
X0052462Y0079722D01*
X0052546Y0079760D02*
X0054689Y0079760D01*
X0054611Y0079798D02*
X0052631Y0079798D01*
X0052715Y0079835D02*
X0054524Y0079835D01*
X0054438Y0079873D02*
X0052853Y0079873D01*
X0053002Y0079911D02*
X0054323Y0079911D01*
X0054165Y0079949D02*
X0053151Y0079949D01*
X0053534Y0079987D02*
X0053887Y0079987D01*
X0050836Y0079911D02*
X0048450Y0079911D01*
X0048298Y0079873D02*
X0050836Y0079873D01*
X0050836Y0079835D02*
X0048146Y0079835D01*
X0048036Y0079798D02*
X0050836Y0079798D01*
X0050836Y0079760D02*
X0047955Y0079760D01*
X0047874Y0079722D02*
X0050836Y0079722D01*
X0050836Y0079684D02*
X0047792Y0079684D01*
X0047733Y0079646D02*
X0050836Y0079646D01*
X0050836Y0079608D02*
X0047681Y0079608D01*
X0047630Y0079570D02*
X0050836Y0079570D01*
X0050836Y0079532D02*
X0047579Y0079532D01*
X0047528Y0079494D02*
X0050836Y0079494D01*
X0050836Y0079457D02*
X0047487Y0079457D01*
X0047454Y0079419D02*
X0050836Y0079419D01*
X0050836Y0079381D02*
X0047421Y0079381D01*
X0047388Y0079343D02*
X0050836Y0079343D01*
X0050836Y0079305D02*
X0047355Y0079305D01*
X0047322Y0079267D02*
X0050836Y0079267D01*
X0050836Y0079229D02*
X0047291Y0079229D01*
X0047270Y0079191D02*
X0050836Y0079191D01*
X0050836Y0079154D02*
X0047250Y0079154D01*
X0047229Y0079116D02*
X0050836Y0079116D01*
X0050836Y0079078D02*
X0047209Y0079078D01*
X0047188Y0079040D02*
X0050836Y0079040D01*
X0050836Y0079002D02*
X0047167Y0079002D01*
X0045098Y0078737D02*
X0043067Y0078737D01*
X0043084Y0078775D02*
X0045082Y0078775D01*
X0045066Y0078813D02*
X0043100Y0078813D01*
X0043116Y0078851D02*
X0045049Y0078851D01*
X0045033Y0078888D02*
X0043132Y0078888D01*
X0043148Y0078926D02*
X0045017Y0078926D01*
X0045001Y0078964D02*
X0043164Y0078964D01*
X0043180Y0079002D02*
X0044985Y0079002D01*
X0044969Y0079040D02*
X0043196Y0079040D01*
X0043212Y0079078D02*
X0044953Y0079078D01*
X0044936Y0079116D02*
X0043229Y0079116D01*
X0043245Y0079154D02*
X0044920Y0079154D01*
X0044904Y0079191D02*
X0043261Y0079191D01*
X0043277Y0079229D02*
X0044888Y0079229D01*
X0044872Y0079267D02*
X0043293Y0079267D01*
X0043309Y0079305D02*
X0044856Y0079305D01*
X0044840Y0079343D02*
X0043325Y0079343D01*
X0043341Y0079381D02*
X0044824Y0079381D01*
X0044807Y0079419D02*
X0043358Y0079419D01*
X0043374Y0079457D02*
X0044791Y0079457D01*
X0044775Y0079494D02*
X0043390Y0079494D01*
X0043406Y0079532D02*
X0044759Y0079532D01*
X0044743Y0079570D02*
X0043422Y0079570D01*
X0043438Y0079608D02*
X0044727Y0079608D01*
X0044711Y0079646D02*
X0043454Y0079646D01*
X0043470Y0079684D02*
X0044695Y0079684D01*
X0044678Y0079722D02*
X0043486Y0079722D01*
X0043503Y0079760D02*
X0044662Y0079760D01*
X0044646Y0079798D02*
X0043519Y0079798D01*
X0043535Y0079835D02*
X0044630Y0079835D01*
X0044614Y0079873D02*
X0043551Y0079873D01*
X0043567Y0079911D02*
X0044598Y0079911D01*
X0044582Y0079949D02*
X0043583Y0079949D01*
X0034654Y0077903D02*
X0033436Y0077903D01*
X0033400Y0077941D02*
X0034619Y0077941D01*
X0034584Y0077979D02*
X0033363Y0077979D01*
X0033327Y0078017D02*
X0034549Y0078017D01*
X0034513Y0078055D02*
X0033291Y0078055D01*
X0033254Y0078093D02*
X0034478Y0078093D01*
X0034443Y0078131D02*
X0033218Y0078131D01*
X0033182Y0078169D02*
X0034408Y0078169D01*
X0034373Y0078207D02*
X0033145Y0078207D01*
X0033109Y0078244D02*
X0034338Y0078244D01*
X0034302Y0078282D02*
X0033073Y0078282D01*
X0033036Y0078320D02*
X0034267Y0078320D01*
X0034232Y0078358D02*
X0033000Y0078358D01*
X0032963Y0078396D02*
X0034197Y0078396D01*
X0034162Y0078434D02*
X0032927Y0078434D01*
X0032891Y0078472D02*
X0034127Y0078472D01*
X0034091Y0078510D02*
X0032854Y0078510D01*
X0032818Y0078547D02*
X0034056Y0078547D01*
X0034021Y0078585D02*
X0032782Y0078585D01*
X0032745Y0078623D02*
X0033986Y0078623D01*
X0033951Y0078661D02*
X0032709Y0078661D01*
X0032673Y0078699D02*
X0033916Y0078699D01*
X0033880Y0078737D02*
X0032636Y0078737D01*
X0032600Y0078775D02*
X0033845Y0078775D01*
X0033810Y0078813D02*
X0032564Y0078813D01*
X0032527Y0078851D02*
X0033775Y0078851D01*
X0033740Y0078888D02*
X0032491Y0078888D01*
X0032455Y0078926D02*
X0033705Y0078926D01*
X0033669Y0078964D02*
X0032418Y0078964D01*
X0032382Y0079002D02*
X0033634Y0079002D01*
X0033599Y0079040D02*
X0032346Y0079040D01*
X0032309Y0079078D02*
X0033564Y0079078D01*
X0033529Y0079116D02*
X0032273Y0079116D01*
X0032236Y0079154D02*
X0033494Y0079154D01*
X0033458Y0079191D02*
X0032200Y0079191D01*
X0032164Y0079229D02*
X0033423Y0079229D01*
X0033388Y0079267D02*
X0032127Y0079267D01*
X0032091Y0079305D02*
X0033353Y0079305D01*
X0033318Y0079343D02*
X0032055Y0079343D01*
X0032018Y0079381D02*
X0033283Y0079381D01*
X0033247Y0079419D02*
X0031982Y0079419D01*
X0031946Y0079457D02*
X0033212Y0079457D01*
X0033177Y0079494D02*
X0031909Y0079494D01*
X0031873Y0079532D02*
X0033142Y0079532D01*
X0033107Y0079570D02*
X0031837Y0079570D01*
X0031800Y0079608D02*
X0033072Y0079608D01*
X0033036Y0079646D02*
X0031764Y0079646D01*
X0031728Y0079684D02*
X0033001Y0079684D01*
X0032966Y0079722D02*
X0031691Y0079722D01*
X0031655Y0079760D02*
X0032931Y0079760D01*
X0032896Y0079798D02*
X0031619Y0079798D01*
X0031582Y0079835D02*
X0032861Y0079835D01*
X0032825Y0079873D02*
X0031546Y0079873D01*
X0031509Y0079911D02*
X0032790Y0079911D01*
X0030042Y0079911D02*
X0028244Y0079911D01*
X0028218Y0079873D02*
X0030042Y0079873D01*
X0030042Y0079835D02*
X0028192Y0079835D01*
X0028167Y0079798D02*
X0030042Y0079798D01*
X0030042Y0079760D02*
X0028141Y0079760D01*
X0028115Y0079722D02*
X0030042Y0079722D01*
X0030042Y0079684D02*
X0028089Y0079684D01*
X0028064Y0079646D02*
X0030042Y0079646D01*
X0030042Y0079608D02*
X0028038Y0079608D01*
X0028012Y0079570D02*
X0030042Y0079570D01*
X0030042Y0079532D02*
X0027986Y0079532D01*
X0027961Y0079494D02*
X0030042Y0079494D01*
X0030042Y0079457D02*
X0027935Y0079457D01*
X0027909Y0079419D02*
X0030042Y0079419D01*
X0030042Y0079381D02*
X0027883Y0079381D01*
X0027857Y0079343D02*
X0030042Y0079343D01*
X0030042Y0079305D02*
X0027832Y0079305D01*
X0027806Y0079267D02*
X0030042Y0079267D01*
X0030042Y0079229D02*
X0027780Y0079229D01*
X0027754Y0079191D02*
X0030042Y0079191D01*
X0030042Y0079154D02*
X0027729Y0079154D01*
X0027703Y0079116D02*
X0030042Y0079116D01*
X0030042Y0079078D02*
X0027677Y0079078D01*
X0027651Y0079040D02*
X0030042Y0079040D01*
X0030042Y0079002D02*
X0027626Y0079002D01*
X0027600Y0078964D02*
X0030042Y0078964D01*
X0030042Y0078926D02*
X0027574Y0078926D01*
X0027548Y0078888D02*
X0030042Y0078888D01*
X0030042Y0078851D02*
X0027523Y0078851D01*
X0027497Y0078813D02*
X0030042Y0078813D01*
X0030042Y0078775D02*
X0027471Y0078775D01*
X0027445Y0078737D02*
X0030042Y0078737D01*
X0030042Y0078699D02*
X0027420Y0078699D01*
X0027394Y0078661D02*
X0030042Y0078661D01*
X0030042Y0078623D02*
X0027368Y0078623D01*
X0027342Y0078585D02*
X0030042Y0078585D01*
X0030042Y0078547D02*
X0027317Y0078547D01*
X0027291Y0078510D02*
X0030042Y0078510D01*
X0030042Y0078472D02*
X0027265Y0078472D01*
X0027239Y0078434D02*
X0030042Y0078434D01*
X0030042Y0078396D02*
X0027214Y0078396D01*
X0027188Y0078358D02*
X0030042Y0078358D01*
X0030042Y0078320D02*
X0027162Y0078320D01*
X0027136Y0078282D02*
X0030042Y0078282D01*
X0030042Y0078244D02*
X0027111Y0078244D01*
X0027085Y0078207D02*
X0030042Y0078207D01*
X0030042Y0078169D02*
X0027059Y0078169D01*
X0027033Y0078131D02*
X0030042Y0078131D01*
X0030042Y0078093D02*
X0027008Y0078093D01*
X0026982Y0078055D02*
X0030042Y0078055D01*
X0030042Y0078017D02*
X0026956Y0078017D01*
X0026930Y0077979D02*
X0030042Y0077979D01*
X0030042Y0077941D02*
X0026905Y0077941D01*
X0026879Y0077903D02*
X0030042Y0077903D01*
X0030042Y0077866D02*
X0026853Y0077866D01*
X0026827Y0077828D02*
X0030042Y0077828D01*
X0030042Y0077790D02*
X0026802Y0077790D01*
X0026776Y0077752D02*
X0030042Y0077752D01*
X0030042Y0077714D02*
X0026750Y0077714D01*
X0026724Y0077676D02*
X0030042Y0077676D01*
X0030042Y0077638D02*
X0026699Y0077638D01*
X0026673Y0077600D02*
X0030042Y0077600D01*
X0030042Y0077563D02*
X0026648Y0077563D01*
X0026674Y0077525D02*
X0030042Y0077525D01*
X0030042Y0077487D02*
X0026700Y0077487D01*
X0026726Y0077449D02*
X0030042Y0077449D01*
X0030042Y0077411D02*
X0026752Y0077411D01*
X0026778Y0077373D02*
X0030042Y0077373D01*
X0030042Y0077335D02*
X0026804Y0077335D01*
X0026830Y0077297D02*
X0030042Y0077297D01*
X0030042Y0079949D02*
X0022000Y0079949D01*
X0022000Y0079911D02*
X0023792Y0079911D01*
X0023817Y0079873D02*
X0022000Y0079873D01*
X0022000Y0079835D02*
X0023843Y0079835D01*
X0023869Y0079798D02*
X0022000Y0079798D01*
X0022000Y0079760D02*
X0023895Y0079760D01*
X0023921Y0079722D02*
X0022000Y0079722D01*
X0022000Y0079684D02*
X0023947Y0079684D01*
X0023973Y0079646D02*
X0022000Y0079646D01*
X0022000Y0079608D02*
X0023999Y0079608D01*
X0024025Y0079570D02*
X0022000Y0079570D01*
X0022000Y0079532D02*
X0024051Y0079532D01*
X0024077Y0079494D02*
X0022000Y0079494D01*
X0022000Y0079457D02*
X0024102Y0079457D01*
X0024128Y0079419D02*
X0022000Y0079419D01*
X0022000Y0079381D02*
X0024154Y0079381D01*
X0024180Y0079343D02*
X0022000Y0079343D01*
X0022000Y0079305D02*
X0024206Y0079305D01*
X0024232Y0079267D02*
X0022000Y0079267D01*
X0022000Y0079229D02*
X0024258Y0079229D01*
X0024284Y0079191D02*
X0022000Y0079191D01*
X0022000Y0079154D02*
X0024310Y0079154D01*
X0024336Y0079116D02*
X0022000Y0079116D01*
X0022000Y0079078D02*
X0024362Y0079078D01*
X0024387Y0079040D02*
X0022000Y0079040D01*
X0022000Y0079002D02*
X0024413Y0079002D01*
X0024439Y0078964D02*
X0022000Y0078964D01*
X0022000Y0078926D02*
X0024465Y0078926D01*
X0024491Y0078888D02*
X0022000Y0078888D01*
X0022000Y0078851D02*
X0024517Y0078851D01*
X0024543Y0078813D02*
X0022000Y0078813D01*
X0022000Y0078775D02*
X0024569Y0078775D01*
X0024595Y0078737D02*
X0022000Y0078737D01*
X0022000Y0078699D02*
X0024621Y0078699D01*
X0024647Y0078661D02*
X0022000Y0078661D01*
X0022000Y0078623D02*
X0024672Y0078623D01*
X0024698Y0078585D02*
X0022000Y0078585D01*
X0022000Y0078547D02*
X0024724Y0078547D01*
X0024750Y0078510D02*
X0022000Y0078510D01*
X0022000Y0078472D02*
X0024776Y0078472D01*
X0024802Y0078434D02*
X0022000Y0078434D01*
X0022000Y0078396D02*
X0024828Y0078396D01*
X0024854Y0078358D02*
X0022000Y0078358D01*
X0022000Y0078320D02*
X0024880Y0078320D01*
X0024906Y0078282D02*
X0022000Y0078282D01*
X0022000Y0078244D02*
X0024932Y0078244D01*
X0024957Y0078207D02*
X0022000Y0078207D01*
X0022000Y0078169D02*
X0024983Y0078169D01*
X0025009Y0078131D02*
X0022000Y0078131D01*
X0022000Y0078093D02*
X0025035Y0078093D01*
X0025061Y0078055D02*
X0022000Y0078055D01*
X0022000Y0078017D02*
X0025087Y0078017D01*
X0025113Y0077979D02*
X0022000Y0077979D01*
X0022000Y0077941D02*
X0025139Y0077941D01*
X0025165Y0077903D02*
X0022000Y0077903D01*
X0022000Y0077866D02*
X0025191Y0077866D01*
X0025217Y0077828D02*
X0022000Y0077828D01*
X0022000Y0077790D02*
X0025242Y0077790D01*
X0025268Y0077752D02*
X0022000Y0077752D01*
X0022000Y0077714D02*
X0025294Y0077714D01*
X0025320Y0077676D02*
X0022000Y0077676D01*
X0022000Y0077638D02*
X0025346Y0077638D01*
X0025372Y0077600D02*
X0022000Y0077600D01*
X0022000Y0077563D02*
X0025377Y0077563D01*
X0025351Y0077525D02*
X0022000Y0077525D01*
X0022000Y0077487D02*
X0025326Y0077487D01*
X0025300Y0077449D02*
X0022000Y0077449D01*
X0022000Y0077411D02*
X0025274Y0077411D01*
X0025248Y0077373D02*
X0022000Y0077373D01*
X0022000Y0077335D02*
X0025222Y0077335D01*
X0025196Y0077297D02*
X0022000Y0077297D01*
X0022000Y0077259D02*
X0025170Y0077259D01*
X0025145Y0077222D02*
X0022000Y0077222D01*
X0022000Y0077184D02*
X0025119Y0077184D01*
X0025093Y0077146D02*
X0022000Y0077146D01*
X0022000Y0077108D02*
X0025067Y0077108D01*
X0025041Y0077070D02*
X0022000Y0077070D01*
X0022000Y0079987D02*
X0030042Y0079987D01*
X0030042Y0080025D02*
X0022000Y0080025D01*
X0022000Y0080063D02*
X0030042Y0080063D01*
X0030042Y0080101D02*
X0022000Y0080101D01*
X0022000Y0080138D02*
X0030042Y0080138D01*
X0030042Y0080176D02*
X0022000Y0080176D01*
X0022000Y0080214D02*
X0030042Y0080214D01*
X0030042Y0080252D02*
X0022000Y0080252D01*
X0022000Y0080290D02*
X0030042Y0080290D01*
X0030042Y0080328D02*
X0022000Y0080328D01*
X0022000Y0080366D02*
X0030042Y0080366D01*
X0030042Y0080404D02*
X0022000Y0080404D01*
X0022000Y0080442D02*
X0030042Y0080442D01*
X0030042Y0080479D02*
X0022000Y0080479D01*
X0022000Y0080517D02*
X0030042Y0080517D01*
X0030042Y0080555D02*
X0022000Y0080555D01*
X0022000Y0080593D02*
X0030042Y0080593D01*
X0030042Y0080631D02*
X0022000Y0080631D01*
X0022000Y0080669D02*
X0030042Y0080669D01*
X0030042Y0080707D02*
X0022000Y0080707D01*
X0022000Y0080745D02*
X0030042Y0080745D01*
X0030042Y0080782D02*
X0022000Y0080782D01*
X0022000Y0080820D02*
X0030042Y0080820D01*
X0030042Y0080858D02*
X0022000Y0080858D01*
X0022000Y0080896D02*
X0030042Y0080896D01*
X0030042Y0080934D02*
X0022000Y0080934D01*
X0022000Y0080972D02*
X0030042Y0080972D01*
X0030042Y0081010D02*
X0022000Y0081010D01*
X0022000Y0081048D02*
X0030042Y0081048D01*
X0030042Y0081086D02*
X0022000Y0081086D01*
X0022000Y0081123D02*
X0030042Y0081123D01*
X0030042Y0081161D02*
X0022000Y0081161D01*
X0022000Y0081199D02*
X0030042Y0081199D01*
X0030042Y0081237D02*
X0022000Y0081237D01*
X0022000Y0081275D02*
X0030042Y0081275D01*
X0030042Y0081313D02*
X0022000Y0081313D01*
X0022000Y0081351D02*
X0030042Y0081351D01*
X0030042Y0081389D02*
X0022000Y0081389D01*
X0022000Y0081426D02*
X0030042Y0081426D01*
X0030042Y0081464D02*
X0022000Y0081464D01*
X0022000Y0081502D02*
X0030042Y0081502D01*
X0030042Y0081540D02*
X0022000Y0081540D01*
X0022000Y0081578D02*
X0030042Y0081578D01*
X0027003Y0079911D02*
X0024997Y0079911D01*
X0025021Y0079873D02*
X0026978Y0079873D01*
X0026953Y0079835D02*
X0025046Y0079835D01*
X0025071Y0079798D02*
X0026929Y0079798D01*
X0026904Y0079760D02*
X0025096Y0079760D01*
X0025120Y0079722D02*
X0026880Y0079722D01*
X0026855Y0079684D02*
X0025145Y0079684D01*
X0025170Y0079646D02*
X0026831Y0079646D01*
X0026806Y0079608D02*
X0025195Y0079608D01*
X0025219Y0079570D02*
X0026782Y0079570D01*
X0026757Y0079532D02*
X0025244Y0079532D01*
X0025269Y0079494D02*
X0026732Y0079494D01*
X0026708Y0079457D02*
X0025294Y0079457D01*
X0025318Y0079419D02*
X0026683Y0079419D01*
X0026659Y0079381D02*
X0025343Y0079381D01*
X0025368Y0079343D02*
X0026634Y0079343D01*
X0026610Y0079305D02*
X0025392Y0079305D01*
X0025417Y0079267D02*
X0026585Y0079267D01*
X0026561Y0079229D02*
X0025442Y0079229D01*
X0025467Y0079191D02*
X0026536Y0079191D01*
X0026511Y0079154D02*
X0025491Y0079154D01*
X0025516Y0079116D02*
X0026487Y0079116D01*
X0026462Y0079078D02*
X0025541Y0079078D01*
X0025566Y0079040D02*
X0026438Y0079040D01*
X0026413Y0079002D02*
X0025590Y0079002D01*
X0025615Y0078964D02*
X0026389Y0078964D01*
X0026364Y0078926D02*
X0025640Y0078926D01*
X0025665Y0078888D02*
X0026340Y0078888D01*
X0026315Y0078851D02*
X0025689Y0078851D01*
X0025714Y0078813D02*
X0026290Y0078813D01*
X0026266Y0078775D02*
X0025739Y0078775D01*
X0025763Y0078737D02*
X0026241Y0078737D01*
X0026217Y0078699D02*
X0025788Y0078699D01*
X0025813Y0078661D02*
X0026192Y0078661D01*
X0026168Y0078623D02*
X0025838Y0078623D01*
X0025862Y0078585D02*
X0026143Y0078585D01*
X0026118Y0078547D02*
X0025887Y0078547D01*
X0025912Y0078510D02*
X0026094Y0078510D01*
X0026069Y0078472D02*
X0025937Y0078472D01*
X0025961Y0078434D02*
X0026045Y0078434D01*
X0026020Y0078396D02*
X0025986Y0078396D01*
X0022000Y0081616D02*
X0058000Y0081616D01*
X0058000Y0081654D02*
X0022000Y0081654D01*
X0022000Y0081692D02*
X0058000Y0081692D01*
X0058000Y0081729D02*
X0022000Y0081729D01*
X0022000Y0081767D02*
X0058000Y0081767D01*
X0058000Y0081805D02*
X0022000Y0081805D01*
X0022000Y0081843D02*
X0058000Y0081843D01*
X0058000Y0081881D02*
X0022000Y0081881D01*
X0022000Y0081919D02*
X0058000Y0081919D01*
X0058000Y0081957D02*
X0022000Y0081957D01*
X0022000Y0081995D02*
X0058000Y0081995D01*
X0058000Y0082033D02*
X0022000Y0082033D01*
X0022000Y0082070D02*
X0058000Y0082070D01*
X0058000Y0082108D02*
X0022000Y0082108D01*
X0022000Y0082146D02*
X0058000Y0082146D01*
X0058000Y0082184D02*
X0022000Y0082184D01*
X0022000Y0082222D02*
X0058000Y0082222D01*
X0058000Y0082260D02*
X0022000Y0082260D01*
X0022000Y0082298D02*
X0058000Y0082298D01*
X0058000Y0082336D02*
X0022000Y0082336D01*
X0022000Y0082373D02*
X0058000Y0082373D01*
X0058000Y0082411D02*
X0022000Y0082411D01*
X0022000Y0082449D02*
X0058000Y0082449D01*
X0058000Y0082487D02*
X0022000Y0082487D01*
X0057075Y0081578D02*
X0058000Y0081578D01*
X0058000Y0081540D02*
X0057075Y0081540D01*
X0057075Y0081502D02*
X0058000Y0081502D01*
X0058000Y0081464D02*
X0057075Y0081464D01*
X0057075Y0081426D02*
X0058000Y0081426D01*
X0058000Y0081389D02*
X0057075Y0081389D01*
X0057075Y0081351D02*
X0058000Y0081351D01*
X0058000Y0081313D02*
X0057075Y0081313D01*
X0057075Y0081275D02*
X0058000Y0081275D01*
X0058000Y0081237D02*
X0057075Y0081237D01*
X0057075Y0081199D02*
X0058000Y0081199D01*
X0058000Y0081161D02*
X0057075Y0081161D01*
X0057075Y0081123D02*
X0058000Y0081123D01*
X0058000Y0081086D02*
X0057075Y0081086D01*
X0057075Y0081048D02*
X0058000Y0081048D01*
X0058000Y0081010D02*
X0057075Y0081010D01*
X0057075Y0080972D02*
X0058000Y0080972D01*
X0058000Y0080934D02*
X0057075Y0080934D01*
X0057075Y0080896D02*
X0058000Y0080896D01*
X0058000Y0080858D02*
X0057075Y0080858D01*
X0057075Y0080820D02*
X0058000Y0080820D01*
X0058000Y0080782D02*
X0057075Y0080782D01*
X0057075Y0080745D02*
X0058000Y0080745D01*
X0058000Y0080707D02*
X0057075Y0080707D01*
X0057075Y0080669D02*
X0058000Y0080669D01*
X0058000Y0080631D02*
X0057075Y0080631D01*
X0057075Y0080593D02*
X0058000Y0080593D01*
X0058000Y0080555D02*
X0057075Y0080555D01*
X0057075Y0080517D02*
X0058000Y0080517D01*
X0058000Y0080479D02*
X0057075Y0080479D01*
X0057075Y0080442D02*
X0058000Y0080442D01*
X0058000Y0080404D02*
X0057075Y0080404D01*
X0057075Y0080366D02*
X0058000Y0080366D01*
X0058000Y0080328D02*
X0057075Y0080328D01*
X0057075Y0080290D02*
X0058000Y0080290D01*
X0058000Y0080252D02*
X0057075Y0080252D01*
X0057075Y0080214D02*
X0058000Y0080214D01*
X0058000Y0080176D02*
X0057075Y0080176D01*
X0057075Y0080138D02*
X0058000Y0080138D01*
X0058000Y0080101D02*
X0057075Y0080101D01*
X0057075Y0080063D02*
X0058000Y0080063D01*
X0058000Y0080025D02*
X0057075Y0080025D01*
X0057075Y0079987D02*
X0058000Y0079987D01*
X0058000Y0079949D02*
X0057075Y0079949D01*
X0057075Y0079911D02*
X0058000Y0079911D01*
X0058000Y0079873D02*
X0057075Y0079873D01*
X0057075Y0079835D02*
X0058000Y0079835D01*
X0058000Y0079798D02*
X0057075Y0079798D01*
X0057075Y0079760D02*
X0058000Y0079760D01*
X0058000Y0079722D02*
X0057075Y0079722D01*
X0057075Y0079684D02*
X0058000Y0079684D01*
X0058000Y0079646D02*
X0057075Y0079646D01*
X0057075Y0079608D02*
X0058000Y0079608D01*
X0058000Y0079570D02*
X0057075Y0079570D01*
X0057075Y0079532D02*
X0058000Y0079532D01*
X0058000Y0079494D02*
X0057075Y0079494D01*
X0057075Y0079457D02*
X0058000Y0079457D01*
X0058000Y0079419D02*
X0057075Y0079419D01*
X0057075Y0079381D02*
X0058000Y0079381D01*
X0058000Y0079343D02*
X0057075Y0079343D01*
X0057075Y0079305D02*
X0058000Y0079305D01*
X0058000Y0079267D02*
X0057075Y0079267D01*
X0057075Y0079229D02*
X0058000Y0079229D01*
X0058000Y0079191D02*
X0057075Y0079191D01*
X0057075Y0079154D02*
X0058000Y0079154D01*
X0058000Y0079116D02*
X0057075Y0079116D01*
X0057075Y0079078D02*
X0058000Y0079078D01*
X0058000Y0079040D02*
X0057075Y0079040D01*
X0057075Y0079002D02*
X0058000Y0079002D01*
X0058000Y0078964D02*
X0057075Y0078964D01*
X0057075Y0078926D02*
X0058000Y0078926D01*
X0058000Y0078888D02*
X0057075Y0078888D01*
X0057075Y0078851D02*
X0058000Y0078851D01*
X0058000Y0078813D02*
X0057075Y0078813D01*
X0057075Y0078775D02*
X0058000Y0078775D01*
X0058000Y0078737D02*
X0057075Y0078737D01*
X0057075Y0078699D02*
X0058000Y0078699D01*
X0058000Y0078661D02*
X0057075Y0078661D01*
X0057075Y0078623D02*
X0058000Y0078623D01*
X0058000Y0078585D02*
X0057075Y0078585D01*
X0057075Y0078547D02*
X0058000Y0078547D01*
X0058000Y0078510D02*
X0057075Y0078510D01*
X0057075Y0078472D02*
X0058000Y0078472D01*
X0058000Y0078434D02*
X0057075Y0078434D01*
X0057075Y0078396D02*
X0058000Y0078396D01*
X0058000Y0078358D02*
X0057075Y0078358D01*
X0057075Y0078320D02*
X0058000Y0078320D01*
X0058000Y0078282D02*
X0057075Y0078282D01*
X0057075Y0078244D02*
X0058000Y0078244D01*
X0058000Y0078207D02*
X0057075Y0078207D01*
X0057075Y0078169D02*
X0058000Y0078169D01*
X0058000Y0078131D02*
X0057075Y0078131D01*
X0057075Y0078093D02*
X0058000Y0078093D01*
X0058000Y0078055D02*
X0057075Y0078055D01*
X0057075Y0078017D02*
X0058000Y0078017D01*
X0058000Y0077979D02*
X0057075Y0077979D01*
X0057075Y0077941D02*
X0058000Y0077941D01*
X0058000Y0077903D02*
X0057075Y0077903D01*
X0057075Y0077866D02*
X0058000Y0077866D01*
X0058000Y0077828D02*
X0057075Y0077828D01*
X0057075Y0077790D02*
X0058000Y0077790D01*
X0058000Y0077752D02*
X0057075Y0077752D01*
X0057075Y0077714D02*
X0058000Y0077714D01*
X0058000Y0077676D02*
X0057075Y0077676D01*
X0057075Y0077638D02*
X0058000Y0077638D01*
X0058000Y0077600D02*
X0057075Y0077600D01*
X0057075Y0077563D02*
X0058000Y0077563D01*
X0058000Y0077525D02*
X0057075Y0077525D01*
X0057075Y0077487D02*
X0058000Y0077487D01*
X0058000Y0077449D02*
X0057075Y0077449D01*
X0057075Y0077411D02*
X0058000Y0077411D01*
X0058000Y0077373D02*
X0057075Y0077373D01*
X0057075Y0077335D02*
X0058000Y0077335D01*
X0058000Y0077297D02*
X0057075Y0077297D01*
X0057075Y0077259D02*
X0058000Y0077259D01*
X0058000Y0077222D02*
X0057075Y0077222D01*
X0057075Y0077184D02*
X0058000Y0077184D01*
X0058000Y0077146D02*
X0057075Y0077146D01*
X0057075Y0077108D02*
X0058000Y0077108D01*
X0058000Y0077070D02*
X0057075Y0077070D01*
X0057075Y0077032D02*
X0058000Y0077032D01*
X0058000Y0076994D02*
X0057075Y0076994D01*
X0057075Y0076956D02*
X0058000Y0076956D01*
X0058000Y0076919D02*
X0057075Y0076919D01*
X0057075Y0076881D02*
X0058000Y0076881D01*
X0058000Y0076843D02*
X0057075Y0076843D01*
X0057075Y0076805D02*
X0058000Y0076805D01*
X0058000Y0076767D02*
X0057075Y0076767D01*
X0057075Y0076729D02*
X0058000Y0076729D01*
X0058000Y0076691D02*
X0057075Y0076691D01*
X0057075Y0076653D02*
X0058000Y0076653D01*
X0058000Y0076616D02*
X0057075Y0076616D01*
X0057075Y0076578D02*
X0058000Y0076578D01*
X0058000Y0076540D02*
X0057075Y0076540D01*
X0057075Y0076502D02*
X0058000Y0076502D01*
X0058000Y0076464D02*
X0057075Y0076464D01*
X0057075Y0076426D02*
X0058000Y0076426D01*
X0058000Y0076388D02*
X0057075Y0076388D01*
X0057075Y0076350D02*
X0058000Y0076350D01*
X0058000Y0076312D02*
X0057075Y0076312D01*
X0057075Y0076275D02*
X0058000Y0076275D01*
X0058000Y0076237D02*
X0057075Y0076237D01*
X0057075Y0076199D02*
X0058000Y0076199D01*
X0058000Y0076161D02*
X0057075Y0076161D01*
X0057075Y0076123D02*
X0058000Y0076123D01*
X0058000Y0076085D02*
X0057075Y0076085D01*
X0057075Y0076047D02*
X0058000Y0076047D01*
X0058000Y0076009D02*
X0057075Y0076009D01*
X0057075Y0075972D02*
X0058000Y0075972D01*
X0058000Y0075934D02*
X0057075Y0075934D01*
X0057075Y0075896D02*
X0058000Y0075896D01*
X0058000Y0075858D02*
X0057075Y0075858D01*
X0057075Y0075820D02*
X0058000Y0075820D01*
X0058000Y0075782D02*
X0057075Y0075782D01*
X0057075Y0075744D02*
X0058000Y0075744D01*
X0058000Y0075706D02*
X0057075Y0075706D01*
X0057075Y0075668D02*
X0058000Y0075668D01*
X0058000Y0075631D02*
X0057075Y0075631D01*
X0057075Y0075593D02*
X0058000Y0075593D01*
X0058000Y0075555D02*
X0057075Y0075555D01*
X0057075Y0075517D02*
X0058000Y0075517D01*
X0058000Y0075479D02*
X0057075Y0075479D01*
X0057075Y0075441D02*
X0058000Y0075441D01*
X0058000Y0075403D02*
X0057075Y0075403D01*
X0057075Y0075365D02*
X0058000Y0075365D01*
X0058000Y0075328D02*
X0057075Y0075328D01*
X0057075Y0075290D02*
X0058000Y0075290D01*
X0058000Y0075252D02*
X0057075Y0075252D01*
X0057075Y0075214D02*
X0058000Y0075214D01*
X0058000Y0075176D02*
X0057075Y0075176D01*
X0057075Y0075138D02*
X0058000Y0075138D01*
X0058000Y0075100D02*
X0057075Y0075100D01*
X0057075Y0075062D02*
X0058000Y0075062D01*
X0058000Y0075024D02*
X0057075Y0075024D01*
X0057075Y0074987D02*
X0058000Y0074987D01*
X0058000Y0074949D02*
X0057075Y0074949D01*
X0057075Y0074911D02*
X0058000Y0074911D01*
X0058000Y0074873D02*
X0057075Y0074873D01*
X0057075Y0074835D02*
X0058000Y0074835D01*
X0058000Y0074797D02*
X0057075Y0074797D01*
X0057075Y0074759D02*
X0058000Y0074759D01*
X0058000Y0074721D02*
X0057075Y0074721D01*
X0057075Y0074684D02*
X0058000Y0074684D01*
X0058000Y0074646D02*
X0057075Y0074646D01*
X0057075Y0074608D02*
X0058000Y0074608D01*
X0058000Y0074570D02*
X0057075Y0074570D01*
X0057075Y0074532D02*
X0058000Y0074532D01*
X0058000Y0074494D02*
X0057075Y0074494D01*
X0057075Y0074456D02*
X0058000Y0074456D01*
X0058000Y0074418D02*
X0057075Y0074418D01*
X0057075Y0074380D02*
X0058000Y0074380D01*
X0058000Y0074343D02*
X0057075Y0074343D01*
X0057075Y0074305D02*
X0058000Y0074305D01*
X0058000Y0074267D02*
X0057075Y0074267D01*
X0057075Y0074229D02*
X0058000Y0074229D01*
X0058000Y0074191D02*
X0057075Y0074191D01*
X0057075Y0074153D02*
X0058000Y0074153D01*
X0058000Y0074115D02*
X0057075Y0074115D01*
X0057075Y0074077D02*
X0058000Y0074077D01*
X0058000Y0074040D02*
X0057075Y0074040D01*
X0057075Y0074002D02*
X0058000Y0074002D01*
X0058000Y0073964D02*
X0057075Y0073964D01*
X0057075Y0073926D02*
X0058000Y0073926D01*
X0058000Y0073888D02*
X0057075Y0073888D01*
X0057075Y0073850D02*
X0058000Y0073850D01*
X0058000Y0073812D02*
X0057075Y0073812D01*
X0057075Y0073774D02*
X0058000Y0073774D01*
X0058000Y0073737D02*
X0057075Y0073737D01*
X0057075Y0073699D02*
X0058000Y0073699D01*
X0058000Y0073661D02*
X0057075Y0073661D01*
X0057075Y0073623D02*
X0058000Y0073623D01*
X0058000Y0073585D02*
X0057075Y0073585D01*
X0057075Y0073547D02*
X0058000Y0073547D01*
X0058000Y0073509D02*
X0057075Y0073509D01*
X0057075Y0073471D02*
X0058000Y0073471D01*
M02*
