%
M48
M72
T01C0.0150
T02C0.0400
T03C0.0512
%
T01
X15000Y24252
X14500Y25252
T02
X1500Y10252
X1500Y11252
X1500Y12252
X1500Y13252
X1500Y14252
X1500Y15252
X1500Y16252
X1500Y17252
X1500Y18252
X1500Y19252
X1500Y20752
X1500Y21752
X1500Y22752
X1500Y23752
X1500Y24752
X1500Y25752
X1500Y26752
X1500Y27752
X3500Y27752
X3500Y26752
X3500Y25752
X3500Y24752
X3500Y23752
X3500Y22752
X3500Y21752
X3500Y20752
X4500Y20752
X4500Y21752
X4500Y22752
X4500Y23752
X4500Y24752
X4500Y25752
X4500Y26752
X4500Y27752
X10450Y22252
X10450Y21252
X10450Y20252
X10450Y19252
X10450Y18252
X10450Y17252
X10450Y16252
X10450Y15252
X11550Y15252
X11550Y16252
X11550Y17252
X11550Y18252
X11550Y19252
X11550Y20252
X11550Y21252
X11550Y22252
X17500Y22752
X17500Y23752
X17500Y24752
X17500Y25752
X17500Y26752
X17500Y27752
X18500Y27752
X18500Y26752
X18500Y25752
X18500Y24752
X18500Y23752
X18500Y22752
X18500Y20752
X18500Y19752
X18500Y18752
X18500Y17752
X18500Y16752
X18500Y15752
X18500Y14752
X17500Y14752
X17500Y15752
X17500Y16752
X17500Y13752
X17500Y12752
X17500Y11752
X17500Y10752
X20500Y13752
X20500Y14752
X20500Y15752
X20500Y16752
X20500Y17752
X20500Y18752
X20500Y19752
X20500Y20752
X20500Y22752
X20500Y23752
X20500Y24752
X20500Y25752
X20500Y26752
X20500Y27752
X4500Y19252
X4500Y18252
X4500Y17252
X4500Y16252
X4500Y15252
X4500Y14252
X4500Y13252
X4500Y12252
X4500Y11252
X4500Y10252
X3500Y10252
X3500Y11252
X3500Y12252
X3500Y13252
X3500Y14252
X3500Y15252
X3500Y16252
X3500Y17252
X3500Y18252
X3500Y19252
T03
X10000Y7752
X11969Y7752
M30
