G75*
%MOIN*%
%OFA0B0*%
%FSLAX25Y25*%
%IPPOS*%
%LPD*%
%AMOC8*
5,1,8,0,0,1.08239X$1,22.5*
%
%ADD10C,0.00800*%
%ADD11C,0.00300*%
D10*
X0015000Y0062524D02*
X0160000Y0062524D01*
X0160000Y0072524D01*
X0215000Y0072524D01*
X0215000Y0287524D01*
X0205000Y0297524D01*
X0015000Y0297524D01*
X0005000Y0287524D01*
X0005000Y0072524D01*
X0015000Y0062524D01*
D11*
X0169850Y0066074D02*
X0169850Y0069774D01*
X0170878Y0069774D01*
X0170941Y0069772D01*
X0171004Y0069766D01*
X0171067Y0069756D01*
X0171129Y0069743D01*
X0171190Y0069726D01*
X0171249Y0069705D01*
X0171308Y0069680D01*
X0171364Y0069652D01*
X0171419Y0069620D01*
X0171472Y0069585D01*
X0171522Y0069547D01*
X0171571Y0069506D01*
X0171616Y0069462D01*
X0171659Y0069415D01*
X0171698Y0069366D01*
X0171735Y0069314D01*
X0171768Y0069260D01*
X0171798Y0069204D01*
X0171825Y0069147D01*
X0171848Y0069088D01*
X0171867Y0069027D01*
X0171882Y0068966D01*
X0171894Y0068904D01*
X0171902Y0068841D01*
X0171906Y0068778D01*
X0171906Y0068714D01*
X0171902Y0068651D01*
X0171894Y0068588D01*
X0171882Y0068526D01*
X0171867Y0068465D01*
X0171848Y0068404D01*
X0171825Y0068345D01*
X0171798Y0068288D01*
X0171768Y0068232D01*
X0171735Y0068178D01*
X0171698Y0068126D01*
X0171659Y0068077D01*
X0171616Y0068030D01*
X0171571Y0067986D01*
X0171522Y0067945D01*
X0171472Y0067907D01*
X0171419Y0067872D01*
X0171364Y0067840D01*
X0171308Y0067812D01*
X0171249Y0067787D01*
X0171190Y0067766D01*
X0171129Y0067749D01*
X0171067Y0067736D01*
X0171004Y0067726D01*
X0170941Y0067720D01*
X0170878Y0067718D01*
X0169850Y0067718D01*
X0171083Y0067718D02*
X0171906Y0066074D01*
X0173393Y0066896D02*
X0173393Y0067718D01*
X0173395Y0067774D01*
X0173401Y0067830D01*
X0173410Y0067885D01*
X0173423Y0067940D01*
X0173440Y0067993D01*
X0173461Y0068045D01*
X0173485Y0068096D01*
X0173513Y0068145D01*
X0173543Y0068192D01*
X0173577Y0068237D01*
X0173614Y0068279D01*
X0173654Y0068319D01*
X0173696Y0068356D01*
X0173741Y0068390D01*
X0173788Y0068420D01*
X0173837Y0068448D01*
X0173888Y0068472D01*
X0173940Y0068493D01*
X0173993Y0068510D01*
X0174048Y0068523D01*
X0174103Y0068532D01*
X0174159Y0068538D01*
X0174215Y0068540D01*
X0174271Y0068538D01*
X0174327Y0068532D01*
X0174382Y0068523D01*
X0174437Y0068510D01*
X0174490Y0068493D01*
X0174542Y0068472D01*
X0174593Y0068448D01*
X0174642Y0068420D01*
X0174689Y0068390D01*
X0174734Y0068356D01*
X0174776Y0068319D01*
X0174816Y0068279D01*
X0174853Y0068237D01*
X0174887Y0068192D01*
X0174917Y0068145D01*
X0174945Y0068096D01*
X0174969Y0068045D01*
X0174990Y0067993D01*
X0175007Y0067940D01*
X0175020Y0067885D01*
X0175029Y0067830D01*
X0175035Y0067774D01*
X0175037Y0067718D01*
X0175038Y0067718D02*
X0175038Y0066896D01*
X0175037Y0066896D02*
X0175035Y0066840D01*
X0175029Y0066784D01*
X0175020Y0066729D01*
X0175007Y0066674D01*
X0174990Y0066621D01*
X0174969Y0066569D01*
X0174945Y0066518D01*
X0174917Y0066469D01*
X0174887Y0066422D01*
X0174853Y0066377D01*
X0174816Y0066335D01*
X0174776Y0066295D01*
X0174734Y0066258D01*
X0174689Y0066224D01*
X0174642Y0066194D01*
X0174593Y0066166D01*
X0174542Y0066142D01*
X0174490Y0066121D01*
X0174437Y0066104D01*
X0174382Y0066091D01*
X0174327Y0066082D01*
X0174271Y0066076D01*
X0174215Y0066074D01*
X0174159Y0066076D01*
X0174103Y0066082D01*
X0174048Y0066091D01*
X0173993Y0066104D01*
X0173940Y0066121D01*
X0173888Y0066142D01*
X0173837Y0066166D01*
X0173788Y0066194D01*
X0173741Y0066224D01*
X0173696Y0066258D01*
X0173654Y0066295D01*
X0173614Y0066335D01*
X0173577Y0066377D01*
X0173543Y0066422D01*
X0173513Y0066469D01*
X0173485Y0066518D01*
X0173461Y0066569D01*
X0173440Y0066621D01*
X0173423Y0066674D01*
X0173410Y0066729D01*
X0173401Y0066784D01*
X0173395Y0066840D01*
X0173393Y0066896D01*
X0176633Y0066690D02*
X0176633Y0068540D01*
X0178277Y0068540D02*
X0178277Y0066074D01*
X0177250Y0066074D01*
X0177250Y0066073D02*
X0177202Y0066075D01*
X0177153Y0066081D01*
X0177106Y0066090D01*
X0177059Y0066103D01*
X0177014Y0066120D01*
X0176970Y0066140D01*
X0176928Y0066164D01*
X0176887Y0066191D01*
X0176849Y0066221D01*
X0176814Y0066254D01*
X0176781Y0066289D01*
X0176751Y0066327D01*
X0176724Y0066368D01*
X0176700Y0066410D01*
X0176680Y0066454D01*
X0176663Y0066499D01*
X0176650Y0066546D01*
X0176641Y0066593D01*
X0176635Y0066642D01*
X0176633Y0066690D01*
X0179570Y0068540D02*
X0180804Y0068540D01*
X0179982Y0069774D02*
X0179982Y0066690D01*
X0179981Y0066690D02*
X0179983Y0066642D01*
X0179989Y0066593D01*
X0179998Y0066546D01*
X0180011Y0066499D01*
X0180028Y0066454D01*
X0180048Y0066410D01*
X0180072Y0066368D01*
X0180099Y0066327D01*
X0180129Y0066289D01*
X0180162Y0066254D01*
X0180197Y0066221D01*
X0180235Y0066191D01*
X0180276Y0066164D01*
X0180318Y0066140D01*
X0180362Y0066120D01*
X0180407Y0066103D01*
X0180454Y0066090D01*
X0180501Y0066081D01*
X0180550Y0066075D01*
X0180598Y0066073D01*
X0180598Y0066074D02*
X0180804Y0066074D01*
X0182153Y0066690D02*
X0182153Y0067718D01*
X0182153Y0067307D02*
X0183797Y0067307D01*
X0183797Y0067718D01*
X0183795Y0067774D01*
X0183789Y0067830D01*
X0183780Y0067885D01*
X0183767Y0067940D01*
X0183750Y0067993D01*
X0183729Y0068045D01*
X0183705Y0068096D01*
X0183677Y0068145D01*
X0183647Y0068192D01*
X0183613Y0068237D01*
X0183576Y0068279D01*
X0183536Y0068319D01*
X0183494Y0068356D01*
X0183449Y0068390D01*
X0183402Y0068420D01*
X0183353Y0068448D01*
X0183302Y0068472D01*
X0183250Y0068493D01*
X0183197Y0068510D01*
X0183142Y0068523D01*
X0183087Y0068532D01*
X0183031Y0068538D01*
X0182975Y0068540D01*
X0182919Y0068538D01*
X0182863Y0068532D01*
X0182808Y0068523D01*
X0182753Y0068510D01*
X0182700Y0068493D01*
X0182648Y0068472D01*
X0182597Y0068448D01*
X0182548Y0068420D01*
X0182501Y0068390D01*
X0182456Y0068356D01*
X0182414Y0068319D01*
X0182374Y0068279D01*
X0182337Y0068237D01*
X0182303Y0068192D01*
X0182273Y0068145D01*
X0182245Y0068096D01*
X0182221Y0068045D01*
X0182200Y0067993D01*
X0182183Y0067940D01*
X0182170Y0067885D01*
X0182161Y0067830D01*
X0182155Y0067774D01*
X0182153Y0067718D01*
X0182153Y0066690D02*
X0182155Y0066642D01*
X0182161Y0066593D01*
X0182170Y0066546D01*
X0182183Y0066499D01*
X0182200Y0066454D01*
X0182220Y0066410D01*
X0182244Y0066368D01*
X0182271Y0066327D01*
X0182301Y0066289D01*
X0182334Y0066254D01*
X0182369Y0066221D01*
X0182407Y0066191D01*
X0182448Y0066164D01*
X0182490Y0066140D01*
X0182534Y0066120D01*
X0182579Y0066103D01*
X0182626Y0066090D01*
X0182673Y0066081D01*
X0182722Y0066075D01*
X0182770Y0066073D01*
X0182770Y0066074D02*
X0183797Y0066074D01*
X0187193Y0066896D02*
X0187193Y0067718D01*
X0187195Y0067774D01*
X0187201Y0067830D01*
X0187210Y0067885D01*
X0187223Y0067940D01*
X0187240Y0067993D01*
X0187261Y0068045D01*
X0187285Y0068096D01*
X0187313Y0068145D01*
X0187343Y0068192D01*
X0187377Y0068237D01*
X0187414Y0068279D01*
X0187454Y0068319D01*
X0187496Y0068356D01*
X0187541Y0068390D01*
X0187588Y0068420D01*
X0187637Y0068448D01*
X0187688Y0068472D01*
X0187740Y0068493D01*
X0187793Y0068510D01*
X0187848Y0068523D01*
X0187903Y0068532D01*
X0187959Y0068538D01*
X0188015Y0068540D01*
X0188071Y0068538D01*
X0188127Y0068532D01*
X0188182Y0068523D01*
X0188237Y0068510D01*
X0188290Y0068493D01*
X0188342Y0068472D01*
X0188393Y0068448D01*
X0188442Y0068420D01*
X0188489Y0068390D01*
X0188534Y0068356D01*
X0188576Y0068319D01*
X0188616Y0068279D01*
X0188653Y0068237D01*
X0188687Y0068192D01*
X0188717Y0068145D01*
X0188745Y0068096D01*
X0188769Y0068045D01*
X0188790Y0067993D01*
X0188807Y0067940D01*
X0188820Y0067885D01*
X0188829Y0067830D01*
X0188835Y0067774D01*
X0188837Y0067718D01*
X0188837Y0066896D01*
X0188835Y0066840D01*
X0188829Y0066784D01*
X0188820Y0066729D01*
X0188807Y0066674D01*
X0188790Y0066621D01*
X0188769Y0066569D01*
X0188745Y0066518D01*
X0188717Y0066469D01*
X0188687Y0066422D01*
X0188653Y0066377D01*
X0188616Y0066335D01*
X0188576Y0066295D01*
X0188534Y0066258D01*
X0188489Y0066224D01*
X0188442Y0066194D01*
X0188393Y0066166D01*
X0188342Y0066142D01*
X0188290Y0066121D01*
X0188237Y0066104D01*
X0188182Y0066091D01*
X0188127Y0066082D01*
X0188071Y0066076D01*
X0188015Y0066074D01*
X0187959Y0066076D01*
X0187903Y0066082D01*
X0187848Y0066091D01*
X0187793Y0066104D01*
X0187740Y0066121D01*
X0187688Y0066142D01*
X0187637Y0066166D01*
X0187588Y0066194D01*
X0187541Y0066224D01*
X0187496Y0066258D01*
X0187454Y0066295D01*
X0187414Y0066335D01*
X0187377Y0066377D01*
X0187343Y0066422D01*
X0187313Y0066469D01*
X0187285Y0066518D01*
X0187261Y0066569D01*
X0187240Y0066621D01*
X0187223Y0066674D01*
X0187210Y0066729D01*
X0187201Y0066784D01*
X0187195Y0066840D01*
X0187193Y0066896D01*
X0190433Y0066690D02*
X0190433Y0068540D01*
X0192077Y0068540D02*
X0192077Y0066074D01*
X0191050Y0066074D01*
X0191050Y0066073D02*
X0191002Y0066075D01*
X0190953Y0066081D01*
X0190906Y0066090D01*
X0190859Y0066103D01*
X0190814Y0066120D01*
X0190770Y0066140D01*
X0190728Y0066164D01*
X0190687Y0066191D01*
X0190649Y0066221D01*
X0190614Y0066254D01*
X0190581Y0066289D01*
X0190551Y0066327D01*
X0190524Y0066368D01*
X0190500Y0066410D01*
X0190480Y0066454D01*
X0190463Y0066499D01*
X0190450Y0066546D01*
X0190441Y0066593D01*
X0190435Y0066642D01*
X0190433Y0066690D01*
X0193781Y0066690D02*
X0193781Y0069774D01*
X0193370Y0068540D02*
X0194604Y0068540D01*
X0193781Y0066690D02*
X0193783Y0066642D01*
X0193789Y0066593D01*
X0193798Y0066546D01*
X0193811Y0066499D01*
X0193828Y0066454D01*
X0193848Y0066410D01*
X0193872Y0066368D01*
X0193899Y0066327D01*
X0193929Y0066289D01*
X0193962Y0066254D01*
X0193997Y0066221D01*
X0194035Y0066191D01*
X0194076Y0066164D01*
X0194118Y0066140D01*
X0194162Y0066120D01*
X0194207Y0066103D01*
X0194254Y0066090D01*
X0194301Y0066081D01*
X0194350Y0066075D01*
X0194398Y0066073D01*
X0194398Y0066074D02*
X0194604Y0066074D01*
M02*
